<?xml version="1.0" encoding="UTF-8" standalone="no"?><!DOCTYPE svg PUBLIC "-//W3C//DTD SVG 1.1//EN" "http://www.w3.org/Graphics/SVG/1.1/DTD/svg11.dtd"><svg width="100%" height="100%" viewBox="0 0 30 30" version="1.1" xmlns="http://www.w3.org/2000/svg" xmlns:xlink="http://www.w3.org/1999/xlink" xml:space="preserve" xmlns:serif="http://www.serif.com/" style="fill-rule:evenodd;clip-rule:evenodd;stroke-linejoin:round;stroke-miterlimit:2;"><g><g><path d="M8.718,15.518c-0.094,0.52 -0.145,1 -0.145,1.425c-0,3.473 2.819,6.293 6.292,6.293c3.474,-0 6.293,-2.82 6.293,-6.293c0,-4.351 -5.42,-14.503 -6.293,-14.503c-0.403,0 -1.777,2.168 -3.139,4.929c1.074,0.833 1.766,2.136 1.766,3.6c-0,2.513 -2.041,4.554 -4.555,4.554c-0.073,0 -0.146,-0.002 -0.219,-0.005Z"/></g><g><ellipse cx="23.455" cy="7.918" rx="2.383" ry="2.383"/></g><g><ellipse cx="19.144" cy="3.015" rx="1.236" ry="1.236"/></g><g><ellipse cx="8.937" cy="10.969" rx="2.402" ry="2.402"/></g></g><g><path d="M0,17.216l4.874,0c-0.021,0.262 -0.032,0.526 -0.032,0.793c0,5.466 4.438,9.903 9.904,9.903c5.466,0 9.903,-4.437 9.903,-9.903c0,-0.267 -0.011,-0.531 -0.031,-0.793l5.382,0l-0,12.784l-30,-0l0,-12.784Z"/></g></svg>