<?xml version="1.0" encoding="UTF-8" standalone="no"?>
<!DOCTYPE svg PUBLIC "-//W3C//DTD SVG 1.1//EN" "http://www.w3.org/Graphics/SVG/1.1/DTD/svg11.dtd">
<svg width="100%" height="100%" viewBox="0 0 30 30" version="1.1" xmlns="http://www.w3.org/2000/svg" xmlns:xlink="http://www.w3.org/1999/xlink" xml:space="preserve" xmlns:serif="http://www.serif.com/" style="fill-rule:evenodd;clip-rule:evenodd;stroke-linejoin:round;stroke-miterlimit:2;">
    <g transform="matrix(0.0422913,0.0378736,-0.0494937,0.0552668,13.834,-7.1103)">
        <rect x="126.436" y="88.699" width="275.196" height="164.135"/>
    </g>
    <g transform="matrix(0.0310423,0.0279986,-0.0367138,0.0407048,25.9887,1.46512)">
        <path d="M261.158,149.718C261.158,145.25 256.402,141.623 250.543,141.623L229.314,141.623C223.455,141.623 218.699,145.25 218.699,149.718L218.699,374.914C218.699,379.381 223.455,383.009 229.314,383.009L250.543,383.009C256.402,383.009 261.158,379.381 261.158,374.914L261.158,149.718Z"/>
    </g>
    <g transform="matrix(0.0310423,0.0279986,-0.0367138,0.0407048,11.4832,-11.5097)">
        <path d="M261.158,149.718C261.158,145.25 256.402,141.623 250.543,141.623L229.314,141.623C223.455,141.623 218.699,145.25 218.699,149.718L218.699,374.914C218.699,379.381 223.455,383.009 229.314,383.009L250.543,383.009C256.402,383.009 261.158,379.381 261.158,374.914L261.158,149.718Z"/>
    </g>
    <g transform="matrix(0.0358753,0.0329147,-0.123437,0.13454,58.0162,-46.0585)">
        <path d="M219.245,426.866L147.285,426.866L147.285,477.926C147.285,480.573 155.346,482.723 165.275,482.723L201.255,482.723C211.184,482.723 219.245,480.573 219.245,477.926L219.245,426.866Z"/>
    </g>
    <g transform="matrix(0.047662,0.0437287,-0.0436449,0.0475706,14.4018,-2.87063)">
        <path d="M219.245,440.83C219.245,433.123 213,426.866 205.308,426.866L161.223,426.866C153.53,426.866 147.285,433.123 147.285,440.83L147.285,468.759C147.285,476.466 153.53,482.723 161.223,482.723L205.308,482.723C213,482.723 219.245,476.466 219.245,468.759L219.245,440.83Z"/>
    </g>
</svg>
