<?xml version="1.0" encoding="UTF-8" standalone="no"?>
<!DOCTYPE svg PUBLIC "-//W3C//DTD SVG 1.1//EN" "http://www.w3.org/Graphics/SVG/1.1/DTD/svg11.dtd">
<svg width="100%" height="100%" viewBox="0 0 30 30" version="1.1" xmlns="http://www.w3.org/2000/svg" xmlns:xlink="http://www.w3.org/1999/xlink" xml:space="preserve" xmlns:serif="http://www.serif.com/" style="fill-rule:evenodd;clip-rule:evenodd;stroke-linejoin:round;stroke-miterlimit:2;">
    <g transform="matrix(0.065739,0,0,0.065739,-1.37319,-1.68566)">
        <path d="M118.325,197.764L60.374,164.306L77.2,135.163L139.527,171.148L118.771,115.311L147.737,104.543L181.506,195.384L232.238,224.674L232.238,163.487L172.985,89.659L197.086,70.316L206.758,82.367C206.758,82.367 220.524,99.519 232.238,114.115L232.238,45.651L265.89,45.651L265.89,113.276L301.467,70.283L325.276,89.985L265.89,161.75L265.89,224.674L315.06,196.286L350.79,104.409L379.592,115.609L373.991,130.01C373.991,130.01 364.852,153.511 357.818,171.6L420.929,135.163L437.754,164.306L380.578,197.317L431.811,205.989L426.653,236.459L338.599,221.553L282.716,253.817L329.407,280.774L426.918,265.766L431.619,296.31L416.347,298.66C416.347,298.66 391.357,302.507 372.164,305.461L437.754,343.329L420.929,372.472L361.379,338.092L379.457,386.723L350.491,397.491L319.4,313.855L265.89,282.961L265.89,338.422L325.243,412.374L301.142,431.717L291.47,419.667C291.47,419.667 277.626,402.417 265.89,387.794L265.89,461.984L232.238,461.984L232.238,388.878L196.761,431.75L172.952,412.049L232.238,340.405L232.238,282.961L180.388,312.896L147.439,397.625L118.637,386.424L124.237,372.023C124.237,372.023 131.187,354.152 137.63,337.583L77.2,372.472L60.374,343.329L125.075,305.974L66.418,296.044L71.575,265.575L167.054,281.737L215.412,253.817L161.083,222.45L71.31,236.267L66.609,205.724L81.881,203.373C81.881,203.373 100.777,200.465 118.325,197.764Z"/>
    </g>
</svg>
