<?xml version="1.0" encoding="UTF-8" standalone="no"?><!DOCTYPE svg PUBLIC "-//W3C//DTD SVG 1.1//EN" "http://www.w3.org/Graphics/SVG/1.1/DTD/svg11.dtd"><svg width="100%" height="100%" viewBox="0 0 30 30" version="1.1" xmlns="http://www.w3.org/2000/svg" xmlns:xlink="http://www.w3.org/1999/xlink" xml:space="preserve" xmlns:serif="http://www.serif.com/" style="fill-rule:evenodd;clip-rule:evenodd;stroke-linejoin:round;stroke-miterlimit:2;"><g><path d="M11.608,-0l17.22,-0l-9.628,6.171l5.25,6.763l-13.68,12.051l4.994,-11.379l-8.944,-8.983l4.788,-4.623Z"/></g><g><path d="M18.062,22.157l9.95,-2.785l-0.901,3.297l-8.97,0.469c0,-0.024 0,-0.048 0,-0.072c0,-0.31 -0.027,-0.614 -0.079,-0.909Z"/></g><g><path d="M8.985,19.734l-6.23,-7.1l2.639,-0.138l4.142,6.676c-0.198,0.173 -0.382,0.361 -0.551,0.562Z"/></g><g><path d="M8.406,25.551l-4.616,2.958l0.241,-2.489l4.011,-1.3c0.097,0.289 0.219,0.567 0.364,0.831Z"/></g><g><path d="M18.02,24.187l8.519,0.574l-0.522,1.91l-8.139,-1.969c0.056,-0.168 0.103,-0.34 0.142,-0.515Z"/></g><g><path d="M10.482,18.51l-2.923,-6.128l1.978,-0.103l1.618,5.924c-0.233,0.087 -0.457,0.189 -0.673,0.307Z"/></g><g><path d="M7.831,23.848l-3.647,0.592l0.139,-1.442l3.452,0.233c0.006,0.209 0.025,0.415 0.056,0.617Z"/></g></svg>