<?xml version="1.0" encoding="UTF-8" standalone="no"?><!DOCTYPE svg PUBLIC "-//W3C//DTD SVG 1.1//EN" "http://www.w3.org/Graphics/SVG/1.1/DTD/svg11.dtd"><svg width="100%" height="100%" viewBox="0 0 30 30" version="1.1" xmlns="http://www.w3.org/2000/svg" xmlns:xlink="http://www.w3.org/1999/xlink" xml:space="preserve" xmlns:serif="http://www.serif.com/" style="fill-rule:evenodd;clip-rule:evenodd;stroke-linejoin:round;stroke-miterlimit:2;"><g><path d="M0.869,30c0.531,-1.192 1.108,-2.367 1.731,-3.525c0.124,-0.337 0.499,-0.51 0.836,-0.386l1.222,0.45c0.337,0.124 0.51,0.498 0.386,0.835c-0.496,0.862 -0.961,1.737 -1.395,2.626l-2.78,-0Zm12.829,-0l-0,-1.309c-2.01,-0.052 -4.021,-0.221 -6.031,-0.506c-0.359,-0 -0.651,-0.292 -0.651,-0.651l0,-1.302c0,-0.359 0.292,-0.651 0.651,-0.651c2.001,0.344 4.011,0.546 6.031,0.605l-0,-2.133c-0.812,-0.007 -1.622,-0.047 -2.431,-0.12c-0.651,-0.06 -0.995,-0.078 -1.595,-0.343c-0.173,-0.076 -0.283,-0.179 -0.306,-0.374c-0.286,-2.326 -0.933,-4.731 -1.215,-7.057c-0.191,-1.575 -2.597,-0.82 -2.593,-2.543c0.002,-0.871 0.09,-1.822 0.263,-2.853c0.679,-4.046 2.776,-8.118 7.325,-8.97c0.409,-0.077 0.875,-0.129 1.397,-0.157c0.011,-0.001 0.904,-0.001 0.914,-0c0.522,0.028 0.988,0.08 1.397,0.157c4.549,0.852 6.646,4.924 7.325,8.97c0.173,1.031 0.261,1.982 0.263,2.853c0.003,1.723 -2.402,0.968 -2.593,2.543c-0.282,2.326 -0.986,4.653 -1.272,6.979c-0.023,0.195 -0.133,0.298 -0.306,0.375c-0.6,0.264 -0.886,0.36 -1.538,0.42c-0.809,0.073 -1.619,0.113 -2.431,0.12l0,2.131c2.001,-0.062 4.012,-0.263 6.031,-0.603c0.36,-0 0.651,0.292 0.651,0.651l0,1.302c0,0.359 -0.291,0.651 -0.651,0.651c-2.01,0.289 -4.021,0.457 -6.031,0.507l0,1.308l-2.604,-0Zm12.653,-0c-0.434,-0.889 -0.899,-1.764 -1.395,-2.626c-0.124,-0.337 0.049,-0.711 0.386,-0.835l1.222,-0.45c0.337,-0.124 0.712,0.049 0.836,0.386c0.622,1.158 1.2,2.333 1.731,3.525l-2.78,-0Zm-10.408,-9.179c0.01,-0 0.019,0.007 0.019,0.015l-0.001,1.173c-0,0.011 0.009,0.02 0.021,0.02l0.924,0c0.011,0 0.02,-0.009 0.02,-0.02l-0.001,-1.168c-0,-0.011 0.009,-0.02 0.019,-0.02l1.453,0.002c0.012,-0 0.021,0.009 0.021,0.02l-0,1.166c-0,0.011 0.009,0.02 0.021,0.02l0.934,0c0.011,0 0.02,-0.009 0.02,-0.02l-0.001,-1.168c-0,-0.011 0.009,-0.019 0.02,-0.019l1.231,0.001c0.011,-0 0.021,-0.009 0.021,-0.02l-0,-0.907c-0,-0.011 -0.01,-0.02 -0.021,-0.02l-1.229,0c-0.011,0 -0.021,-0.009 -0.021,-0.02l0,-1.156c0,-0.011 -0.009,-0.02 -0.02,-0.02l-0.934,-0c-0.012,-0 -0.021,0.009 -0.021,0.02l-0,1.156c-0,0.011 -0.009,0.02 -0.021,0.02l-1.45,0c-0.011,0 -0.021,-0.009 -0.021,-0.02l0,-1.156c0,-0.011 -0.009,-0.02 -0.02,-0.02l-0.924,-0c-0.012,-0 -0.021,0.009 -0.021,0.02l-0,1.156c-0,0.011 -0.009,0.02 -0.02,0.02l-1.472,0.017l0,-1.213l-0.911,-0c-0.011,-0 -0.021,0.009 -0.021,0.02l0,1.156c0,0.011 -0.009,0.02 -0.02,0.02l-0.556,0c-0.011,0 -0.02,-0.009 -0.02,-0.02l-0.624,0c-0,0.011 -0.01,0.02 -0.021,0.02l-0.708,0c-0.012,0 -0.021,-0.009 -0.021,-0.02l0,-1.156c0,-0.011 -0.009,-0.02 -0.02,-0.02l-0.935,-0c-0.011,-0 -0.02,0.009 -0.02,0.02l-0,1.156c-0,0.011 -0.01,0.02 -0.021,0.02l-1.214,0c-0.011,0 -0.021,0.009 -0.021,0.02l0,0.907c0,0.011 0.01,0.02 0.021,0.02l1.217,-0.001c0.01,-0 0.019,0.008 0.019,0.019l-0.001,1.168c0,0.011 0.009,0.02 0.02,0.02l0.935,0c0.011,0 0.02,-0.009 0.02,-0.02l0,-1.166c0,-0.011 0.009,-0.02 0.021,-0.02l0.711,-0.002c0.011,0 0.019,0.009 0.019,0.02l0.622,-0.005c0,-0.008 0.008,-0.015 0.018,-0.015l0.561,-0c0.01,-0 0.019,0.007 0.019,0.015l-0.001,1.173c0,0.011 0.01,0.02 0.021,0.02l0.911,0l0,-1.198l1.474,-0.01Zm4.421,-5.375c1.165,-0.684 1.515,-2.282 1.488,-3.474c-0.009,-0.362 -1.106,-0.519 -1.374,-0.548c-0.945,-0.103 -1.978,0.659 -2.986,0.861c-0.251,0.05 -0.846,0.19 -0.922,0.463c-0.257,0.929 -0.535,1.471 0.244,2.235c0.14,0.137 0.331,0.26 0.575,0.369c0.894,0.402 2.094,0.612 2.975,0.094Zm-10.729,-0c0.882,0.518 2.082,0.308 2.976,-0.094c0.244,-0.109 0.435,-0.232 0.574,-0.369c0.78,-0.764 0.717,-1.306 0.46,-2.235c-0.076,-0.273 -0.672,-0.413 -0.922,-0.463c-1.008,-0.202 -2.257,-0.964 -3.201,-0.861c-0.268,0.029 -1.365,0.186 -1.374,0.548c-0.027,1.192 0.323,2.79 1.487,3.474Zm7.062,2.028c0.018,0.004 -1.602,-2.705 -1.602,-2.705c0,0.007 -1.69,2.701 -1.69,2.701c-0.01,0.016 1.627,-0.562 1.627,-0.561l1.665,0.565Z"/></g></svg>