<?xml version="1.0" encoding="UTF-8" standalone="no"?><!DOCTYPE svg PUBLIC "-//W3C//DTD SVG 1.1//EN" "http://www.w3.org/Graphics/SVG/1.1/DTD/svg11.dtd"><svg width="100%" height="100%" viewBox="0 0 30 30" version="1.1" xmlns="http://www.w3.org/2000/svg" xmlns:xlink="http://www.w3.org/1999/xlink" xml:space="preserve" xmlns:serif="http://www.serif.com/" style="fill-rule:evenodd;clip-rule:evenodd;stroke-linejoin:round;stroke-miterlimit:2;"><g><path d="M3.2,-0l4.342,4.341l-0.535,0.535l2.121,2.162l1.161,-1.161c-0,0 13.435,17.278 13.062,17.651c-0.372,0.372 -17.625,-13.087 -17.625,-13.087l1.148,-1.148l-2.19,-2.094l-0.444,0.444l-4.24,-4.24l0,-3.403l3.2,-0Zm0.926,30c1.237,-2.579 3.564,-6.712 7.506,-11.358c0.769,-0.907 13.292,8.289 14.165,7.383c0.775,-0.806 -8.3,-13.853 -7.442,-14.641c3.478,-3.196 6.967,-5.461 11.645,-7.472l-0,26.088l-25.874,-0Zm12.87,-20.397l-3.572,-7.654l2.839,-0.761l0.733,8.415Zm-7.041,7.309l-8.413,0.75l0.252,-2.928l8.161,2.178Zm7.816,-7.622l0.974,-7.035l2.351,0.759l-3.325,6.276Zm-7.988,8.439l-5.598,4.372l-1.159,-2.182l6.757,-2.19Z"/></g></svg>