<?xml version="1.0" encoding="UTF-8" standalone="no"?>
<!DOCTYPE svg PUBLIC "-//W3C//DTD SVG 1.1//EN" "http://www.w3.org/Graphics/SVG/1.1/DTD/svg11.dtd">
<svg width="100%" height="100%" viewBox="0 0 30 30" version="1.1" xmlns="http://www.w3.org/2000/svg" xmlns:xlink="http://www.w3.org/1999/xlink" xml:space="preserve" xmlns:serif="http://www.serif.com/" style="fill-rule:evenodd;clip-rule:evenodd;stroke-linejoin:round;stroke-miterlimit:2;">
    <g>
        <path d="M14.828,0.707C14.828,0.707 25.451,13.287 25.451,18.679C25.451,24.542 20.691,29.302 14.828,29.302C8.965,29.302 4.204,24.542 4.204,18.679C4.204,13.287 14.828,0.707 14.828,0.707ZM17.774,23.813C18.254,23.742 18.672,23.65 18.991,23.536C19.502,23.354 19.377,20.534 19.412,20.246C19.54,19.188 21.15,19.696 21.148,18.538C21.146,17.953 21.088,17.314 20.972,16.622C20.517,13.905 19.113,11.17 16.068,10.598C15.795,10.546 15.483,10.511 15.134,10.493C15.127,10.492 15.12,10.497 15.12,10.503L14.536,10.511L14.535,10.503C14.535,10.497 14.529,10.492 14.522,10.493C14.172,10.511 13.86,10.546 13.587,10.598C10.542,11.17 9.138,13.905 8.683,16.622C8.568,17.314 8.509,17.953 8.508,18.538C8.505,19.696 10.115,19.188 10.243,20.246C10.275,20.505 10.16,23.293 10.586,23.466C10.911,23.598 11.358,23.706 11.882,23.788L11.882,22.668L12.937,22.668L12.937,23.914C13.373,23.952 13.833,23.977 14.3,23.989L14.3,22.668L15.355,22.668L15.355,23.993C15.822,23.985 16.282,23.964 16.718,23.93L16.718,22.668L17.774,22.668L17.774,23.813ZM18.418,19.767C17.829,20.115 17.025,19.974 16.427,19.704C16.264,19.631 16.135,19.548 16.042,19.456C15.521,18.943 15.706,18.579 15.879,17.955C15.929,17.772 16.328,17.678 16.496,17.644C17.17,17.509 17.862,16.997 18.494,17.066C18.674,17.085 19.408,17.191 19.414,17.434C19.432,18.235 19.198,19.308 18.418,19.767ZM15.963,21.129L14.849,20.749C14.849,20.749 13.753,21.137 13.76,21.127C13.76,21.127 14.891,19.317 14.891,19.312C14.891,19.312 15.976,21.132 15.963,21.129ZM11.237,19.767C10.458,19.308 10.223,18.235 10.241,17.434C10.247,17.191 10.981,17.085 11.161,17.066C11.793,16.997 12.629,17.509 13.303,17.644C13.471,17.678 13.87,17.772 13.92,17.955C14.092,18.579 14.135,18.943 13.613,19.456C13.52,19.548 13.392,19.631 13.228,19.704C12.63,19.974 11.827,20.115 11.237,19.767Z"/>
    </g>
    <g transform="matrix(1.21323,0,0,1.21323,-1.08254,-0.663916)">
        <circle cx="4.864" cy="4.939" r="1.639"/>
    </g>
    <g transform="matrix(1.27956,0,0,1.27956,18.116,1.27286)">
        <circle cx="4.864" cy="4.939" r="1.639"/>
    </g>
    <g transform="matrix(0.658599,0,0,0.658599,22.4958,-0.580086)">
        <circle cx="4.864" cy="4.939" r="1.639"/>
    </g>
    <g transform="matrix(0.658599,0,0,0.658599,1.46997,7.10493)">
        <circle cx="4.864" cy="4.939" r="1.639"/>
    </g>
    <g transform="matrix(0.43739,0,0,0.43739,7.43209,0.839154)">
        <circle cx="4.864" cy="4.939" r="1.639"/>
    </g>
    <g transform="matrix(0.43739,0,0,0.43739,18.3738,1.65882)">
        <circle cx="4.864" cy="4.939" r="1.639"/>
    </g>
</svg>
