<?xml version="1.0" encoding="UTF-8" standalone="no"?><!DOCTYPE svg PUBLIC "-//W3C//DTD SVG 1.1//EN" "http://www.w3.org/Graphics/SVG/1.1/DTD/svg11.dtd"><svg width="100%" height="100%" viewBox="0 0 30 30" version="1.1" xmlns="http://www.w3.org/2000/svg" xmlns:xlink="http://www.w3.org/1999/xlink" xml:space="preserve" xmlns:serif="http://www.serif.com/" style="fill-rule:evenodd;clip-rule:evenodd;stroke-linejoin:round;stroke-miterlimit:2;"><g><path d="M30,11.223l-4.33,-2.294l4.33,0.599l-0,1.695Zm-0,-3.368l-4.601,0.401l4.601,-2.147l-0,1.746Zm-0,-5.555c-4.464,3.43 -11.361,8.666 -11.579,8.448c-0.196,-0.196 3.748,-6.12 6.879,-10.748l4.7,-0l-0,2.3Zm-8.85,-2.3l-1.131,4.241l-0.378,-4.241l1.509,-0Zm-3.167,-0l1.326,4.092l-3.376,-4.092l2.05,-0Zm-13.883,8.807c1.034,-0.183 2.084,-0.119 3.125,2.061l0.216,0.453l1.44,-0.992l-0.217,-0.453c-0.814,-1.707 -1.993,-2.38 -3.078,-2.591c2.462,-2.666 4.598,-1.97 5.708,-1.612c-0.537,0.842 -0.784,1.952 -0.181,3.342l0.2,0.462l1.414,-0.231l-0.2,-0.461c-0.556,-1.283 -0.078,-2.226 0.532,-2.851c0.201,-0.206 0.416,-0.38 0.618,-0.522c2.065,-0.575 3.754,0.256 3.754,0.256c0.778,0.494 0.552,1.493 0.111,2.905c-0.806,2.592 -0.989,3.808 -0.877,4.213c0.396,1.444 6.032,-2.391 6.032,-2.391l0.767,1.133c0.211,1.218 0.016,2.039 -0.363,2.59c-0.678,0.986 -1.875,1.065 -1.875,1.065l-0.466,0.033l0.62,1.428l0.466,-0.033c0,0 1.632,-0.12 2.562,-1.471c0.399,-0.581 0.685,-1.397 0.629,-2.547l3.486,2.216c-0.044,3.054 -1.13,3.791 -1.979,4.295c-0.277,0.119 -0.695,0.266 -1.172,0.329c-0.803,0.107 -1.785,-0.033 -2.482,-1.067l-0.277,-0.412l-1.075,1.164l0.277,0.411c0.944,1.4 2.261,1.62 3.347,1.476c0.086,-0.012 0.171,-0.025 0.254,-0.041c-0.592,1.868 -2.444,2.227 -2.444,2.227l-0.347,3.622l-1.293,0.696c-0.336,-3.424 -2.312,-4.739 -3.686,-5.246c0.788,-0.488 1.569,-1.221 1.986,-2.295l0.007,0l-0.001,-0.015c0.145,-0.378 0.245,-0.797 0.286,-1.262l0.044,-0.509l-1.371,-0.152l-0.045,0.509c-0.012,0.141 -0.032,0.277 -0.058,0.407c-0.663,0.032 -1.148,-0.116 -1.499,-0.361c-0.84,-0.585 -0.89,-1.68 -0.89,-1.68l-0.025,-0.511l-1.476,0.425l0.024,0.51c-0,-0 0.053,1.19 0.85,2.073c0.434,0.481 1.089,0.888 2.089,0.937c-0.379,0.65 -0.397,0.733 -0.94,1.049c-0.919,0.534 -1.803,0.684 -1.803,0.684c-1.329,0.032 -2.364,-0.178 -2.364,-0.178c-2.184,-0.304 -2.677,-2.104 -2.771,-3.202c0.13,-0.908 0.522,-1.947 1.529,-2.65c1.355,-0.947 1.884,-1.971 2.067,-2.824c0.192,-0.889 0.008,-1.615 -0.095,-1.95l-0.148,-0.486l-1.462,0.065l0.147,0.484c0.073,0.24 0.209,0.758 0.072,1.393c-0.145,0.671 -0.593,1.45 -1.661,2.196c-0.132,0.092 -1.851,-1.999 -1.967,-1.898c-0.167,0.145 -1.013,0.985 -1.148,1.145c-0.128,0.15 1.895,2.086 1.792,2.246c-0.405,0.632 -0.472,1.044 -0.582,1.689c-1.104,0.548 -1.198,0.701 -1.198,0.701c-3.356,-0 -2.342,-3.449 -2.342,-3.449c-2.371,-0.635 -2.296,-3.063 -2.296,-3.063c-0.147,-2.029 0.848,-3.014 1.703,-3.484Z"/></g></svg>