<?xml version="1.0" encoding="UTF-8" standalone="no"?><!DOCTYPE svg PUBLIC "-//W3C//DTD SVG 1.1//EN" "http://www.w3.org/Graphics/SVG/1.1/DTD/svg11.dtd"><svg width="100%" height="100%" viewBox="0 0 30 30" version="1.1" xmlns="http://www.w3.org/2000/svg" xmlns:xlink="http://www.w3.org/1999/xlink" xml:space="preserve" xmlns:serif="http://www.serif.com/" style="fill-rule:evenodd;clip-rule:evenodd;stroke-linejoin:round;stroke-miterlimit:2;"><g><path d="M14.405,-0l-0.516,9.417l-4.137,-7.086l2.086,7.936l-11.456,-10.267l14.023,-0Zm-14.405,0.382l10.267,11.456l-7.936,-2.086l7.086,4.137l-9.417,0.515l0,-14.022Zm0,15.214l9.417,0.515l-7.086,4.137l7.936,-2.086l-10.267,11.456l0,-14.022Zm0.381,14.404l11.457,-10.267l-2.086,7.936l4.137,-7.086l0.516,9.417l-14.024,-0Zm15.214,-0l0.516,-9.417l4.137,7.086l-2.086,-7.936l11.457,10.267l-14.024,-0Zm14.405,-0.382l-10.267,-11.456l7.936,2.086l-7.086,-4.137l9.417,-0.516l-0,14.023Zm-0,-15.213l-9.417,-0.516l7.086,-4.137l-7.936,2.086l10.267,-11.456l-0,14.023Zm-0.382,-14.405l-11.456,10.267l2.086,-7.936l-4.137,7.086l-0.516,-9.417l14.023,0Z"/></g></svg>