<?xml version="1.0" encoding="UTF-8" standalone="no"?>
<!DOCTYPE svg PUBLIC "-//W3C//DTD SVG 1.1//EN" "http://www.w3.org/Graphics/SVG/1.1/DTD/svg11.dtd">
<svg width="100%" height="100%" viewBox="0 0 30 30" version="1.1" xmlns="http://www.w3.org/2000/svg" xmlns:xlink="http://www.w3.org/1999/xlink" xml:space="preserve" xmlns:serif="http://www.serif.com/" style="fill-rule:evenodd;clip-rule:evenodd;stroke-linejoin:round;stroke-miterlimit:2;">
    <g transform="matrix(0.0402233,0,0,0.0435422,-27.1988,-16.8884)">
        <g transform="matrix(23.746,0,0,21.936,670.838,428.387)">
            <path d="M2.115,5.648L3.49,16.156L4.622,15.477L7,21.025L7.17,22.44L8.245,22.553L9.661,24.421L12.728,25.132L15.379,27.313L21.839,28.904L19.869,25.202L18.091,25.145L13.392,21.522L13.902,20.163L11.524,19.088L9.599,15.634C9.599,15.634 12.09,17.106 11.354,16.201C10.618,15.295 6.033,10.37 6.033,10.37L6.259,8.162L1.481,2.138L2.115,5.648Z"/>
        </g>
        <g transform="matrix(28.1936,0,0,26.0446,621.88,341.036)">
            <path d="M9.271,3.814L11.49,11.423L11.988,8.615L15.294,18.442L17.423,18.941L20.729,22.02L23.945,24.511L21.997,17.31L21.001,18.442L18.736,12.419C18.736,12.419 17.423,12.827 17.015,12.374C16.608,11.921 14.706,8.388 14.706,8.388L9.316,2.591L9.271,3.814Z"/>
        </g>
        <g transform="matrix(34.7015,0,0,32.0564,465.609,251.095)">
            <path d="M18.057,4.856L22.586,7.346L22.178,8.977L25.077,12.6L25.303,14.366L25.983,16.948L22.495,13.506L21.771,10.97L19.733,8.162L18.057,4.856Z"/>
        </g>
    </g>
</svg>
