<?xml version="1.0" encoding="UTF-8" standalone="no"?><!DOCTYPE svg PUBLIC "-//W3C//DTD SVG 1.1//EN" "http://www.w3.org/Graphics/SVG/1.1/DTD/svg11.dtd"><svg width="100%" height="100%" viewBox="0 0 30 30" version="1.1" xmlns="http://www.w3.org/2000/svg" xmlns:xlink="http://www.w3.org/1999/xlink" xml:space="preserve" xmlns:serif="http://www.serif.com/" style="fill-rule:evenodd;clip-rule:evenodd;stroke-linejoin:round;stroke-miterlimit:2;"><g><path d="M10.915,-0l2.729,7.035l-4.019,9.898l4.058,2.883c0,0 -5.844,8.508 -6.524,8.518c-0.492,0.009 0.006,-6.057 0.006,-6.057l-5.447,-3.034l3.394,-7.823l-5.112,-2.794l-0,-8.626l10.915,-0Z"/><path d="M13.419,16.139c-0.532,-0.381 -0.585,-1.125 -0.099,-1.662c0.47,-0.519 1.27,-0.63 1.784,-0.262c0.026,0.019 3.066,2.203 3.073,6.083c0.002,0.631 -0.555,1.216 -1.251,1.295c-0.72,0.082 -1.296,-0.394 -1.297,-1.047c-0.006,-2.819 -2.21,-4.407 -2.21,-4.407Zm2.374,-4.076c-0.533,-0.382 -0.587,-1.127 -0.099,-1.663c0.47,-0.52 1.271,-0.631 1.784,-0.263c0.03,0.022 5.388,3.868 5.4,10.701c0.002,0.633 -0.555,1.218 -1.252,1.298c-0.722,0.081 -1.298,-0.396 -1.298,-1.049c-0.011,-5.775 -4.535,-9.024 -4.535,-9.024Zm2.31,-4.184c-0.532,-0.382 -0.585,-1.125 -0.098,-1.662c0.468,-0.52 1.268,-0.631 1.783,-0.263c-0,0 7.707,5.51 7.725,15.319c0.002,0.633 -0.555,1.217 -1.252,1.296c-0.72,0.083 -1.296,-0.394 -1.296,-1.047c-0.016,-8.732 -6.862,-13.643 -6.862,-13.643Z"/></g></svg>