<?xml version="1.0" encoding="UTF-8" standalone="no"?><!DOCTYPE svg PUBLIC "-//W3C//DTD SVG 1.1//EN" "http://www.w3.org/Graphics/SVG/1.1/DTD/svg11.dtd"><svg width="100%" height="100%" viewBox="0 0 30 30" version="1.1" xmlns="http://www.w3.org/2000/svg" xmlns:xlink="http://www.w3.org/1999/xlink" xml:space="preserve" xmlns:serif="http://www.serif.com/" style="fill-rule:evenodd;clip-rule:evenodd;stroke-linejoin:round;stroke-miterlimit:2;"><g><path d="M26.921,30l-5.156,-5.157c-0.245,-0.245 -0.354,-0.574 -0.327,-0.894l-5.015,-5.016c-2.231,-0.213 -3.358,2.972 0.64,7.844c-1.071,0.131 -3.963,-0.211 -4.732,-0.522c-0.142,-0.058 -0.605,-2.35 -0.745,-2.41c-0.155,-0.068 0.013,2.095 -0.14,2.023c-2.727,-1.28 -5.013,-3.186 -6.73,-5.429c-0.2,-0.262 1.117,-2.072 1.117,-2.072c0,0 -2.144,0.582 -2.193,0.501c-0.96,-1.571 -1.583,-5.582 0.246,-8.964c2.35,4.357 5.646,4.031 6.757,3.234c-0.189,-0.269 -0.163,-0.644 0.078,-0.884c0,0 -0.491,-1.588 -0.217,-1.863c0.275,-0.274 1.863,0.217 1.863,0.217c0.236,-0.236 0.601,-0.266 0.869,-0.089c0.756,-1.18 0.971,-4.381 -3.288,-6.678c3.383,-1.829 7.394,-1.206 8.965,-0.246c0.081,0.049 -0.501,2.193 -0.501,2.193c0,0 1.81,-1.317 2.072,-1.117c2.243,1.717 4.149,4.003 5.429,6.73c0.072,0.153 -2.091,-0.015 -2.024,0.14c0.061,0.14 2.353,0.603 2.411,0.745c0.311,0.769 0.653,3.661 0.522,4.732c-4.764,-3.91 -7.916,-2.918 -7.853,-0.786l5.093,5.093c0.32,-0.027 0.65,0.082 0.894,0.327l5.044,5.043l0,3.305l-3.079,-0Z"/></g></svg>