<?xml version="1.0" encoding="UTF-8" standalone="no"?>
<!DOCTYPE svg PUBLIC "-//W3C//DTD SVG 1.1//EN" "http://www.w3.org/Graphics/SVG/1.1/DTD/svg11.dtd">
<svg width="100%" height="100%" viewBox="0 0 30 30" version="1.1" xmlns="http://www.w3.org/2000/svg" xmlns:xlink="http://www.w3.org/1999/xlink" xml:space="preserve" xmlns:serif="http://www.serif.com/" style="fill-rule:evenodd;clip-rule:evenodd;stroke-linejoin:round;stroke-miterlimit:2;">
    <path d="M2.846,3.582L3.561,2.867L16.545,15.852C16.392,15.948 16.246,16.064 16.113,16.197C16.001,16.309 15.903,16.428 15.817,16.553L2.846,3.582Z"/>
    <path d="M3.82,2.609L4.349,2.079C4.92,1.508 5.847,1.508 6.418,2.079L9.387,5.048C9.858,5.519 9.94,6.234 9.633,6.79L13.501,10.658C17.557,11.569 22.84,12.189 25.779,15.128C28.442,17.791 28.702,22.808 25.773,25.738C22.843,28.667 17.826,28.407 15.163,25.744C12.224,22.805 11.488,17.638 10.577,13.583L6.708,9.715C6.152,10.022 5.438,9.94 4.966,9.468L1.998,6.5C1.427,5.929 1.427,5.002 1.998,4.431L2.588,3.841L15.629,16.882C15.194,17.798 15.355,18.928 16.113,19.686C16.87,20.444 18,20.605 18.917,20.17L20.818,22.071L21.077,21.812L19.245,19.981C19.371,19.895 19.49,19.797 19.601,19.686C19.735,19.552 19.85,19.407 19.947,19.253L21.855,21.161L22.113,20.902L20.124,18.914C20.509,18.014 20.335,16.931 19.601,16.197C18.867,15.463 17.785,15.289 16.885,15.674L3.82,2.609ZM24.049,20.892L20.759,24.056L21.24,24.557L24.53,21.392L24.049,20.892Z"/>
    <g transform="matrix(0.130509,-0.0937209,0.0587625,0.0818284,-2.58779,14.9563)">
        <path d="M151.51,54.02C153.163,57.82 155.347,61.877 158.06,66.19C165.313,77.763 172.973,90.81 181.04,105.33C181.197,105.611 181.27,105.934 181.25,106.26C180.09,121.24 166.33,137.66 150.7,126.34C145.96,122.91 142.21,116.55 145.47,110.9C148.55,105.58 158.22,101.94 163.67,99.95C163.695,99.941 163.72,99.93 163.745,99.919C164.207,99.702 164.407,99.14 164.188,98.673C164.177,98.648 164.164,98.624 164.15,98.6C151.077,76.047 138.533,53.207 126.52,30.08C124.9,26.953 124.003,24.74 123.83,23.44C123.32,19.61 124.67,14.67 129.51,15.52C131.21,15.813 132.72,16.517 134.04,17.63C139.867,22.503 145.387,27.74 150.6,33.34C158.05,41.34 173.7,51.92 184.78,52.78C185.667,52.853 186.523,53.05 187.35,53.37C187.362,53.375 187.374,53.38 187.386,53.386C187.592,53.489 187.676,53.743 187.573,53.949C187.566,53.963 187.558,53.977 187.55,53.99C183.79,59.963 178.443,63.09 171.51,63.37C165.95,63.59 156.41,56.92 151.74,53.84C151.453,53.653 151.377,53.713 151.51,54.02Z" style="fill-rule:nonzero;"/>
    </g>
    <g transform="matrix(0.148538,0.0887058,-0.0556181,0.0931324,-5.14805,-7.72529)">
        <path d="M122.56,142.84C130.75,150.7 139.98,157.61 148.57,165.08C159.93,174.95 170.19,183.46 180.82,192.73C181.455,193.28 181.723,194.147 181.51,194.96C178.83,205.3 172.44,220.57 158.86,219.23C149.97,218.35 140.9,209.97 145.8,200.24C148.873,194.16 153.597,189.903 159.97,187.47C160.007,187.456 160.043,187.436 160.075,187.413C160.284,187.262 160.332,186.966 160.181,186.757C160.158,186.725 160.131,186.695 160.1,186.67C148.29,176.93 136.91,166.67 124.96,157.13C118.85,152.24 113.29,145.92 107.45,140.35C106.137,139.097 105.373,137.567 105.16,135.76C104.873,133.387 106.32,132.217 109.5,132.25C112.11,132.28 118.88,139.31 122.56,142.84Z" style="fill-rule:nonzero;"/>
    </g>
</svg>
