<?xml version="1.0" encoding="UTF-8" standalone="no"?>
<!DOCTYPE svg PUBLIC "-//W3C//DTD SVG 1.1//EN" "http://www.w3.org/Graphics/SVG/1.1/DTD/svg11.dtd">
<svg width="100%" height="100%" viewBox="0 0 30 30" version="1.1" xmlns="http://www.w3.org/2000/svg" xmlns:xlink="http://www.w3.org/1999/xlink" xml:space="preserve" xmlns:serif="http://www.serif.com/" style="fill-rule:evenodd;clip-rule:evenodd;stroke-linejoin:round;stroke-miterlimit:2;">
    <path d="M2.846,3.582L3.561,2.867L16.545,15.852C16.392,15.948 16.246,16.064 16.113,16.197C16.001,16.309 15.903,16.428 15.817,16.553L2.846,3.582Z"/>
    <path d="M3.82,2.609L4.349,2.079C4.92,1.508 5.847,1.508 6.418,2.079L9.387,5.048C9.858,5.519 9.94,6.234 9.633,6.79L13.501,10.658C17.557,11.569 22.84,12.189 25.779,15.128C28.442,17.791 28.702,22.808 25.773,25.738C22.843,28.667 17.826,28.407 15.163,25.744C12.224,22.805 11.488,17.638 10.577,13.583L6.708,9.715C6.152,10.022 5.438,9.94 4.966,9.468L1.998,6.5C1.427,5.929 1.427,5.002 1.998,4.431L2.588,3.841L15.629,16.882C15.194,17.798 15.355,18.928 16.113,19.686C16.87,20.444 18,20.605 18.917,20.17L20.818,22.071L21.077,21.812L19.245,19.981C19.371,19.895 19.49,19.797 19.601,19.686C19.735,19.552 19.85,19.407 19.947,19.253L21.855,21.161L22.113,20.902L20.124,18.914C20.509,18.014 20.335,16.931 19.601,16.197C18.867,15.463 17.785,15.289 16.885,15.674L3.82,2.609ZM24.049,20.892L20.759,24.056L21.24,24.557L24.53,21.392L24.049,20.892Z"/>
</svg>
