<?xml version="1.0" encoding="UTF-8" standalone="no"?><!DOCTYPE svg PUBLIC "-//W3C//DTD SVG 1.1//EN" "http://www.w3.org/Graphics/SVG/1.1/DTD/svg11.dtd"><svg width="100%" height="100%" viewBox="0 0 30 30" version="1.1" xmlns="http://www.w3.org/2000/svg" xmlns:xlink="http://www.w3.org/1999/xlink" xml:space="preserve" xmlns:serif="http://www.serif.com/" style="fill-rule:evenodd;clip-rule:evenodd;stroke-linejoin:round;stroke-miterlimit:2;"><g><path d="M0,9.007l2.787,-0.228c-0.513,1.396 -0.712,2.897 -0.603,4.399l-2.184,-0.912l0,-3.259Zm0,8.352l2.52,-2.165c0.367,1.406 1.012,2.771 1.931,4.005l-4.451,1.056l0,-2.896Zm14.917,12.641l-2.559,-6.13c0.453,0.057 0.908,0.085 1.36,0.086c0.641,-0 1.516,0.182 2.502,0.43l-0.458,5.614l-0.845,0Zm11.553,0l-10.013,-10.013c-2.325,1.062 -5.916,-0.498 -7.887,-2.314c-0.352,0.074 -0.808,-0.084 -1.164,-0.441c-0.487,-0.486 -0.606,-1.157 -0.266,-1.497c0.34,-0.34 1.01,-0.221 1.497,0.266c0.237,0.237 0.386,0.518 0.439,0.782c0.911,0.163 2.222,0.457 3.422,0.459c1.142,0.001 -0.069,-2.514 -0.095,-3.941c-0.369,0.13 -0.778,0.113 -1.135,-0.049c-0.16,-0.073 -0.309,-0.176 -0.44,-0.307c-0.589,-0.589 -0.589,-1.548 -0,-2.137c0.59,-0.59 1.548,-0.589 2.137,-0c0.117,0.117 0.212,0.249 0.283,0.389c0.175,0.351 0.207,0.757 0.092,1.127c1.405,0.037 3.989,1.34 3.999,0.224c0.012,-1.223 -0.288,-2.573 -0.457,-3.518c-0.277,-0.043 -0.576,-0.196 -0.827,-0.447c-0.487,-0.487 -0.607,-1.157 -0.267,-1.496c0.34,-0.34 1.011,-0.221 1.497,0.266c0.331,0.33 0.492,0.745 0.454,1.084c1.849,1.979 3.358,5.661 2.277,8.003l9.984,9.984l0,3.576l-3.53,-0Zm3.53,-14.263l-6.391,0.521c-0.012,-0.206 -0.006,-0.392 0.022,-0.552c0.198,-1.136 0.207,-2.31 0.031,-3.472l6.338,2.645l0,0.858Zm-9.725,-15.737l-1.115,4.702c-1.257,-0.965 -2.656,-1.64 -4.1,-2.022l2.302,-2.68l2.913,-0Zm-7.972,-0l0.986,2.36c-1.528,-0.15 -3.062,0.021 -4.492,0.517l0.235,-2.877l3.271,-0Zm-11.555,-0l6.171,3.758c-0.648,0.392 -1.26,0.865 -1.819,1.419c-0.518,0.512 -0.967,1.07 -1.348,1.662l-3.752,-6.162l0,-0.677l0.748,-0Zm19.827,5.976l9.272,-2.198l-6.881,5.911c-0.536,-1.332 -1.334,-2.597 -2.391,-3.713Zm-0.881,20.305c0.647,-0 1.172,0.525 1.172,1.172c-0,0.647 -0.525,1.172 -1.172,1.172c-0.647,-0 -1.172,-0.525 -1.172,-1.172c-0,-0.647 0.525,-1.172 1.172,-1.172Zm7.832,-8.039c0.647,0 1.172,0.525 1.172,1.172c0,0.647 -0.525,1.172 -1.172,1.172c-0.647,0 -1.172,-0.525 -1.172,-1.172c-0,-0.647 0.525,-1.172 1.172,-1.172Zm-17.982,4.897l-5.74,6.681l2.129,-8.975c1.09,1.01 2.318,1.776 3.611,2.294Zm0.617,3.451c0.647,-0 1.172,0.525 1.172,1.172c0,0.647 -0.525,1.172 -1.172,1.172c-0.647,-0 -1.172,-0.525 -1.172,-1.172c-0,-0.647 0.525,-1.172 1.172,-1.172Zm-7.884,-4.741c0.647,0 1.172,0.525 1.172,1.172c0,0.647 -0.525,1.172 -1.172,1.172c-0.647,0 -1.172,-0.525 -1.172,-1.172c0,-0.647 0.525,-1.172 1.172,-1.172Zm25.404,-12.624c0.646,-0 1.172,0.525 1.172,1.172c-0,0.647 -0.526,1.172 -1.172,1.172c-0.647,-0 -1.173,-0.525 -1.173,-1.172c0,-0.647 0.526,-1.172 1.173,-1.172Zm-4.947,-8.09c0.647,-0 1.172,0.525 1.172,1.172c-0,0.647 -0.525,1.172 -1.172,1.172c-0.647,0 -1.172,-0.525 -1.172,-1.172c-0,-0.647 0.525,-1.172 1.172,-1.172Zm-15.659,12.741c-1.111,-1.627 -1.218,-3.815 -0.239,-5.481c-0.373,-0.466 -0.344,-1.149 0.087,-1.58c0.434,-0.433 1.121,-0.46 1.586,-0.081c1.653,-0.953 3.807,-0.847 5.421,0.238c0.082,0.014 0.164,0.031 0.245,0.049c-0.405,0.786 -0.308,1.946 0.554,2.808c0.163,0.164 0.336,0.299 0.516,0.409c0.074,0.391 0.15,0.818 0.2,1.25c-0.208,-0.034 -0.423,-0.073 -0.597,-0.107c-0.101,-0.019 -0.203,-0.037 -0.303,-0.053c-0.103,-0.5 -0.348,-0.976 -0.735,-1.364c-1.055,-1.054 -2.767,-1.054 -3.821,-0c-1.055,1.055 -1.055,2.767 -0,3.821c0.401,0.402 0.899,0.651 1.419,0.746c0.047,0.277 0.101,0.557 0.141,0.821c-0.446,-0.051 -0.885,-0.13 -1.284,-0.206c-0.105,-0.164 -0.231,-0.322 -0.381,-0.472c-0.845,-0.846 -1.979,-0.955 -2.764,-0.576c-0.016,-0.073 -0.032,-0.147 -0.045,-0.222Z"/></g></svg>