<?xml version="1.0" encoding="UTF-8" standalone="no"?><!DOCTYPE svg PUBLIC "-//W3C//DTD SVG 1.1//EN" "http://www.w3.org/Graphics/SVG/1.1/DTD/svg11.dtd"><svg width="100%" height="100%" viewBox="0 0 30 30" version="1.1" xmlns="http://www.w3.org/2000/svg" xmlns:xlink="http://www.w3.org/1999/xlink" xml:space="preserve" xmlns:serif="http://www.serif.com/" style="fill-rule:evenodd;clip-rule:evenodd;stroke-linejoin:round;stroke-miterlimit:2;"><path d="M0,9.162l3.12,-0.254c-0.495,1.348 -0.688,2.798 -0.582,4.249l-2.538,-1.06l0,-2.935Zm0,8.401l2.862,-2.458c0.355,1.358 0.978,2.677 1.866,3.869l-4.728,1.121l0,-2.532Zm15.086,12.437l-2.72,-6.514c0.438,0.055 0.877,0.082 1.314,0.083c0.619,0 1.464,0.176 2.417,0.415l-0.491,6.016l-0.52,0Zm11.384,0l-10.013,-10.013c-2.325,1.062 -5.916,-0.498 -7.887,-2.314c-0.352,0.074 -0.808,-0.084 -1.164,-0.441c-0.487,-0.486 -0.606,-1.157 -0.266,-1.497c0.34,-0.34 1.01,-0.221 1.497,0.266c0.237,0.237 0.386,0.518 0.439,0.782c0.911,0.163 2.222,0.457 3.422,0.459c1.142,0.001 -0.069,-2.514 -0.095,-3.941c-0.369,0.13 -0.778,0.113 -1.135,-0.049c-0.16,-0.073 -0.309,-0.176 -0.44,-0.307c-0.589,-0.589 -0.589,-1.548 -0,-2.137c0.59,-0.59 1.548,-0.589 2.137,-0c0.117,0.117 0.212,0.249 0.283,0.389c0.175,0.351 0.207,0.757 0.092,1.127c1.405,0.037 3.989,1.34 3.999,0.224c0.012,-1.223 -0.288,-2.573 -0.457,-3.518c-0.277,-0.043 -0.576,-0.196 -0.827,-0.447c-0.487,-0.487 -0.607,-1.157 -0.267,-1.496c0.34,-0.34 1.011,-0.221 1.497,0.266c0.331,0.33 0.492,0.745 0.454,1.084c1.849,1.979 3.358,5.661 2.277,8.003l9.984,9.984l0,3.576l-3.53,-0Zm3.53,-14.419l-6.765,0.552c-0.012,-0.199 -0.006,-0.379 0.021,-0.534c0.191,-1.097 0.2,-2.231 0.03,-3.354l6.714,2.803l0,0.533Zm-9.885,-15.581l-1.178,4.969c-1.214,-0.932 -2.566,-1.584 -3.961,-1.953l2.591,-3.016l2.548,-0Zm-7.98,-0l1.13,2.707c-1.476,-0.145 -2.958,0.02 -4.339,0.499l0.261,-3.206l2.948,-0Zm-11.685,-0l6.662,4.057c-0.626,0.379 -1.217,0.836 -1.757,1.371c-0.501,0.495 -0.935,1.034 -1.303,1.606l-4.052,-6.656l0,-0.378l0.45,-0Zm19.854,6.2l8.957,-2.123l-6.647,5.71c-0.518,-1.287 -1.289,-2.509 -2.31,-3.587Zm-10.656,16.58l-5.545,6.454l2.056,-8.67c1.053,0.975 2.24,1.715 3.489,2.216Zm-2.573,-8.904c-1.111,-1.627 -1.218,-3.815 -0.239,-5.481c-0.373,-0.466 -0.344,-1.149 0.087,-1.58c0.434,-0.433 1.121,-0.46 1.586,-0.081c1.653,-0.953 3.807,-0.847 5.421,0.238c0.082,0.014 0.164,0.031 0.245,0.049c-0.405,0.786 -0.308,1.946 0.554,2.808c0.163,0.164 0.336,0.299 0.516,0.409c0.074,0.391 0.15,0.818 0.2,1.25c-0.208,-0.034 -0.423,-0.073 -0.597,-0.107c-0.101,-0.019 -0.203,-0.037 -0.303,-0.053c-0.103,-0.5 -0.348,-0.976 -0.735,-1.364c-1.055,-1.054 -2.767,-1.054 -3.821,-0c-1.055,1.055 -1.055,2.767 -0,3.821c0.401,0.402 0.899,0.651 1.419,0.746c0.047,0.277 0.101,0.557 0.141,0.821c-0.446,-0.051 -0.885,-0.13 -1.284,-0.206c-0.105,-0.164 -0.231,-0.322 -0.381,-0.472c-0.845,-0.846 -1.979,-0.955 -2.764,-0.576c-0.016,-0.073 -0.032,-0.147 -0.045,-0.222Z"/></svg>