<?xml version="1.0" encoding="UTF-8" standalone="no"?><!DOCTYPE svg PUBLIC "-//W3C//DTD SVG 1.1//EN" "http://www.w3.org/Graphics/SVG/1.1/DTD/svg11.dtd"><svg width="100%" height="100%" viewBox="0 0 30 30" version="1.1" xmlns="http://www.w3.org/2000/svg" xmlns:xlink="http://www.w3.org/1999/xlink" xml:space="preserve" xmlns:serif="http://www.serif.com/" style="fill-rule:evenodd;clip-rule:evenodd;stroke-linejoin:round;stroke-miterlimit:2;"><g><path d="M26.952,30c-2.754,-1.296 -6.549,-3.817 -8.345,-8.335c-1.249,-3.14 -1.766,-5.105 -5.464,-9.387c-1.196,0.716 -4.457,0.465 -7.233,-2.311c-1.894,-1.894 -2.158,-6.665 -2.158,-6.665c0,0 4.353,0.045 6.743,2.186c2.546,2.281 3.77,5.548 2.947,6.543c1.79,1.228 5.271,3.944 8.171,8.163c1.435,2.086 4.924,3.946 8.387,5.416l0,4.39l-3.048,0Zm-22.435,-10.913l1.036,2.491l2.491,1.035l-2.491,1.036l-1.036,2.491l-1.035,-2.491l-2.491,-1.036l2.491,-1.035l1.035,-2.491Zm-0.956,-8.058c0.591,0 1.071,0.48 1.071,1.07c-0,0.591 -0.48,1.07 -1.071,1.07c-0.59,0 -1.07,-0.479 -1.07,-1.07c0,-0.59 0.48,-1.07 1.07,-1.07Zm12.928,-2.953c0.376,-2.23 3.527,-4.747 3.527,-4.747c0,-0 2.101,3.015 1.799,5.707c-0.325,2.896 -2.001,5.356 -3.088,5.227c-1.087,-0.128 -2.837,-2.62 -2.238,-6.187Zm9.399,-7.072l1.036,2.491l2.491,1.035l-2.491,1.036l-1.036,2.491l-1.035,-2.491l-2.491,-1.036l2.491,-1.035l1.035,-2.491Zm-3.334,15.186c0.328,-2.126 3.293,-4.558 3.293,-4.558c0,0 2.035,2.84 1.781,5.403c-0.272,2.757 -1.835,5.117 -2.87,5.009c-1.034,-0.109 -2.73,-2.456 -2.204,-5.854Zm-12.616,-2.032c3.614,0.159 5.685,2.391 5.584,3.481c-0.101,1.089 -2.857,2.215 -5.757,1.928c-2.696,-0.267 -5.206,-2.951 -5.206,-2.951c-0,0 3.12,-2.556 5.379,-2.458Zm4.054,7.746c3.613,0.158 5.684,2.39 5.583,3.48c-0.101,1.089 -2.857,2.215 -5.757,1.928c-2.696,-0.267 -5.206,-2.951 -5.206,-2.951c0,0 3.12,-2.556 5.38,-2.457Zm-0.51,-20.384c0.718,-0 1.301,0.583 1.301,1.301c0,0.718 -0.583,1.301 -1.301,1.301c-0.718,-0 -1.301,-0.583 -1.301,-1.301c0,-0.718 0.583,-1.301 1.301,-1.301Z"/></g></svg>