<?xml version="1.0" encoding="UTF-8" standalone="no"?><!DOCTYPE svg PUBLIC "-//W3C//DTD SVG 1.1//EN" "http://www.w3.org/Graphics/SVG/1.1/DTD/svg11.dtd"><svg width="100%" height="100%" viewBox="0 0 30 30" version="1.1" xmlns="http://www.w3.org/2000/svg" xmlns:xlink="http://www.w3.org/1999/xlink" xml:space="preserve" xmlns:serif="http://www.serif.com/" style="fill-rule:evenodd;clip-rule:evenodd;stroke-linejoin:round;stroke-miterlimit:2;"><g><path d="M26.075,30c-2.78,-1.541 -6.051,-4.15 -7.724,-8.355c-1.352,-3.4 -1.912,-5.529 -5.914,-10.163c-1.172,0.695 -4.35,0.447 -7.056,-2.259c-1.849,-1.849 -2.106,-6.506 -2.106,-6.506c-0,0 4.248,0.044 6.581,2.134c2.462,2.205 3.657,5.354 2.899,6.358c1.938,1.329 5.71,4.271 8.853,8.842c1.458,2.122 4.876,4.026 8.392,5.568l-0,4.381l-3.925,-0Zm-3.288,-13.809c0.329,-2.128 3.297,-4.563 3.297,-4.563c0,-0 2.037,2.843 1.784,5.41c-0.273,2.761 -1.838,5.124 -2.874,5.015c-1.036,-0.109 -2.734,-2.459 -2.207,-5.862Zm-9.434,5.712c3.913,0.172 6.156,2.59 6.047,3.77c-0.109,1.18 -3.094,2.399 -6.235,2.088c-2.921,-0.289 -5.639,-3.196 -5.639,-3.196c0,0 3.379,-2.769 5.827,-2.662Zm-4.391,-8.388c3.914,0.171 6.157,2.589 6.048,3.769c-0.109,1.18 -3.095,2.399 -6.236,2.088c-2.92,-0.289 -5.638,-3.195 -5.638,-3.195c-0,-0 3.379,-2.769 5.826,-2.662Zm7.096,-6.588c0.406,-2.416 3.82,-5.142 3.82,-5.142c-0,-0 2.275,3.265 1.948,6.181c-0.352,3.137 -2.168,5.802 -3.345,5.662c-1.177,-0.139 -3.073,-2.838 -2.423,-6.701Z"/></g></svg>