<?xml version="1.0" encoding="UTF-8" standalone="no"?>
<!DOCTYPE svg PUBLIC "-//W3C//DTD SVG 1.1//EN" "http://www.w3.org/Graphics/SVG/1.1/DTD/svg11.dtd">
<svg width="100%" height="100%" viewBox="0 0 30 30" version="1.1" xmlns="http://www.w3.org/2000/svg" xmlns:xlink="http://www.w3.org/1999/xlink" xml:space="preserve" xmlns:serif="http://www.serif.com/" style="fill-rule:evenodd;clip-rule:evenodd;stroke-linejoin:round;stroke-miterlimit:2;">
    <g transform="matrix(0.0155554,-0.0895786,0.090486,0.015713,-53.3581,139.126)">
        <path d="M1331.19,415.677C1329.22,416.287 1327.12,416.616 1324.94,416.616C1313.23,416.616 1303.72,407.108 1303.72,395.397C1303.72,383.686 1313.23,374.178 1324.94,374.178C1336.65,374.178 1346.16,383.686 1346.16,395.397C1346.16,396.017 1346.13,396.631 1346.08,397.238L1411.09,441.709L1434.21,409.197L1453.64,422.288L1443.51,436.645L1618.75,558.68L1644.93,619.486L1577.36,614.841L1403.39,493.228L1394.1,507.586L1373.83,494.073L1397.05,461.431L1331.19,415.677ZM1417.47,473.552L1552.87,568.41L1571.78,569.491L1562.87,550.033L1429.36,456.796L1417.47,473.552Z"/>
    </g>
    <path d="M8.978,13.478L2.51,7.109L1.078,1.209L7.068,2.638L13.479,8.974L11.921,10.533L8.565,7.209L6.886,6.829L7.392,8.725L10.581,11.874L8.978,13.478ZM21.96,15.154L23.504,16.613L20.93,19.224L26.147,24.351C26.333,24.325 26.527,24.327 26.722,24.359C27.772,24.534 28.482,25.537 28.306,26.598C28.129,27.659 27.133,28.379 26.083,28.204C25.033,28.03 24.323,27.026 24.499,25.966C24.509,25.909 24.521,25.854 24.534,25.8L19.373,20.802L16.81,23.403L16.173,22.794C16.234,22.589 16.263,22.374 16.256,22.156C16.245,21.815 16.147,21.487 15.977,21.199L17.951,19.152L17.962,19.163L19.068,18.038L21.96,15.154Z"/>
</svg>
