<?xml version="1.0" encoding="UTF-8" standalone="no"?><!DOCTYPE svg PUBLIC "-//W3C//DTD SVG 1.1//EN" "http://www.w3.org/Graphics/SVG/1.1/DTD/svg11.dtd"><svg width="100%" height="100%" viewBox="0 0 30 30" version="1.1" xmlns="http://www.w3.org/2000/svg" xmlns:xlink="http://www.w3.org/1999/xlink" xml:space="preserve" xmlns:serif="http://www.serif.com/" style="fill-rule:evenodd;clip-rule:evenodd;stroke-linejoin:round;stroke-miterlimit:2;"><g><path d="M0,21.667l11.17,8.296l-0.032,0.037l-3.542,0l-7.596,-7.687l0,-0.646Zm13.61,8.333l-9.783,-9.901l13.33,9.901l-3.547,0Zm8.149,0l-0.471,-0.41l1.204,-4.542l7.508,-3.74l0,8.692l-8.241,0Zm8.241,-9.216l-7.726,3.519l1.075,-6.032l1.188,-1.953l5.463,4.385l0,0.081Zm0,-4.888l-7.804,-7.897l7.804,5.796l0,2.101Zm0,-4.769l-10.995,-11.127l0.039,0l10.956,8.137l0,2.99Zm-12.48,14.9l2.037,-3.103l2.943,-4.021l-1.755,10.34l-3.225,-3.216Zm3.112,-12.81l3.396,2.7l-7.3,9.42l-2.83,-2.93l6.734,-9.19Zm-7.665,8.167l-0.007,0.023l-3.133,-0.224l-8.465,-6.544l0.396,-2.298l4.784,3.173l1.415,-2.01l-0.679,-0.747l-1.189,1.033l-5.098,-3.801l0.736,-3.217l6.852,5.238l1.253,-1.657l-0.673,-0.695l-0.741,0.774l-6.45,-5.202l2.826,-2.133l3.299,3.4l0.796,-0.404l2.501,2.407l1.666,-0.261l1.011,4.033l0.321,1.45l3.597,-1.209l-3.011,-0.165l-1.003,-4.322l1.471,-0.472l-1.047,-1.119l-2.835,1.026l-1.368,-1.694l5.145,-3.365l5.541,5.248l-0,4.305l-6.954,8.988l-0.958,0.481l0.001,-0.04Zm-3.854,-15.903l-3.477,-2.753l3.245,-1.764l3.222,2.715l-2.99,1.802Z"/></g></svg>