<?xml version="1.0" encoding="UTF-8" standalone="no"?><!DOCTYPE svg PUBLIC "-//W3C//DTD SVG 1.1//EN" "http://www.w3.org/Graphics/SVG/1.1/DTD/svg11.dtd"><svg width="100%" height="100%" viewBox="0 0 30 30" version="1.1" xmlns="http://www.w3.org/2000/svg" xmlns:xlink="http://www.w3.org/1999/xlink" xml:space="preserve" xmlns:serif="http://www.serif.com/" style="fill-rule:evenodd;clip-rule:evenodd;stroke-linejoin:round;stroke-miterlimit:2;"><g><path d="M8.847,10.566c1.308,-2.599 3.576,-4.128 6.152,-4.128c2.577,-0 4.845,1.529 6.154,4.129c0.38,-0.651 0.956,-2.09 -0.646,-3.033c-2.124,-1.251 -0.357,-2.084 0.537,-2.64c0.893,-0.556 7.046,-3.93 7.046,-3.93c-0,0 2.402,-1.29 0.755,0.595c-1.648,1.886 -4.01,3.494 -4.01,3.494c0,0 2.917,-1.628 3.255,-1.112c0.337,0.516 -2.898,2.799 -3.871,3.196c-0,0 2.66,-1.032 3.236,-0.953c0.575,0.079 0.198,1.072 -1.271,1.747c-1.468,0.675 -2.441,1.032 -2.441,1.032c-0,0 2.898,-0.396 2.62,0.338c-0.278,0.734 -2.104,0.992 -2.957,1.011c-0,0 1.965,0.438 1.508,0.874c-0.457,0.437 -1.27,0.139 -1.508,0.1c-0,-0 0.489,0.293 0.242,0.468c-0.248,0.176 -0.917,0.208 -1.353,0.13c-0,-0 0.546,0.403 0.293,0.618c-0.149,0.126 -0.446,0.071 -0.705,-0.021c0.277,1.002 0.435,2.108 0.451,3.302l0.002,-0c-0.706,2.664 -0.676,5.328 0,7.993c-1.641,0.579 -3.184,2.788 -4.247,4.553l-0,-9.94l1.568,-2.386l-2.253,-0.016l-1.023,1.172l-0,11.17l-1.438,1.138l-1.519,-1.138l0,-11.144l-1.051,-1.152l-2.486,0.001l1.891,2.355l0,9.94c-1.125,-1.916 -2.668,-4.172 -4.115,-4.553c0.771,-2.665 0.739,-5.329 0,-7.993l0.002,-0c0.016,-1.194 0.174,-2.3 0.45,-3.302c-0.259,0.092 -0.554,0.147 -0.703,0.021c-0.253,-0.215 0.293,-0.618 0.293,-0.618c-0.436,0.078 -1.105,0.046 -1.353,-0.13c-0.247,-0.175 0.242,-0.468 0.242,-0.468c-0.238,0.039 -1.051,0.337 -1.508,-0.1c-0.457,-0.436 1.508,-0.874 1.508,-0.874c-0.853,-0.019 -2.679,-0.277 -2.957,-1.011c-0.278,-0.734 2.62,-0.338 2.62,-0.338c0,0 -0.973,-0.357 -2.441,-1.032c-1.469,-0.675 -1.846,-1.668 -1.271,-1.747c0.575,-0.079 3.236,0.953 3.236,0.953c-0.973,-0.397 -4.208,-2.68 -3.871,-3.196c0.338,-0.516 3.255,1.112 3.255,1.112c-0,0 -2.362,-1.608 -4.01,-3.494c-1.647,-1.885 0.755,-0.595 0.755,-0.595c0,0 6.153,3.374 7.046,3.93c0.894,0.556 2.661,1.389 0.537,2.64c-1.601,0.942 -1.027,2.38 -0.646,3.032Z"/></g><path d="M2.467,16.054l2,-0l-0,7.593l3.54,3.54l-1.414,1.415l-3.833,-3.834c-0.187,-0.187 -0.293,-0.441 -0.293,-0.707l-0,-8.007Z"/><g><path d="M25.401,16.054l2,-0l0,8.007c0,0.266 -0.106,0.52 -0.293,0.707l-3.833,3.834l-1.414,-1.415l3.54,-3.54l0,-7.593Z"/></g></svg>