<?xml version="1.0" encoding="UTF-8" standalone="no"?>
<!DOCTYPE svg PUBLIC "-//W3C//DTD SVG 1.1//EN" "http://www.w3.org/Graphics/SVG/1.1/DTD/svg11.dtd">
<svg width="100%" height="100%" viewBox="0 0 30 30" version="1.1" xmlns="http://www.w3.org/2000/svg" xmlns:xlink="http://www.w3.org/1999/xlink" xml:space="preserve" xmlns:serif="http://www.serif.com/" style="fill-rule:evenodd;clip-rule:evenodd;stroke-linejoin:round;stroke-miterlimit:2;">
    <path d="M8.133,9.788L6.727,8.381C5.343,8.175 3.952,8.244 3.952,8.244C2.847,4.425 0.379,0.43 0.379,0.43C4.105,3.185 8.293,4.037 8.293,4.037C8.045,4.966 8.085,5.916 8.236,6.748L9.712,8.224C14.031,4.501 19.884,3.498 25,5.223C26.735,5.808 27.256,3.221 28.25,3.288C29.034,3.341 29.505,7.79 26.329,7.236C21.328,6.362 16.051,7.1 12.021,10.533L22.805,21.317L24.833,21.485L29.446,26.207L26.353,26.44L26.374,29.778L21.659,25.063L21.429,23.084L10.44,12.095C6.752,16.294 5.666,21.98 7.192,27.027C7.818,29.1 3.474,28.822 3.24,28.589C1.541,26.889 5.838,27.488 5.092,25.357C3.272,20.156 4.289,14.164 8.133,9.788Z"/>
    <g transform="matrix(0.831084,0.0161438,0.0161438,0.903703,1.80082,2.33005)">
        <path d="M7.953,28.269L7.648,26.831L21.522,23.886L21.827,25.324L7.953,28.269Z"/>
    </g>
    <g transform="matrix(-0.321188,0.777561,-0.857074,-0.317538,52.9569,11.2616)">
        <path d="M7.961,28.259L7.659,26.837L21.514,23.896L21.816,25.318L7.961,28.259Z"/>
    </g>
</svg>
