<?xml version="1.0" encoding="UTF-8" standalone="no"?>
<!DOCTYPE svg PUBLIC "-//W3C//DTD SVG 1.1//EN" "http://www.w3.org/Graphics/SVG/1.1/DTD/svg11.dtd">
<svg width="100%" height="100%" viewBox="0 0 30 30" version="1.1" xmlns="http://www.w3.org/2000/svg" xmlns:xlink="http://www.w3.org/1999/xlink" xml:space="preserve" xmlns:serif="http://www.serif.com/" style="fill-rule:evenodd;clip-rule:evenodd;stroke-linejoin:round;stroke-miterlimit:2;">
    <g transform="matrix(0.252788,-0.785181,0.785181,0.252788,-0.521979,29.0784)">
        <path d="M23.328,27.158C17.607,25.587 10.271,16.079 8.932,14.291L8.868,14.342L6.686,17.217L6.291,13.09L7.358,12.252C6.898,11.774 6.432,11.239 5.976,10.659C4.832,9.2 3.98,7.742 3.54,6.584L3.183,7.646L1.731,4.348L3.754,2.761L6.518,4.814L5.64,4.979C6.654,5.684 7.856,6.85 8.989,8.295C9.444,8.875 9.853,9.455 10.208,10.016L11.357,9.115L14.576,10.131L14.664,10.589L11.907,11.957L11.844,12.006C12.498,12.912 14.632,15.784 17.527,18.844L23.328,27.158Z"/>
    </g>
    <g transform="matrix(-0.780557,-0.324092,-0.324092,0.780557,31.6376,-0.341473)">
        <path d="M6.377,13.984L6.291,13.09L7.358,12.252C6.898,11.774 6.432,11.239 5.976,10.659C4.832,9.2 3.98,7.742 3.54,6.584L3.183,7.646L1.731,4.348L3.754,2.761L6.518,4.814L5.64,4.979C6.654,5.684 7.856,6.85 8.989,8.295C9.444,8.875 9.853,9.455 10.208,10.016L11.357,9.115L15.194,10.326L11.907,11.957L11.844,12.006C12.73,13.232 16.329,18.064 20.856,22.087L16.04,22.339C12.622,19.117 9.725,15.35 8.932,14.291L8.868,14.342L7.673,15.916L6.377,13.984Z"/>
    </g>
    <g transform="matrix(1.02561,0,0,1.02561,-0.408645,0.313849)">
        <path d="M0.648,13.932L5.163,11.164L6.971,11.322L12.39,13.911L17.433,13.544L22.697,10.048L23.682,9.912L29.111,11.763L26.285,15.167L18.062,17.691L15.427,15.968L13.213,18.08L4.472,17.016L0.648,13.932ZM18.523,15.076C18.406,15.474 18.859,15.428 18.859,15.428C23.161,15.22 25.213,13.447 25.559,13.241C25.905,13.035 25.59,12.847 25.59,12.847C25.59,12.847 24.02,12.15 23.708,11.992C23.396,11.834 23.038,12.029 23.038,12.029L18.523,15.076ZM12.035,15.548L7.126,13.188C7.126,13.188 6.744,13.046 6.457,13.248C6.171,13.449 4.719,14.367 4.719,14.367C4.719,14.367 4.435,14.598 4.807,14.752C5.179,14.905 7.466,16.363 11.753,15.946C11.753,15.946 12.208,15.925 12.035,15.548Z"/>
    </g>
</svg>
