<?xml version="1.0" encoding="UTF-8" standalone="no"?>
<!DOCTYPE svg PUBLIC "-//W3C//DTD SVG 1.1//EN" "http://www.w3.org/Graphics/SVG/1.1/DTD/svg11.dtd">
<svg width="100%" height="100%" viewBox="0 0 30 30" version="1.1" xmlns="http://www.w3.org/2000/svg" xmlns:xlink="http://www.w3.org/1999/xlink" xml:space="preserve" xmlns:serif="http://www.serif.com/" style="fill-rule:evenodd;clip-rule:evenodd;stroke-linejoin:round;stroke-miterlimit:2;">
    <g transform="matrix(1.03967,0.0585373,-0.0585373,1.03967,0.45817,-0.956449)">
        <path d="M15,1.868C14.619,3.137 17.524,10.527 18.678,12.504C21.829,17.9 24.785,28.132 15,28.132C10.039,28.132 6.009,22.882 6.887,18.099C8.218,10.849 15,1.868 15,1.868ZM14.04,10.042C14.052,10.014 14.063,9.987 14.074,9.96C14.076,9.954 14.064,9.983 14.04,10.042ZM14.04,10.042C13.358,11.625 10.413,15.397 9.805,18.71C9.306,21.425 11.594,24.461 14.41,24.405C20.412,24.287 18.681,17.428 16.081,15.201C15.987,15.121 16.854,17.701 16.582,19.635C16.371,21.13 15.051,22.091 14.846,21.989C14.742,21.937 14.595,20.491 14.718,19.23C14.846,17.929 14.418,16.404 14.308,16.19C14.164,15.91 12.574,19.607 12.515,19.607C12.132,19.607 11.458,18.005 11.95,16.06C12.535,13.748 13.815,10.588 14.04,10.042Z"/>
    </g>
    <g transform="matrix(0.709546,0.12316,-0.12316,0.709546,10.9477,2.1804)">
        <path d="M14.591,1.331C14.591,1.331 13.988,4.759 13.084,6.532C12.848,6.995 16.04,11.509 20.039,19.132C21.566,22.043 21.962,24.561 21.751,26.678C21.713,27.054 25.299,21.901 22.569,16.772C17.697,7.618 14.591,1.331 14.591,1.331Z"/>
    </g>
    <g transform="matrix(-0.576246,-0.029723,-0.029723,0.576246,19.5699,1.13443)">
        <path d="M13.188,0.395C13.188,0.395 13.178,3.817 13.084,6.532C13.067,7.051 16.04,11.509 20.039,19.132C21.566,22.043 23.587,27.451 23.376,29.568C23.339,29.944 25.521,21.75 22.862,17.137C16.822,6.654 13.238,-0.334 13.188,0.395Z"/>
    </g>
    <g transform="matrix(1.31855,0,0,1.31855,-9.82617,-2.0425)">
        <path d="M26.606,2.391L27.277,4.203L29.088,4.873L27.277,5.543L26.606,7.354L25.936,5.543L24.125,4.873L25.936,4.203L26.606,2.391Z"/>
    </g>
    <g transform="matrix(1.04435,0,0,1.04435,-24.1826,1.77495)">
        <path d="M26.606,2.391L27.277,4.203L29.088,4.873L27.277,5.543L26.606,7.354L25.936,5.543L24.125,4.873L25.936,4.203L26.606,2.391Z"/>
    </g>
    <g transform="matrix(0.685483,0,0,0.685483,-14.3442,19.7025)">
        <path d="M26.606,2.391L27.277,4.203L29.088,4.873L27.277,5.543L26.606,7.354L25.936,5.543L24.125,4.873L25.936,4.203L26.606,2.391Z"/>
    </g>
    <g transform="matrix(0.761182,0,0,0.761182,5.1553,22.5076)">
        <path d="M26.606,2.391L27.277,4.203L29.088,4.873L27.277,5.543L26.606,7.354L25.936,5.543L24.125,4.873L25.936,4.203L26.606,2.391Z"/>
    </g>
    <g transform="matrix(0.572076,0,0,0.572076,11.5774,7.80377)">
        <path d="M26.606,2.391L27.277,4.203L29.088,4.873L27.277,5.543L26.606,7.354L25.936,5.543L24.125,4.873L25.936,4.203L26.606,2.391Z"/>
    </g>
</svg>
