<?xml version="1.0" encoding="UTF-8" standalone="no"?>
<!DOCTYPE svg PUBLIC "-//W3C//DTD SVG 1.1//EN" "http://www.w3.org/Graphics/SVG/1.1/DTD/svg11.dtd">
<svg width="100%" height="100%" viewBox="0 0 30 30" version="1.1" xmlns="http://www.w3.org/2000/svg" xmlns:xlink="http://www.w3.org/1999/xlink" xml:space="preserve" xmlns:serif="http://www.serif.com/" style="fill-rule:evenodd;clip-rule:evenodd;stroke-linejoin:round;stroke-miterlimit:2;">
    <g transform="matrix(0.889493,0,0,0.935729,2.04843,-22.572)">
        <path d="M14.908,25.741C15.776,25.741 17.512,29.337 17.512,29.337C15.741,28.675 14.007,28.715 12.304,29.337C12.304,29.337 14.04,25.741 14.908,25.741Z"/>
    </g>
    <g transform="matrix(-0.889493,-1.08931e-16,1.14594e-16,-0.935729,28.5696,52.4871)">
        <path d="M14.908,25.741C15.776,25.741 17.512,29.337 17.512,29.337C15.741,28.675 14.007,28.715 12.304,29.337C12.304,29.337 14.04,25.741 14.908,25.741Z"/>
    </g>
    <g transform="matrix(0.770324,0.444747,-0.388774,0.673376,20.2906,-20.1919)">
        <path d="M14.908,21.952C15.776,21.952 17.71,29.125 17.71,29.125C15.973,28.732 14.017,28.933 12.304,29.337C12.304,29.337 14.04,21.952 14.908,21.952Z"/>
    </g>
    <g transform="matrix(-0.770324,-0.444747,0.374647,-0.648908,10.8079,49.2748)">
        <path d="M14.908,21.952C15.776,21.952 17.506,29.106 17.506,29.106C15.922,28.775 14.205,29.068 12.304,29.337C12.304,29.337 14.04,21.952 14.908,21.952Z"/>
    </g>
    <g transform="matrix(-0.770324,0.444747,0.425803,0.737513,9.24595,-22.0736)">
        <path d="M14.908,21.952C15.776,21.952 17.71,29.125 17.71,29.125C15.973,28.732 14.017,28.933 12.304,29.337C12.304,29.337 14.04,21.952 14.908,21.952Z"/>
    </g>
    <g transform="matrix(0.770324,-0.444747,-0.383528,-0.66429,20.0755,49.7261)">
        <path d="M14.908,21.952C15.776,21.952 17.506,29.106 17.506,29.106C15.922,28.775 14.205,29.068 12.304,29.337C12.304,29.337 14.04,21.952 14.908,21.952Z"/>
    </g>
    <g transform="matrix(1.20813,0,0,1.20813,-3.11498,-2.43401)">
        <g transform="matrix(1.0192,0,0,1.0192,-0.292804,0.966961)">
            <path d="M10.896,10.559C7.179,11.477 4.586,13.217 4.586,13.217C4.586,13.217 9.364,6.285 15.25,6.285C21.136,6.285 25.914,13.217 25.914,13.217C25.914,13.217 23.321,11.477 19.604,10.559C18.274,10.231 16.8,10.009 15.25,10.009C13.7,10.009 12.226,10.231 10.896,10.559ZM20.212,12.03C22.875,12.822 24.763,13.981 25.14,14.222C23.558,16.143 19.724,20.149 15.25,20.149C10.776,20.149 6.942,16.143 5.36,14.222C5.737,13.981 7.625,12.822 10.288,12.03C10.197,12.411 10.149,12.809 10.149,13.217C10.149,16.032 12.435,18.318 15.25,18.318C18.065,18.318 20.351,16.032 20.351,13.217C20.351,12.809 20.303,12.411 20.212,12.03Z"/>
        </g>
        <g transform="matrix(0.979028,0,0,1.37144,2.50115,-2.89528)">
            <path d="M16.676,12.276C16.676,11.909 16.378,11.61 16.01,11.61C13.869,12.19 11.877,12.187 10.034,11.61C9.666,11.61 9.368,11.909 9.368,12.276L9.368,13.608C9.368,13.976 9.666,14.274 10.034,14.274C12.026,13.671 14.018,13.721 16.01,14.274C16.378,14.274 16.676,13.976 16.676,13.608L16.676,12.276Z"/>
        </g>
    </g>
</svg>
