<?xml version="1.0" encoding="UTF-8" standalone="no"?>
<!DOCTYPE svg PUBLIC "-//W3C//DTD SVG 1.1//EN" "http://www.w3.org/Graphics/SVG/1.1/DTD/svg11.dtd">
<svg width="100%" height="100%" viewBox="0 0 30 30" version="1.1" xmlns="http://www.w3.org/2000/svg" xmlns:xlink="http://www.w3.org/1999/xlink" xml:space="preserve" xmlns:serif="http://www.serif.com/" style="fill-rule:evenodd;clip-rule:evenodd;stroke-linejoin:round;stroke-miterlimit:2;">
    <g transform="matrix(1.19667,0,0,1.39623,-3.38684,-4.26046)">
        <path d="M9.247,7.368C9.247,7.368 14.801,8.777 15.271,11.595L15.243,20.769C15.243,20.769 13.447,16.928 8.694,15.74L9.247,7.368Z"/>
    </g>
    <g transform="matrix(-1.19667,0,0,1.39623,33.8887,-4.26046)">
        <path d="M12.42,8.595C13.756,9.295 15.054,10.295 15.271,11.595L15.243,20.769C15.243,20.769 13.447,16.928 8.694,15.74L9.053,10.312L9.068,10.348C9.221,10.703 9.616,10.938 10.057,10.938C10.498,10.938 10.892,10.703 11.045,10.348L11.704,8.822L12.42,8.595Z"/>
    </g>
    <g transform="matrix(1.31973,0,0,1.53982,-5.30347,-6.2421)">
        <path d="M8.639,8.5L7.313,8.418L5.379,19.581C5.379,19.581 11.623,17.702 15.16,21.625C15.16,21.625 13.585,17.868 8.004,16.514L8.639,8.5Z"/>
    </g>
    <g transform="matrix(-1.31973,0,0,1.53982,35.8053,-6.2421)">
        <path d="M7.304,8.471L5.379,19.581C5.379,19.581 11.623,17.702 15.16,21.625C15.16,21.625 13.585,17.868 8.004,16.514L8.582,9.222L8.409,8.822L7.304,8.471Z"/>
    </g>
    <g transform="matrix(0.906785,0,0,0.906785,8.0271,-15.4015)">
        <path d="M15.448,17.674L16.683,21.012L20.021,22.247L16.683,23.483L15.448,26.821L14.212,23.483L10.874,22.247L14.212,21.012L15.448,17.674Z"/>
    </g>
    <g transform="matrix(1.05055,0,0,1.05055,-0.0339125,-0.175246)">
        <circle cx="25.97" cy="3.402" r="0.756"/>
    </g>
    <g transform="matrix(1,0,0,1,-23.0982,23.8754)">
        <circle cx="25.97" cy="3.402" r="0.756"/>
    </g>
    <g transform="matrix(0.859566,0,0,0.859566,-15.317,23.228)">
        <circle cx="25.97" cy="3.402" r="0.756"/>
    </g>
    <g transform="matrix(0.859566,0,0,0.859566,4.78601,24.3748)">
        <circle cx="25.97" cy="3.402" r="0.756"/>
    </g>
    <g transform="matrix(0.435516,0,0,0.435516,13.8685,17.4504)">
        <path d="M15.448,17.674L16.683,21.012L20.021,22.247L16.683,23.483L15.448,26.821L14.212,23.483L10.874,22.247L14.212,21.012L15.448,17.674Z"/>
    </g>
    <g transform="matrix(0.554832,0,0,0.554832,-4.96673,-8.87307)">
        <path d="M15.448,17.674L16.683,21.012L20.021,22.247L16.683,23.483L15.448,26.821L14.212,23.483L10.874,22.247L14.212,21.012L15.448,17.674Z"/>
    </g>
    <g transform="matrix(1,0,0,1,-16.5681,-1.13332)">
        <circle cx="25.97" cy="3.402" r="0.756"/>
    </g>
</svg>
