<?xml version="1.0" encoding="UTF-8" standalone="no"?><!DOCTYPE svg PUBLIC "-//W3C//DTD SVG 1.1//EN" "http://www.w3.org/Graphics/SVG/1.1/DTD/svg11.dtd"><svg width="100%" height="100%" viewBox="0 0 30 30" version="1.1" xmlns="http://www.w3.org/2000/svg" xmlns:xlink="http://www.w3.org/1999/xlink" xml:space="preserve" xmlns:serif="http://www.serif.com/" style="fill-rule:evenodd;clip-rule:evenodd;stroke-linejoin:round;stroke-miterlimit:2;"><g><path d="M5.224,30l0.675,-3.821l8.638,0.189c-0.056,0.303 -0.054,0.623 0.015,0.942c0.15,0.697 0.591,1.26 1.171,1.587l-0.195,1.103l-10.304,0Zm13.057,-3.959c0.074,0.131 0.13,0.275 0.163,0.431c0.18,0.833 -0.357,1.657 -1.199,1.838c-0.841,0.182 -1.67,-0.348 -1.85,-1.181c-0.179,-0.833 0.358,-1.657 1.199,-1.839c0.045,-0.009 0.089,-0.017 0.134,-0.023l2.197,-5.315l-2.691,-1.141l0.643,-1.586l1.187,0.499l6.078,-14.361l3.966,-2.805l0.704,4.88l-6.068,14.264l1.174,0.439l-0.659,1.652l-2.702,-1.147l-2.276,5.395Zm2.834,-7.036l4.737,-11.105l-0.213,-1.362l-1.261,0.935l-4.65,10.946l1.387,0.586Zm-6.124,6.344l-12.294,-0.269l2.604,-9.891c1.149,-1.011 2.825,-1.135 4.085,-1.714c0.618,1.688 1.887,2.462 3.415,2.731c1.531,0.271 2.992,-0.025 4.15,-1.405c0.168,0.166 0.514,0.524 0.982,1.016l-0.329,0.777l-0.393,-0.165c-0.212,-0.089 -0.452,-0.09 -0.666,-0.002c-0.213,0.09 -0.381,0.259 -0.469,0.474l-0.641,1.586c-0.178,0.437 0.029,0.934 0.462,1.118l1.903,0.808l-0.222,0.536l-0.383,-0.398l-0.125,0.702l-8.006,-0.174c-0.284,-0.006 -0.519,0.219 -0.525,0.503c-0.007,0.284 0.219,0.519 0.502,0.525l7.987,0.173l-0.932,2.257c-0.451,0.162 -0.83,0.45 -1.105,0.812Zm2.538,-12.268c0.013,0.012 -2.052,2.267 -4.501,1.835c-2.796,-0.494 -3.605,-3.253 -3.583,-3.262c-0.289,-0.644 -0.487,-1.361 -0.576,-2.12c-0.065,-0.719 -0.036,-1.474 0.099,-2.24c0.652,-3.697 3.469,-5.934 6.361,-5.424c2.893,0.511 4.774,3.577 4.122,7.273c-0.173,0.982 -0.504,1.886 -0.95,2.674c-0.285,0.469 -0.612,0.893 -0.972,1.264Zm-16.011,-5.885l5.495,-1.277l0,2.554l-5.495,-1.277Zm0,-3.815l5.495,-1.277l0,2.554l-5.495,-1.277Zm22.468,18.877c1.844,1.971 3.32,3.555 3.32,3.555l-2.611,2.512l-4.482,-4.645l0.803,-1.902l1.905,0.81c0.214,0.09 0.456,0.091 0.669,0.002c0.165,-0.069 0.302,-0.185 0.396,-0.332Zm-22.468,-11.564l5.495,-1.277l0,2.554l-5.495,-1.277Z"/></g></svg>