<?xml version="1.0" encoding="UTF-8" standalone="no"?>
<!DOCTYPE svg PUBLIC "-//W3C//DTD SVG 1.1//EN" "http://www.w3.org/Graphics/SVG/1.1/DTD/svg11.dtd">
<svg width="100%" height="100%" viewBox="0 0 30 30" version="1.1" xmlns="http://www.w3.org/2000/svg" xmlns:xlink="http://www.w3.org/1999/xlink" xml:space="preserve" xmlns:serif="http://www.serif.com/" style="fill-rule:evenodd;clip-rule:evenodd;stroke-linejoin:round;stroke-miterlimit:2;">
    <g transform="matrix(0.0489232,0,0,0.0529599,-36.2819,-23.4254)">
        <g transform="matrix(3.48772,3.16444,-2.53598,2.38521,771.069,24.2177)">
            <path d="M151.51,54.02C153.163,57.82 155.347,61.877 158.06,66.19C165.313,77.763 172.973,90.81 181.04,105.33C181.197,105.611 181.27,105.934 181.25,106.26C180.09,121.24 166.33,137.66 150.7,126.34C145.96,122.91 142.21,116.55 145.47,110.9C148.55,105.58 158.22,101.94 163.67,99.95C163.695,99.941 163.72,99.93 163.745,99.919C164.207,99.702 164.407,99.14 164.188,98.673C164.177,98.648 164.164,98.624 164.15,98.6C151.077,76.047 138.533,53.207 126.52,30.08C124.9,26.953 124.003,24.74 123.83,23.44C123.32,19.61 124.67,14.67 129.51,15.52C131.21,15.813 132.72,16.517 134.04,17.63C139.867,22.503 145.387,27.74 150.6,33.34C158.05,41.34 173.7,51.92 184.78,52.78C185.667,52.853 186.523,53.05 187.35,53.37C187.362,53.375 187.374,53.38 187.386,53.386C187.592,53.489 187.676,53.743 187.573,53.949C187.566,53.963 187.558,53.977 187.55,53.99C183.79,59.963 178.443,63.09 171.51,63.37C165.95,63.59 156.41,56.92 151.74,53.84C151.453,53.653 151.377,53.713 151.51,54.02Z" style="fill-rule:nonzero;"/>
        </g>
        <g transform="matrix(3.48697,3.40896,-2.31376,2.01966,777.359,-41.5115)">
            <path d="M122.56,142.84C130.75,150.7 139.98,157.61 148.57,165.08C159.93,174.95 170.19,183.46 180.82,192.73C181.455,193.28 181.723,194.147 181.51,194.96C178.83,205.3 172.44,220.57 158.86,219.23C149.97,218.35 140.9,209.97 145.8,200.24C148.873,194.16 153.597,189.903 159.97,187.47C160.007,187.456 160.043,187.436 160.075,187.413C160.284,187.262 160.332,186.966 160.181,186.757C160.158,186.725 160.131,186.695 160.1,186.67C148.29,176.93 136.91,166.67 124.96,157.13C118.85,152.24 113.29,145.92 107.45,140.35C106.137,139.097 105.373,137.567 105.16,135.76C104.873,133.387 106.32,132.217 109.5,132.25C112.11,132.28 118.88,139.31 122.56,142.84Z" style="fill-rule:nonzero;"/>
        </g>
        <g transform="matrix(1.07343e-15,-16.1943,21.4355,1.2125e-15,1128.03,1037.03)">
            <path d="M3.916,7.462L3.916,3.959L8.702,3.959L8.702,2.208L14.389,5.71L8.702,9.213L8.702,7.462L3.916,7.462Z"/>
        </g>
        <g transform="matrix(1.21577e-15,-18.3416,25.6973,1.45357e-15,821.215,727.91)">
            <path d="M3.916,7.462L3.916,3.959L8.369,3.959L8.369,2.208L14.389,5.71L8.369,9.213L8.369,7.462L3.916,7.462Z"/>
        </g>
        <g transform="matrix(25.3727,0,0,23.4387,690.925,403.813)">
            <path d="M4.824,2.746L5.29,4.007L6.55,4.473L5.29,4.939L4.824,6.2L4.357,4.939L3.097,4.473L4.357,4.007L4.824,2.746Z"/>
        </g>
        <g transform="matrix(26.2305,0,0,24.2311,942.381,828.494)">
            <path d="M4.824,2.746L5.29,4.007L6.55,4.473L5.29,4.939L4.824,6.2L4.357,4.939L3.097,4.473L4.357,4.007L4.824,2.746Z"/>
        </g>
        <g transform="matrix(20.4402,0,0,18.8822,1176.7,446.599)">
            <path d="M4.824,2.746L5.29,4.007L6.55,4.473L5.29,4.939L4.824,6.2L4.357,4.939L3.097,4.473L4.357,4.007L4.824,2.746Z"/>
        </g>
    </g>
</svg>
