<?xml version="1.0" encoding="UTF-8" standalone="no"?><!DOCTYPE svg PUBLIC "-//W3C//DTD SVG 1.1//EN" "http://www.w3.org/Graphics/SVG/1.1/DTD/svg11.dtd"><svg width="100%" height="100%" viewBox="0 0 30 30" version="1.1" xmlns="http://www.w3.org/2000/svg" xmlns:xlink="http://www.w3.org/1999/xlink" xml:space="preserve" xmlns:serif="http://www.serif.com/" style="fill-rule:evenodd;clip-rule:evenodd;stroke-linejoin:round;stroke-miterlimit:2;"><g><path d="M8.072,30c0.544,-2.031 1.027,-3.81 1.326,-4.852c-0,0 -1.327,-1.551 -1.103,-4.602c0.009,-0.109 4.154,-2.634 5.577,-3.496c0.164,-0.099 0.886,1.085 0.886,1.085l0.597,-0.358c-0,-0 -1.344,-1.712 -1.339,-1.755c0.025,-0.187 -5.615,3.617 -5.579,3.42c0.229,-1.263 0.467,-2.987 1.366,-4.662c3.592,-6.69 6.997,-12.863 6.997,-12.863l1.407,2.231l-4.789,9.427l0.595,0.184l4.789,-9.056l1.504,1.453l-3.701,8.157l0.421,0.148l2.118,-2.74l2.286,1.425l-2.633,3.563l-2.002,-1.158l1.958,2.379l3.114,-4.153l1.352,2.014l-1.905,3.157l-1.548,-1.085l1.644,2.112l-2.292,4.975l-1.978,1.55l-0.465,3.5l-8.603,-0Zm21.928,-26.633c-2.069,4.318 -7.876,6.08 -7.876,6.08l1.166,-2.682c1.781,-0.754 3.373,-1.956 4.387,-3.611c0.678,-1.107 0.966,-2.167 0.993,-3.154l1.33,-0l0,3.367Zm-24.268,21.424c-12.934,-10.595 3.588,-15.309 3.588,-15.309l-1.294,2.532c-1.937,1.1 -2.028,1.226 -3.313,2.646c-4.22,4.665 1.019,10.131 1.019,10.131Zm0.469,-23.856l1.048,2.834l2.835,1.049l-2.835,1.05l-1.048,2.834l-1.049,-2.834l-2.835,-1.05l2.835,-1.049l1.049,-2.834Zm18.553,20.972l0.839,2.27l2.272,0.84l-2.272,0.841l-0.839,2.27l-0.841,-2.27l-2.271,-0.841l2.271,-0.84l0.841,-2.27Zm1.604,-10.68l0.502,1.358l1.359,0.503l-1.359,0.503l-0.502,1.358l-0.503,-1.358l-1.359,-0.503l1.359,-0.503l0.503,-1.358Z"/></g></svg>