<?xml version="1.0" encoding="UTF-8" standalone="no"?>
<!DOCTYPE svg PUBLIC "-//W3C//DTD SVG 1.1//EN" "http://www.w3.org/Graphics/SVG/1.1/DTD/svg11.dtd">
<svg width="100%" height="100%" viewBox="0 0 30 30" version="1.1" xmlns="http://www.w3.org/2000/svg" xmlns:xlink="http://www.w3.org/1999/xlink" xml:space="preserve" xmlns:serif="http://www.serif.com/" style="fill-rule:evenodd;clip-rule:evenodd;stroke-linejoin:round;stroke-miterlimit:2;">
    <g transform="matrix(1.19518,0,0.0954089,1.17472,-3.86107,-2.90566)">
        <ellipse cx="7.822" cy="15.202" rx="2.243" ry="3.034"/>
    </g>
    <g transform="matrix(1.14799,0,0.0515541,1.1685,2.18714,-8.06979)">
        <ellipse cx="7.822" cy="15.202" rx="2.243" ry="3.034"/>
    </g>
    <g transform="matrix(1.14799,0,-0.0107035,1.1685,9.51819,-8.22091)">
        <ellipse cx="7.822" cy="15.202" rx="2.243" ry="3.034"/>
    </g>
    <g transform="matrix(1.14799,0,-0.0107035,1.1685,14.6561,-2.75434)">
        <ellipse cx="7.822" cy="15.202" rx="2.243" ry="3.034"/>
    </g>
    <g transform="matrix(1.11869,0,0,1.38284,-1.70661,-7.52056)">
        <path d="M15.334,15.318C14.569,15.335 12.725,15.213 11.88,17.037C11.036,18.861 11.188,19.404 8.588,20.113C5.988,20.822 5.745,24.626 7.478,25.657C9.34,26.766 10.506,26.865 13.242,25.48C15.977,24.096 16.146,25.278 17.497,26.088C18.847,26.899 21.853,27.405 22.967,25.345C24.082,23.285 24.1,20.754 21.297,20.281C18.494,19.808 18.879,18.156 18.208,16.767C17.666,15.645 16.1,15.301 15.334,15.318Z"/>
    </g>
    <g transform="matrix(1.09498,0,0.105312,1.03158,0.812593,3.39784)">
        <path d="M3.533,2.787C3.317,3.115 2.3,5.015 2.3,5.97C2.3,6.692 2.852,7.278 3.533,7.278C4.213,7.278 4.765,6.692 4.765,5.97C4.765,5.015 3.446,3.344 3.533,2.787Z"/>
    </g>
    <g transform="matrix(1.09498,0,0.0979635,1.03158,6.57435,-2.09267)">
        <path d="M3.533,2.787C3.021,3.565 2.3,5.015 2.3,5.97C2.3,6.692 2.852,7.278 3.533,7.278C4.213,7.278 4.765,6.692 4.765,5.97C4.765,5.015 3.328,4.108 3.533,2.787Z"/>
    </g>
    <g transform="matrix(1.09498,0,0.0612215,1.03158,14.532,-2.30721)">
        <path d="M3.533,2.787C3.683,3.757 2.3,5.015 2.3,5.97C2.3,6.692 2.852,7.278 3.533,7.278C4.213,7.278 4.765,6.692 4.765,5.97C4.765,5.015 3.908,3.358 3.533,2.787Z"/>
    </g>
    <g transform="matrix(1.09498,0,-0.0453301,1.03158,20.8773,3.40508)">
        <path d="M3.533,2.787C3.624,3.375 2.3,5.015 2.3,5.97C2.3,6.692 2.852,7.278 3.533,7.278C4.213,7.278 4.765,6.692 4.765,5.97C4.765,5.015 3.761,3.133 3.533,2.787Z"/>
    </g>
</svg>
