<?xml version="1.0" encoding="UTF-8" standalone="no"?><!DOCTYPE svg PUBLIC "-//W3C//DTD SVG 1.1//EN" "http://www.w3.org/Graphics/SVG/1.1/DTD/svg11.dtd"><svg width="100%" height="100%" viewBox="0 0 30 30" version="1.1" xmlns="http://www.w3.org/2000/svg" xmlns:xlink="http://www.w3.org/1999/xlink" xml:space="preserve" xmlns:serif="http://www.serif.com/" style="fill-rule:evenodd;clip-rule:evenodd;stroke-linejoin:round;stroke-miterlimit:2;"><g><path d="M12.643,30l2.543,-3.734l-1.356,-2.691l11.894,-3.523l2.369,5.037l1.907,1.643l0,3.268l-17.357,0Zm17.357,-15.04l-3.194,3.583l-15.118,4.635l0.429,1.204l-1.723,0.57l-0.879,-2.861l-5.706,1.767c-0.054,0.144 -0.13,0.282 -0.229,0.41c-0.532,0.688 -1.528,0.81 -2.222,0.273c-0.695,-0.538 -0.826,-1.533 -0.294,-2.22c0.533,-0.688 1.529,-0.81 2.223,-0.273c0.037,0.029 0.072,0.059 0.105,0.09l5.592,-1.777l-0.876,-2.85l1.659,-0.54l0.39,1.254l15.201,-4.69l4.642,1.214l-0,0.211Zm-6.054,-8.059l0.434,0.072l-1.857,6.114l0.165,0.265l-12.024,3.532l-0.085,-0.42c-0.036,-0.13 -0.124,-0.24 -0.243,-0.304c-0.119,-0.064 -0.459,-0.002 -0.588,0.039l-1.082,0.341l1.991,-1.596c-0,0 5.027,2.808 7.835,-3.669l3.17,-4.755l1.029,0.172c0.19,-0.229 0.382,-0.457 0.574,-0.684c-0.562,-0.293 -1.122,-0.588 -1.682,-0.884c0.144,-0.165 0.289,-0.329 0.434,-0.493c0.245,0.131 0.491,0.262 0.737,0.393c1.162,-1.279 2.36,-2.537 3.6,-3.769c0.685,-0.03 1.37,-0.058 2.055,-0.084c0.132,0.524 0.264,1.049 0.396,1.573c-1.113,1.234 -2.193,2.488 -3.241,3.758c0.226,0.11 0.453,0.22 0.68,0.33c-0.128,0.171 -0.255,0.342 -0.381,0.514c-0.536,-0.273 -1.071,-0.547 -1.604,-0.822c-0.105,0.125 -0.209,0.251 -0.313,0.377Zm0.657,-0.903c0.872,-1.015 1.764,-2.019 2.68,-3.008l-0.119,-0.468c-0.226,0.023 -0.452,0.045 -0.678,0.068c-0.928,0.977 -1.832,1.967 -2.714,2.97c0.277,0.146 0.554,0.292 0.831,0.438Zm-21.916,14.946c0.062,-0.236 0.032,-0.154 0.149,-0.393c0.742,-0.776 1.364,-1.467 2.769,-1.235l1.522,-1.561l0.588,2.107l-4.555,1.4c-0.211,-0.15 -0.234,-0.255 -0.473,-0.318Zm14.36,-11.55c0.018,0.003 -0.425,3.028 -2.694,4.046c-2.59,1.162 -4.809,-0.667 -4.796,-0.686c-0.601,-0.371 -1.167,-0.854 -1.667,-1.431c-0.458,-0.559 -0.858,-1.199 -1.176,-1.91c-1.537,-3.424 -0.463,-6.857 2.217,-8.059c2.681,-1.203 5.959,0.278 7.495,3.702c0.408,0.91 0.642,1.844 0.716,2.747c0.027,0.547 -0.005,1.081 -0.095,1.591Zm-8.936,13.946l-0.641,0.445c-0.229,1.767 -1.803,1.829 -2.999,1.538c-0.203,-0.151 -0.388,-0.308 -0.556,-0.47c0.002,-0.003 0.004,-0.006 0.007,-0.009c0.08,-0.1 0.15,-0.205 0.209,-0.313l3.98,-1.191Zm11.061,-18.373c-0.012,-0.616 -0.193,-1.412 -0.612,-2.138c-0.418,-0.724 -1.018,-1.28 -1.545,-1.597c0.863,-0.292 1.943,0.129 2.479,1.058c0.537,0.929 0.361,2.074 -0.322,2.677Zm-15.685,4.712c0.137,0.869 0.548,1.961 1.281,2.905c0.733,0.943 1.689,1.612 2.497,1.959c-1.164,0.579 -2.773,0.195 -3.713,-1.015c-0.939,-1.209 -0.914,-2.863 -0.065,-3.849Zm7.675,11.769l11.778,-3.598l0.924,-1.06l-1.559,-0.37l-11.596,3.561l0.453,1.467Z"/></g></svg>