<?xml version="1.0" encoding="UTF-8" standalone="no"?><!DOCTYPE svg PUBLIC "-//W3C//DTD SVG 1.1//EN" "http://www.w3.org/Graphics/SVG/1.1/DTD/svg11.dtd"><svg width="100%" height="100%" viewBox="0 0 30 30" version="1.1" xmlns="http://www.w3.org/2000/svg" xmlns:xlink="http://www.w3.org/1999/xlink" xml:space="preserve" xmlns:serif="http://www.serif.com/" style="fill-rule:evenodd;clip-rule:evenodd;stroke-linejoin:round;stroke-miterlimit:2;"><g><path d="M-0,9.546l4.599,0.533l0.638,-1.065l-5.237,-1.329l-0,-2.354l10.92,2.507c-0.393,2.795 2.018,3.752 2.018,3.752l-4.498,4.957l6.792,1.404l-8.908,8.228l0.693,1.618l-3.366,-0.822l5.013,-7.21l-2.951,-0.185l-5.713,7.133l-0,-5.307l4.894,-8.258l-4.894,-0.87l-0,-2.732Zm6.383,20.454c3.092,-0.89 7.085,-2.252 11.076,-4.213c8.246,-4.05 10.806,-14.522 8.396,-22.217c5.031,9.304 2.645,20.007 -6.38,24.756c-1.299,0.683 -2.613,1.233 -3.912,1.674l-9.18,-0Zm13.674,-0c3.202,-1.987 5.942,-4.324 7.107,-6.922c-0.45,2.473 -1.915,4.823 -3.947,6.922l-3.16,-0Zm4.802,-30c0.291,0.712 0.52,1.429 0.682,2.142c-0.307,-0.639 -0.734,-1.37 -1.271,-2.142l0.589,0Zm-2.138,-0c4.883,7.563 3.192,17.703 -4.141,23.288c4.919,-5.593 5.092,-15.018 -0.31,-21.92c-0.375,-0.479 -0.768,-0.935 -1.178,-1.368l5.629,-0Zm-7.457,2.851c1.646,0.194 2.762,2.237 2.489,4.562c-0.273,2.324 -1.831,4.054 -3.477,3.861c-1.647,-0.193 -2.763,-2.237 -2.49,-4.561c0.273,-2.324 1.831,-4.055 3.478,-3.862Z"/></g></svg>