<?xml version="1.0" encoding="UTF-8" standalone="no"?><!DOCTYPE svg PUBLIC "-//W3C//DTD SVG 1.1//EN" "http://www.w3.org/Graphics/SVG/1.1/DTD/svg11.dtd"><svg width="100%" height="100%" viewBox="0 0 30 30" version="1.1" xmlns="http://www.w3.org/2000/svg" xmlns:xlink="http://www.w3.org/1999/xlink" xml:space="preserve" xmlns:serif="http://www.serif.com/" style="fill-rule:evenodd;clip-rule:evenodd;stroke-linejoin:round;stroke-miterlimit:2;"><g><path d="M3.631,30c3.145,-9.165 12.845,-10.885 19.788,-7.462l1.516,-1.95l3.193,6.675l-7.256,-1.45l1.364,-1.754c-5.765,-2.627 -12.777,-1.315 -16.865,5.941l-1.74,0Zm3.928,0c3.17,-5.189 9.635,-6.063 11.431,-4.346c-3.77,0.376 -7.176,1.417 -9.657,4.346l-1.774,0Zm14.539,-30l3.346,2.354l-0.04,12.711l4.1,0.437l-5.28,3.796l-3.808,-13.533l-7.69,-3.658l-2.555,11.435l-5.919,7.107l-0.019,4.408l-3.55,-4.886l4.525,-7.612l-0.126,-12.559l17.016,-0Zm-8.618,11.772l5.982,-3.083l0.731,2.609l-6.713,0.474Zm1.092,3.898l5.982,-3.083l0.731,2.61l-6.713,0.473Z"/></g></svg>