<?xml version="1.0" encoding="UTF-8" standalone="no"?><!DOCTYPE svg PUBLIC "-//W3C//DTD SVG 1.1//EN" "http://www.w3.org/Graphics/SVG/1.1/DTD/svg11.dtd"><svg width="100%" height="100%" viewBox="0 0 30 30" version="1.1" xmlns="http://www.w3.org/2000/svg" xmlns:xlink="http://www.w3.org/1999/xlink" xml:space="preserve" xmlns:serif="http://www.serif.com/" style="fill-rule:evenodd;clip-rule:evenodd;stroke-linejoin:round;stroke-miterlimit:2;"><g><path d="M30,16.905l-10.805,3.469l10.805,-6.523l0,3.054Zm0,-5.537l-16.466,11.058c-0,0 -3.251,-0.552 -3.871,-3.435l6.554,-18.991l1.068,-0l-1.544,9.527l7.367,-9.527l2.571,-0l-2.948,6.403l7.269,-4.712l0,1.051l-8.575,11.255l8.575,-3.178l0,0.549Zm-15.981,-11.368l-3.782,14.306l0.372,-14.306l3.41,-0Zm15.981,8.372l-5.358,3.405l5.358,-5.887l0,2.482Zm-1.532,-8.372l-1.389,1.205l0.883,-1.205l0.506,-0Zm-7.936,-0l-2.734,4.679l1.429,-4.679l1.305,-0Zm6.224,28.004c-0.057,-0.009 -0.103,-0.051 -0.116,-0.106c-0.014,-0.056 0.007,-0.115 0.053,-0.149l0.598,-0.442l-0.118,-0.735c-0.009,-0.056 0.017,-0.113 0.065,-0.143c0.049,-0.03 0.111,-0.028 0.158,0.005l0.606,0.432l0.662,-0.34c0.051,-0.026 0.113,-0.019 0.156,0.018c0.044,0.037 0.061,0.097 0.044,0.152l-0.223,0.709l0.527,0.525c0.04,0.041 0.053,0.101 0.031,0.155c-0.021,0.053 -0.073,0.087 -0.13,0.088l-0.744,0.007l-0.336,0.663c-0.026,0.051 -0.08,0.082 -0.137,0.078c-0.058,-0.004 -0.107,-0.042 -0.125,-0.097l-0.236,-0.705l-0.735,-0.115Zm-25.073,-0.145c-0.056,-0.009 -0.102,-0.051 -0.116,-0.106c-0.013,-0.056 0.008,-0.114 0.054,-0.149l0.598,-0.442l-0.118,-0.735c-0.009,-0.056 0.016,-0.113 0.065,-0.143c0.049,-0.03 0.111,-0.028 0.158,0.005l0.605,0.432l0.663,-0.339c0.051,-0.027 0.112,-0.019 0.156,0.018c0.044,0.036 0.061,0.096 0.044,0.151l-0.223,0.709l0.527,0.525c0.04,0.041 0.053,0.102 0.031,0.155c-0.022,0.053 -0.073,0.088 -0.13,0.088l-0.744,0.007l-0.337,0.663c-0.026,0.052 -0.08,0.082 -0.137,0.078c-0.057,-0.004 -0.106,-0.042 -0.124,-0.097l-0.237,-0.705l-0.735,-0.115Zm0.719,-24.865c-0.061,-0.01 -0.111,-0.055 -0.126,-0.116c-0.015,-0.06 0.008,-0.124 0.058,-0.161l0.651,-0.482l-0.129,-0.799c-0.01,-0.061 0.019,-0.123 0.071,-0.156c0.053,-0.033 0.121,-0.031 0.172,0.006l0.659,0.469l0.72,-0.369c0.056,-0.028 0.123,-0.02 0.17,0.02c0.048,0.04 0.067,0.105 0.048,0.164l-0.243,0.772l0.574,0.572c0.044,0.044 0.057,0.11 0.034,0.168c-0.024,0.057 -0.08,0.095 -0.142,0.096l-0.809,0.007l-0.366,0.722c-0.029,0.056 -0.087,0.089 -0.15,0.084c-0.062,-0.004 -0.115,-0.046 -0.135,-0.105l-0.257,-0.767l-0.8,-0.125Zm-0.859,8.109c-0.089,-0.014 -0.161,-0.08 -0.182,-0.167c-0.022,-0.087 0.011,-0.179 0.083,-0.232l0.939,-0.696l-0.185,-1.153c-0.014,-0.088 0.026,-0.177 0.103,-0.225c0.076,-0.047 0.173,-0.044 0.247,0.008l0.951,0.678l1.039,-0.532c0.08,-0.041 0.177,-0.03 0.246,0.028c0.069,0.058 0.096,0.152 0.069,0.237l-0.351,1.114l0.827,0.824c0.064,0.064 0.084,0.159 0.05,0.243c-0.034,0.083 -0.115,0.138 -0.205,0.139l-1.168,0.01l-0.528,1.042c-0.04,0.08 -0.125,0.128 -0.215,0.121c-0.09,-0.006 -0.167,-0.066 -0.195,-0.151l-0.371,-1.107l-1.154,-0.181Zm8.03,-4.097c-1.3,-0.599 -2.403,-0.504 -3.371,0.029c-0.412,0.225 -0.752,0.551 -1.022,0.961c-0.322,-0.177 -0.716,-0.187 -1.053,-0.015l-0.363,0.186c0.412,-0.974 1.048,-1.715 1.87,-2.167c1.091,-0.6 2.439,-0.651 3.881,-0.146c0.056,0.444 0.029,0.686 0.058,1.152Zm0.795,20.862c-0.117,-0.019 -0.212,-0.106 -0.24,-0.221c-0.029,-0.115 0.015,-0.237 0.11,-0.307l1.24,-0.918l-0.245,-1.523c-0.018,-0.118 0.035,-0.235 0.136,-0.297c0.101,-0.063 0.23,-0.059 0.326,0.01l1.256,0.895l1.373,-0.703c0.106,-0.054 0.234,-0.039 0.325,0.037c0.091,0.077 0.126,0.201 0.091,0.314l-0.463,1.471l1.092,1.089c0.085,0.083 0.11,0.21 0.065,0.32c-0.044,0.11 -0.151,0.182 -0.27,0.183l-1.542,0.014l-0.698,1.376c-0.053,0.106 -0.165,0.169 -0.284,0.16c-0.118,-0.008 -0.22,-0.087 -0.258,-0.2l-0.49,-1.462l-1.524,-0.238Zm-1.226,-12.697c-1.471,-0.033 -2.811,0.1 -3.944,0.387c0.36,1.069 0.841,2.17 1.442,3.262c1.162,2.11 2.588,3.859 4.043,5.084c-0.321,0.285 -0.479,0.717 -0.409,1.149l0.006,0.04c-1.677,-1.323 -3.343,-3.288 -4.673,-5.704c-0.638,-1.161 -1.147,-2.332 -1.529,-3.471c-1.318,0.53 -2.21,1.329 -2.487,2.366c-0.721,2.695 2.966,6.079 8.456,7.987l-0.387,0.287c-0.227,0.168 -0.386,0.401 -0.462,0.661c-3.056,-1.13 -5.543,-2.699 -7.059,-4.331c-1.517,-1.635 -2.096,-3.38 -1.687,-4.909c0.367,-1.374 1.512,-2.502 3.287,-3.194c-0.122,-0.46 -0.223,-0.911 -0.301,-1.351c0.359,-0.051 0.676,-0.273 0.845,-0.606l0.196,-0.386c0.074,0.634 0.201,1.3 0.381,1.985c1.233,-0.315 2.697,-0.467 4.304,-0.431c0,0 -0.016,1.062 -0.022,1.175Zm10.186,6.163c0.008,0.394 0.003,0.629 -0.033,0.99c-0.196,1.997 -1.039,3.479 -2.365,4.209c-0.31,0.17 -0.641,0.297 -0.988,0.379l-0.56,-0.557l0.177,-0.566c0.283,-0.056 0.552,-0.152 0.803,-0.29c1.18,-0.65 1.765,-1.977 1.789,-3.874c0.089,-0.021 0.874,-0.226 1.177,-0.291Zm4.973,-1.613c0.144,0.139 0.094,0.098 0.224,0.236c1.517,1.635 2.096,3.38 1.686,4.909c-0.408,1.529 -1.78,2.753 -3.911,3.411c-1.659,0.514 -3.81,0.699 -6.199,0.497c0.098,-0.107 0.177,-0.233 0.234,-0.372c0.104,-0.255 0.12,-0.529 0.056,-0.784c4.517,0.346 8.075,-0.787 8.681,-3.057c0.402,-1.5 -0.377,-3.033 -2.257,-4.586c0.106,0.002 1.173,-0.241 1.486,-0.254Z"/></g></svg>