<?xml version="1.0" encoding="UTF-8" standalone="no"?><!DOCTYPE svg PUBLIC "-//W3C//DTD SVG 1.1//EN" "http://www.w3.org/Graphics/SVG/1.1/DTD/svg11.dtd"><svg width="100%" height="100%" viewBox="0 0 30 30" version="1.1" xmlns="http://www.w3.org/2000/svg" xmlns:xlink="http://www.w3.org/1999/xlink" xml:space="preserve" xmlns:serif="http://www.serif.com/" style="fill-rule:evenodd;clip-rule:evenodd;stroke-linejoin:round;stroke-miterlimit:2;"><g><path d="M1.771,30l-1.33,-3.89l3.911,3.89l-2.581,0Zm8.086,0l5.732,-4.258l1.859,2.674l-2.256,1.584l-5.335,0Zm6.56,0l0.023,-0.045l1.288,-1.14l0.815,1.185l-2.126,0Zm10.209,0l-4.461,-7.204l3.444,-5.365l3.505,-0.543l0.886,1.254l0,11.858l-3.374,0Zm3.374,-19.194l-1.133,0.76l-6.021,-11.566l0.129,-0l7.025,8.077l0,2.729Zm-21.743,19.114l-0.01,0.015l-2.213,-0.844l-4.674,-6.533l0.791,-1.56l2.757,3.316l1.464,-1.131l-0.326,-0.683l-1.086,0.481l-2.846,-3.835l1.239,-2.143l3.797,5.246l1.269,-0.914l-0.333,-0.645l-0.705,0.393l-3.515,-5.133l2.51,-0.911l1.635,3.155l0.664,-0.116l1.277,2.269l1.261,0.177l-0.157,3.11l-0.087,1.108l2.863,-0.082l-2.138,-0.774l0.226,-3.315l1.166,-0.018l-0.51,-1.029l-2.273,0.116l-0.616,-1.511l4.457,-1.288l2.847,4.967l-0.947,3.084l-6.999,4.921l-0.797,0.136l0.009,-0.029Zm0.714,-12.232l-1.906,-2.729l2.732,-0.557l1.73,2.648l-2.556,0.638Zm-6.515,-11.675l4.953,4.927l-2.7,1.662l-2.253,-6.589Zm24.279,7.791l2.161,2.653l-7.902,0.499l3.251,-1.877l2.49,-1.275Zm-7.842,4.467l1.56,-0.732l4.614,-0.329l-3.278,5.524l-2.896,-4.463Zm4.715,-8.22l0.031,0.002l-0.437,0.676l-7.297,4.476l-3.232,-0.337l-3.504,-4.536l2.933,-3.568l1.163,1.151l-0.993,2.031l0.757,0.867l0.471,-1.058l3.166,1.084l-0.114,2.255l1.191,-2.583l-1.063,-0.353l-2.948,-1.068l0.327,-1.22l-1.61,-2.051l0.366,-0.561l-2.293,-2.723l1.824,-1.937l3.397,5.21l-0.639,0.491l0.469,0.555l1.343,-0.803l-3.393,-5.512l2.473,-0.297l2.453,4.094l-0.87,0.804l0.508,0.565l1.62,-0.897l-2.005,-3.81l1.757,-0.115l4.246,6.814l-0.079,2.351l-0.018,0.003Zm-11.637,-4.113l-1.588,2.086l-1.785,-2.611l1.581,-2.279l1.792,2.804Zm4.901,9.183l7.431,-4.297l1.977,2.337l-7.648,4.699l-1.76,-2.739Z"/></g></svg>