<?xml version="1.0" encoding="UTF-8" standalone="no"?><!DOCTYPE svg PUBLIC "-//W3C//DTD SVG 1.1//EN" "http://www.w3.org/Graphics/SVG/1.1/DTD/svg11.dtd"><svg width="100%" height="100%" viewBox="0 0 30 30" version="1.1" xmlns="http://www.w3.org/2000/svg" xmlns:xlink="http://www.w3.org/1999/xlink" xml:space="preserve" xmlns:serif="http://www.serif.com/" style="fill-rule:evenodd;clip-rule:evenodd;stroke-linejoin:round;stroke-miterlimit:2;"><g><path d="M3.631,30c3.145,-9.165 12.845,-10.885 19.788,-7.462l1.516,-1.95l3.193,6.675l-7.256,-1.45l1.364,-1.754c-5.765,-2.627 -12.777,-1.315 -16.865,5.941l-1.74,0Zm3.928,0c3.17,-5.189 9.635,-6.063 11.431,-4.346c-3.77,0.376 -7.176,1.417 -9.657,4.346l-1.774,0Zm12.221,-30l0.787,10.97l7.116,0.235l-9.698,7.488l-4.996,-18.693l6.791,-0Zm-3.942,13.564l0.476,2.167c-0.142,0.319 -0.74,1.28 -1.238,1.221c-0.497,-0.059 -0.147,-1.021 -0.147,-1.021c-0.483,0.462 -1.35,0.979 -1.808,0.964c-0.457,-0.014 -0.086,-0.79 -0.086,-0.79c-0.266,0.248 -1.04,1.299 -1.978,1.132c-0.937,-0.168 1.167,-2.355 1.167,-2.355c-1.088,0.686 -3.598,1.883 -4.558,1.192c-0.962,-0.69 3.011,-2.606 3.011,-2.606c-0,-0 -1.521,0.362 -3.928,0.736c-2.408,0.376 -3.709,-0.558 -3.052,-1.137c0.657,-0.579 4.86,-1.497 4.86,-1.497c-1.553,0.312 -7.715,0.117 -7.526,-0.792c0.376,-1.808 14.036,-3.429 12.399,0.031c-1.591,3.359 2.408,2.755 2.408,2.755Z"/></g></svg>