<?xml version="1.0" encoding="UTF-8" standalone="no"?><!DOCTYPE svg PUBLIC "-//W3C//DTD SVG 1.1//EN" "http://www.w3.org/Graphics/SVG/1.1/DTD/svg11.dtd"><svg width="100%" height="100%" viewBox="0 0 30 30" version="1.1" xmlns="http://www.w3.org/2000/svg" xmlns:xlink="http://www.w3.org/1999/xlink" xml:space="preserve" xmlns:serif="http://www.serif.com/" style="fill-rule:evenodd;clip-rule:evenodd;stroke-linejoin:round;stroke-miterlimit:2;"><g><path d="M1.188,30l4.114,-5.974l4.914,-5.756c2.69,-0.111 4.885,-0.972 6.295,-2.976c-0,-0 -1.536,8.058 -1.536,8.779c-0,2.092 1.698,3.79 3.79,3.79c1.667,-0 5.939,-4.839 5.939,-4.839l2.32,4.873l2.263,2.103l-15.801,-0l0.631,-0.926l-2.486,-5.792l-3.789,4.745l-1.12,1.973l-5.534,-0Zm28.812,-13.51l-10.566,9.9c-0,-0 -2.558,-0.074 -3.184,-2.296l3.254,-19.047l0.008,11.595l7.965,-14.688l-3.2,11.555l5.723,-5.189l0,0.084l-6.939,12.299l6.939,-4.599l0,0.386Zm0,-11.101l-3.148,3.778l3.148,-6.18l0,2.402Zm-4.616,-5.389l-4.94,12.832l1.744,-12.832l3.196,-0Zm4.616,13.959l-3.675,3.272l3.675,-5.646l0,2.374Zm-26.921,-8.469c0.031,-0.074 0.102,-0.121 0.182,-0.121c0.079,-0 0.151,0.047 0.182,0.121l0.398,0.951l1.028,0.085c0.079,0.006 0.147,0.06 0.171,0.135c0.025,0.076 0.002,0.159 -0.059,0.211l-0.782,0.673l0.238,1.003c0.018,0.078 -0.012,0.159 -0.076,0.205c-0.065,0.047 -0.151,0.05 -0.219,0.009l-0.881,-0.536l-0.882,0.536c-0.068,0.041 -0.154,0.038 -0.218,-0.009c-0.064,-0.046 -0.094,-0.127 -0.076,-0.205l0.237,-1.003l-0.782,-0.673c-0.06,-0.052 -0.083,-0.135 -0.059,-0.211c0.025,-0.075 0.093,-0.129 0.172,-0.135l1.028,-0.085l0.398,-0.951Zm13.851,-1.142c0.566,0.423 0.946,0.955 1.108,1.56c0.262,0.978 -0.063,2.071 -0.935,3.09c-1.092,1.276 -3.08,2.471 -5.514,3.123c-0.685,0.184 -1.36,0.312 -2.013,0.39c-1.145,1.579 -2.431,2.775 -3.621,3.437c-1.304,0.724 -2.53,0.821 -3.458,0.311c-0.928,-0.509 -1.503,-1.596 -1.591,-3.085c-0.068,-1.16 0.155,-2.587 0.668,-4.106c0.055,0.08 0.123,0.152 0.205,0.212c0.148,0.108 0.324,0.162 0.5,0.161c-0.947,2.879 -0.779,5.37 0.598,6.127c1.415,0.778 3.691,-0.504 5.649,-2.975c-1.251,0.046 -2.379,-0.104 -3.273,-0.42c-1.265,-0.446 -2.093,-1.23 -2.355,-2.208c-0.062,-0.229 -0.091,-0.464 -0.088,-0.703l0.451,-0.274l0.339,0.206c-0.009,0.192 0.01,0.382 0.06,0.567c0.402,1.502 2.675,2.263 5.479,2.005c0.328,-0.474 0.642,-0.981 0.936,-1.517c1.215,-2.211 1.836,-4.443 1.825,-6.15c-0.752,0.063 -1.544,0.199 -2.349,0.415c-1.556,0.417 -2.92,1.064 -3.948,1.813c-0.134,-0.253 -0.389,-0.425 -0.681,-0.449l-0.026,-0.003c1.127,-0.877 2.669,-1.646 4.451,-2.123c0.856,-0.229 1.698,-0.373 2.498,-0.438c-0.133,-0.941 -0.51,-1.648 -1.139,-1.994c-1.635,-0.899 -4.422,0.955 -6.539,4.216l-0.124,-0.298c-0.073,-0.173 -0.199,-0.314 -0.355,-0.405c1.221,-1.804 2.638,-3.169 3.941,-3.893c1.303,-0.724 2.53,-0.821 3.457,-0.311c0.834,0.458 1.383,1.382 1.55,2.645c0.317,-0.006 0.626,0.001 0.925,0.021c-0.024,0.241 0.069,0.483 0.258,0.645l0.22,0.189c-0.424,-0.053 -0.876,-0.077 -1.35,-0.07c0.017,1.821 -0.625,4.21 -1.922,6.569c-0.189,0.345 -0.387,0.678 -0.591,0.999c0.398,-0.07 0.802,-0.159 1.209,-0.268c3.758,-1.007 6.397,-3.358 5.891,-5.247c-0.081,-0.303 -0.239,-0.576 -0.461,-0.817c0.166,-0.181 0.236,-0.436 0.178,-0.681l-0.063,-0.266Zm-11.27,2.632c1.001,-0.8 2.409,-1.493 4.035,-1.929c0.551,-0.148 1.097,-0.257 1.626,-0.329c-0.122,1.534 -0.713,3.403 -1.733,5.259c-0.24,0.438 -0.495,0.856 -0.76,1.252c-1.452,0.101 -2.735,-0.084 -3.619,-0.537c-0.031,-0.016 -0.062,-0.033 -0.092,-0.049c-0.119,-0.534 -0.178,-1.059 -0.178,-1.566c0.136,-0.195 0.187,-0.442 0.131,-0.682l-0.064,-0.268c0.026,-0.172 0.058,-0.34 0.097,-0.506c0.137,-0.118 0.303,-0.26 0.303,-0.26c0.121,-0.105 0.208,-0.238 0.254,-0.385Zm7.541,-1.968c0.865,0.691 1.618,1.652 2.156,2.852c0.106,0.237 0.201,0.476 0.284,0.715c-0.996,0.921 -2.53,1.733 -4.337,2.226c1.102,-2.032 1.732,-4.081 1.897,-5.793Zm2.874,5.651c0.023,0.529 -0.01,1.046 -0.097,1.539c0.018,0.003 -0.424,3.028 -2.694,4.046c-2.59,1.162 -4.809,-0.667 -4.796,-0.686c-0.187,-0.116 -0.37,-0.242 -0.549,-0.378c0.662,-0.595 1.322,-1.319 1.944,-2.152c0.601,-0.081 1.223,-0.206 1.85,-0.374c1.704,-0.456 3.196,-1.172 4.342,-1.995Zm-9.48,3.179c-0.207,-0.277 -0.4,-0.572 -0.577,-0.883c0.409,0.084 0.847,0.143 1.308,0.173c-0.242,0.258 -0.486,0.495 -0.731,0.71Zm-1.521,3.596c0.023,-0.055 0.078,-0.091 0.138,-0.091c0.06,-0 0.114,0.036 0.138,0.091l0.301,0.721l0.778,0.064c0.06,0.005 0.112,0.045 0.13,0.103c0.019,0.057 0.001,0.12 -0.044,0.159l-0.593,0.509l0.18,0.76c0.014,0.059 -0.009,0.12 -0.057,0.156c-0.049,0.035 -0.114,0.038 -0.166,0.006l-0.667,-0.405l-0.668,0.405c-0.051,0.032 -0.116,0.029 -0.165,-0.006c-0.049,-0.036 -0.071,-0.097 -0.057,-0.156l0.179,-0.76l-0.592,-0.509c-0.045,-0.039 -0.063,-0.102 -0.044,-0.159c0.018,-0.058 0.069,-0.098 0.129,-0.103l0.779,-0.064l0.301,-0.721Zm10.304,-15.002c0.023,-0.055 0.077,-0.091 0.137,-0.091c0.06,-0 0.115,0.036 0.138,0.091l0.301,0.721l0.779,0.064c0.06,0.005 0.111,0.045 0.13,0.102c0.018,0.058 0.001,0.12 -0.045,0.16l-0.592,0.509l0.179,0.76c0.014,0.059 -0.008,0.12 -0.057,0.155c-0.049,0.036 -0.114,0.038 -0.165,0.007l-0.668,-0.406l-0.667,0.406c-0.052,0.031 -0.117,0.029 -0.165,-0.007c-0.049,-0.035 -0.072,-0.096 -0.058,-0.155l0.18,-0.76l-0.592,-0.509c-0.046,-0.04 -0.064,-0.102 -0.045,-0.16c0.019,-0.057 0.07,-0.097 0.13,-0.102l0.778,-0.064l0.302,-0.721Z"/></g></svg>