<?xml version="1.0" encoding="UTF-8" standalone="no"?>
<!DOCTYPE svg PUBLIC "-//W3C//DTD SVG 1.1//EN" "http://www.w3.org/Graphics/SVG/1.1/DTD/svg11.dtd">
<svg width="100%" height="100%" viewBox="0 0 30 30" version="1.1" xmlns="http://www.w3.org/2000/svg" xmlns:xlink="http://www.w3.org/1999/xlink" xml:space="preserve" xmlns:serif="http://www.serif.com/" style="fill-rule:evenodd;clip-rule:evenodd;stroke-linejoin:round;stroke-miterlimit:2;">
    <g transform="matrix(-1,0,0,1,29.7341,0)">
        <g transform="matrix(1.55621,0.77922,-0.77922,1.55621,-15.4979,-23.3286)">
            <path d="M21.109,10.643C21.109,10.643 22.658,8.716 20.73,7.581C18.803,6.446 20.406,5.69 21.217,5.186C22.027,4.681 27.61,1.62 27.61,1.62C27.61,1.62 29.79,0.449 28.295,2.16C26.8,3.871 24.657,5.33 24.657,5.33C24.657,5.33 27.304,3.853 27.61,4.321C27.916,4.789 24.981,6.861 24.098,7.221C24.098,7.221 26.512,6.284 27.034,6.356C27.556,6.428 27.214,7.329 25.881,7.941C24.549,8.554 23.666,8.878 23.666,8.878C23.666,8.878 26.296,8.518 26.043,9.184C25.791,9.85 24.134,10.084 23.36,10.102C23.36,10.102 25.143,10.499 24.729,10.895C24.314,11.291 23.576,11.021 23.36,10.985C23.36,10.985 23.804,11.251 23.58,11.41C23.355,11.57 22.748,11.599 22.352,11.528C22.352,11.528 22.848,11.894 22.618,12.089C22.388,12.284 21.768,12.001 21.591,11.888L21.109,10.643Z"/>
        </g>
        <g transform="matrix(-1.0251,0,0,1.0251,29.9567,0.211868)">
            <path d="M19.547,5.675C19.774,5.736 20,5.807 20.232,5.902C21.26,6.324 22.234,6.646 23.153,6.868C23.395,6.926 23.695,6.968 24.055,6.994C24.573,7.031 25.017,7.221 25.457,7.474C25.959,7.761 26.46,8.047 26.963,8.332C27.058,8.385 27.175,8.483 27.315,8.625C27.642,8.956 27.889,9.247 27.822,9.732C27.741,10.314 27.596,10.911 27.385,11.523C27.3,11.772 27.229,12.015 27.172,12.252C26.937,13.225 26.603,14.162 26.167,15.065C26.043,15.321 25.857,15.334 25.729,15.075C25.147,13.905 23.994,13.205 22.82,12.723C22.495,12.59 22.169,12.391 21.869,12.191C21.928,12.043 21.952,11.883 21.937,11.723L21.722,9.466C21.688,9.111 21.468,8.801 21.143,8.652C21.143,8.652 18.76,7.618 19.547,5.675Z" style="fill-rule:nonzero;"/>
        </g>
        <g transform="matrix(-0.370415,-0.955838,-0.851761,0.330082,39.1598,11.882)">
            <path d="M3.751,11.742L5.041,23.168L2.461,23.168L3.751,11.742Z"/>
        </g>
        <g transform="matrix(-0.370415,-0.955838,-0.589629,0.228498,34.7492,18.5427)">
            <path d="M3.751,11.742L5.041,23.168L2.461,23.168L3.751,11.742Z"/>
        </g>
        <g transform="matrix(-1.0251,0,0,1.0251,29.9567,0.211868)">
            <path d="M20.4,13.714C20.552,13.737 20.712,13.751 20.882,13.751C21.696,13.753 22.642,13.944 23.38,14.136C23.739,14.229 24.014,14.645 24.185,14.958C24.201,14.988 24.198,15.024 24.177,15.051C24.052,15.217 23.923,15.38 23.792,15.541C22.718,16.86 21.639,18.173 20.555,19.483C20.471,19.584 20.379,19.679 20.279,19.768C20.218,19.821 20.16,19.819 20.105,19.759C19.943,19.587 19.449,19.719 19.288,19.795C18.932,19.963 18.567,20.204 18.192,20.517C18.191,20.517 18.19,20.518 18.19,20.519C18.178,20.53 18.176,20.546 18.185,20.555C18.185,20.555 18.186,20.556 18.186,20.556C18.196,20.563 18.207,20.564 18.219,20.561C18.881,20.365 19.727,20.324 20.346,20.65C20.726,20.849 20.943,20.951 21.225,21.198C22.634,22.429 24.039,23.664 25.439,24.904C25.453,24.917 25.463,24.934 25.467,24.952C25.584,25.456 25.682,25.962 25.761,26.471C25.801,26.729 25.766,26.978 25.655,27.218C25.418,27.73 25.157,28.378 24.747,28.536C24.701,28.554 24.651,28.555 24.605,28.54C21.732,27.554 18.88,26.548 16.05,25.522C15.87,25.457 15.695,25.38 15.525,25.291C15.417,25.235 15.352,25.148 15.329,25.031L15.23,24.525C15.229,24.522 15.228,24.519 15.227,24.516C15.217,24.492 15.19,24.48 15.168,24.489C15.165,24.491 15.162,24.492 15.16,24.494L14.731,24.806C14.663,24.856 14.596,24.865 14.529,24.835C13.3,24.28 12.1,23.707 10.93,23.116C10.84,23.071 10.811,23 10.842,22.904C11.03,22.325 11.248,21.729 11.496,21.116C11.539,21.012 11.571,20.889 11.592,20.746C11.753,19.687 12.536,18.804 13.371,18.167C13.739,17.888 14.045,17.56 14.301,17.237C14.682,16.758 14.712,16.112 14.739,15.504C14.766,14.88 14.957,14.267 15.168,13.663C15.779,13.838 16.389,13.725 16.93,13.464C16.942,13.458 16.955,13.451 16.968,13.445C17.088,13.513 17.232,13.565 17.405,13.592C17.652,13.63 17.977,13.611 18.336,13.517C18.416,13.496 18.498,13.471 18.583,13.443C18.743,13.647 18.977,13.797 19.298,13.875C19.632,13.956 20.019,13.909 20.4,13.714Z" style="fill-rule:nonzero;"/>
        </g>
    </g>
</svg>
