<?xml version="1.0" encoding="UTF-8" standalone="no"?><!DOCTYPE svg PUBLIC "-//W3C//DTD SVG 1.1//EN" "http://www.w3.org/Graphics/SVG/1.1/DTD/svg11.dtd"><svg width="100%" height="100%" viewBox="0 0 30 30" version="1.1" xmlns="http://www.w3.org/2000/svg" xmlns:xlink="http://www.w3.org/1999/xlink" xml:space="preserve" xmlns:serif="http://www.serif.com/" style="fill-rule:evenodd;clip-rule:evenodd;stroke-linejoin:round;stroke-miterlimit:2;"><g><path d="M0,25.785l7.962,-10.841c0,0 5.027,2.808 7.835,-3.669l3.408,-0.453l9.363,5.028l0.092,5.389l-2.607,1.483l-0.552,-4.083l-4.382,-2.743l1.91,4.156l2.369,5.037l2.944,2.536l1.658,1.305l0,1.07l-20.052,-0l2.543,-3.734l-1.356,-2.691c0,-0 -1.517,-3.386 -1.636,-3.45c-0.119,-0.064 -6.373,8.799 -6.502,8.84l-2.997,-1.717l0,-1.463Zm30,-13.242c-1.068,-0.901 -1.956,-1.775 -3.044,-2.706c-0.584,1.156 -0.943,1.619 -1.533,2.771c-0.332,-0.294 -0.989,-0.806 -1.32,-1.102c0.261,-0.506 0.522,-1.012 0.783,-1.519c-2.408,-2.213 -7.543,-7.258 -10.246,-9.987l7.523,-0c2.086,1.924 4.191,3.841 5.489,4.926c0.22,-0.466 0.439,-0.933 0.658,-1.4c0.345,0.26 1.014,0.736 1.36,0.995c-0.542,1.103 -0.776,1.517 -1.324,2.615c0.633,0.535 1.139,1.167 1.654,1.788l0,3.619Zm-16.288,-3.149c0.018,0.003 -0.07,3.028 -2.22,4.046c-2.453,1.162 -4.887,-0.667 -4.876,-0.686c-0.645,-0.371 -1.267,-0.854 -1.835,-1.431c-0.523,-0.559 -0.998,-1.199 -1.4,-1.91c-1.937,-3.424 -1.266,-6.857 1.274,-8.059c2.539,-1.203 5.99,0.278 7.928,3.702c0.515,0.91 0.858,1.844 1.038,2.747c0.091,0.547 0.121,1.081 0.091,1.591Zm1.998,-0.703c-0.102,-0.92 -0.502,-2.256 -1.212,-3.575c-0.711,-1.32 -1.62,-2.416 -2.349,-3.039c1.045,-0.494 2.692,0.587 3.675,2.413c0.982,1.825 0.931,3.707 -0.114,4.201Zm-14.504,-0.012c0.259,0.894 0.882,2.149 1.806,3.334c0.925,1.185 2.004,2.113 2.825,2.604c-0.936,0.672 -2.733,-0.112 -4.012,-1.752c-1.278,-1.638 -1.555,-3.514 -0.619,-4.186Z"/></g></svg>