<?xml version="1.0" encoding="UTF-8" standalone="no"?><!DOCTYPE svg PUBLIC "-//W3C//DTD SVG 1.1//EN" "http://www.w3.org/Graphics/SVG/1.1/DTD/svg11.dtd"><svg width="100%" height="100%" viewBox="0 0 30 30" version="1.1" xmlns="http://www.w3.org/2000/svg" xmlns:xlink="http://www.w3.org/1999/xlink" xml:space="preserve" xmlns:serif="http://www.serif.com/" style="fill-rule:evenodd;clip-rule:evenodd;stroke-linejoin:round;stroke-miterlimit:2;"><g><path d="M0,6.244l3.069,6.243l-3.069,-3.881l0,-2.362Zm30,2.354l-3.075,3.889l3.075,-6.256l0,2.367Zm0,-5.519l-8.156,15.785l5.375,-18.864l2.781,0l0,3.079Zm-4.382,-3.079c-1.397,6.172 -4.474,16.065 -6.216,21.511l-0.557,0.595l-2.815,-6.021c-0.165,-0.351 -0.518,-0.576 -0.906,-0.576c-0.388,-0 -0.741,0.225 -0.906,0.576l-2.881,6.163c-1.784,-5.278 -5.232,-15.714 -6.871,-22.248l21.152,-0Zm-22.843,0l5.375,18.864l-8.15,-15.772l0,-3.092l2.775,0Zm-0.111,13.953l0.331,0.894l0.894,0.332l-0.894,0.331l-0.331,0.894l-0.331,-0.894l-0.894,-0.331l0.894,-0.332l0.331,-0.894Zm24.569,-0.594l0.473,1.28l1.279,0.474l-1.279,0.473l-0.473,1.279l-0.473,-1.279l-1.28,-0.473l1.28,-0.474l0.473,-1.28Zm-2.678,14.64c-7.001,1.977 -12.261,2.015 -19.192,0l-0,-10.543l6.237,7.538l3.524,-7.538l3.442,7.361l5.989,-7.361l0,10.543Zm-3.857,-26.59l-0.415,1.123l-1.123,0.416l1.123,0.415l0.415,1.123l0.416,-1.123l1.122,-0.415l-1.122,-0.416l-0.416,-1.123Zm-10.961,-0.554l-0.505,1.365l-1.365,0.506l1.365,0.505l0.505,1.365l0.505,-1.365l1.366,-0.505l-1.366,-0.506l-0.505,-1.365Zm5.263,2.652l-0.904,2.782l-1.742,-0.859l0.279,1.922l-2.926,-0l2.367,1.72l-1.356,1.391l1.915,0.329l-0.904,2.782l2.367,-1.72l0.904,1.72l0.904,-1.72l2.367,1.72l-0.904,-2.782l1.915,-0.329l-1.356,-1.391l2.367,-1.72l-2.926,-0l0.279,-1.922l-1.742,0.859l-0.904,-2.782Zm2.913,11.818c-0.153,0.153 -0.153,0.401 0,0.554c0.153,0.153 0.402,0.153 0.555,-0c0.153,-0.153 0.153,-0.401 0,-0.554c-0.153,-0.153 -0.402,-0.153 -0.555,-0Zm-6.286,0.742c-0.212,0.213 -0.212,0.558 0,0.771c0.213,0.213 0.558,0.213 0.771,-0c0.213,-0.213 0.213,-0.558 0,-0.771c-0.213,-0.212 -0.558,-0.212 -0.771,-0Z"/></g></svg>