<?xml version="1.0" encoding="UTF-8" standalone="no"?><!DOCTYPE svg PUBLIC "-//W3C//DTD SVG 1.1//EN" "http://www.w3.org/Graphics/SVG/1.1/DTD/svg11.dtd"><svg width="100%" height="100%" viewBox="0 0 30 30" version="1.1" xmlns="http://www.w3.org/2000/svg" xmlns:xlink="http://www.w3.org/1999/xlink" xml:space="preserve" xmlns:serif="http://www.serif.com/" style="fill-rule:evenodd;clip-rule:evenodd;stroke-linejoin:round;stroke-miterlimit:2;"><g><path d="M30,6.435l-14.962,17.069l-15.038,-16.816l0,-6.688l30,-0l0,6.435Zm-22.869,23.565c0.395,-0.254 0.815,-0.706 0.431,-1.368c-0.736,-1.271 -2.234,-3.318 -5.277,-6.237l-1.796,-4.85l-0.026,-5.633l1.746,0.461l0.539,4.646l1.668,2.746l2.156,1.873l1.36,0.59l-1.335,-1.232l-1.591,-1.539l-0.693,-1.668l1.848,-0.436l2.079,2.489l3.31,2.695l1.31,5.543l-0.636,1.92l-5.093,-0Zm10.575,0l-0.522,-1.92l1.309,-5.543l3.311,-2.695l2.078,-2.489l1.849,0.436l-0.693,1.668l-1.592,1.539l-1.334,1.232l1.36,-0.59l2.156,-1.873l1.668,-2.746l0.539,-4.646l1.745,-0.461l-0.025,5.633l-1.796,4.85c-2.91,2.792 -4.408,4.785 -5.177,6.066c-0.454,0.756 -0.128,1.263 0.183,1.539l-5.059,0Zm9.393,-26.195l-2.099,0l-0,-2.099l-1.486,0l-0,2.099l-2.1,0l-0,1.486l2.1,0l-0,2.099l1.486,0l-0,-2.099l2.099,0l-0,-1.486Zm-12.077,16.097l0.781,-3.343l1.952,1.357l-0.687,-2.275l3.421,0.289l-2.938,-1.776l1.894,-1.437l-2.377,-0.05l1.333,-3.164l-2.598,2.245l-0.781,-2.245l-0.782,2.245l-2.597,-2.245l1.332,3.164l-2.376,0.05l1.893,1.437l-2.937,1.776l3.42,-0.289l-0.687,2.275l1.952,-1.357l0.782,3.343Zm-4.75,-15.35l-2.612,-0l-0,-2.612l-2.07,-0l-0,2.612l-2.611,-0l-0,2.069l2.611,-0l-0,2.612l2.07,0l-0,-2.612l2.612,0l-0,-2.069Zm3.711,-0.823l-0.279,0.718l-0.755,0.265l0.755,0.266l0.279,0.718l0.279,-0.718l0.755,-0.266l-0.755,-0.265l-0.279,-0.718Zm-6.702,7.342l-0.279,0.718l-0.755,0.265l0.755,0.266l0.279,0.718l0.279,-0.718l0.755,-0.266l-0.755,-0.265l-0.279,-0.718Zm14.864,-1.204l-0.405,1.042l-1.096,0.386l1.096,0.385l0.405,1.042l0.406,-1.042l1.096,-0.385l-1.096,-0.386l-0.406,-1.042Zm-4.604,-8.991l-0.441,1.133l-1.192,0.42l1.192,0.419l0.441,1.133l0.441,-1.133l1.192,-0.419l-1.192,-0.42l-0.441,-1.133Zm-14.468,14.317l0.185,-1.376l1.047,1.909l-0.247,1.95l-0.759,-1.251l-0.226,-1.232Zm23.897,-0l-0.225,1.232l-0.76,1.251l-0.247,-1.95l1.047,-1.909l0.185,1.376Z"/></g></svg>