<?xml version="1.0" encoding="UTF-8" standalone="no"?><!DOCTYPE svg PUBLIC "-//W3C//DTD SVG 1.1//EN" "http://www.w3.org/Graphics/SVG/1.1/DTD/svg11.dtd"><svg width="100%" height="100%" viewBox="0 0 30 30" version="1.1" xmlns="http://www.w3.org/2000/svg" xmlns:xlink="http://www.w3.org/1999/xlink" xml:space="preserve" xmlns:serif="http://www.serif.com/" style="fill-rule:evenodd;clip-rule:evenodd;stroke-linejoin:round;stroke-miterlimit:2;"><g><path d="M16.273,2.648c6.681,0.937 11.099,6.131 11.099,12.843c0,2.603 -0.874,5.202 -2.563,7.194c-3.979,4.693 -10.178,6.382 -15.727,3.261c-3.576,-2.011 -5.978,-5.438 -6.365,-9.538c-0.684,-7.244 4.048,-13.048 11.257,-13.806c0.293,-0.031 0.536,-0.021 0.729,0.031c0.03,0.009 0.055,0.031 0.066,0.061c0.096,0.257 0.094,0.502 -0.005,0.735c-0.092,0.216 -0.347,0.322 -0.483,0.56c-0.016,0.028 -0.044,0.045 -0.074,0.047c-3.976,0.209 -7.763,2.924 -9.338,6.545c-1.573,3.616 -1.152,7.947 1.37,11.052c2.036,2.506 4.682,3.911 7.938,4.215c7.683,0.717 13.07,-6.258 11.367,-13.596c-0.963,-4.147 -4.153,-7.142 -8.277,-8.04c-0.403,-0.088 -0.854,-0.143 -1.355,-0.164c-1.259,-0.053 -0.695,-1.548 0.361,-1.4Z" style="fill-rule:nonzero;"/><path d="M15.601,6.499c-5.667,-0.501 -9.656,4.275 -8.899,9.774c0.529,3.839 3.491,6.694 7.329,7.095c0.261,0.027 0.439,0.076 0.535,0.147c0.561,0.415 0.072,1.097 -0.409,1.227c-0.166,0.045 -0.402,0.036 -0.709,-0.027c-5.378,-1.109 -8.472,-5.283 -8.344,-10.715c0.015,-0.633 0.139,-1.188 0.293,-1.855c0.298,-1.291 0.888,-2.442 1.771,-3.451c3.467,-3.964 8.563,-5.164 13.17,-2.213c3.987,2.554 5.42,7.27 4.026,11.736c-1.015,3.251 -3.852,5.679 -7.167,6.384c-0.539,0.115 -0.995,0.2 -1.366,0.256c-0.191,0.029 -0.384,-0.009 -0.581,-0.112c-0.029,-0.015 -0.05,-0.042 -0.058,-0.073c-0.115,-0.452 0.015,-0.799 0.39,-1.041c0.027,-0.018 0.049,-0.043 0.062,-0.072l0.053,-0.121c0.012,-0.028 0.04,-0.048 0.071,-0.05c4.249,-0.307 7.664,-3.964 7.808,-8.212c0.159,-4.664 -3.408,-8.273 -7.975,-8.677Z" style="fill-rule:nonzero;"/></g></svg>