<?xml version="1.0" encoding="UTF-8" standalone="no"?><!DOCTYPE svg PUBLIC "-//W3C//DTD SVG 1.1//EN" "http://www.w3.org/Graphics/SVG/1.1/DTD/svg11.dtd"><svg width="100%" height="100%" viewBox="0 0 30 30" version="1.1" xmlns="http://www.w3.org/2000/svg" xmlns:xlink="http://www.w3.org/1999/xlink" xml:space="preserve" xmlns:serif="http://www.serif.com/" style="fill-rule:evenodd;clip-rule:evenodd;stroke-linejoin:round;stroke-miterlimit:2;"><g><path d="M16.273,2.648c6.681,0.937 11.099,6.131 11.099,12.843c0,2.603 -0.874,5.202 -2.563,7.194c-3.979,4.693 -10.178,6.382 -15.727,3.261c-3.575,-2.011 -5.978,-5.439 -6.365,-9.538c-0.682,-7.245 4.046,-13.048 11.257,-13.806c0.293,-0.031 0.536,-0.021 0.729,0.031c0.03,0.009 0.055,0.031 0.066,0.061c0.095,0.255 0.094,0.498 -0.003,0.729c-0.091,0.217 -0.345,0.328 -0.485,0.56c-0.016,0.028 -0.044,0.045 -0.074,0.047c-5.232,0.334 -9.59,4.514 -10.188,9.706c-0.732,6.37 3.966,11.544 10.182,12.115c7.674,0.705 13.042,-6.277 11.343,-13.599c-0.963,-4.147 -4.153,-7.142 -8.277,-8.04c-0.403,-0.088 -0.854,-0.143 -1.355,-0.164c-1.259,-0.053 -0.695,-1.548 0.361,-1.4Z" style="fill-rule:nonzero;"/><path d="M6.97,12.509c-0.021,-0.031 -0.037,-0.029 -0.046,0.008c-0.934,3.628 0.192,7.465 3.419,9.541c1.189,0.765 2.469,1.208 3.838,1.328c1.136,0.099 0.556,1.53 -0.38,1.381c-2.713,-0.431 -5.408,-1.926 -6.94,-4.255c-2.285,-3.472 -2.543,-8.554 0.308,-11.818c3.465,-3.966 8.563,-5.163 13.169,-2.213c3.987,2.554 5.42,7.27 4.026,11.736c-1.214,3.887 -4.69,6.179 -8.615,6.652c-0.137,0.017 -0.303,-0.025 -0.498,-0.124c-0.029,-0.014 -0.05,-0.041 -0.058,-0.072c-0.115,-0.453 0.014,-0.8 0.388,-1.041c0.028,-0.018 0.05,-0.044 0.063,-0.073l0.053,-0.121c0.012,-0.028 0.04,-0.048 0.071,-0.05c4.249,-0.31 7.664,-3.959 7.806,-8.212c0.176,-5.253 -4.229,-8.918 -9.299,-8.69c-2.901,0.13 -5.303,1.804 -6.703,4.296c-0.015,0.026 -0.012,0.059 0.007,0.082c0.333,0.418 0.486,0.871 0.739,1.272c0.478,0.757 0.801,1.47 1.433,2.134c0.32,0.337 0.313,0.745 0.588,1.076c0.443,0.533 0.846,1.143 1.085,1.797c0.038,0.104 0.104,0.224 0.197,0.361c0.355,0.521 0.684,1.611 1.273,2.381c0.312,0.408 0.494,0.845 0.722,1.296c0.226,0.446 0.595,0.859 0.733,1.449c0.007,0.031 -0.001,0.064 -0.023,0.086c-0.558,0.565 -0.908,0.121 -1.466,-0.013c-0.031,-0.008 -0.058,-0.027 -0.073,-0.055c-0.516,-0.959 -1.024,-1.922 -1.523,-2.889c-0.559,-1.083 -1.382,-1.994 -1.829,-3.063c-0.201,-0.483 -0.557,-1.052 -0.902,-1.449c-0.733,-0.847 -0.958,-1.85 -1.563,-2.738Z" style="fill-rule:nonzero;"/></g></svg>