<?xml version="1.0" encoding="UTF-8" standalone="no"?><!DOCTYPE svg PUBLIC "-//W3C//DTD SVG 1.1//EN" "http://www.w3.org/Graphics/SVG/1.1/DTD/svg11.dtd"><svg width="100%" height="100%" viewBox="0 0 30 30" version="1.1" xmlns="http://www.w3.org/2000/svg" xmlns:xlink="http://www.w3.org/1999/xlink" xml:space="preserve" xmlns:serif="http://www.serif.com/" style="fill-rule:evenodd;clip-rule:evenodd;stroke-linejoin:round;stroke-miterlimit:2;"><g><path d="M16.273,2.648c6.681,0.937 11.099,6.131 11.099,12.843c0,2.603 -0.874,5.202 -2.563,7.194c-3.979,4.693 -10.178,6.382 -15.727,3.261c-3.575,-2.011 -5.978,-5.439 -6.365,-9.538c-0.682,-7.245 4.046,-13.048 11.257,-13.806c0.293,-0.031 0.536,-0.021 0.729,0.031c0.03,0.009 0.055,0.031 0.066,0.061c0.095,0.255 0.094,0.498 -0.003,0.729c-0.091,0.217 -0.345,0.328 -0.485,0.56c-0.016,0.028 -0.044,0.045 -0.074,0.047c-5.232,0.334 -9.591,4.514 -10.188,9.706c-0.734,6.391 3.995,11.572 10.232,12.118c7.618,0.667 12.949,-6.241 11.312,-13.522c-0.941,-4.184 -4.141,-7.215 -8.296,-8.12c-0.403,-0.088 -0.855,-0.143 -1.355,-0.164c-1.259,-0.053 -0.695,-1.548 0.361,-1.4Z" style="fill-rule:nonzero;"/><path d="M16.15,23.308c-0.175,-0.097 -0.309,-0.237 -0.404,-0.42c-0.014,-0.027 -0.021,-0.06 -0.018,-0.094c0.019,-0.238 -0.011,-0.471 -0.092,-0.699c-0.011,-0.029 -0.007,-0.062 0.01,-0.088c0.356,-0.531 0.664,-1.119 1.004,-1.618c0.735,-1.079 1.169,-1.827 1.64,-2.873c0.233,-0.521 0.523,-1.006 0.87,-1.455c0.406,-0.528 0.68,-1.138 0.925,-1.741c0.217,-0.537 0.506,-1.034 0.865,-1.489c0.561,-0.711 0.805,-1.66 1.369,-2.313c0.019,-0.022 0.02,-0.056 0.002,-0.081c-1.975,-2.793 -4.683,-4.113 -8.122,-3.961c-2.832,0.125 -5.264,1.881 -6.627,4.306c-0.014,0.025 -0.012,0.058 0.007,0.082c0.333,0.418 0.486,0.87 0.738,1.271c0.478,0.758 0.802,1.471 1.434,2.135c0.32,0.337 0.312,0.747 0.588,1.075c0.479,0.569 0.829,1.131 1.052,1.684c0.084,0.209 0.158,0.37 0.223,0.482c0.458,0.792 0.682,1.612 1.278,2.378c0.32,0.411 0.491,0.836 0.721,1.286c0.214,0.421 0.595,0.857 0.733,1.423c0.017,0.068 -0.009,0.14 -0.065,0.182c-0.201,0.149 -0.427,0.223 -0.677,0.224c-0.031,0 -0.064,-0.01 -0.093,-0.028c-0.203,-0.128 -0.419,-0.219 -0.65,-0.273c-0.032,-0.008 -0.059,-0.028 -0.074,-0.055c-0.516,-0.959 -1.023,-1.921 -1.522,-2.887c-0.56,-1.084 -1.383,-1.996 -1.83,-3.066c-0.442,-1.058 -1.313,-1.793 -1.755,-2.862c-0.225,-0.543 -0.424,-0.894 -0.72,-1.32c-0.016,-0.023 -0.028,-0.021 -0.035,0.006c-1.359,5.175 1.733,10.361 7.252,10.867c1.149,0.106 0.552,1.526 -0.376,1.379c-2.713,-0.427 -5.408,-1.925 -6.94,-4.253c-2.285,-3.472 -2.542,-8.554 0.307,-11.819c1.996,-2.286 4.677,-3.833 7.759,-3.859c2.041,-0.017 3.948,0.597 5.72,1.842c3.57,2.508 4.907,6.659 3.914,10.85c-0.925,3.901 -4.171,6.597 -8.068,7.213c-0.47,0.074 -0.767,0.213 -1.244,0.009c-0.029,-0.013 -0.05,-0.038 -0.058,-0.069c-0.181,-0.735 0.23,-0.769 0.534,-1.261c0.016,-0.026 0.045,-0.041 0.075,-0.038c0.122,0.012 0.238,0.001 0.347,-0.033c0.031,-0.009 0.032,-0.022 0.003,-0.039Zm0.421,-0.051c-0.031,0.041 -0.022,0.055 0.028,0.044c5.093,-1.152 8.273,-6.118 6.501,-11.274c-0.018,-0.053 -0.043,-0.057 -0.076,-0.01c-0.234,0.334 -0.429,0.694 -0.584,1.081c-0.011,0.029 -0.03,0.055 -0.056,0.08c-0.386,0.366 -0.713,1.259 -0.862,1.729c-0.116,0.368 -0.265,0.61 -0.508,0.866c-0.097,0.103 -0.168,0.221 -0.213,0.355c-0.205,0.624 -0.512,1.193 -0.92,1.706c-0.104,0.131 -0.228,0.331 -0.373,0.598c-0.15,0.277 -0.459,0.719 -0.926,1.326c-0.289,0.375 -0.466,1.081 -0.816,1.575c-0.442,0.625 -0.737,1.321 -1.195,1.924Z" style="fill-rule:nonzero;"/></g></svg>