<?xml version="1.0" encoding="UTF-8" standalone="no"?><!DOCTYPE svg PUBLIC "-//W3C//DTD SVG 1.1//EN" "http://www.w3.org/Graphics/SVG/1.1/DTD/svg11.dtd"><svg width="100%" height="100%" viewBox="0 0 30 30" version="1.1" xmlns="http://www.w3.org/2000/svg" xmlns:xlink="http://www.w3.org/1999/xlink" xml:space="preserve" xmlns:serif="http://www.serif.com/" style="fill-rule:evenodd;clip-rule:evenodd;stroke-linejoin:round;stroke-miterlimit:2;"><g><path d="M16.273,2.648c6.681,0.937 11.099,6.131 11.099,12.843c0,2.603 -0.874,5.202 -2.563,7.194c-3.979,4.693 -10.178,6.382 -15.727,3.261c-3.575,-2.011 -5.978,-5.438 -6.365,-9.538c-0.684,-7.249 4.051,-13.047 11.257,-13.807c0.291,-0.031 0.534,-0.02 0.729,0.032c0.03,0.009 0.055,0.031 0.066,0.061c0.096,0.257 0.094,0.502 -0.005,0.735c-0.093,0.217 -0.348,0.322 -0.483,0.561c-0.015,0.028 -0.044,0.046 -0.074,0.047c-0.587,0.032 -1.023,0.079 -1.308,0.14c-6.317,1.355 -10.252,7.469 -8.565,13.766c1.203,4.493 5.364,7.505 9.892,7.909c3.42,0.305 6.499,-0.877 8.832,-3.418c1.106,-1.203 1.881,-2.572 2.324,-4.106c1.827,-6.315 -1.596,-12.694 -8.115,-14.117c-0.399,-0.087 -0.851,-0.142 -1.355,-0.163c-1.259,-0.053 -0.695,-1.548 0.361,-1.4Z" style="fill-rule:nonzero;"/><path d="M16.15,23.308c-0.175,-0.097 -0.309,-0.237 -0.404,-0.42c-0.014,-0.027 -0.021,-0.06 -0.018,-0.094c0.019,-0.238 -0.011,-0.471 -0.092,-0.699c-0.011,-0.029 -0.007,-0.062 0.01,-0.088c0.356,-0.531 0.664,-1.119 1.004,-1.618c0.735,-1.079 1.169,-1.827 1.639,-2.873c0.243,-0.54 0.546,-1.042 0.91,-1.506c0.705,-0.898 0.908,-2.051 1.603,-2.975c0.524,-0.697 0.859,-1.337 1.23,-2.088c0.003,-0.005 0.005,-0.011 0.006,-0.017c0.012,-0.046 -0.016,-0.093 -0.062,-0.104c-0.006,-0.002 -0.012,-0.003 -0.018,-0.003c-1.264,-0.039 -2.545,-0.075 -3.842,-0.108c-1.167,-0.03 -2.416,0.247 -3.542,0.039c-0.224,-0.041 -0.69,-0.045 -1.398,-0.01c-0.754,0.036 -1.801,0.217 -2.776,0.102c-0.953,-0.113 -1.843,-0.063 -2.773,0.006c-0.033,0.002 -0.039,0.016 -0.019,0.043c0.327,0.417 0.432,0.881 0.754,1.317c0.102,0.139 0.195,0.293 0.28,0.463c0.289,0.583 0.656,1.112 1.102,1.588c0.323,0.345 0.316,0.752 0.593,1.08c0.479,0.57 0.831,1.132 1.054,1.686c0.084,0.209 0.158,0.369 0.223,0.482c0.458,0.792 0.682,1.611 1.278,2.377c0.32,0.412 0.492,0.838 0.722,1.288c0.215,0.423 0.594,0.856 0.732,1.423c0.017,0.068 -0.009,0.14 -0.065,0.181c-0.201,0.148 -0.427,0.223 -0.678,0.225c-0.031,0 -0.063,-0.01 -0.092,-0.029c-0.204,-0.131 -0.423,-0.221 -0.657,-0.27c-0.031,-0.007 -0.056,-0.027 -0.069,-0.055c-0.258,-0.547 -0.601,-1.081 -0.848,-1.588c-0.257,-0.528 -0.526,-1.049 -0.809,-1.563c-0.339,-0.615 -0.859,-1.246 -1.245,-1.906c-0.043,-0.075 -0.216,-0.428 -0.519,-1.061c-0.363,-0.759 -0.924,-1.33 -1.338,-2.012c-0.321,-0.527 -0.585,-1.347 -1.063,-1.982c-0.02,-0.027 -0.034,-0.025 -0.043,0.008c-1.349,5.168 1.755,10.335 7.257,10.839c1.149,0.106 0.552,1.526 -0.376,1.379c-4.697,-0.74 -8.061,-4.174 -8.623,-8.877c-0.203,-1.697 -0.042,-3.141 0.541,-4.816c0.887,-2.55 3.909,-4.996 6.423,-5.794c5.602,-1.78 11.55,2.049 12.583,7.7c0.265,1.449 0.21,2.964 -0.165,4.547c-0.931,3.924 -4.194,6.616 -8.115,7.223c-0.448,0.069 -0.728,0.197 -1.186,0.008c-0.029,-0.012 -0.051,-0.036 -0.06,-0.066c-0.208,-0.725 0.224,-0.784 0.526,-1.272c0.016,-0.026 0.046,-0.041 0.076,-0.038c0.121,0.012 0.237,0.001 0.346,-0.033c0.031,-0.009 0.032,-0.022 0.003,-0.039Zm5.299,-13.943c-1.385,-1.503 -3.069,-2.419 -5.052,-2.749c-3.199,-0.531 -5.827,0.398 -7.883,2.789c-0.022,0.026 -0.017,0.04 0.016,0.043c0.452,0.041 0.912,-0.035 1.343,-0.01c0.734,0.044 1.462,-0.009 2.184,-0.159c0.183,-0.038 0.363,-0.046 0.541,-0.025c0.455,0.055 0.764,0.091 1.255,0.01c0.653,-0.108 1.309,-0.107 1.969,0.004c0.147,0.025 0.367,0.03 0.659,0.015c0.657,-0.033 1.9,0.208 2.938,0.09c0.686,-0.077 1.342,-0.005 2.019,0.015c0.022,0.001 0.026,-0.007 0.011,-0.023Zm-4.83,13.829c-0.031,0.011 -0.055,0.03 -0.071,0.057c-0.019,0.033 -0.008,0.045 0.031,0.038c3.333,-0.601 5.918,-3.195 6.781,-6.385c0.09,-0.331 0.111,-0.682 0.153,-1.031c0.157,-1.317 0.021,-2.598 -0.41,-3.845c-0.019,-0.055 -0.046,-0.058 -0.079,-0.011c-0.234,0.334 -0.429,0.694 -0.584,1.081c-0.011,0.029 -0.03,0.055 -0.056,0.08c-0.386,0.367 -0.713,1.259 -0.862,1.729c-0.116,0.368 -0.265,0.61 -0.508,0.866c-0.097,0.103 -0.168,0.221 -0.213,0.355c-0.205,0.624 -0.512,1.193 -0.92,1.706c-0.104,0.131 -0.228,0.331 -0.373,0.598c-0.15,0.277 -0.459,0.719 -0.926,1.326c-0.289,0.375 -0.466,1.081 -0.816,1.575c-0.357,0.505 -0.668,1.039 -0.932,1.6c-0.069,0.148 -0.141,0.235 -0.215,0.261Z" style="fill-rule:nonzero;"/></g></svg>