<?xml version="1.0" encoding="UTF-8" standalone="no"?><!DOCTYPE svg PUBLIC "-//W3C//DTD SVG 1.1//EN" "http://www.w3.org/Graphics/SVG/1.1/DTD/svg11.dtd"><svg width="100%" height="100%" viewBox="0 0 30 30" version="1.1" xmlns="http://www.w3.org/2000/svg" xmlns:xlink="http://www.w3.org/1999/xlink" xml:space="preserve" xmlns:serif="http://www.serif.com/" style="fill-rule:evenodd;clip-rule:evenodd;stroke-linejoin:round;stroke-miterlimit:2;"><g><path d="M16.273,2.648c6.681,0.937 11.099,6.131 11.099,12.843c0,2.601 -0.874,5.203 -2.562,7.193c-3.675,4.337 -9.282,6.165 -14.64,3.819c-1.678,-0.735 -3.424,-1.97 -4.619,-3.418c-2.469,-2.99 -3.361,-6.484 -2.674,-10.483c0.966,-5.633 5.5,-9.41 11.096,-10.001c0.292,-0.031 0.535,-0.02 0.73,0.032c0.03,0.009 0.055,0.031 0.066,0.061c0.096,0.257 0.094,0.502 -0.005,0.735c-0.093,0.217 -0.348,0.322 -0.483,0.561c-0.015,0.028 -0.044,0.046 -0.074,0.047c-0.587,0.032 -1.023,0.079 -1.308,0.14c-6.317,1.355 -10.252,7.469 -8.565,13.766c1.203,4.493 5.364,7.505 9.892,7.909c3.42,0.305 6.499,-0.877 8.832,-3.418c1.106,-1.203 1.881,-2.572 2.324,-4.106c1.827,-6.315 -1.596,-12.694 -8.115,-14.117c-0.399,-0.087 -0.851,-0.142 -1.355,-0.163c-1.259,-0.053 -0.695,-1.548 0.361,-1.4Z" style="fill-rule:nonzero;"/><path d="M16.149,23.308c-0.502,-0.277 -0.383,-0.564 -0.454,-1.041c-0.004,-0.025 -0.017,-0.055 -0.04,-0.089c-0.046,-0.067 -0.043,-0.138 0.009,-0.213c0.352,-0.511 0.652,-1.087 0.978,-1.564c0.737,-1.08 1.177,-1.837 1.647,-2.885c0.243,-0.54 0.546,-1.042 0.91,-1.506c0.705,-0.898 0.908,-2.051 1.603,-2.975c0.524,-0.698 0.861,-1.341 1.231,-2.091c0.003,-0.005 0.005,-0.011 0.006,-0.017c0.011,-0.045 -0.017,-0.091 -0.062,-0.102c-0.006,-0.002 -0.012,-0.003 -0.018,-0.003c-1.151,-0.033 -2.315,-0.065 -3.493,-0.098c-1.119,-0.032 -2.301,0.085 -3.461,0.109c-0.002,0 -0.003,0 -0.005,0c-0.024,0.004 -0.042,0.024 -0.039,0.046c0,0.002 0.001,0.003 0.001,0.005l0.023,0.095c0.009,0.034 0.006,0.067 -0.009,0.089c-0.296,0.462 -0.508,0.793 -0.911,1.342c-0.279,0.381 -0.483,0.803 -0.61,1.267c-0.074,0.271 -0.447,0.529 -0.578,0.812c-0.145,0.314 -0.189,0.697 -0.364,0.947c-0.134,0.192 -0.336,0.321 -0.435,0.524c-0.197,0.403 -0.402,0.803 -0.613,1.199c-0.014,0.027 -0.014,0.061 0.002,0.088c0.473,0.858 0.822,1.826 1.427,2.639c0.317,0.425 0.49,0.839 0.72,1.29c0.216,0.425 0.594,0.856 0.732,1.423c0.017,0.068 -0.009,0.14 -0.065,0.181c-0.201,0.149 -0.427,0.223 -0.677,0.224c-0.031,0 -0.064,-0.01 -0.093,-0.028c-0.203,-0.128 -0.42,-0.219 -0.651,-0.273c-0.032,-0.007 -0.058,-0.027 -0.073,-0.054c-0.509,-0.947 -1.01,-1.898 -1.504,-2.852c-0.493,-0.952 -1.235,-1.74 -1.661,-2.725c-0.307,-0.709 -0.642,-1.288 -1.006,-1.738c-0.488,-0.604 -0.644,-0.901 -1.023,-1.734c-0.171,-0.375 -0.381,-0.729 -0.63,-1.061c-0.02,-0.027 -0.034,-0.025 -0.043,0.008c-1.348,5.168 1.754,10.334 7.257,10.839c1.149,0.106 0.552,1.526 -0.376,1.379c-4.697,-0.74 -8.061,-4.174 -8.623,-8.877c-0.203,-1.697 -0.042,-3.141 0.541,-4.816c0.887,-2.55 3.909,-4.996 6.423,-5.794c5.602,-1.78 11.55,2.049 12.583,7.7c0.265,1.449 0.21,2.964 -0.165,4.547c-0.931,3.924 -4.194,6.616 -8.115,7.223c-0.448,0.069 -0.728,0.197 -1.186,0.008c-0.029,-0.012 -0.051,-0.036 -0.06,-0.066c-0.208,-0.725 0.224,-0.784 0.526,-1.272c0.016,-0.026 0.046,-0.041 0.076,-0.038c0.121,0.012 0.237,0.001 0.346,-0.033c0.031,-0.009 0.032,-0.022 0.002,-0.039Zm5.3,-13.943c-1.39,-1.509 -3.082,-2.427 -5.076,-2.753c-3.189,-0.522 -5.809,0.409 -7.859,2.793c-0.022,0.026 -0.016,0.041 0.017,0.044c0.429,0.044 0.872,-0.037 1.276,-0.012c0.785,0.047 1.565,-0.01 2.339,-0.173c0.148,-0.031 0.302,-0.034 0.462,-0.009c0.501,0.08 1,0.075 1.495,-0.014c0.623,-0.113 1.24,-0.065 1.846,0.029c0.14,0.021 0.318,0.026 0.533,0.013c0.642,-0.039 1.897,0.208 2.936,0.09c0.687,-0.077 1.342,-0.005 2.02,0.015c0.022,0.001 0.026,-0.007 0.011,-0.023Zm-9.969,4.592c0.157,-0.11 0.233,-0.261 0.226,-0.454c-0.001,-0.036 0.005,-0.068 0.018,-0.095c0.186,-0.387 0.38,-0.483 0.551,-0.803c0.138,-0.256 0.575,-0.533 0.686,-0.994c0.076,-0.317 0.314,-0.555 0.508,-0.807c0.02,-0.027 0.013,-0.041 -0.02,-0.042c-0.419,-0.02 -0.836,-0 -1.249,0.059c-0.845,0.123 -1.566,0.07 -2.375,-0.049c-0.237,-0.035 -0.97,-0.008 -2.197,0.08c-0.033,0.002 -0.039,0.016 -0.019,0.043c0.175,0.229 0.316,0.475 0.425,0.74c0.17,0.417 0.469,0.753 0.688,1.187c0.257,0.507 0.581,0.966 0.973,1.379c0.445,0.467 0.444,1.059 0.949,1.502c0.001,0.001 0.002,0.002 0.004,0.003c0.017,0.012 0.042,0.007 0.055,-0.011c0,-0.001 0.001,-0.003 0.002,-0.004c0.155,-0.282 0.312,-0.563 0.471,-0.844c0.115,-0.203 0.115,-0.423 0.146,-0.634c0.016,-0.108 0.069,-0.193 0.158,-0.256Zm5.139,9.237c-0.031,0.011 -0.055,0.03 -0.071,0.057c-0.019,0.033 -0.008,0.045 0.031,0.038c3.333,-0.601 5.918,-3.195 6.781,-6.385c0.09,-0.331 0.111,-0.682 0.153,-1.031c0.157,-1.317 0.021,-2.598 -0.41,-3.845c-0.019,-0.055 -0.046,-0.058 -0.079,-0.011c-0.234,0.334 -0.429,0.694 -0.584,1.081c-0.011,0.029 -0.03,0.055 -0.056,0.08c-0.386,0.367 -0.713,1.259 -0.862,1.729c-0.116,0.368 -0.265,0.61 -0.508,0.866c-0.097,0.103 -0.168,0.221 -0.213,0.355c-0.205,0.624 -0.512,1.193 -0.92,1.706c-0.104,0.131 -0.228,0.331 -0.373,0.598c-0.15,0.277 -0.459,0.719 -0.926,1.326c-0.289,0.375 -0.466,1.081 -0.816,1.575c-0.357,0.505 -0.668,1.039 -0.932,1.6c-0.069,0.148 -0.141,0.235 -0.215,0.261Z" style="fill-rule:nonzero;"/><circle cx="4.807" cy="26.178" r="0.527"/></g></svg>