<?xml version="1.0" encoding="UTF-8" standalone="no"?><!DOCTYPE svg PUBLIC "-//W3C//DTD SVG 1.1//EN" "http://www.w3.org/Graphics/SVG/1.1/DTD/svg11.dtd"><svg width="100%" height="100%" viewBox="0 0 30 30" version="1.1" xmlns="http://www.w3.org/2000/svg" xmlns:xlink="http://www.w3.org/1999/xlink" xml:space="preserve" xmlns:serif="http://www.serif.com/" style="fill-rule:evenodd;clip-rule:evenodd;stroke-linejoin:round;stroke-miterlimit:2;"><g><path d="M16.273,2.648c6.681,0.937 11.099,6.131 11.099,12.843c0,2.603 -0.874,5.202 -2.563,7.194c-3.979,4.693 -10.178,6.382 -15.727,3.261c-4.914,-2.765 -7.176,-7.866 -6.205,-13.371c0.999,-5.658 5.541,-9.393 11.098,-9.971c0.297,-0.031 0.54,-0.021 0.728,0.03c0.031,0.008 0.055,0.031 0.066,0.06c0.096,0.257 0.094,0.502 -0.005,0.735c-0.093,0.217 -0.348,0.322 -0.483,0.561c-0.015,0.028 -0.044,0.046 -0.074,0.047c-0.587,0.032 -1.023,0.079 -1.308,0.14c-6.317,1.355 -10.252,7.469 -8.565,13.766c1.203,4.493 5.364,7.505 9.892,7.909c3.42,0.305 6.499,-0.877 8.832,-3.418c1.106,-1.203 1.881,-2.572 2.324,-4.106c1.827,-6.315 -1.596,-12.694 -8.115,-14.117c-0.399,-0.087 -0.851,-0.142 -1.355,-0.163c-1.259,-0.053 -0.695,-1.548 0.361,-1.4Z" style="fill-rule:nonzero;"/><circle cx="3.786" cy="4.85" r="0.759"/><path d="M16.15,23.308c-0.175,-0.097 -0.309,-0.237 -0.404,-0.42c-0.014,-0.027 -0.02,-0.059 -0.018,-0.094c0.017,-0.239 -0.012,-0.47 -0.087,-0.695c-0.01,-0.031 -0.006,-0.064 0.01,-0.091c0.631,-1.041 1.279,-2.07 1.946,-3.087c0.39,-0.596 0.667,-1.384 1.011,-2.049c0.014,-0.026 0.01,-0.059 -0.01,-0.082c-0.168,-0.197 -0.28,-0.419 -0.335,-0.666c-0.007,-0.031 -0.026,-0.058 -0.053,-0.076c-0.082,-0.054 -0.135,-0.113 -0.159,-0.178c-0.145,-0.389 -0.394,-0.691 -0.747,-0.907c-0.022,-0.013 -0.04,-0.041 -0.05,-0.076l-0.097,-0.352c-0.006,-0.024 -0.028,-0.05 -0.061,-0.074c-0.413,-0.301 -0.462,-0.704 -0.637,-1.075c-0.091,-0.192 -0.168,-0.39 -0.23,-0.594c-0.108,-0.352 -0.371,-0.439 -0.494,-0.746c-0.169,-0.42 -0.395,-0.809 -0.676,-1.166c-0.023,-0.029 -0.056,-0.042 -0.08,-0.03c-0.031,0.016 -0.03,0.053 0.005,0.112c0.016,0.027 0.016,0.059 0.001,0.084c-0.275,0.413 -0.482,0.793 -0.813,1.217c-0.333,0.425 -0.575,0.902 -0.726,1.431c-0.075,0.264 -0.437,0.512 -0.566,0.789c-0.147,0.316 -0.191,0.702 -0.367,0.953c-0.134,0.192 -0.336,0.321 -0.435,0.524c-0.197,0.403 -0.402,0.803 -0.613,1.199c-0.014,0.027 -0.014,0.061 0.002,0.088c0.473,0.858 0.822,1.826 1.427,2.639c0.317,0.425 0.49,0.839 0.72,1.29c0.216,0.425 0.594,0.856 0.732,1.423c0.017,0.068 -0.009,0.14 -0.065,0.181c-0.201,0.149 -0.427,0.223 -0.677,0.224c-0.031,0 -0.064,-0.01 -0.093,-0.028c-0.203,-0.128 -0.42,-0.219 -0.651,-0.273c-0.032,-0.007 -0.058,-0.027 -0.073,-0.054c-0.509,-0.947 -1.01,-1.898 -1.504,-2.852c-0.493,-0.952 -1.235,-1.74 -1.661,-2.725c-0.307,-0.709 -0.642,-1.288 -1.006,-1.738c-0.488,-0.604 -0.644,-0.901 -1.023,-1.734c-0.171,-0.375 -0.381,-0.729 -0.63,-1.061c-0.02,-0.027 -0.034,-0.025 -0.043,0.008c-1.348,5.168 1.754,10.334 7.257,10.839c1.149,0.106 0.552,1.526 -0.376,1.379c-2.73,-0.43 -5.388,-1.914 -6.931,-4.259c-1.651,-2.511 -2.22,-5.681 -1.435,-8.53c0.458,-1.662 1.252,-2.895 2.512,-4.081c1.248,-1.175 2.589,-2.104 4.197,-2.617c2.991,-0.953 6.106,-0.321 8.642,1.516c3.484,2.523 4.754,6.599 3.774,10.731c-0.931,3.923 -4.194,6.616 -8.114,7.223c-0.448,0.069 -0.729,0.197 -1.187,0.008c-0.029,-0.012 -0.051,-0.036 -0.06,-0.066c-0.208,-0.725 0.224,-0.784 0.526,-1.272c0.016,-0.026 0.046,-0.041 0.076,-0.038c0.121,0.012 0.237,0.001 0.346,-0.033c0.031,-0.009 0.032,-0.022 0.003,-0.039Zm5.299,-13.943c-1.39,-1.509 -3.082,-2.427 -5.076,-2.753c-3.189,-0.523 -5.809,0.408 -7.858,2.793c-0.023,0.026 -0.017,0.041 0.016,0.044c0.429,0.043 0.872,-0.037 1.276,-0.012c0.785,0.047 1.564,-0.01 2.337,-0.173c0.149,-0.031 0.305,-0.034 0.466,-0.009c0.491,0.077 0.98,0.074 1.467,-0.009c0.897,-0.154 1.776,0.036 2.642,0.059c0.906,0.025 1.767,0.174 2.692,0.069c0.691,-0.078 1.346,-0.006 2.027,0.014c0.022,0.001 0.026,-0.007 0.011,-0.023Zm-2.481,5.151c0.12,0.252 0.135,0.501 0.297,0.733c0.073,0.105 0.141,0.213 0.203,0.323c0.017,0.029 0.031,0.029 0.044,-0.001c0.096,-0.229 0.2,-0.453 0.312,-0.674c0.254,-0.503 0.436,-1.145 0.774,-1.574c0.591,-0.752 1.072,-1.565 1.443,-2.44c0.001,-0.002 0.002,-0.005 0.002,-0.008c0.006,-0.023 -0.009,-0.047 -0.033,-0.052c-0.003,-0.001 -0.005,-0.001 -0.008,-0.001c-1.693,-0.05 -3.484,-0.14 -5.223,-0.071c-0.002,0 -0.004,0 -0.006,0.001c-0.02,0.004 -0.034,0.023 -0.031,0.042c0.001,0.002 0.001,0.004 0.002,0.006c0.071,0.205 0.218,0.367 0.282,0.566c0.187,0.575 0.493,1.079 0.918,1.514c0.217,0.221 0.234,0.675 0.447,0.955c0.176,0.231 0.464,0.445 0.577,0.681Zm-7.488,-0.559c0.157,-0.11 0.233,-0.261 0.226,-0.454c-0.001,-0.036 0.005,-0.068 0.018,-0.095c0.186,-0.387 0.381,-0.483 0.552,-0.803c0.152,-0.284 0.561,-0.53 0.692,-1.016c0.084,-0.311 0.31,-0.535 0.5,-0.785c0.021,-0.027 0.014,-0.041 -0.019,-0.043c-0.419,-0.019 -0.835,0.001 -1.248,0.06c-0.846,0.122 -1.566,0.07 -2.376,-0.049c-0.237,-0.035 -0.97,-0.008 -2.197,0.08c-0.033,0.002 -0.039,0.016 -0.019,0.043c0.175,0.229 0.316,0.475 0.425,0.74c0.17,0.417 0.469,0.753 0.688,1.187c0.257,0.507 0.581,0.966 0.973,1.379c0.445,0.467 0.444,1.059 0.949,1.502c0.001,0.001 0.002,0.002 0.004,0.003c0.017,0.012 0.042,0.007 0.055,-0.011c0,-0.001 0.001,-0.003 0.002,-0.004c0.155,-0.282 0.312,-0.563 0.471,-0.844c0.115,-0.203 0.115,-0.423 0.146,-0.634c0.016,-0.108 0.069,-0.193 0.158,-0.256Zm5.139,9.237c-0.031,0.011 -0.055,0.03 -0.071,0.057c-0.019,0.033 -0.008,0.045 0.031,0.038c3.333,-0.601 5.918,-3.195 6.781,-6.385c0.09,-0.331 0.111,-0.682 0.153,-1.031c0.157,-1.317 0.021,-2.598 -0.41,-3.845c-0.019,-0.055 -0.046,-0.058 -0.079,-0.011c-0.234,0.334 -0.429,0.694 -0.584,1.081c-0.011,0.029 -0.03,0.055 -0.056,0.08c-0.431,0.409 -0.791,1.45 -0.933,1.972c-0.043,0.157 -0.2,0.376 -0.471,0.656c-0.079,0.082 -0.179,0.287 -0.299,0.615c-0.191,0.521 -0.401,0.895 -0.706,1.31c-0.475,0.648 -0.852,1.337 -1.353,1.967c-0.313,0.393 -0.489,1.119 -0.85,1.627c-0.363,0.513 -0.679,1.054 -0.946,1.623c-0.065,0.138 -0.134,0.22 -0.207,0.246Z" style="fill-rule:nonzero;"/></g></svg>