<?xml version="1.0" encoding="UTF-8" standalone="no"?><!DOCTYPE svg PUBLIC "-//W3C//DTD SVG 1.1//EN" "http://www.w3.org/Graphics/SVG/1.1/DTD/svg11.dtd"><svg width="100%" height="100%" viewBox="0 0 30 30" version="1.1" xmlns="http://www.w3.org/2000/svg" xmlns:xlink="http://www.w3.org/1999/xlink" xml:space="preserve" xmlns:serif="http://www.serif.com/" style="fill-rule:evenodd;clip-rule:evenodd;stroke-linejoin:round;stroke-miterlimit:2;"><g><path d="M16.373,2.657c6.632,0.977 11.001,6.171 10.999,12.843c-0.001,2.597 -0.877,5.197 -2.562,7.184c-3.675,4.337 -9.282,6.165 -14.64,3.819c-1.677,-0.735 -3.424,-1.971 -4.619,-3.418c-2.469,-2.99 -3.361,-6.484 -2.674,-10.483c0.966,-5.633 5.5,-9.41 11.096,-10.001c0.292,-0.031 0.535,-0.02 0.73,0.032c0.03,0.009 0.055,0.031 0.066,0.061c0.096,0.257 0.094,0.502 -0.005,0.735c-0.093,0.217 -0.348,0.322 -0.483,0.561c-0.015,0.028 -0.044,0.046 -0.074,0.047c-0.587,0.032 -1.023,0.079 -1.308,0.14c-6.317,1.355 -10.252,7.469 -8.565,13.766c1.203,4.493 5.364,7.505 9.892,7.909c7.629,0.681 12.977,-6.225 11.337,-13.52c-0.941,-4.184 -4.14,-7.216 -8.296,-8.12c-0.384,-0.084 -0.817,-0.138 -1.299,-0.162c-0.459,-0.023 -0.969,-0.297 -0.73,-0.829c0.205,-0.457 0.583,-0.645 1.135,-0.564Z" style="fill-rule:nonzero;"/><circle cx="25.647" cy="4.009" r="0.527"/><path d="M16.149,23.307c-0.181,-0.1 -0.318,-0.246 -0.411,-0.437c-0.013,-0.027 -0.018,-0.06 -0.013,-0.094c0.028,-0.229 -0.003,-0.45 -0.094,-0.664c-0.012,-0.029 -0.01,-0.062 0.007,-0.088c0.359,-0.547 0.674,-1.136 1.027,-1.66c0.559,-0.831 1.085,-1.643 1.486,-2.564c0.026,-0.059 0.007,-0.084 -0.056,-0.075c-0.62,0.088 -1.151,-0.044 -1.75,0.237c-0.026,0.013 -0.059,0.016 -0.093,0.009l-0.479,-0.097c-0.029,-0.006 -0.062,-0.001 -0.095,0.013c-0.395,0.177 -0.776,0.194 -1.145,0.051c-0.083,-0.032 -0.153,-0.042 -0.212,-0.029c-0.043,0.009 -0.075,0.012 -0.096,0.01c-0.257,-0.028 -0.513,-0.06 -0.77,-0.097c-0.389,-0.056 -0.73,0.07 -1.084,0.037c-0.171,-0.015 -0.34,-0.032 -0.509,-0.05c-0.002,-0 -0.005,-0 -0.007,0c-0.017,0.002 -0.03,0.018 -0.028,0.036c0.001,0.002 0.001,0.005 0.002,0.007c0.256,0.723 0.606,1.393 1.051,2.01c0.321,0.447 0.505,0.857 0.74,1.323c0.222,0.442 0.59,0.848 0.726,1.415c0.016,0.068 -0.009,0.139 -0.065,0.18c-0.201,0.148 -0.427,0.223 -0.678,0.225c-0.031,0 -0.063,-0.01 -0.092,-0.029c-0.204,-0.131 -0.423,-0.221 -0.658,-0.27c-0.031,-0.006 -0.057,-0.027 -0.07,-0.055c-0.257,-0.558 -0.608,-1.082 -0.856,-1.613c-0.491,-1.054 -1.077,-2.052 -1.757,-2.995c-0.489,-0.678 -0.691,-1.435 -1.155,-2.108c-0.186,-0.269 -0.333,-0.527 -0.555,-0.786c-0.681,-0.797 -0.91,-1.822 -1.497,-2.611c-0.02,-0.027 -0.034,-0.024 -0.043,0.009c-1.348,5.168 1.754,10.334 7.257,10.839c1.149,0.106 0.552,1.526 -0.376,1.379c-4.697,-0.74 -8.061,-4.174 -8.623,-8.877c-0.203,-1.697 -0.042,-3.141 0.541,-4.816c0.887,-2.55 3.909,-4.996 6.422,-5.794c2.994,-0.951 6.109,-0.322 8.645,1.515c3.484,2.524 4.754,6.6 3.774,10.732c-0.931,3.922 -4.193,6.615 -8.114,7.223c-0.448,0.069 -0.729,0.197 -1.187,0.008c-0.029,-0.012 -0.051,-0.036 -0.06,-0.066c-0.208,-0.725 0.224,-0.784 0.526,-1.272c0.016,-0.026 0.046,-0.041 0.076,-0.038c0.121,0.012 0.237,0.001 0.346,-0.033c0.031,-0.009 0.032,-0.023 0.002,-0.04Zm5.29,-13.952c-1.383,-1.503 -3.072,-2.417 -5.066,-2.743c-3.189,-0.523 -5.809,0.408 -7.858,2.793c-0.023,0.026 -0.017,0.041 0.016,0.044c0.429,0.043 0.872,-0.037 1.276,-0.012c0.785,0.047 1.564,-0.01 2.337,-0.173c0.149,-0.031 0.305,-0.034 0.466,-0.009c0.491,0.077 0.98,0.074 1.467,-0.009c0.897,-0.154 1.775,0.036 2.643,0.059c0.9,0.025 1.757,0.177 2.682,0.071c0.692,-0.079 1.34,-0.007 2.023,0.011c0.03,0.001 0.035,-0.01 0.014,-0.032Zm-2.473,5.156c0.116,0.242 0.138,0.505 0.282,0.721c0.069,0.105 0.142,0.206 0.217,0.304c0.002,0.002 0.003,0.004 0.005,0.006c0.013,0.01 0.032,0.008 0.043,-0.006c0.002,-0.002 0.003,-0.004 0.004,-0.006c0.251,-0.497 0.485,-1.003 0.703,-1.516c0.214,-0.506 0.529,-0.88 0.837,-1.322c0.387,-0.555 0.679,-1.179 0.994,-1.786c0.002,-0.004 0.003,-0.008 0.004,-0.012c0.009,-0.03 -0.01,-0.062 -0.04,-0.07c-0.004,-0.001 -0.009,-0.002 -0.013,-0.002c-1.692,-0.05 -3.484,-0.14 -5.223,-0.071c-0.002,0 -0.004,0 -0.006,0.001c-0.02,0.004 -0.034,0.023 -0.031,0.042c0.001,0.002 0.001,0.004 0.002,0.006c0.071,0.205 0.218,0.367 0.282,0.566c0.187,0.575 0.493,1.079 0.918,1.514c0.217,0.221 0.234,0.675 0.447,0.955c0.174,0.228 0.462,0.443 0.575,0.676Zm-7.486,-0.554c0.157,-0.11 0.233,-0.261 0.226,-0.454c-0.001,-0.036 0.005,-0.068 0.018,-0.095c0.186,-0.387 0.381,-0.483 0.552,-0.803c0.152,-0.284 0.561,-0.53 0.692,-1.016c0.084,-0.311 0.31,-0.535 0.5,-0.785c0.021,-0.027 0.014,-0.041 -0.019,-0.043c-0.419,-0.019 -0.834,0.001 -1.246,0.06c-0.843,0.121 -1.55,0.073 -2.353,-0.048c-0.257,-0.038 -0.998,-0.012 -2.223,0.079c-0.033,0.003 -0.039,0.017 -0.018,0.043c0.176,0.23 0.318,0.478 0.426,0.745c0.167,0.409 0.464,0.738 0.676,1.161c0.269,0.534 0.612,1.016 1.031,1.446c0.102,0.104 0.18,0.225 0.235,0.363c0.145,0.361 0.334,0.705 0.569,1.031c0.006,0.008 0.013,0.016 0.021,0.022c0.05,0.043 0.126,0.036 0.169,-0.014c0.006,-0.008 0.012,-0.017 0.016,-0.026c0.114,-0.237 0.251,-0.488 0.411,-0.753c0.127,-0.212 0.128,-0.437 0.16,-0.658c0.015,-0.108 0.068,-0.193 0.157,-0.255Zm6.796,2.243c-0.175,-0.287 -0.328,-0.541 -0.459,-0.763c-0.131,-0.221 -0.342,-0.335 -0.533,-0.502c-0.023,-0.021 -0.038,-0.05 -0.041,-0.083c-0.018,-0.196 -0.046,-0.296 -0.207,-0.434c-0.367,-0.312 -0.425,-0.716 -0.601,-1.085c-0.089,-0.187 -0.162,-0.38 -0.219,-0.581c-0.087,-0.309 -0.376,-0.454 -0.509,-0.773c-0.157,-0.375 -0.361,-0.727 -0.611,-1.055c-0.044,-0.057 -0.202,-0.2 -0.11,0.034c0.012,0.03 0.01,0.063 -0.006,0.089c-0.331,0.555 -0.69,1.091 -1.075,1.608c-0.34,0.456 -0.345,0.995 -0.727,1.431c-0.159,0.181 -0.261,0.319 -0.304,0.413c-0.137,0.295 -0.172,0.652 -0.338,0.9c-0.155,0.234 -0.374,0.383 -0.494,0.628c-0.055,0.115 -0.111,0.232 -0.166,0.349c-0.014,0.03 -0.004,0.043 0.029,0.038c0.298,-0.039 0.631,0.025 0.849,0.037c0.248,0.013 0.496,0.026 0.744,0.039c0.365,0.018 0.73,-0.072 1.104,-0.101c0.399,-0.03 0.836,0.103 1.292,0.066c0.003,0 0.187,-0.038 0.552,-0.115c0.477,-0.1 0.789,0.093 1.224,0.085c0.188,-0.004 0.353,-0.009 0.494,-0.014c0.157,-0.007 0.194,-0.077 0.112,-0.211Zm-1.722,7.071c-0.024,0.029 -0.018,0.039 0.019,0.031c5.139,-1.116 8.285,-6.159 6.531,-11.274c-0.019,-0.056 -0.046,-0.06 -0.08,-0.011c-0.234,0.334 -0.429,0.694 -0.584,1.081c-0.011,0.029 -0.03,0.055 -0.056,0.08c-0.431,0.409 -0.791,1.45 -0.933,1.972c-0.043,0.158 -0.2,0.377 -0.471,0.656c-0.08,0.082 -0.183,0.294 -0.309,0.636c-0.19,0.515 -0.394,0.872 -0.693,1.281c-0.486,0.661 -0.878,1.369 -1.385,2.02c-0.3,0.387 -0.48,1.055 -0.772,1.508c-0.155,0.239 -0.31,0.477 -0.467,0.715c-0.24,0.364 -0.446,0.882 -0.8,1.305Z" style="fill-rule:nonzero;"/><path d="M4.808,26.727l-0.477,0.876c-0.016,0.031 -0.032,0.031 -0.049,0l-0.471,-0.87c-0.016,-0.029 -0.04,-0.053 -0.068,-0.069l-0.881,-0.485c-0.03,-0.017 -0.03,-0.033 0,-0.049l0.864,-0.462c0.03,-0.016 0.054,-0.04 0.069,-0.067l0.488,-0.903c0.016,-0.029 0.032,-0.029 0.047,0l0.483,0.895c0.016,0.029 0.039,0.052 0.067,0.068l0.866,0.463c0.045,0.024 0.045,0.048 0,0.072l-0.87,0.462c-0.028,0.015 -0.052,0.039 -0.068,0.069Z" style="fill-rule:nonzero;"/></g></svg>