<?xml version="1.0" encoding="UTF-8" standalone="no"?><!DOCTYPE svg PUBLIC "-//W3C//DTD SVG 1.1//EN" "http://www.w3.org/Graphics/SVG/1.1/DTD/svg11.dtd"><svg width="100%" height="100%" viewBox="0 0 30 30" version="1.1" xmlns="http://www.w3.org/2000/svg" xmlns:xlink="http://www.w3.org/1999/xlink" xml:space="preserve" xmlns:serif="http://www.serif.com/" style="fill-rule:evenodd;clip-rule:evenodd;stroke-linejoin:round;stroke-miterlimit:2;"><g><path d="M24.018,3.643c-0.053,-0.029 -0.053,-0.057 0,-0.086l0.86,-0.461c0.029,-0.016 0.052,-0.04 0.068,-0.069l0.474,-0.885c0.021,-0.038 0.041,-0.038 0.061,0.001l0.459,0.874c0.016,0.03 0.039,0.054 0.068,0.07l0.901,0.488c0.029,0.016 0.03,0.032 0.001,0.047l-0.893,0.477c-0.027,0.015 -0.05,0.038 -0.066,0.067l-0.474,0.869c-0.017,0.032 -0.035,0.032 -0.052,0.001l-0.467,-0.852c-0.017,-0.031 -0.04,-0.055 -0.065,-0.069l-0.875,-0.472Z" style="fill-rule:nonzero;"/><path d="M16.149,23.307c-0.181,-0.1 -0.318,-0.246 -0.411,-0.437c-0.013,-0.027 -0.018,-0.06 -0.013,-0.094c0.028,-0.229 -0.003,-0.45 -0.094,-0.664c-0.012,-0.029 -0.01,-0.062 0.007,-0.088c0.359,-0.547 0.674,-1.136 1.027,-1.66c0.559,-0.831 1.085,-1.643 1.486,-2.564c0.026,-0.059 0.007,-0.084 -0.056,-0.075c-0.62,0.088 -1.151,-0.044 -1.75,0.237c-0.026,0.013 -0.059,0.016 -0.093,0.009l-0.479,-0.097c-0.029,-0.006 -0.062,-0.001 -0.095,0.013c-0.395,0.177 -0.776,0.194 -1.145,0.051c-0.083,-0.032 -0.153,-0.042 -0.212,-0.029c-0.043,0.009 -0.075,0.012 -0.096,0.01c-0.257,-0.028 -0.513,-0.06 -0.77,-0.097c-0.391,-0.056 -0.737,0.07 -1.091,0.037c-0.179,-0.017 -0.358,-0.035 -0.535,-0.054c-0.037,-0.004 -0.048,0.011 -0.031,0.044c0.352,0.699 0.57,1.362 1.095,2.039c0.319,0.411 0.492,0.837 0.721,1.288c0.216,0.425 0.594,0.856 0.732,1.423c0.017,0.068 -0.009,0.14 -0.065,0.181c-0.201,0.148 -0.427,0.223 -0.678,0.225c-0.031,0 -0.063,-0.01 -0.092,-0.029c-0.204,-0.131 -0.423,-0.221 -0.658,-0.27c-0.031,-0.006 -0.057,-0.027 -0.07,-0.055c-0.257,-0.558 -0.608,-1.081 -0.856,-1.612c-0.474,-1.018 -1.037,-1.984 -1.688,-2.899c-0.451,-0.633 -0.715,-1.233 -1.018,-1.909c-0.08,-0.177 -0.374,-0.596 -0.881,-1.255c-0.585,-0.76 -0.828,-1.657 -1.376,-2.455c-0.019,-0.027 -0.032,-0.025 -0.041,0.008c-1.357,5.172 1.743,10.352 7.254,10.857c1.149,0.106 0.552,1.526 -0.376,1.38c-5.044,-0.795 -8.45,-4.64 -8.681,-9.734c-0.041,-0.9 0.008,-1.683 0.145,-2.35c0.005,-0.026 -0.013,-0.052 -0.04,-0.058l-0.947,-0.196c-0.02,-0.004 -0.04,0.009 -0.044,0.028c-1.485,6.834 3.172,12.789 9.993,13.396c3.42,0.305 6.498,-0.878 8.832,-3.418c3.76,-4.094 3.729,-10.865 0.001,-14.953c-1.745,-1.913 -4.499,-3.302 -7.092,-3.431c-1.372,-0.068 -0.724,-1.563 0.332,-1.406c6.71,0.994 11.049,6.115 11.071,12.872c0.008,2.582 -0.889,5.196 -2.562,7.169c-4.051,4.777 -10.386,6.418 -15.968,3.126c-4.819,-2.842 -7.085,-8.156 -5.893,-13.61c0.07,-0.32 0.112,-0.537 0.125,-0.652c0.004,-0.031 -0.004,-0.064 -0.023,-0.093c-0.337,-0.524 -0.804,-1.582 -0.508,-2.196c0.053,-0.109 0.139,-0.161 0.26,-0.156c0.341,0.013 0.593,0.14 0.758,0.381c0.101,0.149 0.152,0.185 0.312,0.231c0.029,0.008 0.049,0.034 0.049,0.063c0.004,0.374 0.178,0.65 0.407,0.954c0.41,0.542 1.41,0.888 1.981,0.346c0.021,-0.02 0.034,-0.05 0.037,-0.085c0.039,-0.461 0.603,-0.215 0.499,-0.775c-0.005,-0.026 0.001,-0.058 0.018,-0.09l0.317,-0.61c0.013,-0.024 0.015,-0.059 0.006,-0.096c-0.095,-0.395 -0.238,-0.699 -0.601,-0.924c-0.859,-0.533 -1.793,-0.795 -2.405,0.261c-0.015,0.026 -0.041,0.047 -0.073,0.059l-0.397,0.15c-0.121,0.046 -0.223,0.031 -0.308,-0.046c-1.156,-1.044 0.511,-1.868 1.33,-2.179c0.302,-0.115 0.635,-0.044 0.965,-0.11c0.031,-0.006 0.06,-0.023 0.082,-0.046c2.207,-2.311 4.939,-3.641 8.196,-3.988c0.288,-0.031 0.531,-0.02 0.728,0.033c0.03,0.008 0.055,0.031 0.066,0.061c0.096,0.257 0.095,0.502 -0.004,0.733c-0.093,0.218 -0.348,0.324 -0.484,0.563c-0.016,0.027 -0.044,0.045 -0.074,0.046c-2.562,0.13 -4.966,1.289 -6.824,3.026c-0,0.001 -0.001,0.001 -0.001,0.002c-0.019,0.018 -0.018,0.048 -0,0.066c0,0 0.001,0.001 0.001,0.001c0.242,0.222 0.483,0.309 0.671,0.586c0.001,0.001 0.001,0.002 0.002,0.003c0.015,0.018 0.041,0.02 0.059,0.006c0.001,-0.001 0.002,-0.002 0.003,-0.003c3.5,-3.325 8.427,-3.882 12.457,-1.1c3.618,2.499 4.987,6.679 3.985,10.902c-0.929,3.92 -4.194,6.616 -8.11,7.222c-0.45,0.07 -0.732,0.199 -1.191,0.009c-0.029,-0.012 -0.051,-0.036 -0.06,-0.066c-0.208,-0.725 0.224,-0.785 0.526,-1.272c0.016,-0.026 0.046,-0.041 0.076,-0.038c0.121,0.012 0.237,0.001 0.346,-0.033c0.031,-0.009 0.032,-0.023 0.002,-0.04Zm5.29,-13.952c-1.873,-2.032 -4.482,-3.058 -7.241,-2.881c-2.2,0.141 -4.037,1.056 -5.511,2.744c-0.024,0.028 -0.036,0.061 -0.03,0.087l0.029,0.124c0.006,0.027 0.035,0.046 0.068,0.044c0.335,-0.019 0.654,-0.057 0.995,-0.04c0.545,0.029 1.223,0.064 1.755,-0.068c0.197,-0.049 0.392,-0.018 0.59,-0.083c0.446,-0.146 0.873,0.073 1.315,0.035c0.471,-0.04 0.948,-0.151 1.391,-0.143c0.585,0.01 1.178,0.114 1.735,0.126c0.96,0.02 1.911,0.185 2.868,0.076c0.692,-0.079 1.339,-0.007 2.022,0.011c0.03,0.001 0.035,-0.01 0.014,-0.032Zm-2.473,5.156c0.116,0.242 0.138,0.505 0.282,0.721c0.069,0.105 0.142,0.206 0.217,0.304c0.002,0.002 0.003,0.004 0.005,0.006c0.013,0.01 0.032,0.008 0.043,-0.006c0.002,-0.002 0.003,-0.004 0.004,-0.006c0.251,-0.497 0.485,-1.003 0.703,-1.516c0.214,-0.506 0.529,-0.88 0.837,-1.322c0.387,-0.555 0.679,-1.179 0.994,-1.786c0.002,-0.004 0.003,-0.008 0.004,-0.012c0.009,-0.03 -0.01,-0.062 -0.04,-0.07c-0.004,-0.001 -0.009,-0.002 -0.013,-0.002c-1.692,-0.05 -3.484,-0.14 -5.223,-0.071c-0.002,0 -0.004,0 -0.006,0.001c-0.02,0.004 -0.034,0.023 -0.031,0.042c0.001,0.002 0.001,0.004 0.002,0.006c0.071,0.205 0.218,0.367 0.282,0.566c0.187,0.575 0.493,1.079 0.918,1.514c0.217,0.221 0.234,0.675 0.447,0.955c0.174,0.228 0.462,0.443 0.575,0.676Zm-7.486,-0.554c0.157,-0.11 0.233,-0.261 0.226,-0.453c-0.001,-0.036 0.005,-0.068 0.018,-0.095c0.097,-0.2 0.233,-0.432 0.411,-0.57c0.085,-0.066 0.122,-0.216 0.181,-0.288c0.251,-0.308 0.55,-0.547 0.649,-0.951c0.077,-0.316 0.318,-0.545 0.502,-0.801c0.02,-0.027 0.013,-0.042 -0.021,-0.043c-0.424,-0.015 -0.845,0.008 -1.263,0.068c-1.238,0.177 -2.375,-0.112 -3.644,-0.016c-0.027,0.002 -0.053,0.02 -0.071,0.048l-0.425,0.678c-0.018,0.03 -0.023,0.062 -0.014,0.087c0.13,0.348 0.399,0.625 0.546,0.926c0.311,0.641 0.71,1.221 1.197,1.741c0.099,0.105 0.175,0.229 0.23,0.372c0.135,0.349 0.322,0.682 0.562,1c0.005,0.006 0.01,0.012 0.016,0.017c0.044,0.036 0.11,0.031 0.146,-0.013c0.005,-0.006 0.01,-0.013 0.013,-0.02c0.126,-0.251 0.271,-0.516 0.435,-0.796c0.12,-0.205 0.114,-0.427 0.148,-0.639c0.017,-0.106 0.07,-0.19 0.158,-0.252Zm6.796,2.243c-0.175,-0.287 -0.328,-0.541 -0.459,-0.763c-0.131,-0.221 -0.342,-0.335 -0.533,-0.502c-0.023,-0.021 -0.038,-0.05 -0.041,-0.083c-0.018,-0.196 -0.046,-0.296 -0.207,-0.434c-0.367,-0.312 -0.425,-0.716 -0.601,-1.085c-0.089,-0.187 -0.162,-0.38 -0.219,-0.581c-0.087,-0.309 -0.376,-0.454 -0.509,-0.773c-0.157,-0.375 -0.361,-0.727 -0.611,-1.055c-0.044,-0.057 -0.202,-0.2 -0.11,0.034c0.012,0.03 0.01,0.063 -0.006,0.089c-0.331,0.555 -0.69,1.091 -1.075,1.608c-0.34,0.456 -0.345,0.995 -0.727,1.431c-0.159,0.181 -0.261,0.319 -0.304,0.413c-0.137,0.295 -0.172,0.652 -0.338,0.9c-0.155,0.234 -0.374,0.383 -0.494,0.628c-0.055,0.115 -0.111,0.232 -0.166,0.349c-0.014,0.03 -0.004,0.043 0.029,0.038c0.298,-0.039 0.631,0.025 0.849,0.037c0.248,0.013 0.496,0.026 0.744,0.039c0.365,0.018 0.73,-0.072 1.104,-0.101c0.399,-0.03 0.836,0.103 1.292,0.066c0.003,0 0.187,-0.038 0.552,-0.115c0.477,-0.1 0.789,0.093 1.224,0.085c0.188,-0.004 0.353,-0.009 0.494,-0.014c0.157,-0.007 0.194,-0.077 0.112,-0.211Zm-1.722,7.071c-0.024,0.029 -0.018,0.039 0.019,0.031c5.139,-1.116 8.285,-6.159 6.531,-11.274c-0.019,-0.056 -0.046,-0.06 -0.08,-0.011c-0.234,0.334 -0.429,0.694 -0.584,1.081c-0.011,0.029 -0.03,0.055 -0.056,0.08c-0.431,0.409 -0.791,1.45 -0.933,1.972c-0.043,0.158 -0.2,0.377 -0.471,0.656c-0.08,0.082 -0.183,0.294 -0.309,0.636c-0.19,0.515 -0.394,0.872 -0.693,1.281c-0.486,0.661 -0.878,1.369 -1.385,2.02c-0.3,0.387 -0.48,1.055 -0.772,1.508c-0.155,0.239 -0.31,0.477 -0.467,0.715c-0.24,0.364 -0.446,0.882 -0.8,1.305Z" style="fill-rule:nonzero;"/><path d="M3.5,26.659l-0.879,-0.477c-0.03,-0.016 -0.03,-0.032 0,-0.049l0.872,-0.471c0.029,-0.015 0.052,-0.038 0.068,-0.067l0.479,-0.875c0.017,-0.031 0.033,-0.031 0.05,-0.001l0.473,0.872c0.017,0.031 0.041,0.055 0.068,0.069l0.886,0.462c0.043,0.023 0.043,0.045 0.001,0.068l-0.888,0.474c-0.027,0.014 -0.05,0.038 -0.066,0.067l-0.477,0.873c-0.017,0.031 -0.034,0.031 -0.05,0l-0.47,-0.878c-0.016,-0.028 -0.039,-0.051 -0.067,-0.067Z" style="fill-rule:nonzero;"/></g></svg>