<?xml version="1.0" encoding="UTF-8" standalone="no"?><!DOCTYPE svg PUBLIC "-//W3C//DTD SVG 1.1//EN" "http://www.w3.org/Graphics/SVG/1.1/DTD/svg11.dtd"><svg width="100%" height="100%" viewBox="0 0 30 30" version="1.1" xmlns="http://www.w3.org/2000/svg" xmlns:xlink="http://www.w3.org/1999/xlink" xml:space="preserve" xmlns:serif="http://www.serif.com/" style="fill-rule:evenodd;clip-rule:evenodd;stroke-linejoin:round;stroke-miterlimit:2;"><g><path d="M25.825,4.108l-0.885,-0.484c-0.03,-0.016 -0.03,-0.032 -0.001,-0.048l0.885,-0.483c0.028,-0.015 0.051,-0.039 0.067,-0.068l0.462,-0.861c0.017,-0.033 0.035,-0.033 0.052,-0.001l0.464,0.854c0.016,0.031 0.039,0.054 0.065,0.068l0.901,0.49c0.03,0.017 0.03,0.033 0.001,0.049l-0.887,0.481c-0.028,0.015 -0.051,0.038 -0.067,0.067l-0.476,0.881c-0.016,0.029 -0.032,0.029 -0.048,-0.001l-0.466,-0.876c-0.016,-0.03 -0.04,-0.054 -0.067,-0.068Z" style="fill-rule:nonzero;"/><path d="M8.054,7.739c0.001,0.001 0.001,0.003 0.002,0.004c0.008,0.012 0.025,0.015 0.037,0.006c0.001,-0 0.002,-0.001 0.003,-0.002c3.712,-3.554 9.028,-3.924 13.059,-0.679c0.128,0.103 0.18,0.225 0.283,0.353c0.019,0.023 0.047,0.041 0.081,0.05c0.18,0.047 0.331,0.142 0.452,0.284c0,0 0,0 0.001,0.001c0.032,0.037 0.091,0.039 0.13,0.005c0.001,-0.001 0.001,-0.001 0.001,-0.001l0.627,-0.547c0.001,-0.001 0.002,-0.001 0.002,-0.002c0.025,-0.024 0.029,-0.061 0.008,-0.083c-0,-0 -0.001,-0.001 -0.002,-0.002l-0.331,-0.297c-0.023,-0.02 -0.03,-0.051 -0.018,-0.074l0.499,-0.945c0.086,-0.162 0.196,-0.181 0.329,-0.056l0.795,0.742c0.024,0.023 0.054,0.036 0.084,0.037c0.513,0.003 1.26,0.087 1.704,0.358c0.494,0.3 0.836,0.384 1.082,0.98c0.03,0.074 0.009,0.159 -0.052,0.21c-0.191,0.16 -0.419,0.266 -0.682,0.319c-0.029,0.006 -0.062,0.001 -0.094,-0.013c-0.172,-0.076 -0.341,-0.07 -0.508,0.018c-0.025,0.013 -0.057,0.008 -0.076,-0.014c-0.24,-0.272 -0.53,-0.312 -0.91,-0.371c-0.828,-0.129 -1.728,0.484 -1.675,1.386c0.001,0.026 0.016,0.056 0.04,0.085c0.065,0.08 0.086,0.199 0.061,0.356c-0.022,0.135 -0.003,0.265 0.056,0.389c0.151,0.316 0.312,0.716 0.653,0.866c0.287,0.125 0.58,0.155 0.881,0.09c0.914,-0.198 1.657,-0.626 1.512,-1.736c-0.065,-0.504 0.302,-0.923 0.818,-0.768c1.143,0.342 0.353,2.13 -0.032,2.795c-0.016,0.028 -0.02,0.062 -0.012,0.093c1.025,3.837 0.567,8.021 -2.05,11.11c-4.418,5.216 -11.295,6.483 -16.992,2.468c-4.151,-2.926 -5.953,-8.022 -4.871,-12.953c0.069,-0.317 0.111,-0.535 0.125,-0.653c0.003,-0.03 -0.005,-0.063 -0.024,-0.092c-0.337,-0.524 -0.804,-1.582 -0.508,-2.196c0.053,-0.109 0.139,-0.161 0.26,-0.156c0.341,0.013 0.593,0.14 0.758,0.381c0.101,0.149 0.152,0.185 0.312,0.231c0.029,0.008 0.049,0.034 0.049,0.063c0.004,0.374 0.178,0.65 0.407,0.954c0.41,0.542 1.41,0.888 1.981,0.346c0.021,-0.02 0.034,-0.05 0.037,-0.085c0.039,-0.461 0.603,-0.215 0.499,-0.775c-0.005,-0.026 0.001,-0.058 0.018,-0.09l0.317,-0.61c0.013,-0.024 0.015,-0.059 0.006,-0.096c-0.095,-0.395 -0.238,-0.699 -0.601,-0.924c-0.859,-0.533 -1.793,-0.795 -2.405,0.261c-0.015,0.026 -0.041,0.047 -0.073,0.059l-0.397,0.15c-0.121,0.046 -0.223,0.031 -0.308,-0.046c-1.156,-1.044 0.511,-1.868 1.33,-2.179c0.302,-0.115 0.635,-0.044 0.965,-0.11c0.031,-0.006 0.06,-0.023 0.082,-0.046c2.207,-2.311 4.939,-3.641 8.196,-3.988c0.288,-0.031 0.531,-0.02 0.728,0.033c0.03,0.008 0.055,0.031 0.066,0.061c0.096,0.257 0.095,0.502 -0.004,0.733c-0.093,0.218 -0.348,0.324 -0.484,0.563c-0.016,0.027 -0.044,0.045 -0.074,0.046c-2.562,0.13 -4.966,1.289 -6.824,3.026c-0,0.001 -0.001,0.001 -0.001,0.002c-0.019,0.018 -0.018,0.048 -0,0.066c0,0 0.001,0.001 0.001,0.001c0.232,0.211 0.541,0.321 0.671,0.608Zm13.231,1.434c-1.243,-1.445 -3.402,-2.388 -5.262,-2.625c-2.952,-0.376 -5.398,0.511 -7.339,2.661c-0.024,0.027 -0.035,0.059 -0.029,0.086l0.031,0.133c0.006,0.028 0.035,0.047 0.068,0.045c1.182,-0.062 2.293,0.035 3.466,-0.23c0.348,-0.078 0.818,0.104 1.194,0.073c0.469,-0.038 0.941,-0.151 1.385,-0.141c0.608,0.013 1.223,0.114 1.804,0.128c0.801,0.02 1.635,0.167 2.43,0.089c0.713,-0.071 1.427,-0.072 2.142,-0.005c0.214,0.02 0.251,-0.051 0.11,-0.214Zm-2.319,5.338c0.116,0.243 0.139,0.505 0.283,0.722c0.069,0.104 0.141,0.205 0.216,0.303c0.001,0.002 0.003,0.004 0.005,0.005c0.013,0.011 0.033,0.009 0.044,-0.005c0.002,-0.002 0.003,-0.004 0.004,-0.006c0.248,-0.496 0.481,-0.999 0.7,-1.51c0.221,-0.516 0.528,-0.901 0.852,-1.341c0.278,-0.378 0.462,-0.797 0.69,-1.211c0.014,-0.026 0.015,-0.059 0.002,-0.089l-0.226,-0.528c-0.012,-0.028 -0.039,-0.047 -0.069,-0.047c-1.416,-0.003 -3.065,-0.131 -4.692,-0.049c-0.002,0 -0.004,0 -0.006,0.001c-0.017,0.004 -0.028,0.022 -0.023,0.04c0,0.002 0.001,0.004 0.002,0.006c0.242,0.495 0.493,1.298 0.866,1.683c0.277,0.287 0.479,0.617 0.604,0.992c0.057,0.169 0.122,0.299 0.197,0.392c0.171,0.212 0.443,0.419 0.551,0.642Zm-7.486,-0.554c0.157,-0.11 0.233,-0.261 0.226,-0.453c-0.001,-0.036 0.005,-0.068 0.018,-0.095c0.097,-0.2 0.233,-0.432 0.411,-0.57c0.085,-0.066 0.122,-0.216 0.181,-0.288c0.251,-0.308 0.55,-0.547 0.649,-0.951c0.077,-0.316 0.318,-0.545 0.502,-0.801c0.02,-0.027 0.013,-0.042 -0.021,-0.043c-0.424,-0.015 -0.845,0.008 -1.263,0.068c-1.238,0.177 -2.375,-0.112 -3.644,-0.016c-0.027,0.002 -0.053,0.02 -0.071,0.048l-0.425,0.678c-0.018,0.03 -0.023,0.062 -0.014,0.087c0.13,0.348 0.399,0.625 0.546,0.926c0.311,0.641 0.71,1.221 1.197,1.741c0.099,0.105 0.175,0.229 0.23,0.372c0.135,0.349 0.322,0.682 0.562,1c0.005,0.006 0.01,0.012 0.016,0.017c0.044,0.036 0.11,0.031 0.146,-0.013c0.005,-0.006 0.01,-0.013 0.013,-0.02c0.126,-0.251 0.271,-0.516 0.435,-0.796c0.12,-0.205 0.114,-0.427 0.148,-0.639c0.017,-0.106 0.07,-0.19 0.158,-0.252Zm6.796,2.243c-0.175,-0.287 -0.328,-0.541 -0.459,-0.763c-0.131,-0.221 -0.342,-0.335 -0.533,-0.502c-0.023,-0.021 -0.038,-0.05 -0.041,-0.083c-0.018,-0.196 -0.046,-0.296 -0.207,-0.434c-0.367,-0.312 -0.425,-0.716 -0.601,-1.085c-0.089,-0.187 -0.162,-0.38 -0.219,-0.581c-0.087,-0.309 -0.376,-0.454 -0.509,-0.773c-0.157,-0.375 -0.361,-0.727 -0.611,-1.055c-0.044,-0.057 -0.202,-0.2 -0.11,0.034c0.012,0.03 0.01,0.063 -0.006,0.089c-0.331,0.555 -0.69,1.091 -1.075,1.608c-0.34,0.456 -0.345,0.995 -0.727,1.431c-0.159,0.181 -0.261,0.319 -0.304,0.413c-0.137,0.295 -0.172,0.652 -0.338,0.9c-0.155,0.234 -0.374,0.383 -0.494,0.628c-0.055,0.115 -0.111,0.232 -0.166,0.349c-0.014,0.03 -0.004,0.043 0.029,0.038c0.298,-0.039 0.631,0.025 0.849,0.037c0.248,0.013 0.496,0.026 0.744,0.039c0.365,0.018 0.73,-0.072 1.104,-0.101c0.399,-0.03 0.836,0.103 1.292,0.066c0.003,0 0.187,-0.038 0.552,-0.115c0.477,-0.1 0.789,0.093 1.224,0.085c0.188,-0.004 0.353,-0.009 0.494,-0.014c0.157,-0.007 0.194,-0.077 0.112,-0.211Zm-1.723,7.072c-0.024,0.029 -0.018,0.04 0.019,0.032c1.611,-0.353 3.001,-1.057 4.171,-2.112c2.418,-2.181 3.437,-5.44 2.523,-8.647c-0.011,-0.038 -0.031,-0.066 -0.054,-0.077l-0.348,-0.164c-0,-0 -0,-0 -0.001,-0c-0.024,-0.011 -0.054,0.004 -0.067,0.032c0,0.001 0,0.001 0,0.001c-0.173,0.407 -0.32,0.697 -0.441,0.869c-0.423,0.598 -0.725,1.253 -0.908,1.964c-0.033,0.129 -0.189,0.341 -0.467,0.636c-0.082,0.088 -0.185,0.301 -0.31,0.638c-0.189,0.514 -0.393,0.871 -0.693,1.279c-0.485,0.661 -0.877,1.369 -1.384,2.02c-0.3,0.387 -0.48,1.055 -0.772,1.508c-0.155,0.239 -0.31,0.477 -0.467,0.715c-0.24,0.365 -0.446,0.882 -0.801,1.306Zm-0.799,0.122c0.113,-0.029 0.211,-0.037 0.293,-0.025c0.169,0.023 0.182,-0.01 0.037,-0.101c-0.564,-0.353 -0.201,-0.72 -0.451,-1.143c-0.015,-0.027 -0.015,-0.06 0,-0.085c0.576,-0.959 1.17,-1.906 1.783,-2.841c0.308,-0.471 0.521,-0.877 0.717,-1.362c0.043,-0.105 0.01,-0.14 -0.099,-0.104c-0.282,0.095 -0.625,0.01 -0.847,0.027c-0.269,0.022 -0.573,0.09 -0.912,0.203c-0.044,0.015 -0.091,0.012 -0.132,-0.007c-0.185,-0.085 -0.342,-0.11 -0.551,-0.031c-0.367,0.139 -0.72,0.144 -1.059,0.014c-0.083,-0.033 -0.154,-0.043 -0.211,-0.031c-0.045,0.009 -0.077,0.013 -0.098,0.011c-0.436,-0.05 -0.934,-0.179 -1.369,-0.092c-0.366,0.072 -0.645,0.02 -0.994,-0.019c-0.002,-0 -0.004,-0 -0.006,0c-0.018,0.002 -0.03,0.018 -0.028,0.036c-0,0.002 0,0.004 0.001,0.006c0.245,0.696 0.579,1.342 1.001,1.938c0.355,0.502 0.561,0.933 0.818,1.446c0.226,0.451 0.577,0.815 0.702,1.397c0.007,0.031 -0.002,0.063 -0.023,0.085c-0.572,0.6 -0.894,0.073 -1.463,0c-0.031,-0.004 -0.058,-0.023 -0.071,-0.051c-0.256,-0.556 -0.609,-1.076 -0.856,-1.608c-0.531,-1.145 -1.175,-2.224 -1.933,-3.236c-0.175,-0.234 -0.368,-0.617 -0.579,-1.15c-0.378,-0.956 -1.241,-1.632 -1.619,-2.552c-0.267,-0.651 -0.547,-1.183 -0.841,-1.598c-0.019,-0.027 -0.033,-0.025 -0.042,0.008c-1.305,5 1.448,9.843 6.634,10.791c0.277,0.05 0.737,-0.012 1.001,0.185c0.569,0.423 0.087,1.113 -0.412,1.241c-0.162,0.042 -0.39,0.033 -0.685,-0.028c-5.449,-1.121 -8.723,-5.554 -8.336,-11.043c0.023,-0.333 0.07,-0.665 0.141,-0.996c0,-0 0,-0 0,-0.001c0.005,-0.024 -0.012,-0.049 -0.038,-0.055c-0,0 -0.001,0 -0.001,0l-0.928,-0.184l-0,0c-0.027,-0.006 -0.054,0.011 -0.059,0.037c0,-0 0,-0 0,0c-0.653,2.901 -0.211,5.987 1.469,8.441c1.797,2.624 4.592,4.425 7.775,4.858c2.893,0.394 5.686,-0.162 8.029,-1.94c3.539,-2.687 5.02,-7.005 4.091,-11.359c-0,-0.001 -0.001,-0.003 -0.001,-0.004c-0.008,-0.02 -0.03,-0.031 -0.049,-0.024c-0.002,0.001 -0.003,0.001 -0.005,0.002c-0.254,0.137 -0.524,0.238 -0.81,0.305c-0.027,0.006 -0.045,0.033 -0.041,0.06c0.535,3.02 -0.133,6.466 -2.229,8.752c-1.485,1.621 -3.539,2.763 -5.753,3.126c-0.486,0.08 -0.991,0.305 -1.477,0.039c-0.028,-0.015 -0.048,-0.042 -0.054,-0.073c-0.099,-0.441 0.026,-0.778 0.375,-1.01c0.08,-0.054 0.109,-0.11 0.135,-0.195c0.009,-0.03 0.032,-0.053 0.06,-0.06Z" style="fill-rule:nonzero;"/><path d="M19.873,3.662c0.047,0.021 0.047,0.042 0.001,0.065c-0.354,0.176 -1.055,0.429 -1.122,0.869c-0,0.002 -0,0.003 -0.001,0.004c-0.005,0.022 -0.027,0.035 -0.048,0.029c-0.001,0 -0.003,-0 -0.004,-0.001c-0.879,-0.334 -1.784,-0.526 -2.717,-0.576c-0.446,-0.024 -0.976,-0.276 -0.753,-0.808c0.202,-0.481 0.59,-0.679 1.164,-0.594c1.192,0.177 2.352,0.515 3.48,1.012Z" style="fill-rule:nonzero;"/><path d="M23.28,4.515c0.064,0.031 0.065,0.064 0.003,0.098l-0.941,0.513c-0.028,0.016 -0.051,0.039 -0.067,0.067l-0.531,0.97c-0.016,0.029 -0.032,0.029 -0.049,-0.001l-0.553,-0.983c-0.016,-0.028 -0.039,-0.051 -0.068,-0.067l-0.946,-0.51c-0.043,-0.023 -0.042,-0.047 0.001,-0.07l0.964,-0.522c0.027,-0.015 0.051,-0.039 0.067,-0.068l0.532,-0.97c0.016,-0.029 0.032,-0.028 0.049,0.001c0.146,0.254 0.284,0.51 0.415,0.768c0.188,0.37 0.736,0.587 1.124,0.774Z" style="fill-rule:nonzero;"/><path d="M5.508,26.725l-0.483,0.885c-0.016,0.03 -0.032,0.03 -0.048,0l-0.467,-0.879c-0.014,-0.027 -0.038,-0.051 -0.067,-0.067l-0.881,-0.484c-0.031,-0.017 -0.031,-0.033 0,-0.049l0.864,-0.464c0.029,-0.015 0.052,-0.038 0.068,-0.066l0.484,-0.889c0.016,-0.029 0.032,-0.029 0.048,0l0.505,0.908c0.014,0.025 0.039,0.047 0.071,0.065l0.837,0.455c0.031,0.017 0.031,0.035 -0.001,0.052l-0.863,0.467c-0.029,0.016 -0.052,0.039 -0.067,0.066Z" style="fill-rule:nonzero;"/></g></svg>