<?xml version="1.0" encoding="UTF-8" standalone="no"?><!DOCTYPE svg PUBLIC "-//W3C//DTD SVG 1.1//EN" "http://www.w3.org/Graphics/SVG/1.1/DTD/svg11.dtd"><svg width="100%" height="100%" viewBox="0 0 30 30" version="1.1" xmlns="http://www.w3.org/2000/svg" xmlns:xlink="http://www.w3.org/1999/xlink" xml:space="preserve" xmlns:serif="http://www.serif.com/" style="fill-rule:evenodd;clip-rule:evenodd;stroke-linejoin:round;stroke-miterlimit:2;"><g><path d="M26.35,3.092l0.886,0.482c0.031,0.017 0.031,0.033 0,0.05l-0.861,0.46c-0.031,0.017 -0.055,0.04 -0.069,0.065l-0.483,0.896c-0.022,0.041 -0.044,0.041 -0.066,0l-0.463,-0.871c-0.016,-0.03 -0.039,-0.054 -0.067,-0.069l-0.884,-0.473c-0.039,-0.021 -0.039,-0.042 0,-0.063l0.886,-0.474c0.028,-0.015 0.051,-0.038 0.067,-0.067l0.465,-0.882c0.016,-0.031 0.032,-0.031 0.049,-0.001l0.474,0.88c0.016,0.029 0.039,0.052 0.066,0.067Z" style="fill-rule:nonzero;"/><path d="M22.425,6.821c-0.081,-0.111 -0.181,-0.2 -0.3,-0.267c-0.047,-0.02 -0.089,-0.051 -0.127,-0.094c-0.02,-0.022 -0.023,-0.055 -0.009,-0.083c0.257,-0.504 0.307,-0.669 0.865,-0.889c0.029,-0.011 0.062,-0.006 0.084,0.014l1.074,0.996c0.024,0.023 0.055,0.035 0.085,0.035c0.843,-0.009 1.61,0.223 2.3,0.696c0.265,0.181 0.43,0.428 0.497,0.74c0.006,0.03 -0.005,0.062 -0.029,0.082c-0.213,0.181 -0.451,0.297 -0.716,0.348c-0.029,0.006 -0.062,0.002 -0.093,-0.012c-0.174,-0.077 -0.344,-0.07 -0.509,0.02c-0.025,0.013 -0.056,0.008 -0.074,-0.014c-0.093,-0.111 -0.215,-0.193 -0.364,-0.246c-0.9,-0.318 -1.599,-0.113 -2.098,0.614c-0.124,0.18 -0.115,0.42 -0.132,0.632c-0.002,0.028 0.01,0.058 0.033,0.083c0.075,0.081 0.1,0.205 0.076,0.37c-0.021,0.141 -0,0.276 0.061,0.405c0.149,0.311 0.309,0.703 0.644,0.85c0.287,0.126 0.581,0.156 0.882,0.091c0.915,-0.198 1.659,-0.627 1.513,-1.737c-0.064,-0.493 0.29,-0.911 0.797,-0.774c1.175,0.319 0.374,2.136 -0.01,2.802c-0.016,0.028 -0.021,0.06 -0.013,0.091c0.81,3.049 0.684,6.033 -0.602,8.925c-0.015,0.033 -0.03,0.033 -0.046,0.002l-0.926,-1.754c-0.014,-0.027 -0.016,-0.06 -0.006,-0.093c0.635,-2.014 0.744,-4.074 0.327,-6.18c-0,-0.003 -0.001,-0.005 -0.002,-0.008c-0.01,-0.024 -0.037,-0.036 -0.061,-0.027c-0.003,0.001 -0.005,0.002 -0.008,0.004c-0.237,0.146 -0.505,0.251 -0.803,0.314c-0.027,0.005 -0.044,0.032 -0.04,0.059c0.32,1.797 0.221,3.554 -0.298,5.271c-0.269,0.89 -0.751,1.768 -1.231,2.59c-0.046,0.08 -0.114,0.146 -0.196,0.19c-0.552,0.297 -1.104,0.593 -1.657,0.888c-0.47,0.25 -0.791,0.598 -0.329,1.076c0.001,0.001 0.002,0.002 0.002,0.002c0.015,0.019 0.013,0.046 -0.005,0.06c-0,0.001 -0.001,0.002 -0.002,0.002c-0.839,0.602 -1.589,1.022 -2.248,1.26c-0.26,0.094 -0.449,0.169 -0.566,0.224c-0.027,0.012 -0.044,0.041 -0.044,0.072c0,0.359 -0.041,0.71 -0.123,1.051c-0.001,0.002 -0.001,0.005 -0.001,0.008c0,0.015 0.014,0.028 0.031,0.028c0.002,0 0.005,-0 0.007,-0.001c1.484,-0.391 2.807,-1.088 3.969,-2.092c0.024,-0.02 0.057,-0.025 0.085,-0.012c0.293,0.14 1.067,0.456 1.151,0.765c0.008,0.03 -0.002,0.062 -0.026,0.084c-4.726,4.284 -11.339,4.26 -16.194,0.261c-3.182,-2.622 -4.633,-6.537 -4.303,-10.667c0.06,-0.748 0.14,-1.313 0.239,-1.695c0.065,-0.253 0.105,-0.464 0.119,-0.632c0.003,-0.032 -0.006,-0.064 -0.024,-0.092c-0.337,-0.522 -0.806,-1.584 -0.509,-2.196c0.053,-0.109 0.14,-0.162 0.261,-0.157c0.34,0.013 0.592,0.14 0.757,0.381c0.101,0.149 0.152,0.185 0.312,0.231c0.029,0.008 0.049,0.034 0.049,0.062c0.005,0.381 0.186,0.669 0.423,0.973c0.411,0.53 1.402,0.863 1.964,0.328c0.021,-0.02 0.035,-0.05 0.038,-0.085c0.039,-0.461 0.603,-0.215 0.499,-0.775c-0.005,-0.026 0.001,-0.058 0.018,-0.09l0.317,-0.61c0.013,-0.024 0.015,-0.059 0.006,-0.096c-0.095,-0.395 -0.238,-0.699 -0.601,-0.924c-0.859,-0.533 -1.793,-0.795 -2.405,0.261c-0.015,0.026 -0.041,0.047 -0.073,0.059l-0.397,0.15c-0.121,0.046 -0.223,0.031 -0.308,-0.046c-1.156,-1.044 0.511,-1.868 1.33,-2.179c0.302,-0.115 0.635,-0.044 0.965,-0.11c0.031,-0.006 0.06,-0.023 0.082,-0.046c2.207,-2.311 4.939,-3.641 8.196,-3.988c0.288,-0.031 0.531,-0.02 0.728,0.033c0.03,0.008 0.055,0.031 0.066,0.061c0.096,0.257 0.095,0.502 -0.004,0.733c-0.093,0.218 -0.348,0.324 -0.484,0.563c-0.016,0.027 -0.044,0.045 -0.074,0.046c-2.562,0.13 -4.966,1.289 -6.824,3.026c-0,0.001 -0.001,0.001 -0.001,0.002c-0.019,0.018 -0.018,0.048 -0,0.066c0,0 0.001,0.001 0.001,0.001c0.242,0.222 0.483,0.309 0.671,0.587c0.001,0.001 0.001,0.002 0.002,0.002c0.015,0.018 0.042,0.02 0.06,0.005c0.001,-0.001 0.001,-0.001 0.002,-0.002c1.297,-1.232 2.93,-2.215 4.669,-2.628c2.466,-0.584 5.186,-0.148 7.316,1.249c0.129,0.085 0.233,0.197 0.312,0.337c0.18,0.322 0.516,1.245 1.051,0.674c0.018,-0.019 0.049,-0.02 0.07,-0.002l0.473,0.407c0.022,0.019 0.056,0.019 0.079,-0.001l0.633,-0.548c0,-0 0.001,-0.001 0.001,-0.001c0.022,-0.02 0.025,-0.053 0.006,-0.074c-0,-0 -0.001,-0.001 -0.001,-0.001l-0.302,-0.314Zm-1.53,1.958c-1.446,-1.304 -3.145,-2.057 -5.096,-2.26c-2.865,-0.298 -5.237,0.6 -7.115,2.693c-0.024,0.027 -0.035,0.06 -0.028,0.087l0.031,0.13c0.006,0.027 0.035,0.046 0.067,0.044c1.182,-0.062 2.293,0.035 3.466,-0.23c0.348,-0.078 0.818,0.104 1.194,0.073c0.469,-0.038 0.941,-0.151 1.385,-0.141c0.608,0.013 1.223,0.115 1.804,0.128c0.801,0.019 1.635,0.168 2.43,0.089c0.713,-0.071 1.427,-0.072 2.142,-0.005c0.213,0.02 0.25,-0.051 0.111,-0.214c-0.101,-0.118 -0.231,-0.249 -0.391,-0.394Zm-1.929,5.732c0.116,0.242 0.138,0.505 0.282,0.721c0.069,0.105 0.142,0.206 0.218,0.305c0.002,0.002 0.003,0.004 0.005,0.005c0.013,0.011 0.032,0.009 0.042,-0.004c0.002,-0.002 0.003,-0.004 0.004,-0.006c0.111,-0.231 0.223,-0.461 0.336,-0.691c0.246,-0.502 0.449,-1.155 0.826,-1.637c0.467,-0.597 0.826,-1.184 1.077,-1.761c0.012,-0.027 0.011,-0.06 -0.002,-0.09l-0.225,-0.501c-0.012,-0.028 -0.039,-0.046 -0.069,-0.046c-1.407,-0.005 -3.054,-0.132 -4.683,-0.051c-0.002,0 -0.005,0 -0.007,0.001c-0.018,0.004 -0.028,0.022 -0.024,0.04c0,0.002 0.001,0.004 0.002,0.006c0.242,0.495 0.493,1.298 0.866,1.683c0.277,0.287 0.479,0.617 0.604,0.992c0.057,0.169 0.122,0.299 0.197,0.392c0.171,0.212 0.443,0.419 0.551,0.642Zm-7.486,-0.554c0.157,-0.11 0.233,-0.261 0.226,-0.453c-0.001,-0.036 0.005,-0.068 0.018,-0.095c0.097,-0.2 0.233,-0.432 0.411,-0.57c0.085,-0.066 0.122,-0.216 0.181,-0.288c0.251,-0.308 0.55,-0.547 0.649,-0.951c0.077,-0.316 0.318,-0.545 0.502,-0.801c0.02,-0.027 0.013,-0.042 -0.021,-0.043c-0.424,-0.015 -0.845,0.008 -1.263,0.068c-1.238,0.177 -2.375,-0.112 -3.644,-0.016c-0.027,0.002 -0.053,0.02 -0.071,0.048l-0.425,0.678c-0.018,0.03 -0.023,0.062 -0.014,0.087c0.13,0.348 0.399,0.625 0.546,0.926c0.311,0.641 0.71,1.221 1.197,1.741c0.099,0.105 0.175,0.229 0.23,0.372c0.135,0.349 0.322,0.682 0.562,1c0.005,0.006 0.01,0.012 0.016,0.017c0.044,0.036 0.11,0.031 0.146,-0.013c0.005,-0.006 0.01,-0.013 0.013,-0.02c0.126,-0.251 0.271,-0.516 0.435,-0.796c0.12,-0.205 0.114,-0.427 0.148,-0.639c0.017,-0.106 0.07,-0.19 0.158,-0.252Zm6.797,2.243c-0.175,-0.287 -0.329,-0.541 -0.46,-0.763c-0.131,-0.221 -0.342,-0.335 -0.533,-0.502c-0.023,-0.021 -0.038,-0.05 -0.041,-0.083c-0.018,-0.196 -0.046,-0.296 -0.207,-0.434c-0.367,-0.312 -0.425,-0.716 -0.601,-1.085c-0.089,-0.187 -0.162,-0.38 -0.219,-0.581c-0.087,-0.309 -0.376,-0.454 -0.509,-0.773c-0.157,-0.375 -0.361,-0.727 -0.611,-1.055c-0.044,-0.057 -0.202,-0.2 -0.11,0.034c0.012,0.03 0.01,0.063 -0.006,0.089c-0.331,0.555 -0.69,1.091 -1.075,1.608c-0.34,0.456 -0.345,0.995 -0.727,1.431c-0.159,0.181 -0.261,0.319 -0.304,0.413c-0.137,0.295 -0.172,0.652 -0.338,0.9c-0.155,0.234 -0.374,0.383 -0.494,0.628c-0.055,0.115 -0.111,0.232 -0.166,0.349c-0.014,0.03 -0.004,0.043 0.029,0.038c0.299,-0.04 0.64,0.026 0.856,0.037c0.234,0.012 0.468,0.025 0.703,0.038c0.625,0.035 1.108,-0.15 1.779,-0.054c0.716,0.102 1.307,-0.233 1.977,-0.072c0.356,0.086 0.621,0.059 0.944,0.047c0.157,-0.005 0.195,-0.075 0.113,-0.21Zm4.907,-3.748c-0.099,-0.073 -0.209,-0.121 -0.33,-0.144c-0.028,-0.006 -0.057,0.01 -0.068,0.038c-0.145,0.361 -0.289,0.648 -0.432,0.86c-0.43,0.639 -0.73,1.287 -0.901,1.945c-0.038,0.147 -0.196,0.366 -0.473,0.655c-0.107,0.111 -0.251,0.441 -0.432,0.989c-0.068,0.204 -0.291,0.557 -0.669,1.06c-0.439,0.582 -0.741,1.163 -1.356,1.994c-0.083,0.111 -0.229,0.418 -0.44,0.919c-0.197,0.468 -0.54,0.856 -0.787,1.315c-0.015,0.027 -0.013,0.06 0.004,0.085l0.496,0.748c0.016,0.024 0.046,0.034 0.073,0.024c4.289,-1.627 6.609,-5.953 5.393,-10.43c-0.003,-0.011 -0.008,-0.02 -0.016,-0.025c-0.004,-0.003 -0.008,-0.006 -0.013,-0.008c-0.031,-0.015 -0.047,-0.024 -0.049,-0.025Zm-11.106,11.924c-3.99,-1.332 -6.646,-4.728 -6.939,-8.903c-0.069,-0.987 -0.073,-1.866 0.127,-2.792c0.005,-0.026 -0.012,-0.052 -0.039,-0.058l-0.928,-0.184c-0.027,-0.006 -0.054,0.011 -0.06,0.037c-1.305,5.791 1.904,11.072 7.456,12.907c0.176,0.058 0.363,0.101 0.562,0.13c0.002,0 0.004,0 0.005,0c0.018,0 0.032,-0.016 0.032,-0.036c-0,-0.002 -0.001,-0.004 -0.001,-0.006l-0.194,-1.068c-0.002,-0.013 -0.01,-0.023 -0.021,-0.027Zm-5.155,-11.848c-1.154,4.399 0.848,8.936 5.307,10.439c0,0 0,0 0.001,0c0.024,0.008 0.051,-0.007 0.059,-0.032c-0,-0 -0,-0.001 0,-0.001c0.057,-0.191 0.159,-0.358 0.306,-0.5c0.022,-0.021 0.03,-0.053 0.019,-0.081c-0.132,-0.341 -0.372,-0.666 -0.508,-0.947c-0.607,-1.249 -0.986,-1.983 -1.138,-2.2c-0.542,-0.774 -1.114,-1.523 -1.488,-2.396c-0.275,-0.642 -0.621,-1.149 -1.028,-1.675c-0.637,-0.823 -0.921,-1.775 -1.489,-2.613c-0.019,-0.028 -0.032,-0.026 -0.041,0.006Zm10.465,5.236c-0.408,-0.053 -0.809,0.118 -1.139,0.203c-0.03,0.008 -0.063,0.005 -0.095,-0.007c-0.243,-0.095 -0.48,-0.097 -0.712,-0.008c-0.276,0.106 -0.465,0.085 -0.725,0.031c-0.217,-0.046 -0.399,-0.073 -0.547,-0.08c-0.432,-0.022 -0.865,-0.167 -1.308,-0.078c-0.369,0.074 -0.65,0.022 -1.003,-0.016c-0.002,-0 -0.005,-0 -0.007,0c-0.017,0.002 -0.029,0.017 -0.027,0.034c-0,0.003 0,0.005 0.001,0.007c0.263,0.733 0.62,1.413 1.072,2.038c0.372,0.515 0.592,1.048 0.882,1.59c0,0 0,0 0,0c0.013,0.024 0.043,0.033 0.068,0.02c0.693,-0.371 1.41,-0.424 2.15,-0.159c0.027,0.01 0.058,-0.001 0.073,-0.025c0.7,-1.136 1.562,-2.256 2.07,-3.492c0.031,-0.076 0.006,-0.107 -0.075,-0.092c-0.234,0.041 -0.416,0.068 -0.678,0.034Zm-0.981,5.623c-0.253,-0.038 -0.455,-0.162 -0.605,-0.373c-0.019,-0.028 -0.045,-0.049 -0.074,-0.06c-0.485,-0.181 -1.109,-0.279 -1.555,0.039c-0.518,0.369 -0.542,0.939 -0.625,1.659c-0.07,0.605 0.516,1.119 1.049,1.236c0.031,0.007 0.057,0.027 0.07,0.055c0.135,0.273 0.385,0.429 0.23,0.78c-0,0.001 -0,0.001 -0.001,0.002c-0.009,0.024 0.002,0.052 0.024,0.06c0.001,0.001 0.001,0.001 0.002,0.001c0.091,0.027 0.184,0.028 0.279,0.003c0.024,-0.007 0.045,-0.032 0.054,-0.065l0.074,-0.275c0.006,-0.023 0.028,-0.051 0.06,-0.077c0.13,-0.109 0.203,-0.246 0.218,-0.411c0.003,-0.031 0.022,-0.057 0.049,-0.069c0.961,-0.408 1.479,-1.548 0.83,-2.458c-0.018,-0.025 -0.046,-0.042 -0.079,-0.047Z" style="fill-rule:nonzero;"/><path d="M19.575,3.537c0.02,0.008 0.02,0.017 0.001,0.028c-0.374,0.198 -1.14,0.511 -1.378,0.84c-0.017,0.024 -0.048,0.035 -0.077,0.026c-0.695,-0.214 -1.405,-0.34 -2.129,-0.378c-1.394,-0.074 -0.773,-1.546 0.306,-1.404c1.118,0.147 2.21,0.443 3.277,0.888Z" style="fill-rule:nonzero;"/><path d="M21.682,5.2l-0.534,0.961c-0.017,0.031 -0.033,0.031 -0.049,0l-0.488,-0.906c-0.019,-0.035 -0.041,-0.061 -0.064,-0.074l-1.016,-0.572c-0.047,-0.026 -0.047,-0.051 -0.001,-0.076l0.978,-0.533c0.027,-0.014 0.05,-0.038 0.066,-0.068l0.525,-0.963c0.015,-0.027 0.031,-0.027 0.047,0.002l0.583,1.027c0.013,0.023 0.038,0.045 0.072,0.063l0.911,0.487c0.031,0.016 0.03,0.033 -0.001,0.05l-0.961,0.534c-0.029,0.016 -0.052,0.039 -0.068,0.068Z" style="fill-rule:nonzero;"/><path d="M22.569,22.404c-0.041,-0.022 -0.04,-0.044 0.001,-0.067l1.349,-0.723c0.029,-0.015 0.053,-0.039 0.069,-0.069l0.73,-1.347c0.016,-0.03 0.032,-0.03 0.048,-0.001l0.71,1.313c0.031,0.057 0.076,0.103 0.13,0.132l1.313,0.699c0.047,0.025 0.047,0.051 0,0.076l-1.354,0.731c-0.027,0.014 -0.051,0.038 -0.067,0.068l-0.728,1.339c-0.017,0.03 -0.033,0.03 -0.048,0.001l-0.717,-1.317c-0.031,-0.056 -0.078,-0.102 -0.135,-0.133l-1.301,-0.702Z" style="fill-rule:nonzero;"/><path d="M2.957,26.175c-0.031,-0.017 -0.03,-0.034 0.002,-0.051l0.869,-0.454c0.029,-0.016 0.053,-0.039 0.068,-0.068l0.488,-0.903c0.016,-0.029 0.032,-0.03 0.047,-0.001l0.473,0.882c0.016,0.029 0.039,0.053 0.067,0.068l0.898,0.486c0.035,0.019 0.035,0.037 0,0.056l-0.889,0.474c-0.027,0.014 -0.05,0.038 -0.066,0.067l-0.483,0.873c-0.017,0.029 -0.033,0.029 -0.048,0l-0.47,-0.872c-0.016,-0.029 -0.039,-0.052 -0.068,-0.068l-0.888,-0.489Z" style="fill-rule:nonzero;"/></g></svg>