<?xml version="1.0" encoding="UTF-8" standalone="no"?><!DOCTYPE svg PUBLIC "-//W3C//DTD SVG 1.1//EN" "http://www.w3.org/Graphics/SVG/1.1/DTD/svg11.dtd"><svg width="100%" height="100%" viewBox="0 0 30 30" version="1.1" xmlns="http://www.w3.org/2000/svg" xmlns:xlink="http://www.w3.org/1999/xlink" xml:space="preserve" xmlns:serif="http://www.serif.com/" style="fill-rule:evenodd;clip-rule:evenodd;stroke-linejoin:round;stroke-miterlimit:2;"><path d="M7.264,13.129c-0.333,0.331 -0.573,0.542 -0.997,0.857c-0.337,0.25 -0.647,0.533 -0.929,0.848c-0.164,0.183 -0.372,0.224 -0.427,-0.08c-0.089,-0.493 -0.141,-1.018 -0.161,-1.57c-0.048,-1.303 -0.096,-2.605 -0.167,-3.907c-0.029,-0.543 -0.035,-1.085 -0.016,-1.626c0.003,-0.098 0.047,-0.172 0.13,-0.223c0.385,-0.233 0.747,-0.449 1.181,-0.621c1.061,-0.421 2.01,-0.877 2.848,-1.367c0.22,-0.129 0.472,-0.312 0.756,-0.549c0.409,-0.342 0.873,-0.518 1.379,-0.645c0.574,-0.145 1.149,-0.291 1.723,-0.438c0.109,-0.028 0.266,-0.039 0.47,-0.034c0.477,0.012 0.868,0.051 1.164,0.457c0.354,0.488 0.672,1.033 0.952,1.635c0.114,0.245 0.235,0.475 0.362,0.691c0.519,0.886 0.939,1.818 1.26,2.795c0.091,0.277 -0.037,0.42 -0.316,0.32c-1.263,-0.451 -2.614,-0.147 -3.826,0.333c-0.712,0.283 -1.64,0.35 -2.151,0.476c-0.502,0.123 -1.107,0.757 -1.515,1.149c-0.553,0.531 -1.212,0.993 -1.72,1.499Z" style="fill-rule:nonzero;"/><path d="M15.373,24.163l-0.095,0.536c-0.015,0.085 -0.058,0.14 -0.129,0.166c-1.303,0.465 -2.598,0.896 -3.885,1.293c-0.098,0.03 -0.17,-0.001 -0.216,-0.094c-0.274,-0.562 -0.537,-1.158 -0.789,-1.788c-0.043,-0.107 -0.107,-0.221 -0.193,-0.342c-0.636,-0.898 -0.686,-2.108 -0.522,-3.173c0.072,-0.469 0.065,-0.93 0.025,-1.351c-0.06,-0.625 -0.498,-1.124 -0.911,-1.592c-0.603,-0.684 -0.946,-1.584 -1.337,-2.415c-0.043,-0.09 -0.072,-0.185 -0.089,-0.283c-0.025,-0.149 0.021,-0.266 0.14,-0.352c0.259,-0.189 0.524,-0.369 0.795,-0.541c0.614,-0.392 1.332,-0.705 2.004,-1.037c0.645,-0.319 1.221,-0.508 1.779,-1.044c0.603,-0.579 1.438,-1.111 2.121,-1.495c0.331,-0.187 0.831,-0.075 1.18,0.034c0.033,0.011 0.057,0.04 0.061,0.074c0.025,0.212 0.047,0.425 0.064,0.637c0.146,1.74 0.284,3.479 0.415,5.22c0.01,0.135 0.01,0.27 -0.001,0.407c-0.007,0.083 -0.052,0.122 -0.135,0.118c-0.242,-0.012 -0.513,0.437 -0.578,0.608c-0.143,0.378 -0.242,0.816 -0.296,1.314c-0,0.001 -0,0.002 -0,0.004c-0,0.016 0.009,0.029 0.022,0.029c0,0 0.001,0 0.002,0c0.012,-0.001 0.021,-0.008 0.028,-0.02c0.349,-0.616 0.946,-1.249 1.635,-1.449c0.423,-0.123 0.656,-0.202 1.041,-0.221c1.918,-0.094 3.836,-0.181 5.754,-0.262c0.02,-0 0.039,0.005 0.055,0.015c0.445,0.29 0.878,0.594 1.299,0.914c0.214,0.162 0.365,0.371 0.454,0.628c0.19,0.547 0.458,1.212 0.268,1.621c-0.021,0.046 -0.057,0.082 -0.102,0.103c-2.827,1.319 -5.651,2.607 -8.474,3.864c-0.179,0.08 -0.363,0.147 -0.552,0.203c-0.12,0.036 -0.23,0.018 -0.331,-0.052l-0.433,-0.304c-0.003,-0.002 -0.006,-0.003 -0.009,-0.005c-0.024,-0.01 -0.053,-0 -0.063,0.023c-0.001,0.003 -0.002,0.006 -0.002,0.009Z" style="fill-rule:nonzero;"/></svg>