<?xml version="1.0" encoding="UTF-8" standalone="no"?><!DOCTYPE svg PUBLIC "-//W3C//DTD SVG 1.1//EN" "http://www.w3.org/Graphics/SVG/1.1/DTD/svg11.dtd"><svg width="100%" height="100%" viewBox="0 0 30 30" version="1.1" xmlns="http://www.w3.org/2000/svg" xmlns:xlink="http://www.w3.org/1999/xlink" xml:space="preserve" xmlns:serif="http://www.serif.com/" style="fill-rule:evenodd;clip-rule:evenodd;stroke-linejoin:round;stroke-miterlimit:2;"><path d="M17.794,14.472c0.001,0 0.001,0.001 0.001,0.001c0.02,0.023 0.055,0.026 0.077,0.007c0.001,-0.001 0.001,-0.001 0.001,-0.001c1.806,-1.704 3.626,-3.401 5.459,-5.091c0.24,-0.221 0.432,-0.408 0.681,-0.08c0.365,0.482 0.703,0.969 1.014,1.462c0.054,0.085 0.046,0.165 -0.022,0.239c-0.514,0.556 -1.042,1.098 -1.586,1.625c-1.461,1.414 -2.886,2.862 -4.344,4.278c-0.023,0.022 -0.03,0.055 -0.019,0.085l0.34,0.922c0.001,0.001 0.001,0.003 0.002,0.004c0.009,0.018 0.032,0.026 0.05,0.017c0.001,-0.001 0.002,-0.002 0.003,-0.002c1.48,-0.977 2.974,-1.929 4.484,-2.858c0.19,-0.117 0.299,-0.235 0.441,0.009c0.289,0.497 0.574,1.022 0.855,1.574c0.025,0.049 0.011,0.109 -0.032,0.142c-3.894,2.952 -7.83,5.852 -11.752,8.766c-0.015,0.011 -0.034,0.018 -0.054,0.017c-0.103,-0.001 -0.181,0.001 -0.234,0.009c-1.371,0.188 -2.742,0.376 -4.113,0.565c-0.171,0.024 -0.242,0.048 -0.369,-0.09c-0.477,-0.514 -0.946,-1.035 -1.406,-1.564c-0.505,-0.581 -0.903,-1.274 -1.328,-1.918c-0.261,-0.395 -0.442,-0.716 -0.544,-0.965c-0.379,-0.919 -0.463,-1.877 -0.254,-2.876c0.057,-0.274 0.086,-0.413 0.088,-0.419c0.562,-2.976 1.154,-5.946 1.777,-8.909c0.042,-0.201 0.12,-0.262 0.325,-0.229c0.633,0.101 1.266,0.218 1.898,0.35c0.029,0.006 0.049,0.031 0.047,0.06c-0.073,1.642 -0.178,3.308 -0.314,4.998c-0.004,0.052 0.016,0.102 0.055,0.137c0.991,0.869 1.099,2.734 0.458,3.82c-0.035,0.058 -0.02,0.077 0.045,0.055c1.164,-0.388 1.55,-1.783 1.253,-2.875c-0.179,-0.658 -0.549,-1.167 -1.144,-1.491c-0.08,-0.043 -0.097,-0.104 -0.052,-0.183c1.949,-3.408 3.948,-6.802 5.862,-10.236c-0,-0 -0,-0 0,-0.001c0.025,-0.044 0.082,-0.061 0.126,-0.037c-0,0 0,0 0,0.001l1.838,1.034c0.018,0.011 0.026,0.034 0.018,0.055c-0.09,0.212 -0.188,0.427 -0.294,0.643c-1.047,2.136 -2.081,4.289 -3.102,6.457c-0,0.001 -0.001,0.002 -0.001,0.003c-0.011,0.027 0.003,0.058 0.03,0.068c0.001,0.001 0.003,0.001 0.004,0.002l0.908,0.296c0.027,0.009 0.058,-0.001 0.074,-0.024c1.563,-2.224 3.152,-4.424 4.725,-6.64c0.078,-0.108 0.287,-0.385 0.63,-0.831c0.107,-0.14 0.158,-0.26 0.362,-0.115c0.454,0.32 0.891,0.66 1.313,1.02c0.197,0.169 0.196,0.319 0.063,0.523c-0.574,0.886 -1.197,1.766 -1.763,2.624c-1.05,1.593 -2.101,3.187 -3.151,4.783c-0.019,0.029 -0.017,0.068 0.007,0.096l0.564,0.688Z" style="fill-rule:nonzero;"/></svg>