<?xml version="1.0" encoding="UTF-8" standalone="no"?><!DOCTYPE svg PUBLIC "-//W3C//DTD SVG 1.1//EN" "http://www.w3.org/Graphics/SVG/1.1/DTD/svg11.dtd"><svg width="100%" height="100%" viewBox="0 0 30 30" version="1.1" xmlns="http://www.w3.org/2000/svg" xmlns:xlink="http://www.w3.org/1999/xlink" xml:space="preserve" xmlns:serif="http://www.serif.com/" style="fill-rule:evenodd;clip-rule:evenodd;stroke-linejoin:round;stroke-miterlimit:2;"><g><path d="M22.418,12.247c-1.605,1.563 -3.244,3.121 -4.794,4.738c-0.014,0.014 -0.019,0.033 -0.012,0.05l0.354,0.948c0,0.001 0.001,0.001 0.001,0.002c0.006,0.012 0.022,0.017 0.034,0.01c0.001,0 0.002,-0 0.002,-0.001c1.489,-0.983 2.99,-1.943 4.504,-2.881c0.077,-0.047 0.139,-0.08 0.184,-0.098c0.092,-0.035 0.16,-0.011 0.205,0.072l0.89,1.631c0.026,0.047 0.012,0.108 -0.032,0.141c-3.801,2.898 -7.661,5.723 -11.496,8.575c-0.151,0.112 -0.227,0.204 -0.428,0.214c-0.129,0.008 -0.196,0.011 -0.199,0.012c-1.354,0.185 -2.739,0.376 -4.156,0.573c-0.086,0.012 -0.158,-0.014 -0.216,-0.078c-0.43,-0.468 -0.872,-0.958 -1.326,-1.468c-0.537,-0.602 -0.965,-1.338 -1.42,-2.027c-0.276,-0.419 -0.46,-0.745 -0.554,-0.979c-0.273,-0.683 -0.41,-1.449 -0.356,-2.185c0.01,-0.139 0.07,-0.496 0.179,-1.072c0.565,-2.978 1.158,-5.951 1.779,-8.918c0.04,-0.191 0.08,-0.295 0.308,-0.259c0.616,0.095 1.259,0.214 1.927,0.355c0.025,0.006 0.043,0.029 0.042,0.054c-0.073,1.643 -0.178,3.311 -0.315,5.004c-0.004,0.046 0.014,0.091 0.048,0.122c0.982,0.89 1.124,2.716 0.465,3.829c-0.037,0.063 -0.022,0.082 0.048,0.057c1.842,-0.668 1.719,-3.486 0.115,-4.36c-0.084,-0.045 -0.102,-0.11 -0.055,-0.193c1.922,-3.396 3.926,-6.775 5.823,-10.172c0.054,-0.096 0.128,-0.118 0.223,-0.064l1.751,0.99c0.032,0.018 0.045,0.059 0.03,0.094c-1.097,2.377 -2.278,4.718 -3.39,7.085c-0,0 -0.001,0.001 -0.001,0.002c-0.008,0.021 0.002,0.045 0.024,0.054c0,0 0.001,0 0.002,0.001l0.916,0.303c0.028,0.01 0.059,-0 0.076,-0.024c0.983,-1.417 1.982,-2.823 2.997,-4.218c0.811,-1.115 1.593,-2.246 2.428,-3.346c0.079,-0.104 0.177,-0.113 0.296,-0.028c0.449,0.323 0.885,0.664 1.307,1.023c0.144,0.121 0.216,0.289 0.112,0.451c-0.533,0.845 -1.297,1.915 -1.93,2.877c-1.001,1.521 -2.012,3.054 -3.031,4.6c-0.017,0.026 -0.015,0.061 0.005,0.085l0.58,0.701c-0,0.001 0,0.001 0.001,0.001c0.016,0.019 0.045,0.021 0.064,0.004c0,0 0.001,-0 0.001,-0.001c1.851,-1.745 3.715,-3.483 5.592,-5.213c0.375,-0.346 0.617,0.125 0.833,0.438c0.217,0.314 0.433,0.628 0.647,0.944c0.096,0.142 0.177,0.232 0.029,0.396c-0.301,0.335 -0.723,0.771 -1.111,1.149Z" style="fill-rule:nonzero;"/><g><path d="M26.687,4.651l-5.476,0.782l-0,-1.565l5.476,0.783Z"/></g><g><path d="M26.687,8.107l-3.394,0.782l0,-1.565l3.394,0.783Z"/></g><g><path d="M26.687,25.387l-11.136,0.782l0,-1.564l11.136,0.782Z"/></g><g><path d="M26.687,21.931l-7.423,0.782l-0,-1.565l7.423,0.783Z"/></g><g><path d="M26.687,18.475l-2.941,0.782l0,-1.565l2.941,0.783Z"/></g><g><path d="M26.687,15.019l-2.171,0.782l-0,-1.565l2.171,0.783Z"/></g><g><path d="M26.687,11.563l-2.217,0.782l0,-1.565l2.217,0.783Z"/></g></g></svg>