<?xml version="1.0" encoding="UTF-8" standalone="no"?><!DOCTYPE svg PUBLIC "-//W3C//DTD SVG 1.1//EN" "http://www.w3.org/Graphics/SVG/1.1/DTD/svg11.dtd"><svg width="100%" height="100%" viewBox="0 0 30 30" version="1.1" xmlns="http://www.w3.org/2000/svg" xmlns:xlink="http://www.w3.org/1999/xlink" xml:space="preserve" xmlns:serif="http://www.serif.com/" style="fill-rule:evenodd;clip-rule:evenodd;stroke-linejoin:round;stroke-miterlimit:2;"><g><path d="M15.869,14.467c0,0.001 0.001,0.001 0.001,0.002c0.02,0.022 0.055,0.025 0.077,0.006c0,-0 0.001,-0.001 0.001,-0.001c1.853,-1.748 3.72,-3.489 5.601,-5.221c0.387,-0.358 0.702,0.244 0.938,0.604c0.207,0.312 0.409,0.608 0.607,0.887c0.066,0.092 0.06,0.179 -0.016,0.261c-0.514,0.556 -1.042,1.098 -1.586,1.625c-1.461,1.415 -2.887,2.86 -4.345,4.279c-0.021,0.021 -0.028,0.053 -0.017,0.081l0.338,0.914c0,0.001 0.001,0.003 0.002,0.004c0.011,0.022 0.038,0.032 0.06,0.021c0.001,-0.001 0.003,-0.002 0.004,-0.003c1.518,-1.001 3.051,-1.978 4.6,-2.93c0.217,-0.133 0.268,0.006 0.37,0.183c0.289,0.502 0.551,0.985 0.786,1.449c0.043,0.085 0.026,0.156 -0.05,0.213l-11.709,8.714c-0.016,0.012 -0.035,0.019 -0.054,0.02c-0.081,0.007 -0.161,0.016 -0.24,0.026c-1.372,0.18 -2.743,0.364 -4.114,0.553c-0.183,0.025 -0.244,0.046 -0.378,-0.099c-0.474,-0.513 -0.94,-1.032 -1.398,-1.558c-0.505,-0.58 -0.901,-1.272 -1.326,-1.915c-0.26,-0.393 -0.441,-0.714 -0.543,-0.962c-0.378,-0.919 -0.463,-1.878 -0.254,-2.877c0.057,-0.274 0.086,-0.414 0.088,-0.419c0.562,-2.974 1.154,-5.941 1.776,-8.903c0.044,-0.213 0.127,-0.264 0.34,-0.23c0.624,0.101 1.251,0.216 1.882,0.347c0.029,0.006 0.049,0.032 0.048,0.061c-0.074,1.641 -0.178,3.307 -0.314,4.996c-0.005,0.052 0.016,0.103 0.055,0.137c0.991,0.869 1.098,2.733 0.457,3.819c-0.034,0.058 -0.019,0.077 0.045,0.055c1.164,-0.387 1.55,-1.783 1.253,-2.874c-0.179,-0.658 -0.549,-1.166 -1.143,-1.49c-0.08,-0.044 -0.098,-0.105 -0.053,-0.184c1.949,-3.407 3.948,-6.799 5.86,-10.232c0.001,-0.001 0.001,-0.001 0.001,-0.001c0.025,-0.045 0.082,-0.062 0.126,-0.037c0,0 0.001,0 0.001,0l1.827,1.029c0.023,0.013 0.033,0.043 0.022,0.069c-0.087,0.207 -0.183,0.418 -0.289,0.635c-1.047,2.135 -2.08,4.286 -3.101,6.454c-0,0.001 -0.001,0.002 -0.001,0.003c-0.01,0.027 0.003,0.058 0.031,0.069c0.001,0 0.002,0 0.003,0.001l0.908,0.296c0.027,0.009 0.057,-0 0.074,-0.024c1.563,-2.223 3.15,-4.423 4.724,-6.637c0.077,-0.109 0.287,-0.386 0.629,-0.832c0.107,-0.14 0.158,-0.259 0.362,-0.115c0.454,0.32 0.891,0.66 1.313,1.02c0.196,0.169 0.195,0.319 0.063,0.523c-0.574,0.886 -1.197,1.765 -1.763,2.623c-1.05,1.592 -2.1,3.186 -3.15,4.781c-0.019,0.029 -0.016,0.069 0.007,0.097l0.564,0.687Z" style="fill-rule:nonzero;"/><path d="M24.298,7.279c-0.028,-0.051 -0.049,-0.048 -0.065,0.008c-0.146,0.544 -0.307,1.084 -0.483,1.62c-0.121,0.371 -0.353,-0.029 -0.4,-0.168c-0.521,-1.537 -1.036,-3.077 -1.543,-4.62c-0.153,-0.466 0.518,-0.076 0.621,-0.02c1.211,0.661 2.419,1.326 3.624,1.997c0.148,0.083 0.29,0.201 0.137,0.362c-0.013,0.014 -0.031,0.023 -0.051,0.025l-0.908,0.105c-0.002,0 -0.004,0.001 -0.006,0.001c-0.011,0.005 -0.017,0.017 -0.013,0.028c0,0.002 0.001,0.003 0.002,0.005c0.946,1.466 1.525,3.068 1.737,4.804c0.633,5.177 -1.735,11.012 -6.761,13.171c-0.151,0.065 -0.4,0.142 -0.318,-0.161c0.005,-0.018 0.017,-0.034 0.034,-0.044c5.58,-3.339 7.439,-11.534 4.393,-17.113Z" style="fill-rule:nonzero;"/></g></svg>