<?xml version="1.0" encoding="UTF-8" standalone="no"?><!DOCTYPE svg PUBLIC "-//W3C//DTD SVG 1.1//EN" "http://www.w3.org/Graphics/SVG/1.1/DTD/svg11.dtd"><svg width="100%" height="100%" viewBox="0 0 30 30" version="1.1" xmlns="http://www.w3.org/2000/svg" xmlns:xlink="http://www.w3.org/1999/xlink" xml:space="preserve" xmlns:serif="http://www.serif.com/" style="fill-rule:evenodd;clip-rule:evenodd;stroke-linejoin:round;stroke-miterlimit:2;"><path d="M30,25.251c-0.218,0.062 -0.446,0.099 -0.683,0.106c-1.537,0.046 -2.821,-1.165 -2.867,-2.701c-0.046,-1.536 1.164,-2.821 2.701,-2.866c0.295,-0.009 0.58,0.029 0.849,0.106l-0,5.355Zm0,-11.213c-0.211,0.054 -0.431,0.085 -0.657,0.092c-0.954,0.028 -1.819,-0.386 -2.398,-1.057c0.314,0.479 0.533,1.027 0.63,1.618c0.951,0.286 1.658,1.155 1.689,2.202c0.039,1.31 -0.992,2.404 -2.301,2.443c-0.43,0.013 -0.837,-0.09 -1.191,-0.28l-1.127,0.533c-0,1.876 -1.494,3.427 -3.383,3.483c-0.876,0.026 -1.687,-0.274 -2.315,-0.79l-13.818,6.53c-0,-0 -2.536,1.501 -4.085,0.058c-1.277,-1.189 -0.16,-3.16 -0.16,-3.16l8.794,-21.9c0.308,-0.873 0.864,-1.631 1.585,-2.187c-0.127,-0.257 -0.202,-0.544 -0.211,-0.848c-0.008,-0.273 0.037,-0.534 0.127,-0.775l3.832,-0c0.077,0.204 0.121,0.424 0.128,0.653c0.001,0.027 0.001,0.054 0.001,0.08c1.258,0.262 2.34,1.023 3.022,2.072c0.21,-1.54 1.51,-2.75 3.115,-2.798c0.177,-0.005 0.352,0.004 0.522,0.027c-0.001,-0.011 -0.003,-0.023 -0.004,-0.034l3.635,-0c-0.091,0.728 -0.612,1.329 -1.306,1.531c0.295,0.472 0.53,1.402 0.548,1.997c-0,0.011 0.001,0.022 0.001,0.033l-12.914,12.689l-1.762,-4.736l-5.707,13.907l13.53,-6.713l-4.782,-1.297l16.962,-16.368l-0,6.873c-0.093,-0.182 -0.164,-0.379 -0.209,-0.588c-0.021,-0.096 -0.035,-0.191 -0.044,-0.286c-0.108,0.011 -0.216,0.018 -0.326,0.022c-0.648,0.019 -1.268,-0.102 -1.83,-0.336c0.112,0.284 0.178,0.591 0.187,0.913c0.009,0.293 -0.029,0.576 -0.107,0.843c0.435,-0.266 0.944,-0.425 1.49,-0.441c0.29,-0.009 0.571,0.023 0.839,0.091l-0,5.904Zm-20.013,-14.038c-0.029,0.138 -0.073,0.275 -0.13,0.41c-0.437,1.024 -1.545,1.558 -2.593,1.308c-1.108,1.092 -2.807,1.47 -4.326,0.823c-1.137,-0.484 -1.929,-1.439 -2.248,-2.541l9.297,-0Zm18.212,-0l-3.274,3.306c-0.004,-0.054 -0.006,-0.108 -0.008,-0.163c-0.034,-1.129 0.347,-2.253 1.006,-3.143l2.276,-0Zm-9.494,-0c0.01,0.565 -0.438,1.034 -1.004,1.051c-0.57,0.017 -1.047,-0.433 -1.064,-1.003c-0,-0.016 -0.001,-0.032 -0,-0.048l2.068,-0Zm5.628,23.403c1.09,-0.032 2.002,0.827 2.034,1.917c0.033,1.09 -0.826,2.002 -1.917,2.034c-1.09,0.033 -2.002,-0.826 -2.034,-1.916c-0.033,-1.091 0.826,-2.002 1.917,-2.035Zm-20.747,-18.337c1.529,-0.045 2.807,1.159 2.853,2.687c0.045,1.529 -1.159,2.807 -2.687,2.853c-1.529,0.046 -2.807,-1.159 -2.853,-2.687c-0.045,-1.529 1.159,-2.807 2.687,-2.853Zm3.445,-1.538c0.651,-0.019 1.195,0.494 1.215,1.144c0.019,0.651 -0.494,1.196 -1.145,1.215c-0.651,0.019 -1.195,-0.493 -1.214,-1.144c-0.02,-0.651 0.493,-1.195 1.144,-1.215Zm15.627,11.255c-0.864,-0 -1.565,0.701 -1.565,1.565c-0,0.864 0.701,1.565 1.565,1.565c0.864,-0 1.565,-0.701 1.565,-1.565c-0,-0.864 -0.701,-1.565 -1.565,-1.565Zm-9.635,-5.412c-0.539,-0 -0.977,0.437 -0.977,0.976c-0,0.539 0.438,0.977 0.977,0.977c0.539,-0 0.976,-0.438 0.976,-0.977c-0,-0.539 -0.437,-0.976 -0.976,-0.976Zm13.348,0.728c-0.363,0.199 -0.778,0.318 -1.22,0.331c-0.739,0.022 -1.418,-0.254 -1.921,-0.72c-0.078,0.549 -0.27,1.064 -0.551,1.518c0.2,-0.035 0.405,-0.057 0.614,-0.063c1.351,-0.04 2.574,0.562 3.374,1.531c-0.276,-0.442 -0.442,-0.961 -0.459,-1.519c-0.011,-0.377 0.047,-0.741 0.163,-1.078Zm-12.069,-6.458c-0.914,-0 -1.656,0.742 -1.656,1.656c-0,0.914 0.742,1.656 1.656,1.656c0.914,-0 1.656,-0.742 1.656,-1.656c-0,-0.914 -0.742,-1.656 -1.656,-1.656Z"/></svg>