<?xml version="1.0" encoding="UTF-8" standalone="no"?><!DOCTYPE svg PUBLIC "-//W3C//DTD SVG 1.1//EN" "http://www.w3.org/Graphics/SVG/1.1/DTD/svg11.dtd"><svg width="100%" height="100%" viewBox="0 0 30 30" version="1.1" xmlns="http://www.w3.org/2000/svg" xmlns:xlink="http://www.w3.org/1999/xlink" xml:space="preserve" xmlns:serif="http://www.serif.com/" style="fill-rule:evenodd;clip-rule:evenodd;stroke-linejoin:round;stroke-miterlimit:2;"><g><path d="M30.001,22.65l-3.219,-5.282l-2.335,-13.214l-7.164,-1.265l3.717,3.447l0.06,2.438c-0.612,2.449 -0.575,4.315 -0.22,5.895c-1.377,-1.32 -1.282,-4.619 -0.355,-6.293l-3.746,-3.528l-7.189,-3.518l-6.64,2.935l6.204,0.134l5.26,3.983l-0.309,0.548l-7.41,-2.872l-5.499,3.142l6.243,-0.535l5.072,2.721l-0.1,0.268l-7.586,-1.5l-3.92,3.457l4.693,-1.174l4.374,2.291l-0.118,0.325l-4.891,-0.803l-4.269,3.829l5.229,-1.624l3.834,1.76c-0,-0 4.847,5.498 6.528,6.293c2.288,1.081 4.178,0.882 4.178,0.882c1.208,-0.076 1.526,-0.193 2.685,-0.863c-0.799,1.17 -1.929,1.322 -3.362,1.322l1.585,4.165l8.669,-0l0.001,-7.364Z"/></g><g><path d="M5.919,19.296l-0.86,2.324l-2.324,0.86l2.324,0.859l0.86,2.325l0.86,-2.325l2.324,-0.859l-2.324,-0.86l-0.86,-2.324Z"/></g><g><path d="M27.303,2.326l-0.492,1.333l-1.333,0.493l1.333,0.493l0.492,1.333l0.493,-1.333l1.333,-0.493l-1.333,-0.493l-0.493,-1.333Z"/></g><g><path d="M12.882,24.277l-0.493,1.333l-1.333,0.493l1.333,0.493l0.493,1.333l0.493,-1.333l1.332,-0.493l-1.332,-0.493l-0.493,-1.333Z"/></g></svg>