<?xml version="1.0" encoding="UTF-8" standalone="no"?><!DOCTYPE svg PUBLIC "-//W3C//DTD SVG 1.1//EN" "http://www.w3.org/Graphics/SVG/1.1/DTD/svg11.dtd"><svg width="100%" height="100%" viewBox="0 0 30 30" version="1.1" xmlns="http://www.w3.org/2000/svg" xmlns:xlink="http://www.w3.org/1999/xlink" xml:space="preserve" xmlns:serif="http://www.serif.com/" style="fill-rule:evenodd;clip-rule:evenodd;stroke-linejoin:round;stroke-miterlimit:2;"><g><path d="M19.252,3.887c1.547,-0.998 3.206,-1.833 3.206,-1.833c0,0 -0.86,4.885 -1.993,6.411c-0.269,0.359 -0.623,0.614 -1.015,0.758c-0.012,0.038 -0.025,0.075 -0.038,0.112c-0.181,0.467 -0.408,0.899 -0.674,1.291c0.014,0.008 -1.486,2.364 -3.758,2.364l-0.082,0l0,-12.099c0.027,-0.001 0.054,-0.001 0.082,-0.001c1.842,0 3.448,1.16 4.272,2.997Z"/></g><g><path d="M19.624,30l-4.301,0l0,-1.7l-0.425,0l0,-14.114c0.027,0.002 0.055,0.002 0.084,0.002c1.419,0 2.686,-0.498 3.509,-1.924c1.196,0.826 3.023,1.393 3.79,2.913c0.926,1.837 5.685,9.249 5.685,9.249l1.112,1.894l-1.643,-0.946l1.042,2.195l-1.969,-1.478l0.088,1.819l-1.866,-2.613l-1.138,1.277l0.559,-2.086l-4.528,-6.338l0,2.836l0.001,7.634l0,1.38Z"/></g><g><path d="M14.693,11.258l0,1.732l-0.083,-0c-1.502,-0 -2.668,-1.031 -3.28,-1.732l3.363,-0Z"/><path d="M11.719,1.992c0.809,-0.702 1.809,-1.102 2.891,-1.102c0.028,0 0.055,0 0.083,0.001l0,1.101l-2.974,0Z"/><path d="M10.028,4.736c0.193,-0.668 0.479,-1.27 0.839,-1.788l3.826,0l0,1.788l-4.665,0Z"/><path d="M10.648,10.303c-0.179,-0.303 -0.337,-0.626 -0.47,-0.968c-0.092,-0.265 -0.173,-0.539 -0.236,-0.821l4.751,0l0,1.789l-4.045,0Z"/><path d="M9.786,7.558c-0.024,-0.255 -0.037,-0.515 -0.037,-0.78c0,-0.374 0.025,-0.737 0.075,-1.086l4.869,0l0,1.866l-4.907,0Z"/></g><g><path d="M6.978,15.791c0.137,-0.243 0.249,-0.45 0.331,-0.614c0.238,-0.471 0.577,-0.851 0.968,-1.175l4.963,0c0.431,0.129 0.892,0.186 1.37,0.186c0.027,0 0.055,0 0.083,-0.002l0,1.605l-7.715,0Zm-1.642,2.742c0.393,-0.637 0.765,-1.249 1.084,-1.786l8.273,0l-0,1.786l-4.726,0l-0,-0.383l-0.257,0.383l-4.374,0Zm-1.712,2.745c0.361,-0.574 0.742,-1.182 1.12,-1.789l4.324,0l-1.199,1.789l-4.245,0Zm-1.741,2.744c0.247,-0.387 0.654,-1.025 1.137,-1.789l4.207,0l-1.2,1.789l-4.144,0Zm3.502,0.956l-1.021,1.522l-2.011,-1.522l3.032,0Zm4.582,1.788l-0,-1.788l4.726,0l-0,1.788l-4.726,0Zm-0,2.743l-0,-1.787l4.726,0l-0,0.578l-0.426,0l-0,1.209l-4.3,0Zm4.726,-7.276l-0,1.789l-4.726,0l-0,-1.789l4.726,0Zm-0,-2.744l-0,1.789l-4.726,0l-0,-1.789l4.726,0Zm-4.934,-6.442c0.476,-0.262 0.943,-0.508 1.34,-0.783c0.173,0.301 0.367,0.56 0.577,0.783l-1.917,0Z"/></g><g><path d="M4.511,5.704l1.039,2.805l2.805,1.039l-2.805,1.037l-1.039,2.807l-1.038,-2.807l-2.806,-1.037l2.806,-1.039l1.038,-2.805Z"/></g><g><path d="M25.932,9.937l0.808,2.183l2.184,0.809l-2.184,0.808l-0.808,2.184l-0.808,-2.184l-2.185,-0.808l2.185,-0.809l0.808,-2.183Z"/></g><g><circle cx="26.156" cy="5.24" r="1.103"/></g></svg>