<?xml version="1.0" encoding="UTF-8" standalone="no"?>
<!DOCTYPE svg PUBLIC "-//W3C//DTD SVG 1.1//EN" "http://www.w3.org/Graphics/SVG/1.1/DTD/svg11.dtd">
<svg width="100%" height="100%" viewBox="0 0 30 30" version="1.1" xmlns="http://www.w3.org/2000/svg" xmlns:xlink="http://www.w3.org/1999/xlink" xml:space="preserve" xmlns:serif="http://www.serif.com/" style="fill-rule:evenodd;clip-rule:evenodd;stroke-linejoin:round;stroke-miterlimit:2;">
    <g transform="matrix(1.09052,-0.297987,0.278686,1.01988,-3.29164,0.914064)">
        <ellipse cx="10.721" cy="6.22" rx="2.572" ry="3.587"/>
    </g>
    <g transform="matrix(1.08467,0,0,1.08467,-1.57406,-1.91717)">
        <path d="M9.706,9.626C9.706,9.626 12.351,10.495 14.09,8.539L16.952,8.611L20.177,11.184L22.387,14.481L20.829,15.423L18.655,12.234L16.554,11.148L18.655,16.003L17.641,22.524L20.648,26.654L19.416,29.299L18.728,26.799L15.105,22.814L15.684,17.307L14.923,17.56L13.293,22.814L15.032,26.654L13.583,28.973L13.329,26.691L10.684,22.452L12.677,16.22L10.938,12.053L9.489,15.061L6.699,18.14L5.25,16.8L7.786,13.792L8.764,10.459L9.706,9.626"/>
    </g>
    <g transform="matrix(0.996554,0.263187,-0.263187,0.996554,4.22454,-6.70051)">
        <path d="M24.196,18.316L20.218,18.316C20.218,17.878 20.573,17.523 21.01,17.523L23.392,17.523C23.587,16.596 24.41,15.9 25.394,15.9C26.33,15.9 27.12,16.53 27.363,17.389C28.229,17.709 28.846,18.542 28.846,19.518C28.846,20.463 28.268,21.273 27.447,21.615C27.201,22.469 26.414,23.093 25.481,23.093C24.482,23.093 23.649,22.375 23.47,21.427L21.01,21.427C20.573,21.427 20.218,21.072 20.218,20.634L24.297,20.634C24.252,20.764 24.228,20.903 24.228,21.047C24.228,21.739 24.789,22.301 25.481,22.301C26.173,22.301 26.735,21.739 26.735,21.047C26.735,21.028 26.734,21.008 26.734,20.988C27.475,20.909 28.054,20.281 28.054,19.518C28.054,18.726 27.428,18.078 26.644,18.042C26.647,18.01 26.648,17.978 26.648,17.946C26.648,17.254 26.086,16.692 25.394,16.692C24.702,16.692 24.141,17.254 24.141,17.946C24.141,18.075 24.16,18.199 24.196,18.316Z"/>
    </g>
</svg>
