<?xml version="1.0" encoding="UTF-8" standalone="no"?><!DOCTYPE svg PUBLIC "-//W3C//DTD SVG 1.1//EN" "http://www.w3.org/Graphics/SVG/1.1/DTD/svg11.dtd"><svg width="100%" height="100%" viewBox="0 0 30 30" version="1.1" xmlns="http://www.w3.org/2000/svg" xmlns:xlink="http://www.w3.org/1999/xlink" xml:space="preserve" xmlns:serif="http://www.serif.com/" style="fill-rule:evenodd;clip-rule:evenodd;stroke-linejoin:round;stroke-miterlimit:2;"><g><path d="M0,28.696l2.016,-3.527l6.479,-14.397c0,-0 2.061,-5.292 3.76,-5.989l0.98,2.254c-0,-0 1.158,-1.315 2.785,-1.716l-0,3.61c-0,-0 3.208,-0.223 4.367,1.648c1.159,1.872 1.849,3.922 4.011,4.1c-0,0 0.69,-0.134 0.223,2.161c-0.468,2.296 -0.936,4.301 -4.769,4.412c-3.832,0.112 -3.297,2.095 -2.963,3.966c0.207,1.161 1.132,3.072 1.888,4.782l-1.131,0c-0.28,-0.95 -0.686,-1.412 -0.686,-1.412l0.062,1.412l-0.257,0l-0.71,-0.507c-0.005,0.181 0.002,0.349 0.021,0.507l-16.076,0l-0,-1.304Zm18.537,-15.776c0,-0 0.135,1.746 1.657,1.321c-0,-0 0.313,-2.217 -1.657,-1.321Z"/><path d="M25.087,5.27c0.748,-1.378 2.245,-1.378 2.994,-0.689c0.749,0.689 0.749,2.066 0,3.444c-0.524,1.033 -1.871,2.066 -2.994,2.755c-1.123,-0.689 -2.471,-1.722 -2.995,-2.755c-0.748,-1.378 -0.748,-2.755 0,-3.444c0.749,-0.689 2.246,-0.689 2.995,0.689Z"/><path d="M18.733,2.154c0.357,-0.656 1.071,-0.656 1.428,-0.328c0.357,0.328 0.357,0.985 0,1.642c-0.25,0.493 -0.892,0.986 -1.428,1.314c-0.535,-0.328 -1.178,-0.821 -1.428,-1.314c-0.356,-0.657 -0.356,-1.314 0,-1.642c0.357,-0.328 1.071,-0.328 1.428,0.328Z"/></g></svg>