<?xml version="1.0" encoding="UTF-8" standalone="no"?><!DOCTYPE svg PUBLIC "-//W3C//DTD SVG 1.1//EN" "http://www.w3.org/Graphics/SVG/1.1/DTD/svg11.dtd"><svg width="100%" height="100%" viewBox="0 0 30 30" version="1.1" xmlns="http://www.w3.org/2000/svg" xmlns:xlink="http://www.w3.org/1999/xlink" xml:space="preserve" xmlns:serif="http://www.serif.com/" style="fill-rule:evenodd;clip-rule:evenodd;stroke-linejoin:round;stroke-miterlimit:2;"><g><path d="M0.969,30c-0.425,-1.083 -0.666,-2.204 -0.717,-3.364c-0.048,-0.138 0.146,-0.298 0.431,-0.356l1.034,-0.211c0.285,-0.058 0.556,0.008 0.603,0.147c-0.005,1.327 0.266,2.588 0.812,3.784l-2.163,0Zm9.425,0c-0.913,-1.12 -1.542,-2.894 -0.915,-3.168c1.393,-0.011 2.764,-0.148 4.113,-0.411l-0.847,-3.652c-1.519,0.303 -3.059,0.518 -4.619,0.647c-0.28,0.065 -0.56,-0.117 -0.627,-0.405l-0.243,-1.046c-0.067,-0.289 0.106,-0.575 0.385,-0.64c1.564,-0.082 3.11,-0.271 4.638,-0.569l-0.292,-1.258c-1.288,0.247 -2.598,0.404 -3.928,0.472c-0.237,0.055 -0.486,-0.143 -0.555,-0.442l-0.251,-1.084c-0.069,-0.299 0.067,-0.586 0.304,-0.641c1.335,-0.019 2.651,-0.149 3.947,-0.391l-0.625,-2.695c-0.584,-0.013 -1.166,-0.051 -1.746,-0.116c-0.425,-0.048 -0.65,-0.064 -1.038,-0.244c-0.112,-0.052 -0.182,-0.12 -0.195,-0.247c-0.155,-1.51 -0.544,-3.075 -0.696,-4.586c-0.103,-1.022 -1.686,-0.566 -1.66,-1.682c0.013,-0.564 0.084,-1.179 0.211,-1.843c0.5,-2.611 1.927,-5.218 4.913,-5.706c0.268,-0.044 0.573,-0.071 0.915,-0.082c0.007,-0 0.012,0.005 0.013,0.011l-0,0.007l0.571,0.005c-0,-0.006 0.006,-0.011 0.013,-0.01c0.341,0.025 0.645,0.066 0.911,0.121c2.962,0.615 4.276,3.281 4.664,5.91c0.099,0.67 0.143,1.286 0.132,1.85c-0.021,1.116 -1.583,0.594 -1.73,1.611c-0.216,1.502 -0.708,2.998 -0.928,4.5c-0.018,0.126 -0.091,0.191 -0.205,0.239c-0.396,0.163 -0.584,0.221 -1.011,0.25c-0.401,0.028 -0.802,0.043 -1.204,0.045l0.521,2.246c1.324,-0.36 2.627,-0.839 3.909,-1.437c0.237,-0.055 0.486,0.143 0.556,0.442l0.251,1.083c0.069,0.299 -0.067,0.587 -0.304,0.642c-1.286,0.554 -2.596,1.006 -3.929,1.357l0.293,1.263c1.666,-0.423 3.31,-0.977 4.932,-1.663c0.279,-0.065 0.56,0.117 0.627,0.405l0.243,1.046c0.066,0.288 -0.106,0.575 -0.385,0.64c-1.624,0.64 -3.274,1.167 -4.95,1.585l0.841,3.626c1.225,-0.348 2.431,-0.804 3.618,-1.368c1.282,-0.067 0.689,5.863 -1.201,4.858c-2.752,-1.463 -3.225,-1.124 -4.81,0.525l-2.627,0Zm15.714,-0c0.476,-0.793 0.89,-1.638 1.241,-2.534c0.108,-0.155 0.361,-0.129 0.565,0.057l0.738,0.673c0.203,0.185 0.281,0.461 0.173,0.616c-0.177,0.405 -0.366,0.802 -0.565,1.188l-2.152,-0Zm1.833,-4.991c0.183,-0.044 0.356,0.142 0.386,0.416l0.109,0.993c0.03,0.274 -0.094,0.532 -0.277,0.577c-2.588,-0.025 -5.078,0.581 -7.471,1.812c-0.183,0.045 -0.356,-0.142 -0.386,-0.415l-0.109,-0.993c-0.03,-0.274 0.094,-0.533 0.277,-0.577c2.433,-1.133 4.922,-1.744 7.471,-1.813Zm-25.27,-13.568l0.432,1.168l1.168,0.432l-1.168,0.432l-0.432,1.169l-0.432,-1.169l-1.168,-0.432l1.168,-0.432l0.432,-1.168Zm-1.887,12.686c0.745,-2.442 2.023,-4.664 3.814,-6.675c0.094,-0.164 0.388,-0.206 0.658,-0.096l0.976,0.402c0.269,0.111 0.412,0.333 0.318,0.497c-1.88,1.944 -3.153,4.168 -3.814,6.675c-0.094,0.163 -0.388,0.206 -0.658,0.095l-0.976,-0.401c-0.269,-0.111 -0.412,-0.334 -0.318,-0.497Zm25.769,-12.174c-2.063,1.5 -4.415,2.52 -7.043,3.082c-0.172,0.075 -0.43,-0.06 -0.576,-0.301l-0.526,-0.876c-0.145,-0.241 -0.123,-0.499 0.05,-0.574c2.657,-0.457 5.006,-1.483 7.043,-3.082c0.172,-0.075 0.43,0.06 0.576,0.301l0.526,0.876c0.145,0.241 0.123,0.499 -0.05,0.574Zm-1.102,5.436l0.665,1.796l1.796,0.665l-1.796,0.664l-0.665,1.797l-0.664,-1.797l-1.796,-0.664l1.796,-0.665l0.664,-1.796Zm-4.242,-16.697l0.433,1.168l1.168,0.433l-1.168,0.431l-0.433,1.169l-0.432,-1.169l-1.167,-0.431l1.167,-0.433l0.432,-1.168Zm5.233,2.33c1.026,1.719 1.533,3.651 1.541,5.787c0.038,0.142 -0.144,0.344 -0.406,0.452l-0.948,0.389c-0.262,0.107 -0.506,0.079 -0.543,-0.062c0.097,-2.157 -0.415,-4.086 -1.542,-5.787c-0.038,-0.142 0.144,-0.345 0.406,-0.452l0.949,-0.389c0.262,-0.107 0.505,-0.08 0.543,0.062Zm-14.062,9.613c0.006,0 0.011,0.005 0.011,0.01l-0.017,0.76c0,0.007 0.006,0.013 0.014,0.013l0.604,0.013c0.007,0 0.013,-0.005 0.013,-0.013l0.016,-0.756c-0,-0.007 0.006,-0.013 0.013,-0.013l2.281,-0.414c0.007,-0 0.003,0.478 0.003,0.471l0.013,-0.587c-0,-0.007 -0.005,-0.536 -0.012,-0.536l-2.271,0.455c-0.007,-0.001 -0.013,-0.007 -0.013,-0.014l0.016,-0.748c0,-0.008 -0.005,-0.013 -0.013,-0.014l-0.604,-0.013c-0.007,0 -0.014,0.006 -0.014,0.013l-0.016,0.749c0,0.007 -0.006,0.013 -0.013,0.013l-1.684,-0.055l0.017,-0.785l-0.596,-0.013c-0.008,0 -0.014,0.006 -0.014,0.013l-0.016,0.749c-0,0.007 -0.006,0.012 -0.014,0.012l-2.129,-0.655c-0.008,-0 -0.014,0.006 -0.014,0.013l-0.013,0.587c0,0.007 0.006,0.013 0.013,0.013l2.132,0.654c0.007,0 0.012,0.005 0.012,0.01l-0.017,0.76c0,0.007 0.006,0.013 0.013,0.013l0.596,0.013l0.017,-0.776l1.686,0.058Zm-4.196,-3.551c0.569,0.347 1.356,0.228 1.946,-0.02c0.161,-0.067 0.288,-0.144 0.381,-0.23c0.52,-0.484 0.486,-0.836 0.331,-1.441c-0.046,-0.178 -0.433,-0.277 -0.596,-0.313c-0.656,-0.144 -1.462,-0.656 -2.081,-0.602c-0.175,0.015 -0.895,0.101 -0.905,0.336c-0.034,0.771 0.172,1.81 0.924,2.27Zm7.013,0.149c0.77,-0.426 1.021,-1.456 1.02,-2.228c-0.001,-0.235 -0.716,-0.351 -0.89,-0.374c-0.616,-0.08 -1.303,0.399 -1.964,0.516c-0.165,0.028 -0.556,0.111 -0.609,0.287c-0.181,0.597 -0.37,0.945 0.129,1.45c0.089,0.091 0.212,0.173 0.37,0.247c0.579,0.273 1.361,0.425 1.944,0.102Zm-2.426,1.262c0.013,0.003 -1.009,-1.773 -1.009,-1.773c-0,0.004 -1.142,1.725 -1.142,1.725c-0.007,0.01 1.071,-0.342 1.071,-0.341l1.08,0.389Z"/></g></svg>