<?xml version="1.0" encoding="UTF-8" standalone="no"?>
<!DOCTYPE svg PUBLIC "-//W3C//DTD SVG 1.1//EN" "http://www.w3.org/Graphics/SVG/1.1/DTD/svg11.dtd">
<svg width="100%" height="100%" viewBox="0 0 30 30" version="1.1" xmlns="http://www.w3.org/2000/svg" xmlns:xlink="http://www.w3.org/1999/xlink" xml:space="preserve" xmlns:serif="http://www.serif.com/" style="fill-rule:evenodd;clip-rule:evenodd;stroke-linejoin:round;stroke-miterlimit:2;">
    <g transform="matrix(0.0721914,0.00465037,-0.00465037,0.0721914,-2.03968,-3.948)">
        <g transform="matrix(13.7948,-0.888624,0.888624,13.7948,31.6453,52.6495)">
            <path d="M4.414,18.69C3.783,17.845 3.339,17.121 3.165,16.699C3.033,16.38 2.917,16.055 2.82,15.726C2.3,13.965 2.433,11.502 3.312,9.811C3.903,8.676 4.976,7.637 6.027,6.938C6.131,6.869 4.367,4.478 3.702,3.209C3.702,3.208 3.701,3.207 3.701,3.206C3.695,3.191 3.702,3.174 3.718,3.167C3.719,3.167 3.719,3.167 3.72,3.167C3.72,3.167 12.352,0.339 12.356,0.393C12.445,1.533 12.95,4.821 13.06,4.783C14.437,4.306 16.903,5.302 18.178,6.31C19.179,7.102 19.94,8.357 20.379,9.535L20.38,9.538C20.398,9.581 20.522,9.936 20.527,9.956C21.726,14.257 21.001,18.455 19.489,22.395C19.48,22.417 19.459,22.432 19.438,22.439C19.211,22.516 18.89,22.642 18.511,22.798L19.182,25.382L23.716,22.385L24.601,27.049L22.818,25.048L18.472,28.15C17.53,27.054 16.344,24.529 16.04,23.867C14.404,24.595 12.85,25.311 12.839,25.306C12.776,25.28 11.388,24.574 10.051,23.807L5.599,24.795L6.646,29.04L2.254,29.819L4.484,27.86L2.913,24.368C4.377,22.895 5.587,21.989 7.517,22.089C6.83,21.479 6.185,20.816 5.611,20.163L4.941,22.007L2.202,20.257L0.952,19.589L1.284,19.203L1.662,19.479L1.498,19.072L2.201,19.547L4.101,20.1L4.414,18.69ZM6.751,12.85C6.058,13.094 5.862,14.33 6.312,15.608C6.763,16.886 7.691,17.725 8.384,17.481C9.076,17.237 9.273,16.001 8.823,14.723C8.372,13.445 7.444,12.606 6.751,12.85ZM10.083,18.405C9.079,18.706 8.376,19.325 8.514,19.785C9.017,21.463 9.396,19.659 10.4,19.357C11.405,19.056 12.656,20.372 12.153,18.694C12.014,18.233 11.087,18.104 10.083,18.405ZM16.389,14.269L18.147,15.309L16.142,17.636L15.447,18.238L15.919,18.181L15.835,18.955L16.513,18.577L16.684,19.139L16.885,17.834L19.905,15.036L17.355,13.254L16.389,14.269Z"/>
        </g>
        <g transform="matrix(0.618483,9.60121,-12.3367,0.794694,425.536,-122.186)">
            <path d="M19.037,1.724L20.169,12.692L17.904,12.692L19.037,1.724Z"/>
        </g>
        <g transform="matrix(0.618483,9.60121,-7.32425,0.471808,421.017,-57.6541)">
            <path d="M19.037,1.724L20.169,12.692L17.904,12.692L19.037,1.724Z"/>
        </g>
        <g transform="matrix(0.618483,9.60121,-5.91166,0.380813,422.735,6.97801)">
            <path d="M19.037,1.724L20.169,12.692L17.904,12.692L19.037,1.724Z"/>
        </g>
        <g transform="matrix(0.618483,9.60121,-5.91166,0.380813,426.985,72.9527)">
            <path d="M19.037,1.724L20.169,12.692L17.904,12.692L19.037,1.724Z"/>
        </g>
    </g>
</svg>
