<?xml version="1.0" encoding="UTF-8" standalone="no"?>
<!DOCTYPE svg PUBLIC "-//W3C//DTD SVG 1.1//EN" "http://www.w3.org/Graphics/SVG/1.1/DTD/svg11.dtd">
<svg width="100%" height="100%" viewBox="0 0 30 30" version="1.1" xmlns="http://www.w3.org/2000/svg" xmlns:xlink="http://www.w3.org/1999/xlink" xml:space="preserve" xmlns:serif="http://www.serif.com/" style="fill-rule:evenodd;clip-rule:evenodd;stroke-linejoin:round;stroke-miterlimit:2;">
    <g transform="matrix(0.0721914,0.00465037,-0.00465037,0.0721914,-2.03968,-3.948)">
        <g transform="matrix(13.7948,-0.888624,0.920603,14.2913,30.7163,38.2277)">
            <path d="M7.147,9.718C7.436,9.289 7.759,8.9 8.11,8.571C9.065,7.678 10.452,7.042 11.702,6.725C11.825,6.694 10.938,3.791 10.728,2.342C10.728,2.341 10.728,2.34 10.728,2.339C10.727,2.323 10.74,2.308 10.757,2.308C10.758,2.308 10.759,2.308 10.76,2.308C10.76,2.308 20.037,2.516 20.023,2.568C19.721,3.698 19.091,7.036 19.209,7.037C20.446,7.044 22.063,8.286 23.082,9.512C24.113,8.674 25.486,8.129 26.798,8.862L24.584,5.884C24.357,6.534 24.111,6.442 23.33,6.182C23.33,6.182 23.286,4.908 23.92,4.274C24.766,3.428 25.614,3.903 25.614,3.903L29.79,9.627L24.633,13.733C24.64,13.857 24.645,13.98 24.647,14.101L24.647,14.105C24.65,14.153 24.648,14.537 24.647,14.558C24.466,17.244 23.652,19.669 22.44,21.88C24.035,21.923 25.448,22.537 26.749,23.504L24.808,27.685L26.749,29.269L22.47,28.754L23.223,24.812L20.842,24.389C20.394,25.006 19.918,25.606 19.421,26.19C19.405,26.208 19.381,26.215 19.357,26.215C17.818,26.198 12.043,26.752 12.025,26.736C11.975,26.69 10.91,25.572 9.896,24.399L7.574,24.812L8.326,28.754L4.048,29.269L5.989,27.685L4.048,23.504C5.222,22.418 6.53,21.836 7.994,21.834C6.541,19.213 5.684,16.208 5.628,15.157C5.609,14.804 5.608,14.452 5.627,14.102C5.629,14.054 5.632,14.005 5.636,13.956L0.198,9.627L4.375,3.903C4.375,3.903 5.223,3.428 6.069,4.274C6.702,4.908 6.658,6.182 6.658,6.182C5.877,6.442 5.632,6.534 5.405,5.884L3.19,8.862C4.608,8.071 6.095,8.77 7.147,9.718ZM15.572,23.172C17.362,23.172 18.815,22.204 18.815,21.713C18.815,19.923 17.31,22.147 15.52,22.147C13.731,22.147 12.33,20.725 12.33,22.515C12.33,23.006 13.783,23.172 15.572,23.172ZM11.693,14.856C10.974,14.856 10.39,15.933 10.39,17.26C10.39,18.587 10.974,19.665 11.693,19.665C12.413,19.665 12.997,18.587 12.997,17.26C12.997,15.933 12.413,14.856 11.693,14.856ZM19.117,16.355C18.67,16.355 18.306,17.025 18.306,17.85C18.306,18.675 18.67,19.345 19.117,19.345C19.564,19.345 19.928,18.675 19.928,17.85C19.928,17.025 19.564,16.355 19.117,16.355Z"/>
        </g>
        <g transform="matrix(14.6255,-5.31768,8.13292,22.3684,-99.7505,-105.831)">
            <path d="M3.127,17.32C2.277,17.32 1.587,18.01 1.587,18.86C1.587,19.71 2.277,20.4 3.127,20.4C2.872,20.041 2.665,19.474 2.665,18.86C2.665,18.246 2.872,17.68 3.127,17.32Z"/>
        </g>
        <g transform="matrix(-15.2598,-3.05316,4.66954,-23.3385,372.198,729.798)">
            <path d="M3.127,17.32C2.277,17.32 1.587,18.01 1.587,18.86C1.587,19.71 2.277,20.4 3.127,20.4C2.872,20.041 2.665,19.474 2.665,18.86C2.665,18.246 2.872,17.68 3.127,17.32Z"/>
        </g>
    </g>
</svg>
