<?xml version="1.0" encoding="UTF-8" standalone="no"?>
<!DOCTYPE svg PUBLIC "-//W3C//DTD SVG 1.1//EN" "http://www.w3.org/Graphics/SVG/1.1/DTD/svg11.dtd">
<svg width="100%" height="100%" viewBox="0 0 30 30" version="1.1" xmlns="http://www.w3.org/2000/svg" xmlns:xlink="http://www.w3.org/1999/xlink" xml:space="preserve" xmlns:serif="http://www.serif.com/" style="fill-rule:evenodd;clip-rule:evenodd;stroke-linejoin:round;stroke-miterlimit:2;">
    <g transform="matrix(0.070231,0,0,0.070231,-2.96845,-2.47438)">
        <g transform="matrix(1.17069,0,0,1.17069,-41.7105,-44.197)">
            <path d="M199.404,162.775L198.212,77.798L228.992,152.99L245.261,91.429L253.176,167.061L314.297,110.777L301.105,171.898L385.971,99.784L346.396,205.756L382.453,202.678L367.063,233.898L430.822,233.018L357.829,276.111C310.749,201.266 217.641,202.277 202.172,202.988L178.432,205.414L153.969,116.063L199.404,162.775Z"/>
        </g>
        <g id="Capa1">
            <g transform="matrix(0.906171,0.489114,-0.462186,0.856283,112.179,-22.2047)">
                <ellipse cx="117.052" cy="242.922" rx="51.831" ry="46.799"/>
            </g>
            <g transform="matrix(1.17069,0,0,1.17069,-41.7105,-44.197)">
                <path d="M168.908,285.156L156.026,350.598L114.159,410.115L159.117,410.115L198.28,351.114L211.162,299.584L282.273,329.987C282.273,329.987 243.819,381.233 236.282,394.369C228.691,407.601 239.419,410.115 239.419,410.115L414.703,410.115L383.27,362.45L369.357,375.332L309.583,375.332C309.583,375.332 391.351,299.683 283.655,243.001C283.655,243.001 231.774,215.591 174.576,228.474C174.576,228.474 194.673,251.147 168.908,285.156Z"/>
            </g>
        </g>
    </g>
</svg>
