<?xml version="1.0" encoding="UTF-8" standalone="no"?><!DOCTYPE svg PUBLIC "-//W3C//DTD SVG 1.1//EN" "http://www.w3.org/Graphics/SVG/1.1/DTD/svg11.dtd"><svg width="100%" height="100%" viewBox="0 0 30 30" version="1.1" xmlns="http://www.w3.org/2000/svg" xmlns:xlink="http://www.w3.org/1999/xlink" xml:space="preserve" xmlns:serif="http://www.serif.com/" style="fill-rule:evenodd;clip-rule:evenodd;stroke-linejoin:round;stroke-miterlimit:2;"><g><path d="M7.613,30l-0.092,-1.938l-4.458,-4.296l-1.852,-8.059l0.526,-5.638l1.696,0.227l-0.048,3.823l-0.898,0.271l-0.144,1.46l1.673,5.855l0.884,-1.021l-1.566,-5.269l2.047,0.166l1.881,4.543c5.873,0.494 6.772,5.299 6.772,5.299l0.243,4.577l-6.664,0Zm8.087,0l0.243,-4.577c-0,0 0.9,-4.805 6.772,-5.299l1.881,-4.543l2.047,-0.166l-1.566,5.269l0.885,1.021l1.672,-5.855l-0.144,-1.46l-0.898,-0.271l-0.047,-3.823l1.696,-0.227l0.525,5.638l-1.852,8.059l-4.457,4.296l-0.093,1.938l-6.664,0Zm0.07,-14.51l0.558,1.506l1.505,0.557l-1.505,0.557l-0.558,1.506l-0.556,-1.506l-1.506,-0.557l1.506,-0.557l0.556,-1.506Zm-2.015,-10.23l1.317,3.558l3.559,1.318l-3.559,1.315l-1.317,3.561l-1.316,-3.561l-3.558,-1.315l3.558,-1.318l1.316,-3.558Zm-4.155,-1.317l0.444,1.198l1.198,0.444l-1.198,0.443l-0.444,1.199l-0.442,-1.199l-1.199,-0.443l1.199,-0.444l0.442,-1.198Zm-2.363,6.652l1.627,0.806l-1.183,7.112l-1.348,-3.376l0.904,-4.542Zm7.744,-10.251l0.427,1.155l1.156,0.428l-1.156,0.427l-0.427,1.156l-0.428,-1.156l-1.155,-0.427l1.155,-0.428l0.428,-1.155Zm10.337,7.823l0.704,6.285l-1.877,0.129l-0.479,-6.128l1.652,-0.286Zm-2.578,2.428l0.904,4.542l-1.348,3.376l-1.183,-7.112l1.627,-0.806Zm-13.415,3.636l1.256,0.871l-0.491,4.447l-1.749,-0.302l0.984,-5.016Zm-4.666,-6.064l1.653,0.286l-0.48,6.128l-1.877,-0.129l0.704,-6.285Zm15.993,6.064l0.985,5.016l-1.75,0.302l-0.491,-4.447l1.256,-0.871Zm-0.934,-11.433l0.771,2.084l2.085,0.772l-2.085,0.77l-0.771,2.086l-0.771,-2.086l-2.084,-0.77l2.084,-0.772l0.771,-2.084Z"/></g></svg>