<?xml version="1.0" encoding="UTF-8" standalone="no"?><!DOCTYPE svg PUBLIC "-//W3C//DTD SVG 1.1//EN" "http://www.w3.org/Graphics/SVG/1.1/DTD/svg11.dtd"><svg width="100%" height="100%" viewBox="0 0 30 30" version="1.1" xmlns="http://www.w3.org/2000/svg" xmlns:xlink="http://www.w3.org/1999/xlink" xml:space="preserve" xmlns:serif="http://www.serif.com/" style="fill-rule:evenodd;clip-rule:evenodd;stroke-linejoin:round;stroke-miterlimit:2;"><g><path d="M-0,20.202l4.852,-0l-1.096,1.633l-3.756,-0l-0,-1.633Zm-0,2.506l4.161,-0c0.064,0.113 0.14,0.218 0.226,0.312c0.077,0.426 0.309,0.82 0.671,1.094l0.3,0.227l-5.358,-0l-0,-1.633Zm-0,2.506l6.51,-0l0.384,0.291c0.365,0.276 0.822,0.4 1.274,0.345l0,0.997l-8.168,-0l-0,-1.633Zm-0,2.506l8.168,-0l0,1.633l-8.168,-0l-0,-1.633Zm0,-22.625l11.168,-0c-0.036,0.321 -0.055,0.653 -0.055,0.992c0,0.241 0.01,0.478 0.028,0.713l-11.141,-0l-0,-1.705Zm-0,7.603c2.675,0.027 8.85,0.079 9.158,-0.013l0.069,-0c-0.053,0.09 -0.104,0.183 -0.152,0.278c-0.066,0.13 -0.156,0.294 -0.264,0.487c-0.082,0.144 -0.142,0.297 -0.179,0.454c-0.12,0.112 -0.224,0.241 -0.31,0.385c-0.006,0.01 -0.011,0.019 -0.017,0.029l-8.305,-0l-0,-1.62Zm-0,2.493l7.779,-0c-0.14,0.229 -0.285,0.467 -0.434,0.708c-0.092,0.149 -0.16,0.308 -0.203,0.473c-0.128,0.113 -0.241,0.244 -0.333,0.393c-0.012,0.02 -0.025,0.039 -0.037,0.059l-6.772,-0l-0,-1.633Zm-0,2.506l6.227,-0c-0.148,0.235 -0.293,0.467 -0.436,0.692c-0.094,0.15 -0.164,0.311 -0.209,0.476c-0.13,0.113 -0.245,0.245 -0.34,0.394c-0.015,0.024 -0.03,0.047 -0.044,0.07l-5.198,-0l-0,-1.632Zm22.319,6.644l-8.613,0l0,-1.633l8.613,0l-0,1.633Zm-3.927,1.402l-0.758,-0l-0,1.104l-3.928,0l0,-1.633l8.613,0l-0,1.633l-3.927,0l-0,-1.104Zm3.927,-3.908l-8.613,-0l0,-1.633l8.613,-0l-0,1.633Zm2.731,-7.517l-14.074,-0c0.125,-0.222 0.228,-0.411 0.303,-0.56c0.217,-0.431 0.528,-0.778 0.884,-1.073l4.533,-0c0.394,0.117 0.814,0.168 1.25,0.168l0.133,0c0.436,0 0.856,-0.051 1.251,-0.168l4.532,-0c0.357,0.295 0.667,0.642 0.884,1.073c0.075,0.149 0.179,0.338 0.304,0.56Zm-2.566,-7.518l-8.943,0c-0.023,-0.234 -0.035,-0.471 -0.035,-0.713c0,-0.342 0.024,-0.673 0.07,-0.992l8.873,-0c0.046,0.319 0.07,0.65 0.07,0.992c-0,0.242 -0.012,0.479 -0.035,0.713Zm-1.766,-5.084l-5.411,-0c0.738,-0.641 1.652,-1.007 2.64,-1.007c0.019,0 0.037,0 0.056,0.001l0.019,0c0.019,-0.001 0.037,-0.001 0.056,-0.001c0.989,0 1.902,0.366 2.64,1.007Zm1.601,17.614l-8.613,-0l0,-1.633l8.613,-0l-0,1.633Zm-0.056,-15.108l-8.501,-0c0.176,-0.61 0.438,-1.159 0.766,-1.633l6.969,-0c0.329,0.474 0.59,1.023 0.766,1.633Zm-0.566,5.084l-7.369,0c-0.163,-0.277 -0.307,-0.572 -0.428,-0.884c-0.086,-0.241 -0.159,-0.491 -0.217,-0.749l8.66,0c-0.059,0.258 -0.132,0.508 -0.218,0.749c-0.121,0.312 -0.265,0.607 -0.428,0.884Zm0.622,7.518l-8.613,-0l0,-0.352l-0.235,0.352l-3.994,-0c0.358,-0.583 0.699,-1.142 0.991,-1.633l15.089,-0c0.293,0.491 0.632,1.05 0.991,1.633l-3.994,-0l-0.235,-0.352l-0,0.352Zm-4.241,-5.064l-0.131,0c-1.373,0 -2.437,-0.941 -2.997,-1.582l6.124,0c-0.559,0.641 -1.623,1.582 -2.996,1.582Zm-4.562,0.051c0.434,-0.239 0.861,-0.463 1.224,-0.714c0.159,0.275 0.335,0.512 0.527,0.714l-1.751,0Zm-13.453,0.001c0.434,-0.239 2.876,-0.464 3.239,-0.714c0.159,0.274 0.335,0.511 0.527,0.714l-3.766,-0Zm9.46,10.896l-0.934,1.392l-1.837,-1.392l2.771,0Zm18.589,-3.378l-3.876,-0l-1.096,-1.633l3.949,-0c0.344,0.553 0.693,1.109 1.023,1.633Zm-21.789,2.505c0.226,-0.353 0.598,-0.934 1.039,-1.633l3.842,-0l-1.096,1.633l-3.785,-0Zm5.403,-12.529l-9.772,-0c-0.163,-0.276 -0.307,-0.572 -0.428,-0.884c-0.086,-0.241 -0.158,-0.491 -0.217,-0.749l9.98,-0c0,0.13 0.015,0.262 0.044,0.392c0.075,0.325 0.166,0.641 0.274,0.946c0.006,0.017 0.013,0.034 0.019,0.051c0.032,0.082 0.066,0.163 0.1,0.244Zm0.356,17.541l-2.387,-0l0,-1.104c0,-0 0.207,-0.292 0.4,-0.529l1.987,-0l0,1.633Zm1.624,2.506l0,-1.633l3.928,0l-0,1.633l-3.928,0Zm-1.92,-6.645l0.249,-0l0,1.633l-1.345,-0l1.096,-1.633Zm0.296,6.645l-2.387,-0l0,-1.633l2.387,-0l0,1.633Zm17.62,-7.518l-3.785,-0l-1.096,-1.633l3.843,-0c0.441,0.699 0.812,1.28 1.038,1.633Zm-21.789,-2.505c0.33,-0.524 0.679,-1.08 1.023,-1.633l3.949,-0l-1.096,1.633l-3.876,-0Zm18.59,3.378l2.77,0l-1.837,1.392l-0.933,-1.392Zm-4.184,6.645l-3.927,0l-0,-1.633l3.927,0l-0,1.633Zm0.19,-17.542l-1.751,0c0.192,-0.202 0.368,-0.439 0.527,-0.714c0.363,0.251 0.79,0.475 1.224,0.714Zm-11.266,-7.589l-9.836,-0c0.176,-0.61 0.438,-1.16 0.766,-1.633l9.504,-0c-0.196,0.458 -0.61,1.023 -0.434,1.633Zm-3.531,7.538c-0.018,-0 -0.037,0.001 -0.056,0.001c-1.373,-0 -3.584,-0.942 -4.143,-1.582l8.096,-0c-0.559,0.64 -2.449,1.582 -3.822,1.582c-0.019,-0 -0.037,-0.001 -0.056,-0.001l-0.019,-0Zm3.54,-10.044l-7.645,-0c1.043,-0.641 2.333,-1.007 3.73,-1.007c0.026,-0 0.053,0.001 0.079,0.001l0.027,-0c0.026,-0 0.053,-0.001 0.079,-0.001c1.397,-0 2.687,0.366 3.73,1.007Z"/></g></svg>