<?xml version="1.0" encoding="UTF-8" standalone="no"?><!DOCTYPE svg PUBLIC "-//W3C//DTD SVG 1.1//EN" "http://www.w3.org/Graphics/SVG/1.1/DTD/svg11.dtd"><svg width="100%" height="100%" viewBox="0 0 30 30" version="1.1" xmlns="http://www.w3.org/2000/svg" xmlns:xlink="http://www.w3.org/1999/xlink" xml:space="preserve" xmlns:serif="http://www.serif.com/" style="fill-rule:evenodd;clip-rule:evenodd;stroke-linejoin:round;stroke-miterlimit:2;"><g><path d="M-0,8.058c0.068,0.09 0.142,0.175 0.222,0.255l4.026,4.035l-4.248,-0.711l-0,-3.579Zm-0,8.095l6.893,-1.154l1.99,1.995l-8.883,4.428l-0,-5.269Zm0,12.389l10.125,-10.304l1.641,1.644l-5.268,10.118l-6.498,0l0,-1.458Zm17.181,1.458l2.184,-6.592l0.976,-1.571l-1.088,-0.974l-2.684,2.625l-1.581,-1.536l1.178,-1.161l-14.193,-14.225l-1.411,-6.067l6.18,1.557l14.083,14.164l1.1,-1.175l1.652,1.59l-2.695,2.635l0.683,0.596l0.57,-1c1.915,0.327 3.386,1.396 4.285,3.365l-1.305,1.331l1.103,1.044c0.192,-0.023 0.392,-0.019 0.594,0.018c1.085,0.195 1.807,1.234 1.612,2.319c-0.196,1.084 -1.235,1.806 -2.32,1.611c-1.084,-0.196 -1.806,-1.235 -1.611,-2.319c0.011,-0.058 0.024,-0.114 0.038,-0.169l-0.908,-0.846l-0.495,0.371l-1.09,4.409l-4.857,0Zm12.819,-18.475l-7.204,1.206c-0.296,-0.112 -0.613,-0.166 -0.936,-0.158c-0.333,0.009 -0.657,0.085 -0.955,0.219l-1.479,-1.487l10.574,-5.272l0,5.492Zm-1.41,-11.525l-10.142,10.321l-1.406,-1.413l4.638,-8.908l6.91,0Zm-11.654,0l-1.143,7.651l-2.657,-2.672l-0.744,-4.979l4.544,0Zm2.257,17.807l-10.957,-11.043l-1.733,-0.415l0.5,1.95l10.809,10.862l1.381,-1.354Z"/></g></svg>