<?xml version="1.0" encoding="UTF-8" standalone="no"?><!DOCTYPE svg PUBLIC "-//W3C//DTD SVG 1.1//EN" "http://www.w3.org/Graphics/SVG/1.1/DTD/svg11.dtd"><svg width="100%" height="100%" viewBox="0 0 30 30" version="1.1" xmlns="http://www.w3.org/2000/svg" xmlns:xlink="http://www.w3.org/1999/xlink" xml:space="preserve" xmlns:serif="http://www.serif.com/" style="fill-rule:evenodd;clip-rule:evenodd;stroke-linejoin:round;stroke-miterlimit:2;"><g><path d="M8.509,30c-0.203,-0.176 -0.413,-0.363 -0.632,-0.561c-4,-3.617 -6.896,-11.43 -6.114,-12.33c0.815,1.578 1.553,2.284 2.222,2.194c-3.775,-12.125 1.637,-16.147 2.467,-16.827c-2.67,3.841 2.179,9.487 2.458,4.753c0.354,-6.03 4.727,-6.882 4.727,-6.882c-1.403,1.567 -0.104,5.651 2.284,6.478c2.841,0.982 2.166,-3.544 2.166,-3.544c4.254,1.826 2.262,5.769 4.878,7.564c2.225,1.528 1.197,-5.442 1.197,-5.442c4.154,3.262 2.713,9.658 2.261,10.569c-1.3,7.204 2.156,2.36 2.156,2.36c0.89,3.874 -0.246,9.068 -0.988,11.668l-1.559,-0c-1.65,-3.072 -4.198,-7.119 -4.2,-7.129c-0.622,-3.79 -1.23,-7.585 -1.89,-11.369c-0.007,-0.042 -0.044,-0.073 -0.087,-0.073c-0.487,-0.003 -0.956,0.007 -1.408,0.03c-0.221,0.011 -0.178,0.13 -0.165,0.305c0.105,1.389 0.232,2.776 0.381,4.162c0,0.001 0,0.002 0,0.003c-0,0.016 -0.013,0.029 -0.03,0.029c-0.001,-0 -0.002,-0 -0.003,-0l-0.766,-0.095c-0.025,-0.003 -0.046,-0.02 -0.053,-0.043c-0.464,-1.53 -0.962,-3.047 -1.424,-4.577c-0.172,-0.57 -0.36,-1.134 -0.564,-1.694c-0.027,-0.074 -0.08,-0.108 -0.159,-0.101c-0.456,0.039 -0.918,0.1 -1.386,0.182c-0.319,0.055 -0.258,0.257 -0.19,0.505c0.52,1.889 1.05,3.772 1.59,5.648c0.006,0.022 -0.009,0.046 -0.033,0.052l-0.684,0.147c-0.028,0.005 -0.057,-0.007 -0.07,-0.031c-0.736,-1.308 -1.472,-2.617 -2.206,-3.925c-0.396,-0.704 -0.786,-1.456 -1.198,-2.176c-0.095,-0.167 -0.199,-0.222 -0.388,-0.145c-0.403,0.165 -0.799,0.348 -1.186,0.55c-0.175,0.09 -0.109,0.169 -0.05,0.294c0.188,0.4 0.306,0.647 0.354,0.74c0.981,1.897 1.946,3.8 2.936,5.693c0.011,0.02 0.007,0.045 -0.01,0.061l-0.534,0.527c-0.001,0.001 -0.001,0.002 -0.002,0.002c-0.017,0.015 -0.044,0.014 -0.059,-0.003c-0.001,-0.001 -0.001,-0.001 -0.001,-0.002c-1.148,-1.495 -2.279,-2.992 -3.394,-4.493c-0.113,-0.152 -0.227,-0.298 -0.344,-0.438c-0.011,-0.013 -0.03,-0.016 -0.044,-0.007l-1.385,0.911c-0.033,0.022 -0.042,0.068 -0.02,0.102c1.71,2.574 3.331,5.074 5.009,7.663c0.039,0.06 0.088,0.07 0.148,0.03c0.44,-0.299 0.959,-0.254 1.484,-0.142c0.869,0.186 1.705,0.959 1.556,1.911c-0.008,0.053 -0.026,0.057 -0.055,0.012c-0.527,-0.839 -1.854,-1.166 -2.818,-0.786c-0.038,0.014 -0.081,0.01 -0.116,-0.011c-1.132,-0.704 -2.273,-1.648 -3.393,-2.291c-0.02,-0.011 -0.045,-0.006 -0.059,0.011c-0.32,0.395 -0.63,0.795 -0.929,1.201c-0.096,0.131 -0.082,0.208 0.043,0.309c1.846,1.503 3.708,2.987 5.584,4.452c0.003,0.003 0.091,0.073 0.261,0.212c0.623,0.506 1.323,0.792 2.101,0.859c0.21,0.018 0.5,0.007 0.87,-0.033c0.259,-0.028 0.827,1.369 1.438,2.961l-9.975,0Z"/></g></svg>