<?xml version="1.0" encoding="UTF-8" standalone="no"?><!DOCTYPE svg PUBLIC "-//W3C//DTD SVG 1.1//EN" "http://www.w3.org/Graphics/SVG/1.1/DTD/svg11.dtd"><svg width="100%" height="100%" viewBox="0 0 30 30" version="1.1" xmlns="http://www.w3.org/2000/svg" xmlns:xlink="http://www.w3.org/1999/xlink" xml:space="preserve" xmlns:serif="http://www.serif.com/" style="fill-rule:evenodd;clip-rule:evenodd;stroke-linejoin:round;stroke-miterlimit:2;"><g><path d="M4.665,30c0.034,-2.009 0.216,-3.973 0.914,-5.36c0.967,-1.922 3.222,-2.397 4.732,-3.442c1.04,1.795 2.638,2.42 4.429,2.42c1.794,-0 3.395,-0.629 4.434,-2.43c1.512,1.042 3.819,1.76 4.788,3.68c0.692,1.371 0.863,3.218 0.888,5.132l-20.185,0Zm20.273,-23.097l0.899,1.992l1.992,0.9l-1.992,0.899l-0.899,1.992l-0.9,-1.992l-1.992,-0.899l1.992,-0.9l0.9,-1.992Zm-13.963,-3.099c0.394,0 0.713,0.32 0.713,0.714c0,0.394 -0.319,0.713 -0.713,0.713c-0.394,0 -0.714,-0.319 -0.714,-0.713c0,-0.394 0.32,-0.714 0.714,-0.714Zm15.605,-1.285c0.394,-0 0.714,0.319 0.714,0.713c-0,0.394 -0.32,0.714 -0.714,0.714c-0.394,-0 -0.713,-0.32 -0.713,-0.714c-0,-0.394 0.319,-0.713 0.713,-0.713Zm-20.527,14.939l0.428,0.948l0.948,0.428l-0.948,0.429l-0.428,0.948l-0.429,-0.948l-0.948,-0.429l0.948,-0.428l0.429,-0.948Zm-3.129,-5.78l0.572,1.268l1.268,0.573l-1.268,0.572l-0.572,1.268l-0.573,-1.268l-1.268,-0.572l1.268,-0.573l0.573,-1.268Zm-0.283,11.764c0.394,-0 0.714,0.32 0.714,0.713c-0,0.394 -0.32,0.714 -0.714,0.714c-0.393,-0 -0.713,-0.32 -0.713,-0.714c-0,-0.393 0.32,-0.713 0.713,-0.713Zm13.99,-22.361l0.646,1.43l1.43,0.646l-1.43,0.646l-0.646,1.431l-0.646,-1.431l-1.43,-0.646l1.43,-0.646l0.646,-1.43Zm9.67,19.473l0.646,1.43l1.43,0.646l-1.43,0.646l-0.646,1.43l-0.646,-1.43l-1.431,-0.646l1.431,-0.646l0.646,-1.43Zm1.386,-6.363l0.428,0.948l0.948,0.428l-0.948,0.428l-0.428,0.948l-0.428,-0.948l-0.948,-0.428l0.948,-0.428l0.428,-0.948Zm-8.201,4.927c0.017,0.011 -1.878,2.988 -4.748,2.988c-3.276,-0 -4.749,-2.974 -4.726,-2.988c-0.458,-0.675 -0.826,-1.45 -1.08,-2.295c-0.217,-0.804 -0.336,-1.667 -0.336,-2.566c0,-4.331 2.752,-7.438 6.142,-7.438c3.39,-0 6.143,3.107 6.143,7.438c-0,1.151 -0.195,2.245 -0.544,3.23c-0.229,0.589 -0.516,1.137 -0.851,1.631Zm-4.8,-6.002c-0.767,-1.324 -2.3,-1.324 -3.067,-0.662c-0.767,0.662 -0.767,1.987 0,3.311c0.537,0.993 1.917,1.986 3.067,2.649c1.15,-0.663 2.53,-1.656 3.067,-2.649c0.767,-1.324 0.767,-2.649 0,-3.311c-0.767,-0.662 -2.3,-0.662 -3.067,0.662Zm-9.633,-11.063l0.9,1.992l1.992,0.899l-1.992,0.9l-0.9,1.992l-0.899,-1.992l-1.992,-0.9l1.992,-0.899l0.899,-1.992Z"/></g></svg>