<?xml version="1.0" encoding="UTF-8" standalone="no"?><!DOCTYPE svg PUBLIC "-//W3C//DTD SVG 1.1//EN" "http://www.w3.org/Graphics/SVG/1.1/DTD/svg11.dtd"><svg width="100%" height="100%" viewBox="0 0 30 30" version="1.1" xmlns="http://www.w3.org/2000/svg" xmlns:xlink="http://www.w3.org/1999/xlink" xml:space="preserve" xmlns:serif="http://www.serif.com/" style="fill-rule:evenodd;clip-rule:evenodd;stroke-linejoin:round;stroke-miterlimit:2;"><path d="M-0,22.928c0.567,-0.343 0.985,-0.661 1.153,-0.98c2.079,-3.959 2.211,-17.524 2.211,-17.524l4.915,-0.848l0.508,2.475l1,-4.206l5.074,0.513l-0.47,4.042l4.785,-6.4l3.268,-0l2.446,1.692l-4.347,7.062l7.286,-4.647l2.171,3.323l0,1.183l-8.14,7.029l-2.523,4.687l0.147,0.641l1.301,-0.441l1.887,-1.404l3.313,3.955l-3.698,3.198c0,0 -5.085,0.522 -9.093,1.441c-1.017,0.233 -2.529,1.202 -3.927,2.281l-4.862,0c0.395,-0.392 0.779,-0.766 1.15,-1.121c0.34,-0.378 0.504,-0.785 0.366,-0.91l-0.961,-0.886c-0.138,-0.125 -0.526,0.081 -0.866,0.458c-0.592,0.77 -1.178,1.606 -1.795,2.459l-1.994,0c0.955,-1.015 1.874,-1.921 2.721,-2.734c0.341,-0.377 0.505,-0.784 0.367,-0.909l-0.961,-0.887c-0.138,-0.124 -0.526,0.081 -0.867,0.459c-0.518,0.674 -1.031,1.398 -1.565,2.14l0,-5.141Zm26.798,-14.352c0.133,-0.096 0.13,-0.326 -0.005,-0.513l-0.491,-0.68c-0.136,-0.188 -0.353,-0.262 -0.486,-0.167c-0.503,0.662 -1.199,1.165 -2.089,1.509c-0.132,0.096 -0.13,0.326 0.006,0.513l0.491,0.68c0.135,0.188 0.353,0.262 0.485,0.167c0.676,-0.756 1.373,-1.246 2.089,-1.509Zm-7.755,-1.311c0.114,-0.18 0.017,-0.448 -0.218,-0.596l-0.851,-0.54c-0.234,-0.149 -0.518,-0.124 -0.632,0.057c-0.312,1.034 -0.914,1.983 -1.807,2.846c-0.114,0.181 -0.017,0.448 0.218,0.597l0.851,0.54c0.235,0.149 0.518,0.123 0.633,-0.057c0.474,-1.234 1.082,-2.168 1.806,-2.847Zm2.587,-3.929c0.079,-0.124 -0.031,-0.335 -0.245,-0.471l-0.775,-0.492c-0.214,-0.136 -0.451,-0.145 -0.53,-0.021c-0.16,0.746 -0.574,1.398 -1.243,1.958c-0.078,0.124 0.031,0.335 0.245,0.471l0.776,0.492c0.214,0.135 0.451,0.145 0.53,0.021c0.277,-0.88 0.698,-1.521 1.242,-1.958Zm-8.652,2.186c0.023,-0.201 -0.18,-0.389 -0.454,-0.421l-0.991,-0.115c-0.274,-0.032 -0.515,0.106 -0.538,0.307c0.172,1.009 0.05,2.064 -0.367,3.165c-0.023,0.201 0.18,0.389 0.454,0.421l0.991,0.115c0.274,0.032 0.515,-0.106 0.538,-0.306c-0.116,-1.247 0.019,-2.292 0.367,-3.166Zm6.179,18.597c0.225,0.025 0.425,-0.122 0.448,-0.327l0.082,-0.745c0.022,-0.206 -0.142,-0.393 -0.366,-0.418c-1.115,0.095 -1.584,0.133 -2.828,-0.221c-0.224,-0.025 -0.425,0.122 -0.447,0.327l-0.082,0.745c-0.023,0.206 0.141,0.393 0.366,0.418c1.381,-0.044 1.839,-0.072 2.827,0.221Zm-0.338,-8.541c0.34,-0.378 0.504,-0.785 0.366,-0.91l-0.961,-0.886c-0.138,-0.125 -0.526,0.081 -0.866,0.458c-1.511,1.966 -2.981,4.362 -5.047,6.363c-0.34,0.378 -0.505,0.785 -0.367,0.91l0.501,0.45c0.138,0.125 0.526,-0.081 0.866,-0.458c1.933,-2.404 3.856,-4.342 5.508,-5.927Zm-10.399,9.835c0.17,-0.226 0.124,-0.547 -0.102,-0.717l-0.819,-0.615c-0.226,-0.169 -0.547,-0.123 -0.716,0.103l-0.615,0.818c-0.17,0.226 -0.124,0.547 0.102,0.717l0.819,0.614c0.226,0.17 0.547,0.124 0.716,-0.102l0.615,-0.818Zm-0.779,-17.687c-0.012,-0.106 -0.24,-0.169 -0.509,-0.139l-0.975,0.108c-0.269,0.029 -0.478,0.14 -0.466,0.246c0.338,0.487 0.399,1.046 0.184,1.677c0.012,0.107 0.24,0.169 0.509,0.139l0.976,-0.107c0.269,-0.03 0.478,-0.14 0.466,-0.247c-0.323,-0.616 -0.372,-1.173 -0.185,-1.677Zm-2.283,17.298c0.17,-0.226 0.124,-0.547 -0.102,-0.717l-0.818,-0.614c-0.226,-0.17 -0.547,-0.124 -0.717,0.102l-0.615,0.819c-0.169,0.225 -0.123,0.547 0.102,0.716l0.819,0.615c0.226,0.169 0.547,0.124 0.717,-0.102l0.614,-0.819Zm9.36,-0.659c0.248,-0.063 0.411,-0.261 0.365,-0.444l-0.167,-1.102c-0.046,-0.182 -0.285,-0.28 -0.532,-0.217c-1.155,0.494 -2.983,1.145 -4.428,1.307c-0.247,0.062 -0.411,0.261 -0.364,0.444l0.167,0.662c0.046,0.182 0.284,0.28 0.531,0.217c1.456,-0.549 3.276,-0.749 4.428,-0.867Zm7.944,-1.455c0.07,-0.046 0.04,-0.214 -0.066,-0.374l-0.385,-0.579c-0.107,-0.16 -0.249,-0.253 -0.319,-0.207c-0.227,0.392 -0.592,0.634 -1.095,0.728c-0.07,0.046 -0.04,0.213 0.066,0.373l0.385,0.58c0.106,0.16 0.249,0.252 0.318,0.206c0.322,-0.429 0.689,-0.662 1.096,-0.727Zm0.921,-11.407c0.198,-0.155 0.208,-0.471 0.023,-0.706l-0.668,-0.851c-0.185,-0.235 -0.495,-0.3 -0.692,-0.145c-0.766,0.999 -1.803,1.813 -3.109,2.443c-0.197,0.155 -0.208,0.471 -0.023,0.706l0.668,0.851c0.185,0.235 0.495,0.3 0.692,0.145c1.022,-1.159 2.059,-1.956 3.109,-2.443Zm-11.904,0.189c0.176,-0.584 0.159,-1.107 -0.038,-1.166l-1.408,-0.305c-0.197,-0.059 -0.499,0.367 -0.675,0.951c-0.649,2.904 -1.573,5.975 -2.771,9.213c-0.176,0.584 -0.159,1.107 0.038,1.166l0.714,0.215c0.196,0.059 0.499,-0.367 0.675,-0.952c0.88,-3.596 2.5,-6.55 3.465,-9.122Zm4.033,1.119c0.304,-0.548 0.429,-1.061 0.278,-1.145l-1.256,-0.613c-0.151,-0.084 -0.521,0.293 -0.825,0.841c-1.324,2.753 -2.716,5.766 -4.593,8.774c-0.305,0.548 -0.429,1.061 -0.279,1.145l0.547,0.303c0.151,0.084 0.521,-0.293 0.825,-0.841c1.704,-3.4 3.8,-6.076 5.303,-8.464Zm-8.282,-0.571c0.096,-0.569 0.027,-1.056 -0.155,-1.087l-1.307,-0.038c-0.182,-0.031 -0.408,0.406 -0.504,0.975c0.108,2.877 -0.136,5.715 -0.869,8.895c-0.096,0.569 -0.026,1.056 0.156,1.087l0.659,0.111c0.182,0.031 0.408,-0.406 0.504,-0.975c0.412,-3.475 0.922,-6.44 1.516,-8.968Z"/></svg>