<?xml version="1.0" encoding="UTF-8" standalone="no"?>
<!DOCTYPE svg PUBLIC "-//W3C//DTD SVG 1.1//EN" "http://www.w3.org/Graphics/SVG/1.1/DTD/svg11.dtd">
<svg width="100%" height="100%" viewBox="0 0 30 30" version="1.1" xmlns="http://www.w3.org/2000/svg" xmlns:xlink="http://www.w3.org/1999/xlink" xml:space="preserve" xmlns:serif="http://www.serif.com/" style="fill-rule:evenodd;clip-rule:evenodd;stroke-linejoin:round;stroke-miterlimit:2;">
    <path d="M1.797,18.871C0.938,18.074 0.401,16.936 0.401,15.673C0.401,13.608 1.838,11.876 3.766,11.424C3.222,10.643 2.903,9.695 2.903,8.672C2.903,8.244 2.958,7.83 3.063,7.435C2.203,7.018 1.609,6.136 1.609,5.117C1.609,3.696 2.762,2.543 4.183,2.543C5.207,2.543 6.092,3.141 6.507,4.007C6.895,3.906 7.302,3.852 7.722,3.852C8.257,3.852 8.772,3.94 9.253,4.101C9.353,3.701 9.641,3.374 10.018,3.22C9.983,3.052 9.964,2.878 9.964,2.699C9.964,1.306 11.095,0.175 12.488,0.175C13.601,0.175 14.547,0.898 14.881,1.899C16.264,2.064 17.401,3.032 17.811,4.324C18.154,4.189 18.527,4.114 18.918,4.114C19.636,4.114 20.297,4.365 20.816,4.784C20.993,4.656 21.178,4.539 21.37,4.433C21.291,4.187 21.249,3.924 21.249,3.651C21.249,2.23 22.402,1.077 23.823,1.077C25.244,1.077 26.397,2.23 26.397,3.651C26.397,3.883 26.367,4.107 26.309,4.321C28.084,5.195 29.307,7.022 29.307,9.132C29.307,10.523 28.775,11.791 27.905,12.744C29.06,13.53 29.819,14.855 29.819,16.355C29.819,17.482 29.391,18.51 28.689,19.284C28.745,19.428 28.775,19.584 28.775,19.747C28.775,20.458 28.198,21.035 27.487,21.035C27.099,21.035 26.751,20.863 26.514,20.59C26.385,20.623 26.253,20.649 26.119,20.67C26.632,21.302 26.94,22.107 26.94,22.983C26.94,23.353 26.885,23.71 26.783,24.047C27.643,24.29 28.273,25.08 28.273,26.017C28.273,27.147 27.356,28.064 26.227,28.064C25.272,28.064 24.47,27.409 24.244,26.525C23.932,26.611 23.605,26.657 23.266,26.657C21.776,26.657 20.491,25.767 19.916,24.491C19.833,24.552 19.75,24.612 19.666,24.67C19.737,24.878 19.776,25.099 19.776,25.326C19.776,25.337 19.776,25.349 19.775,25.36C20.591,25.528 21.205,26.251 21.205,27.116C21.205,28.106 20.401,28.909 19.411,28.909C18.596,28.909 17.907,28.364 17.689,27.619C17.45,27.674 17.199,27.703 16.939,27.703C16.345,27.703 15.793,27.55 15.337,27.288C14.834,28.053 13.969,28.558 12.986,28.558C11.434,28.558 10.174,27.299 10.174,25.747C10.174,25.422 10.229,25.11 10.331,24.82C10.021,24.62 9.725,24.401 9.445,24.164C8.841,24.655 8.071,24.949 7.233,24.949L7.221,24.949C6.96,26.094 5.935,26.95 4.711,26.95C3.29,26.95 2.137,25.796 2.137,24.376C2.137,23.29 2.81,22.36 3.763,21.982C3.735,21.804 3.72,21.622 3.72,21.437C3.72,20.916 3.834,20.422 4.037,19.978C3.821,19.941 3.61,19.889 3.405,19.822C3.357,20.348 2.914,20.761 2.376,20.761C1.805,20.761 1.342,20.298 1.342,19.728C1.342,19.372 1.522,19.057 1.797,18.871ZM5.202,13.504C4.475,13.504 3.885,14.094 3.885,14.821C3.885,15.547 4.475,16.137 5.202,16.137C5.929,16.137 6.519,15.547 6.519,14.821C6.519,14.094 5.929,13.504 5.202,13.504ZM7.979,6.99C7.692,6.99 7.459,7.222 7.459,7.509C7.459,7.796 7.692,8.029 7.979,8.029C8.266,8.029 8.499,7.796 8.499,7.509C8.499,7.222 8.266,6.99 7.979,6.99ZM22.952,7.951C22.752,7.951 22.589,8.114 22.589,8.314C22.589,8.515 22.752,8.678 22.952,8.678C23.153,8.678 23.316,8.515 23.316,8.314C23.316,8.114 23.153,7.951 22.952,7.951ZM25.253,11.783C24.85,11.783 24.523,12.11 24.523,12.513C24.523,12.916 24.85,13.243 25.253,13.243C25.656,13.243 25.983,12.916 25.983,12.513C25.983,12.11 25.656,11.783 25.253,11.783ZM18.281,22.408C18.834,22.326 19.315,22.22 19.683,22.089C20.272,21.879 20.128,18.63 20.168,18.298C20.315,17.079 22.171,17.664 22.168,16.33C22.166,15.656 22.099,14.92 21.965,14.123C21.441,10.992 19.823,7.84 16.315,7.181C16,7.122 15.641,7.081 15.239,7.06C15.231,7.059 15.223,7.065 15.223,7.072L14.55,7.081L14.548,7.072C14.548,7.065 14.542,7.059 14.533,7.06C14.13,7.081 13.771,7.122 13.456,7.181C9.948,7.84 8.33,10.992 7.806,14.123C7.673,14.92 7.605,15.656 7.604,16.33C7.6,17.664 9.456,17.079 9.603,18.298C9.64,18.597 9.507,21.809 9.998,22.008C10.373,22.161 10.888,22.285 11.492,22.379L11.492,21.089L12.707,21.089L12.707,22.525C13.21,22.568 13.74,22.597 14.278,22.611L14.278,21.089L15.493,21.089L15.493,22.616C16.031,22.606 16.561,22.582 17.064,22.543L17.064,21.089L18.281,21.089L18.281,22.408ZM10.748,17.746C9.851,17.217 9.58,15.981 9.601,15.058C9.608,14.778 10.453,14.656 10.661,14.634C11.389,14.555 12.352,15.145 13.129,15.3C13.322,15.339 13.782,15.448 13.84,15.658C14.038,16.377 14.088,16.797 13.486,17.388C13.379,17.494 13.231,17.59 13.042,17.674C12.353,17.985 11.428,18.147 10.748,17.746ZM19.023,17.746C18.344,18.147 17.418,17.985 16.728,17.674C16.541,17.59 16.392,17.494 16.285,17.388C15.685,16.797 15.898,16.377 16.097,15.658C16.155,15.448 16.614,15.339 16.808,15.3C17.585,15.145 18.382,14.555 19.11,14.634C19.318,14.656 20.163,14.778 20.17,15.058C20.191,15.981 19.921,17.217 19.023,17.746ZM16.194,19.316L14.91,18.878C14.91,18.878 13.647,19.325 13.655,19.313C13.655,19.313 14.959,17.228 14.959,17.222C14.959,17.222 16.209,19.319 16.194,19.316ZM23.962,21.016C23.236,21.016 22.646,21.605 22.646,22.332C22.646,23.059 23.236,23.649 23.962,23.649C24.689,23.649 25.279,23.059 25.279,22.332C25.279,21.605 24.689,21.016 23.962,21.016ZM7.376,0.597C8.267,0.597 8.99,1.32 8.99,2.211C8.99,3.102 8.267,3.826 7.376,3.826C6.485,3.826 5.762,3.102 5.762,2.211C5.762,1.32 6.485,0.597 7.376,0.597ZM8.834,25.806C9.568,25.806 10.163,26.401 10.163,27.135C10.163,27.868 9.568,28.463 8.834,28.463C8.101,28.463 7.506,27.868 7.506,27.135C7.506,26.401 8.101,25.806 8.834,25.806ZM19.513,0.814C20.335,0.814 21.003,1.482 21.003,2.304C21.003,3.127 20.335,3.795 19.513,3.795C18.69,3.795 18.022,3.127 18.022,2.304C18.022,1.482 18.69,0.814 19.513,0.814ZM28.005,2.238C28.674,2.238 29.216,2.781 29.216,3.45C29.216,4.118 28.674,4.661 28.005,4.661C27.337,4.661 26.794,4.118 26.794,3.45C26.794,2.781 27.337,2.238 28.005,2.238ZM26.471,0.498C26.874,0.498 27.201,0.825 27.201,1.228C27.201,1.631 26.874,1.959 26.471,1.959C26.068,1.959 25.74,1.631 25.74,1.228C25.74,0.825 26.068,0.498 26.471,0.498ZM5.677,27.567C6.08,27.567 6.407,27.894 6.407,28.297C6.407,28.7 6.08,29.028 5.677,29.028C5.274,29.028 4.946,28.7 4.946,28.297C4.946,27.894 5.274,27.567 5.677,27.567ZM16.85,0.665C17.176,0.665 17.441,0.93 17.441,1.256C17.441,1.582 17.176,1.847 16.85,1.847C16.524,1.847 16.259,1.582 16.259,1.256C16.259,0.93 16.524,0.665 16.85,0.665ZM1.646,9.521C2.049,9.521 2.377,9.848 2.377,10.251C2.377,10.654 2.049,10.982 1.646,10.982C1.243,10.982 0.916,10.654 0.916,10.251C0.916,9.848 1.243,9.521 1.646,9.521Z"/>
</svg>
