<?xml version="1.0" encoding="UTF-8" standalone="no"?>
<!DOCTYPE svg PUBLIC "-//W3C//DTD SVG 1.1//EN" "http://www.w3.org/Graphics/SVG/1.1/DTD/svg11.dtd">
<svg width="100%" height="100%" viewBox="0 0 30 30" version="1.1" xmlns="http://www.w3.org/2000/svg" xmlns:xlink="http://www.w3.org/1999/xlink" xml:space="preserve" xmlns:serif="http://www.serif.com/" style="fill-rule:evenodd;clip-rule:evenodd;stroke-linejoin:round;stroke-miterlimit:2;">
    <g transform="matrix(0.167132,-0.00195318,0.00195318,0.167132,-6.27795,-4.39166)">
        <path d="M180.662,62.152C177.816,61.373 176.14,58.294 176.951,55.33C177.761,52.367 180.771,50.57 183.618,51.349C186.464,52.127 188.14,55.206 187.329,58.17C186.519,61.133 183.509,62.93 180.662,62.152ZM184.989,57.488C185.316,56.184 184.403,54.815 182.967,54.454C181.53,54.093 180.079,54.869 179.751,56.172C179.424,57.476 180.337,58.845 181.773,59.206C183.21,59.567 184.661,58.791 184.989,57.488Z" style="fill-rule:nonzero;"/>
    </g>
    <g transform="matrix(0.167132,-0.00195318,0.00195318,0.167132,-6.27795,-4.39166)">
        <path d="M66.059,161.618C67.146,163.779 66.109,166.529 63.761,167.71C61.414,168.89 58.588,168.083 57.501,165.922C56.414,163.761 57.451,161.011 59.798,159.83C62.146,158.65 64.972,159.457 66.059,161.618ZM62.17,166.24C62.802,165.875 62.952,164.934 62.502,164.155C62.052,163.376 61.162,163.035 60.53,163.4C59.898,163.765 59.748,164.706 60.198,165.485C60.648,166.264 61.538,166.605 62.17,166.24Z" style="fill-rule:nonzero;"/>
    </g>
    <g transform="matrix(0.127541,0.020806,-0.020806,0.127541,0.158921,0.547434)">
        <path d="M202.939,46.807L208.268,61.207L222.667,66.535L208.268,71.864L202.939,86.264L197.611,71.864L183.211,66.535L197.611,61.207L202.939,46.807Z"/>
    </g>
    <g transform="matrix(1.03681,2.77556e-17,-2.77556e-17,1.03681,-0.557022,0.00953004)">
        <path d="M8.229,2.623L8.228,2.617L6.978,1.908L8.388,1.632L9.098,0.382L9.373,1.793L10.623,2.502L9.212,2.777L9.208,2.784L8.503,4.027L8.229,2.623Z"/>
    </g>
    <g transform="matrix(0.0613968,0.0100157,-0.0100157,0.0613968,2.1422,-2.30955)">
        <path d="M409,227.548C443.748,283.432 476.912,336.743 487.721,354.041C489.331,356.626 489.461,360.014 488.111,364.204C487.816,365.096 487.115,365.724 486.334,365.798L475.812,366.733C475.134,366.799 474.351,367.192 473.602,367.841C453.602,385.128 448.982,413.96 466.327,434.137C466.936,434.858 467.286,435.675 467.319,436.447C467.579,442.813 463.271,445.972 457.09,446.681C431.907,449.524 406.693,452.391 381.447,455.281C359.132,457.827 331.571,459.396 306.7,462.443C266.353,467.426 226.693,472.209 186.813,472.542C185.623,472.552 184.531,471.891 184.005,470.843C130.944,364.038 73.388,259.33 19.581,152.842C7.847,129.626 18.189,92.125 30.132,70.478C31.812,67.459 33.512,67.455 35.232,70.466C94.893,175.448 155.99,280.391 213.97,386.762C214.352,387.452 214.232,388.388 213.665,389.14C197.625,410.827 192.423,435.068 198.06,461.863C198.216,462.607 198.837,463.123 199.467,463.033C282.281,451.6 370.147,442.167 447.934,433.752C447.979,433.747 448.024,433.739 448.068,433.728C448.558,433.605 448.865,433.123 448.749,432.661C448.739,432.622 448.726,432.584 448.711,432.547C439.354,409.627 441.871,388.465 456.264,369.061C456.669,368.527 456.6,368.281 456.055,368.323L229.721,384.11C227.646,384.259 225.672,383.219 224.659,381.444C164.511,276.984 105.166,172.072 46.622,66.708C46.582,66.638 46.55,66.563 46.528,66.485C46.388,65.985 46.674,65.461 47.16,65.325C47.235,65.304 47.312,65.293 47.389,65.292C59.682,65.101 71.965,64.979 84.246,64.913L99.666,70.619L106.773,89.826C107.869,92.788 110.693,94.754 113.852,94.754C117.01,94.754 119.834,92.788 120.93,89.826L128.038,70.619L143.302,64.971C197.162,65.318 251.234,66.339 306.191,66.952C308.054,66.974 309.747,67.888 310.675,69.372C310.675,69.372 339.497,115.751 374.12,171.446L353.031,179.249C349.086,180.709 346.468,184.47 346.468,188.676C346.468,192.882 349.086,196.643 353.031,198.103L378.61,207.568L388.074,233.147C389.534,237.091 393.295,239.71 397.501,239.71C401.707,239.71 405.469,237.091 406.928,233.147L409,227.548ZM80.048,210.265L81.995,230.841C82.006,230.957 82.025,231.073 82.054,231.186C82.387,232.486 83.869,233.248 85.337,232.873C85.459,232.841 85.579,232.803 85.697,232.757L91.971,230.296C92.188,230.211 92.415,230.153 92.647,230.122C94.178,229.917 95.599,230.948 95.794,232.408C95.824,232.628 95.824,232.851 95.796,233.072C95.119,238.052 90.581,258.509 104.278,249.164C104.375,249.101 104.464,249.028 104.545,248.946C105.197,248.291 105.186,247.208 104.521,246.546C104.442,246.468 104.356,246.397 104.264,246.335C97.134,241.626 108.358,217.702 91.276,225.262C91.123,225.33 90.962,225.381 90.797,225.412C89.648,225.628 88.525,224.859 88.309,223.71C88.279,223.55 88.267,223.386 88.274,223.223C88.399,221.037 85.555,176.736 74.71,197.789C71.906,203.232 70.647,208.652 70.934,214.052C70.992,214.923 71.551,215.629 72.271,215.741C75.654,216.297 75.969,210.926 78.772,209.233C78.823,209.201 78.878,209.178 78.935,209.163C79.368,209.049 79.851,209.438 80.005,210.024C80.026,210.104 80.04,210.184 80.048,210.265ZM211.953,125.554C210.908,122.826 206.724,111.947 205.732,110.029C204.285,107.235 202.287,106.356 201.644,106.077C198.105,104.541 195.252,105.421 192.942,107.731C190.792,109.881 187.073,116.839 183.399,126.123C175.761,145.426 166.952,175.243 166.952,183.366C166.952,187.697 170.468,191.213 174.799,191.213C179.13,191.213 182.646,187.697 182.646,183.366C182.646,176.113 190.939,149.825 197.789,132.411C197.873,132.601 197.947,132.765 198.011,132.899C198.874,134.719 199.868,135.648 200.252,135.982C201.294,136.888 202.128,138.51 203.081,140.341C205.276,144.56 207.381,149.837 209.63,154.536C213.07,161.726 217.32,167.497 221.634,169.655C226.046,171.86 230.486,171.162 234.416,166.847C236.443,164.621 238.49,160.625 240.205,156.112C241.987,157.53 244.784,159.152 247.486,160.876C248.684,161.64 250.561,163.188 250.806,163.39C252.789,167.212 255.477,168.453 257.781,168.874C259.709,169.227 261.85,169.028 264.144,167.769C266.014,166.743 268.712,163.756 272.602,159.839C273.77,159.124 281.388,152.241 283.019,150.655C283.575,151.829 284.062,152.87 284.364,153.544C285.328,155.691 286.354,156.959 286.721,157.326C287.571,158.177 289.886,160.889 290.388,161.48C290.797,165.427 294.137,168.509 298.192,168.509C302.523,168.509 306.039,164.993 306.039,160.662C306.039,158.421 305.374,156.053 304.108,153.792C302.696,151.27 300.388,148.819 298.706,147.119C297.751,144.888 294.307,136.968 292.196,133.918C290.426,131.361 288.374,130.007 286.923,129.462C283.548,128.196 280.496,128.763 277.836,131.422C276.667,132.592 275.621,134.876 275.35,135.494C273.51,139.124 262.397,147.849 262.042,148.204C261.326,148.92 260.569,149.694 259.846,150.441C259.17,149.882 258.449,149.338 257.692,148.815C255.594,147.364 253.157,146.073 251.391,144.893C250.553,142.414 248.732,137.226 247.483,135.083C245.865,132.306 243.734,130.947 242.244,130.411C239.183,129.31 236.174,129.65 233.415,132.409C231.934,133.89 229.833,138.18 228.013,143.483C227.315,145.516 226.228,148.23 225.228,150.636C224.111,148.551 223.047,146.22 221.992,143.862C218.794,136.718 215.431,129.526 211.953,125.554ZM124.967,290.259C125.481,293.803 125.814,297.386 125.968,301.01C126.143,305.361 119.95,322.928 133.599,317.278C133.645,317.258 133.691,317.242 133.739,317.229C134.282,317.078 134.842,317.366 134.982,317.867C134.993,317.908 135.002,317.95 135.007,317.993C136.02,325.456 131.358,333.004 140.236,337.326C143.526,338.923 145.491,337.688 146.133,333.622C147.545,324.452 150.345,304.14 136.088,303.726C135.35,303.711 134.724,303.136 134.623,302.379C133.607,295.665 131.427,289.368 128.082,283.489C127.461,282.407 126.49,281.772 125.698,281.93L120.489,282.843C119.907,282.958 119.11,282.226 118.61,281.115C110.751,264.005 108.55,265.522 112.007,285.664C112.652,289.344 114.437,291.249 117.362,291.378C118.344,291.428 119.195,291.221 119.719,290.805C120.88,289.907 122.17,289.289 123.589,288.951C123.604,288.948 123.618,288.945 123.633,288.942C124.215,288.837 124.815,289.417 124.961,290.226C124.963,290.237 124.965,290.248 124.967,290.259ZM47.364,104.806C39.618,128.603 33.855,167.84 48.848,188.775C49.572,189.753 49.886,189.617 49.792,188.369C48.182,165.446 51.398,143.289 59.441,121.898C59.846,120.829 59.847,119.768 59.443,119.013L51.793,104.618C49.985,101.213 48.509,101.275 47.364,104.806ZM348.395,317.34C348.395,315.906 345.119,307.972 343.675,305.148C342.501,302.851 341.199,300.971 340.174,299.946C337.39,297.161 335.794,293.134 334.241,288.944C332.175,283.365 330.366,277.455 327.824,272.371C321.432,259.586 311.021,243.396 303.722,227.809C299.382,218.541 296.076,209.57 296.076,201.844C296.076,197.513 292.56,193.997 288.23,193.997C283.899,193.997 280.383,197.513 280.383,201.844C280.383,211.512 284.079,222.865 289.51,234.464C296.867,250.175 307.344,266.502 313.787,279.389C316.61,285.035 318.38,291.811 320.852,297.801C322.921,302.815 325.458,307.342 328.868,310.831C329.119,311.381 332.956,319.795 333.432,320.745C335.764,325.39 339.917,325.224 340.652,325.214C342.982,325.18 345.059,324.307 346.7,322.231C347.318,321.449 348.395,319.964 348.395,317.34ZM358.266,276.867C358.266,274.955 351.604,262.834 349.216,256.835C347.753,253.162 346.421,249.599 346.421,247.252C346.421,242.922 342.905,239.406 338.574,239.406C334.243,239.406 330.728,242.922 330.728,247.252C330.728,250.181 331.64,254.333 333.194,258.79C336.251,267.56 341.633,277.855 343.346,280.515C346.035,284.689 349.778,284.713 350.42,284.713C354.751,284.713 358.266,281.197 358.266,276.867ZM257.408,223.882C255.347,220.969 251.488,216.527 247.817,214.897C243.334,212.907 238.976,213.348 235.298,217.025C229.037,223.286 224.844,233.595 222.98,245.444C220.427,261.669 222.03,280.767 226.493,294.155C227.862,298.264 232.31,300.487 236.418,299.118C240.527,297.748 242.75,293.301 241.381,289.193C237.597,277.84 236.318,261.641 238.483,247.883C239.46,241.674 241.045,235.946 243.651,231.668C244.153,232.247 260.478,259.495 260.809,260.703C261.207,262.158 268.221,277.452 270.522,280.91C271.885,282.957 273.234,284.115 273.828,284.509C277.432,286.904 280.453,285.871 282.345,284.737C283.909,283.799 286.205,281.975 286.205,277.854C286.205,275.453 274.555,248.147 272.061,245.653C268.176,241.768 258.539,224.382 257.408,223.882Z"/>
    </g>
</svg>
