<?xml version="1.0" encoding="UTF-8" standalone="no"?><!DOCTYPE svg PUBLIC "-//W3C//DTD SVG 1.1//EN" "http://www.w3.org/Graphics/SVG/1.1/DTD/svg11.dtd"><svg width="100%" height="100%" viewBox="0 0 30 30" version="1.1" xmlns="http://www.w3.org/2000/svg" xmlns:xlink="http://www.w3.org/1999/xlink" xml:space="preserve" xmlns:serif="http://www.serif.com/" style="fill-rule:evenodd;clip-rule:evenodd;stroke-linejoin:round;stroke-miterlimit:2;"><path d="M19.251,-0l10.749,29.397l0,0.603l-0.353,-0l-29.647,-10.84l0,-19.16l19.251,-0Zm-1.605,20.468l-0.785,0.341l-0.329,0.143l0.284,0.636l1.932,-0.84l1.401,0.356l-0.921,0.898l-2.235,0.222l0.062,0.693l1.373,-0.136l-1.233,1.201l0.547,0.533l1.151,-1.122l-0.099,0.83l-0.042,0.347l0.711,0.07l0.245,-2.041l0.989,-0.962l0.334,1.249l-0.911,1.915l0.648,0.285l0.546,-1.146l0.426,1.591l0.755,-0.203l-0.433,-1.613l0.759,0.539l0.288,0.204l0.427,-0.565l-1.762,-1.252l-0.323,-1.207l1.38,0.351l1.185,1.632l0.586,-0.408l-0.688,-0.949l1.535,0.39l0.208,-0.735l-1.692,-0.43l0.951,-0.413l0.329,-0.143l-0.283,-0.636l-2.099,0.912l-1.204,-0.306l1.065,-1.037l2.061,-0.205l-0.062,-0.694l-1.199,0.119l1.089,-1.061l-0.547,-0.533l-1.203,1.172l0.121,-1.002l0.041,-0.347l-0.711,-0.071l-0.265,2.214l-0.938,0.913l-0.366,-1.369l0.913,-1.918l-0.649,-0.286l-0.547,1.149l-0.394,-1.471l-0.755,0.203l0.399,1.489l-0.756,-0.538l-0.287,-0.204l-0.428,0.566l1.759,1.25l0.357,1.331l-1.308,-0.333l-1.287,-1.773l-0.587,0.409l0.791,1.089l-1.607,-0.408l-0.208,0.735l1.495,0.38Zm-13.458,-7.787c-0.5,0.676 -1.038,1.403 -1.038,1.403l-0.436,0.588l1.15,0.835l2.559,-3.456l2.839,-0.8l-0.713,2.527l-3.723,2.673l0.817,1.163l2.287,-1.643l-0.953,3.382l1.51,0.383l0.891,-3.158c0.323,0.754 0.671,1.568 0.671,1.568l0.28,0.655l1.329,-0.601l-1.65,-3.856l0.764,-2.71l1.867,1.867l0.342,4.313l1.438,-0.157l-0.205,-2.581l2.375,2.375l1.128,-1.127l-2.411,-2.411l1.892,0.179l0.716,0.068l0.179,-1.436l-4.391,-0.415l-1.802,-1.802l2.796,-0.789l3.759,1.676l0.62,-1.32l-2.185,-0.974l3.111,-0.878l-0.383,-1.511l-3.428,0.967c0.547,-0.739 1.26,-1.701 1.26,-1.701l0.435,-0.588l-1.15,-0.835l-2.779,3.754l-2.44,0.688l0.824,-2.92l3.434,-2.465l-0.818,-1.163l-1.998,1.434l0.843,-2.988l-1.511,-0.383l-0.93,3.298l-0.809,-1.893l-0.281,-0.656l-1.328,0.601l1.788,4.182l-0.724,2.57l-2.045,-2.045l-0.343,-4.321l-1.437,0.157l0.205,2.589l-2.198,-2.197l-1.127,1.127l2.225,2.225c-0.867,-0.082 -1.885,-0.179 -1.885,-0.179l-0.716,-0.067l-0.179,1.436l4.384,0.414l1.988,1.988l-2.651,0.748l-4.083,-1.821l-0.62,1.32l2.509,1.119l-3.257,0.919l0.384,1.51l3.028,-0.854Zm21.136,13.752l-0.235,0.317l0.184,0.133l0.408,-0.551l0.452,-0.127l-0.113,0.403l-0.594,0.426l0.13,0.185l0.365,-0.262l-0.152,0.539l0.241,0.061l0.142,-0.503l0.151,0.354l0.212,-0.095l-0.263,-0.615l0.122,-0.432l0.298,0.297l0.054,0.688l0.229,-0.025l-0.032,-0.411l0.378,0.378l0.18,-0.179l-0.384,-0.385l0.301,0.029l0.114,0.011l0.029,-0.229l-0.7,-0.066l-0.287,-0.288l0.445,-0.125l0.6,0.267l0.099,-0.211l-0.349,-0.155l0.496,-0.14l-0.061,-0.241l-0.546,0.154l0.27,-0.365l-0.184,-0.133l-0.442,0.599l-0.389,0.109l0.131,-0.465l0.547,-0.393l-0.13,-0.185l-0.319,0.228l0.135,-0.476l-0.241,-0.061l-0.148,0.526l-0.129,-0.302l-0.045,-0.105l-0.212,0.096l0.285,0.667l-0.115,0.409l-0.326,-0.326l-0.055,-0.688l-0.229,0.025l0.033,0.412l-0.351,-0.35l-0.179,0.18l0.354,0.354l-0.414,-0.039l-0.029,0.229l0.699,0.066l0.317,0.317l-0.423,0.119l-0.65,-0.29l-0.099,0.21l0.4,0.179l-0.519,0.146l0.061,0.241l0.482,-0.136Z"/><g><path d="M5.682,23.718l-2.411,2.746l-1.243,-2.716l3.654,-0.03Z"/></g><g><path d="M25.426,0.879l-2.411,2.745l-1.243,-2.715l3.654,-0.03Z"/></g><g><path d="M8.092,23.546l1.57,1.614l-2.984,0.139l1.414,-1.753Z"/></g><g><path d="M1.618,20.133l1.013,1.606l-1.873,0.088l0.86,-1.694Z"/></g><g><path d="M25.418,5.014l1.013,1.606l-1.873,0.087l0.86,-1.693Z"/></g></svg>