<?xml version="1.0" encoding="UTF-8" standalone="no"?>
<!DOCTYPE svg PUBLIC "-//W3C//DTD SVG 1.1//EN" "http://www.w3.org/Graphics/SVG/1.1/DTD/svg11.dtd">
<svg width="100%" height="100%" viewBox="0 0 30 30" version="1.1" xmlns="http://www.w3.org/2000/svg" xmlns:xlink="http://www.w3.org/1999/xlink" xml:space="preserve" xmlns:serif="http://www.serif.com/" style="fill-rule:evenodd;clip-rule:evenodd;stroke-linejoin:round;stroke-miterlimit:2;">
    <g transform="matrix(1,0,0,1,-0.40022,0.355752)">
        <g transform="matrix(1.36078,0,0,1.12127,-7.61734,4.19637)">
            <path d="M6.107,2.258C5.977,2.91 7.223,3.825 7.895,4.478C12.998,5.996 17.428,6.248 22.337,6.318C22.337,6.318 12.557,4.83 6.107,2.258Z"/>
        </g>
        <g transform="matrix(1.10242,0.204706,-0.204706,1.10242,2.11961,-5.92786)">
            <path d="M12.827,23.986C14.931,23.25 16.99,23.098 19.016,23.391C19.016,23.391 17.392,26.673 22.276,26.917C26.68,27.138 14.783,29.602 12.827,23.986Z"/>
        </g>
        <g transform="matrix(1.44096,0,0,1.17825,-6.28291,3.80303)">
            <path d="M11.902,11.598C11.883,11.759 16.83,14.646 19.499,14.843C21.043,14.957 18.418,16.676 17.055,16.287C15.283,15.781 13.299,15.578 12.292,15.676C12.606,15.052 13.638,13.677 11.902,11.598Z"/>
        </g>
        <g transform="matrix(1.36078,0,0,1.12127,-4.60111,4.84668)">
            <path d="M10.938,3.597C10.938,3.597 17.497,3.056 21.555,2.621C20.023,3.435 19.883,4.329 20.636,5.513L10.938,3.597Z"/>
        </g>
        <g transform="matrix(1.03858,0,0,1.03858,-0.176252,-0.929239)">
            <path d="M8.468,13.555C7.747,12.459 6.719,11.353 5.359,10.834C5.359,10.834 15.73,12.667 23.022,12.298C24.071,12.969 24.733,13.797 25.052,14.692L29.269,17.203L26.967,21.222C28.63,23.444 27.662,23.628 27.662,23.628C27.662,23.628 26.323,21.717 26.085,21.875C25.54,22.238 27.364,24.78 26.438,24.305C25.513,23.83 25.348,22.105 24.977,22.594C24.606,23.082 24.992,24.56 24.992,24.56C24.992,24.56 25.555,25.295 24.441,23.966C23.327,22.638 24.512,21.351 24.512,21.351L26.202,18.823L24.713,18.219C24.188,19.241 23.311,20.207 22.144,20.997C22.144,20.997 17.768,20.169 14.167,18.962C12.692,18.468 11.029,17.602 10.219,16.869L8.199,19.981L4.854,20.589C4.781,23.782 3.774,23.261 3.774,23.261C3.774,23.261 3.919,20.58 3.592,20.554C2.84,20.494 2.685,24.092 2.184,23.005C1.684,21.917 2.761,20.238 2.078,20.417C1.395,20.596 0.694,22.207 0.694,22.207C0.694,22.207 0.682,23.273 0.617,21.279C0.553,19.284 2.54,18.961 2.54,18.961L5.866,17.873L8.468,13.555ZM15.782,16.232C14.725,16.188 13.852,16.504 13.834,16.937C13.816,17.37 14.783,17.077 15.84,17.121C16.897,17.165 17.646,17.53 17.664,17.097C17.682,16.664 16.839,16.276 15.782,16.232ZM12.242,13.462C11.579,13.204 10.919,13.306 10.77,13.69C10.621,14.073 11.039,14.593 11.702,14.851C12.366,15.109 13.026,15.007 13.175,14.624C13.323,14.24 12.906,13.72 12.242,13.462ZM19.63,13.449C18.83,13.76 18.326,14.388 18.506,14.85C18.686,15.313 19.481,15.436 20.281,15.125C21.082,14.814 21.585,14.186 21.406,13.724C21.226,13.261 20.431,13.138 19.63,13.449Z"/>
        </g>
        <g transform="matrix(1.03858,0,0,1.03858,-1.3804,-0.929239)">
            <path d="M4.844,3.555C3.997,4.401 1.568,5.654 1.956,6.414L11.107,9.127L26.6,7.792C26.6,7.792 8.467,4.859 4.844,3.555Z"/>
        </g>
        <g transform="matrix(1.03858,0,0,1.03858,-1.92227,-0.748618)">
            <path d="M12.512,4.507L30,4.054C30.117,4.995 27.524,5.911 27.062,7.045L12.512,4.507Z"/>
        </g>
        <g transform="matrix(1.03858,0,0,1.03858,-1.3804,-0.929239)">
            <path d="M5.348,3.098C7.261,2.388 8.016,1.677 8.971,0.967C13.101,2.678 17.997,3.726 23.029,3.633L11.29,4.039L5.348,3.098Z"/>
        </g>
    </g>
</svg>
