<?xml version="1.0" encoding="UTF-8" standalone="no"?><!DOCTYPE svg PUBLIC "-//W3C//DTD SVG 1.1//EN" "http://www.w3.org/Graphics/SVG/1.1/DTD/svg11.dtd"><svg width="100%" height="100%" viewBox="0 0 30 30" version="1.1" xmlns="http://www.w3.org/2000/svg" xmlns:xlink="http://www.w3.org/1999/xlink" xml:space="preserve" xmlns:serif="http://www.serif.com/" style="fill-rule:evenodd;clip-rule:evenodd;stroke-linejoin:round;stroke-miterlimit:2;"><path d="M11.297,24.261c-1.936,-0.978 -3.164,-2.635 -4.217,-4.925c-1.649,-3.588 -1.901,-9.588 -1.138,-10.013c0.168,1.29 0.5,1.959 0.983,2.064c0.422,-9.29 5.15,-10.711 5.891,-10.972c-2.796,1.98 -0.863,7.075 0.508,3.885c1.747,-4.064 4.97,-3.561 4.97,-3.561c-1.357,0.729 -1.479,3.865 -0.041,5.029c1.711,1.384 2.374,-1.901 2.374,-1.901c2.475,2.317 0.121,4.537 1.475,6.424c1.151,1.607 1.496,-3.176 1.496,-3.176c1.525,2.553 0.892,5.53 0.275,7.079c-1.838,4.611 0.193,2.206 0.193,2.206c-0.38,3.107 -1.874,6.015 -3.796,7.343c-3.869,2.673 -7.756,1.132 -8.973,0.518Zm0.303,-5.571c0.987,0.55 2.282,2.619 2.282,2.619c0,0 0.103,0.117 -0.088,-2.413c-0.192,-2.531 -2.577,-2.316 -3.038,-1.993c-1.996,1.397 -0.14,1.239 0.844,1.787Zm8.66,0.382c0.864,-0.678 2.237,-0.529 0.833,-1.485c-0.375,-0.255 -2.297,-0.433 -2.451,1.609c-0.154,2.041 -0.071,1.946 -0.071,1.946c0,0 0.809,-1.38 1.689,-2.07Z"/><g><path d="M6.57,30c0.163,-2.028 1.791,-3.81 3.748,-4.919c1.328,0.752 2.952,1.195 4.706,1.195c1.753,-0 3.377,-0.443 4.705,-1.195c1.956,1.109 3.482,2.891 3.634,4.919l-2.164,0c-0.149,-0.657 -0.297,-1.223 -0.417,-1.182c-0.111,0.038 -0.174,0.556 -0.228,1.182l-10.86,0c-0.001,-0.784 -0.012,-1.469 -0.102,-1.497c-0.127,-0.04 -0.32,0.693 -0.515,1.497l-2.507,-0Z"/></g></svg>