<?xml version="1.0" encoding="UTF-8" standalone="no"?><!DOCTYPE svg PUBLIC "-//W3C//DTD SVG 1.1//EN" "http://www.w3.org/Graphics/SVG/1.1/DTD/svg11.dtd"><svg width="100%" height="100%" viewBox="0 0 30 30" version="1.1" xmlns="http://www.w3.org/2000/svg" xmlns:xlink="http://www.w3.org/1999/xlink" xml:space="preserve" xmlns:serif="http://www.serif.com/" style="fill-rule:evenodd;clip-rule:evenodd;stroke-linejoin:round;stroke-miterlimit:2;"><g><circle cx="23.632" cy="10.048" r="1.779"/></g><g><path d="M10.309,14.837c-2.193,-1.343 -3.208,-8.31 0.831,-11.458c0.695,-0.541 -0.124,-1.921 -1.026,-1.806c-0.8,0.101 -1.196,0.354 -1.821,0.947c-4.098,3.882 -0.518,12.36 2.016,12.317Z"/></g><g><path d="M22.76,14.593c-0,-0 -0.779,1.361 -3.278,0.999c-2.499,-0.36 -2.165,-2.721 -2.137,-3.221c0.027,-0.5 -0.223,-1.777 -1.445,-1.749c-1.222,0.028 -1.638,0.861 -1.666,1.555c-0.027,0.694 -0.167,2.444 1.86,3.665c2.028,1.222 4.999,1.444 6.666,-1.249Z"/></g><g><path d="M9.667,15.89c-0.305,0.098 -2.547,-2.434 -3.606,-4.517c-0.307,-0.603 -1.229,-0.557 -1.738,-0.106c-0.509,0.45 -0.44,1.147 -0.107,1.738c1.12,1.986 5.37,3.179 5.451,2.885Z"/></g><g><path d="M14.452,17.241c-0.247,0.14 -2.033,-0.373 -3.223,-1.053c-0.344,-0.197 -0.781,0.122 -0.886,0.507c-0.105,0.385 0.154,0.704 0.507,0.887c1.189,0.613 3.657,-0.149 3.602,-0.341Z"/></g><g><path d="M16.585,1.671c2.753,0.09 6.044,2.088 6.447,4.554c0.122,0.752 1.052,1.207 1.642,0.705c0.59,-0.501 0.639,-1.227 0.224,-2.373c-1.123,-3.098 -8.116,-3.76 -8.313,-2.886Z"/></g><g><path d="M0,19.261c1.932,-0.143 4.829,-0.471 7.081,-1.207c-0,-0 0.692,0.173 1.588,0.406c1.082,0.282 2.46,0.651 3.273,0.91l7.528,0.54l1.249,2.228c-0,0 -1.043,0.209 -3.752,0.599c-0.608,0.088 -1.301,0.184 -2.085,0.29c-1.165,0.157 -2.531,0.334 -4.122,0.529c0,0 2.194,1.857 7.629,0.439c5.436,-1.418 9.014,-4.828 9.014,-4.828l2.262,1.857c-0,0 -7.393,6.212 -12.727,7.967c-0,0 -3.653,0.738 -5.469,0.506c-2.889,-0.368 -4.827,-3.172 -11.469,-3.059l0,-7.177Z"/><g><path d="M22.002,21.294l-0.979,-1.148l4.658,-2.464l1.283,0.675l-4.962,2.937Z"/></g><g><path d="M21.065,19.178l3.008,-1.544l-0.912,-0.636l-1.615,0.756c-0.107,0.497 -0.27,0.974 -0.481,1.424Z"/></g></g><g><path d="M12.62,1.726c0.377,-0.782 1.808,-1.48 2.056,-0.608c-0,0 0.507,1.104 -2.056,0.608Z"/></g><g><path d="M16.05,16.935c-3.029,-0.778 -3.136,-0.805 -4.57,-1.939c-1.443,-1.141 -3.345,-6.194 -0.95,-9.063c2.394,-2.869 4.947,-2.889 6.589,-2.632c1.642,0.258 4.393,2.454 3.562,4.65c-0.831,2.197 -1.801,2.236 -5.026,1.762c-3.226,-0.475 -3.443,1.939 -3.443,1.939c-0.297,3.799 3.838,5.283 3.838,5.283Z"/></g></svg>