<?xml version="1.0" encoding="UTF-8" standalone="no"?>
<!DOCTYPE svg PUBLIC "-//W3C//DTD SVG 1.1//EN" "http://www.w3.org/Graphics/SVG/1.1/DTD/svg11.dtd">
<svg width="100%" height="100%" viewBox="0 0 30 30" version="1.1" xmlns="http://www.w3.org/2000/svg" xmlns:xlink="http://www.w3.org/1999/xlink" xml:space="preserve" xmlns:serif="http://www.serif.com/" style="fill-rule:evenodd;clip-rule:evenodd;stroke-linejoin:round;stroke-miterlimit:2;">
    <g transform="matrix(-5.01102e-17,-0.818361,-0.818361,5.01102e-17,26.173,29.1592)">
        <g transform="matrix(-7.48231e-17,-1.22195,-1.22195,7.48231e-17,35.6313,31.9822)">
            <path d="M3.774,16.979C3.155,15.779 10.104,21.064 8.032,18.532C5.961,16.001 0.356,9.372 2.449,10.04C3.507,10.377 9.157,15.16 6.955,12.514C4.322,9.349 -0.255,4.072 0.629,3.274C1.454,2.53 13.83,14.259 13.658,13.166C13.485,12.072 2.533,0.991 3.379,1.222C3.989,1.388 8.553,5.246 11.258,7.576C13.57,9.568 15.66,10.399 14.199,8.551C12.428,6.31 9.593,4.034 10.046,3.572C10.45,3.161 18.535,9.124 20.399,12.77C22.34,16.566 21.885,20.015 20.235,21.982C18.62,23.906 16.781,24.771 13.77,24.255C9.139,23.462 4.339,18.071 3.774,16.979ZM16.097,18.772C14.531,20.051 11.381,18.79 12.66,20.356C13.939,21.922 16.249,22.156 17.816,20.877C19.382,19.598 19.615,17.288 18.336,15.721C17.057,14.155 17.663,17.493 16.097,18.772Z"/>
        </g>
        <g transform="matrix(1.72262,-0.439594,-0.439594,-1.72262,0.362078,48.8842)">
            <path d="M21.594,23.594C8.437,30.111 4.375,19.629 4.375,19.629C6.887,22.964 14.194,25.653 19.922,20.688L19.085,19.235L23.664,20.469L22.43,25.047L21.594,23.594Z"/>
        </g>
    </g>
    <g transform="matrix(7.87013e-17,-1.28529,1.28529,7.87013e-17,-3.6535,37.5922)">
        <circle cx="9.142" cy="11.42" r="0.653"/>
    </g>
    <g transform="matrix(1.5326e-16,-2.50293,2.50293,1.5326e-16,-24.5189,45.7993)">
        <circle cx="9.142" cy="11.42" r="0.653"/>
    </g>
    <g transform="matrix(1.44427e-16,-2.35867,2.35867,1.44427e-16,-9.46594,26.6855)">
        <circle cx="9.142" cy="11.42" r="0.653"/>
    </g>
    <g transform="matrix(7.96839e-17,-1.30134,1.30134,7.96839e-17,5.24953,14.178)">
        <circle cx="9.142" cy="11.42" r="0.653"/>
    </g>
    <g transform="matrix(4.77677e-17,-0.780106,0.780106,4.77677e-17,5.49768,9.61733)">
        <circle cx="9.142" cy="11.42" r="0.653"/>
    </g>
    <g transform="matrix(6.62751e-17,-1.08235,1.08235,6.62751e-17,-6.41189,37.6349)">
        <circle cx="9.142" cy="11.42" r="0.653"/>
    </g>
</svg>
