<?xml version="1.0" encoding="UTF-8" standalone="no"?>
<!DOCTYPE svg PUBLIC "-//W3C//DTD SVG 1.1//EN" "http://www.w3.org/Graphics/SVG/1.1/DTD/svg11.dtd">
<svg width="100%" height="100%" viewBox="0 0 30 30" version="1.1" xmlns="http://www.w3.org/2000/svg" xmlns:xlink="http://www.w3.org/1999/xlink" xml:space="preserve" xmlns:serif="http://www.serif.com/" style="fill-rule:evenodd;clip-rule:evenodd;stroke-linejoin:round;stroke-miterlimit:2;">
    <g transform="matrix(0.00683615,0,0,0.00683615,21.3912,-2.35683)">
        <path d="M915.865,1313.67L985.385,1489.94L1161.65,1559.46L985.385,1628.98L915.865,1805.25L846.344,1628.98L670.074,1559.46L846.344,1489.94L915.865,1313.67Z"/>
    </g>
    <g transform="matrix(0.0478669,0.0478669,-0.0478669,0.0478669,7.52331,-63.9493)">
        <path d="M995.338,574.67L1074.68,654.011L982.115,746.576L1074.68,839.141L995.338,918.482L902.773,825.917L810.209,918.482L730.867,839.141L823.432,746.576L730.867,654.011L810.209,574.67L902.773,667.235L995.338,574.67Z"/>
    </g>
    <g transform="matrix(0.00985286,0,0,0.00996924,16.5103,8.63039)">
        <path d="M915.865,1313.67L985.385,1489.94L1161.65,1559.46L985.385,1628.98L915.865,1805.25L846.344,1628.98L670.074,1559.46L846.344,1489.94L915.865,1313.67Z"/>
    </g>
    <g transform="matrix(0.0107749,0,0,0.0107749,12.7359,-13.9403)">
        <path d="M915.865,1313.67L985.385,1489.94L1161.65,1559.46L985.385,1628.98L915.865,1805.25L846.344,1628.98L670.074,1559.46L846.344,1489.94L915.865,1313.67Z"/>
    </g>
    <g transform="matrix(0.0109826,0,0,0.0109826,-5.81355,7.9939)">
        <path d="M915.865,1313.67L985.385,1489.94L1161.65,1559.46L985.385,1628.98L915.865,1805.25L846.344,1628.98L670.074,1559.46L846.344,1489.94L915.865,1313.67Z"/>
    </g>
    <g transform="matrix(0.00772818,0,0,0.00772818,-1.48362,-7.69201)">
        <path d="M915.865,1313.67L985.385,1489.94L1161.65,1559.46L985.385,1628.98L915.865,1805.25L846.344,1628.98L670.074,1559.46L846.344,1489.94L915.865,1313.67Z"/>
    </g>
    <g transform="matrix(0.0107245,0,0,0.0107245,0.794789,5.34935)">
        <circle cx="612.027" cy="1596.39" r="39.431"/>
    </g>
    <g transform="matrix(0.0119601,0,0,0.0119601,-4.52637,-10.7878)">
        <circle cx="612.027" cy="1596.39" r="39.431"/>
    </g>
    <g transform="matrix(0.0123042,0,0,0.0123042,19.9549,8.30826)">
        <circle cx="612.027" cy="1596.39" r="39.431"/>
    </g>
</svg>
