<?xml version="1.0" encoding="UTF-8" standalone="no"?><!DOCTYPE svg PUBLIC "-//W3C//DTD SVG 1.1//EN" "http://www.w3.org/Graphics/SVG/1.1/DTD/svg11.dtd"><svg width="100%" height="100%" viewBox="0 0 30 30" version="1.1" xmlns="http://www.w3.org/2000/svg" xmlns:xlink="http://www.w3.org/1999/xlink" xml:space="preserve" xmlns:serif="http://www.serif.com/" style="fill-rule:evenodd;clip-rule:evenodd;stroke-linejoin:round;stroke-miterlimit:2;"><g><path d="M0,9.54l3.518,1.281c-0.57,1.299 -1.032,2.7 -1.368,4.179l-2.15,0l0,-5.46Zm0,10.92l1.527,-0.556c-0.009,0.284 -0.013,0.569 -0.013,0.856c-0,1.779 0.175,3.501 0.502,5.135l-2.016,1.691l0,-7.126Zm30,7.127l-1.535,-1.289c0.381,-1.753 0.587,-3.612 0.587,-5.538c-0,-0.217 -0.003,-0.433 -0.008,-0.648l0.956,0.348l0,7.127Zm0,-12.587l-1.585,0c-0.351,-1.547 -0.84,-3.008 -1.446,-4.356l3.031,-1.104l0,5.46Zm0,-12.586l-5.276,4.427c-0.402,-0.526 -0.826,-1.019 -1.271,-1.474c-0.608,-0.624 -1.255,-1.18 -1.933,-1.659l2.14,-3.708l6.34,0l0,2.414Zm-12.355,-2.414l-0.326,1.847c-0.665,-0.136 -1.345,-0.207 -2.036,-0.207c-0.882,-0 -1.744,0.115 -2.58,0.335l-0.348,-1.975l5.29,0Zm-11.305,0l2.309,4c-0.535,0.408 -1.048,0.866 -1.537,1.367c-0.526,0.539 -1.023,1.129 -1.489,1.765l-5.623,-4.718l0,-2.414l6.34,0Zm-2.206,11.045l1.406,0.512c-0.516,1.065 -0.945,2.22 -1.273,3.443l-1.445,0c0.327,-1.399 0.769,-2.725 1.312,-3.955Zm4.846,-6.472l0.91,1.577c-0.916,0.662 -1.761,1.488 -2.517,2.45l-1.246,-1.046c0.454,-0.623 0.94,-1.202 1.454,-1.729c0.446,-0.457 0.913,-0.876 1.399,-1.252Zm-6.788,15.089l1.388,-0.505c-0.037,0.527 -0.056,1.062 -0.056,1.603c0,1.247 0.1,2.461 0.288,3.628l-1.221,1.025c-0.275,-1.487 -0.421,-3.046 -0.421,-4.653c-0,-0.369 0.007,-0.735 0.022,-1.098Zm15.013,-17.168l-0.348,1.973c-0.515,-0.097 -1.04,-0.147 -1.574,-0.147c-0.724,0 -1.432,0.092 -2.119,0.267l-0.346,-1.964c0.798,-0.215 1.622,-0.327 2.465,-0.327c0.653,-0 1.295,0.067 1.922,0.198Zm7.016,4.768l-1.257,1.055c-0.809,-0.977 -1.714,-1.803 -2.693,-2.446l0.919,-1.592c0.629,0.448 1.229,0.966 1.794,1.546c0.433,0.444 0.846,0.924 1.237,1.437Zm3.675,18.559l-1.214,-1.018c0.235,-1.294 0.359,-2.648 0.359,-4.043c0,-0.469 -0.014,-0.933 -0.042,-1.393l1.382,0.503c0.01,0.295 0.015,0.592 0.015,0.89c-0,1.754 -0.175,3.452 -0.5,5.061Zm-0.153,-10.821l-1.445,0c-0.346,-1.29 -0.804,-2.504 -1.359,-3.618l1.413,-0.514c0.579,1.28 1.049,2.666 1.391,4.132Z"/></g><g><g><path d="M17.971,12.624c0.017,0.158 0.059,0.399 0.125,0.722c0.047,0.228 -0.133,0.238 -0.276,0.146c-0.402,-0.257 -0.913,-0.426 -1.242,-0.638c-0.522,-0.337 -0.859,-0.722 -1.19,-1.268c-0.155,-0.255 -0.334,-0.521 -0.443,-0.779c-0.642,-1.524 -0.017,-3.043 1.374,-3.855c0.263,-0.153 0.549,-0.253 0.856,-0.3c1.967,-0.302 3.281,1.122 3.734,2.895c0.081,0.319 0.133,0.755 0.156,1.307c0.039,0.945 0.083,1.889 -0.186,2.807c-0.007,0.021 -0.012,0.021 -0.016,-0.001c-0.153,-0.722 -0.513,-1.318 -1.078,-1.788c-0.003,-0.003 -0.007,-0.005 -0.011,-0.008c-0.033,-0.018 -0.075,-0.005 -0.093,0.028c-0.002,0.003 -0.004,0.008 -0.005,0.012c-0.101,0.315 -0.157,0.642 -0.171,0.981c-0,0.023 -0.009,0.043 -0.024,0.056c-0.076,0.066 -0.166,0.062 -0.243,-0.008c-0.171,-0.151 -0.359,-0.275 -0.566,-0.37c-0.22,-0.102 -0.449,-0.035 -0.672,0.02c-0.018,0.005 -0.031,0.022 -0.029,0.041Z" style="fill-rule:nonzero;"/></g><g><path d="M8.346,15.451c-0.028,-0.1 -0.063,-0.102 -0.105,-0.008c-0.036,0.079 -0.366,1.165 -0.541,0.667c-0.344,-0.975 -0.117,-1.975 0.026,-2.881c0.281,-1.777 2.072,-2.915 3.778,-2.257c0.966,0.372 1.642,1.227 1.773,2.259c0.168,1.325 -0.603,2.736 -1.589,3.582c-0.188,0.161 -0.351,0.401 -0.581,0.546c-0.093,0.058 -0.154,0.035 -0.183,-0.071c-0.075,-0.27 -0.112,-0.637 -0.264,-0.867c-0.011,-0.017 -0.032,-0.024 -0.05,-0.018c-0.091,0.03 -0.152,0.072 -0.183,0.126c-0.371,0.648 -0.735,1.301 -1.091,1.958c-0.022,0.04 -0.044,0.04 -0.065,-0.001c-0.499,-0.967 -0.655,-2.088 -0.925,-3.035Z" style="fill-rule:nonzero;"/></g><g><path d="M13.976,28.508c-0.08,0.091 -1.51,-0.843 -1.888,-1.554c-0.423,-0.796 -0.922,-2.158 1.276,-3.821c0.839,-0.634 2.348,-0.962 2.925,-1.182c0.9,-0.342 1.811,-0.737 2.416,-1.484c0.594,-0.733 0.798,-1.832 0.705,-2.584c-0.153,-1.228 -0.876,-1.823 -1.726,-2.695c-0.203,-0.208 -0.527,-0.468 -0.755,-0.746c-0.014,-0.017 -0.022,-0.038 -0.023,-0.058c-0.012,-0.212 0.146,-0.221 0.303,-0.161c0.548,0.215 1.006,0.279 1.541,0.369c0.243,0.042 0.434,0.109 0.513,-0.158c0.006,-0.022 0.004,-0.045 -0.005,-0.062l-0.145,-0.258c-0.01,-0.019 -0.01,-0.04 0.001,-0.053c0.244,-0.293 0.635,0.35 0.958,0.013c0.013,-0.013 0.033,-0.014 0.046,-0.002c0.263,0.23 0.585,0.426 0.966,0.588c0.07,0.03 0.13,0.016 0.18,-0.041c0.064,-0.073 0.118,-0.165 0.162,-0.276c0.284,-0.705 0.448,-1.437 0.491,-2.193c0.004,-0.071 0.024,-0.076 0.06,-0.015c0.131,0.225 0.269,0.446 0.414,0.662c0.355,0.53 1.709,3.542 1.71,5.1c-0,1.525 -1.176,3.739 -1.708,4.246c-1.156,1.105 -2.491,2.088 -4.258,2.635c-0.722,0.223 -1.511,0.392 -2.133,0.473c-0.961,0.127 -1.819,0.184 -2.265,1.108c-0.312,0.645 -0.107,1.5 0.243,2.094c0.01,0.018 0.009,0.04 -0.004,0.055Z" style="fill-rule:nonzero;"/></g><g><path d="M14.668,16.793c-0.025,-0.02 -0.035,-0.014 -0.03,0.017c0.046,0.261 0.08,0.521 0.13,0.777c0.054,0.272 -0.144,0.159 -0.232,0.075c-0.31,-0.296 -0.581,-0.623 -0.813,-0.98c-0.065,-0.1 -0.057,-0.194 0.024,-0.282c0.135,-0.145 0.269,-0.291 0.403,-0.439c0.31,-0.343 0.391,-0.707 0.521,-1.127c0.001,-0.001 0.001,-0.001 0.001,-0.002c0.015,-0.044 0.063,-0.069 0.108,-0.054c-0,-0 0,-0 0.001,0c0.251,0.088 0.495,0.121 0.729,0.102c0.062,-0.006 0.12,0.034 0.136,0.094c0.271,1.013 0.589,2.283 1.025,3.361c0.017,0.042 0.009,0.106 -0.038,0.117c-0.017,0.004 -0.038,-0.005 -0.056,-0.023c-0.598,-0.596 -1.251,-1.109 -1.909,-1.636Z" style="fill-rule:nonzero;"/></g><g><path d="M8.297,20.094c-0.602,-0.516 -0.959,-1.161 -1.069,-1.932c-0.062,-0.431 -0.078,-0.745 0.075,-1.128c0.013,-0.035 0.028,-0.035 0.043,-0.001c0.487,1.094 1.201,1.896 2.083,2.696c0.103,0.094 0.19,0.08 0.259,-0.039c0.138,-0.234 0.231,-0.452 0.438,-0.662c0.172,-0.175 0.317,-0.359 0.436,-0.552c0.045,-0.076 0.081,-0.071 0.106,0.013c0.046,0.157 0.065,0.789 0.405,0.447c0.617,-0.618 1.059,-1.057 1.327,-1.316c0.083,-0.081 0.14,-0.188 0.223,-0.277c0.429,-0.452 0.181,0.694 0.171,0.764c-0.091,0.596 0.113,1.052 0.611,1.369c0.488,0.31 0.995,0.587 1.522,0.831c0.129,0.06 0.141,0.118 0.033,0.174c-1.04,0.546 -1.999,1.08 -3.131,1.434c-0.021,0.006 -0.042,0.006 -0.063,0.001c-1.298,-0.343 -2.455,-0.95 -3.469,-1.822Z" style="fill-rule:nonzero;"/></g><g><path d="M24.746,19.789c0.009,-0.032 0.019,-0.033 0.029,-0.001c0.203,0.629 0.501,2.162 0.072,2.73c-0.364,0.484 -0.731,0.972 -1.101,1.464c-0.097,0.129 0.106,-1.049 -0.422,-1.502c-0.036,-0.031 1.146,-1.714 1.422,-2.691Z" style="fill-rule:nonzero;"/></g><g><path d="M8.454,23.788c-1.544,-0.545 -2.152,-1.713 -1.983,-3.313c0.015,-0.146 0.084,-0.177 0.205,-0.095c0.077,0.053 0.124,0.273 0.176,0.355c0.21,0.331 0.51,0.638 0.936,0.856c0.512,0.261 0.291,0.926 0.322,1.382c0.008,0.125 0.223,0.491 0.361,0.796c0.009,0.021 0.003,0.027 -0.017,0.019Z" style="fill-rule:nonzero;"/></g><g><path d="M17.451,28.639c0.421,-0.693 -0.763,-2.419 -0.814,-2.537c-0,-0.001 -0.001,-0.001 -0.001,-0.002c-0.005,-0.015 2.508,-0.925 2.519,-0.907c0.435,0.723 0.42,1.92 -0.292,2.538c-0.227,0.197 -0.419,0.441 -0.652,0.598c-0.082,0.055 -0.715,0.463 -0.767,0.367c-0.008,-0.015 -0.006,-0.037 0.007,-0.057Z" style="fill-rule:nonzero;"/></g></g></svg>