<?xml version="1.0" encoding="UTF-8" standalone="no"?><!DOCTYPE svg PUBLIC "-//W3C//DTD SVG 1.1//EN" "http://www.w3.org/Graphics/SVG/1.1/DTD/svg11.dtd"><svg width="100%" height="100%" viewBox="0 0 30 30" version="1.1" xmlns="http://www.w3.org/2000/svg" xmlns:xlink="http://www.w3.org/1999/xlink" xml:space="preserve" xmlns:serif="http://www.serif.com/" style="fill-rule:evenodd;clip-rule:evenodd;stroke-linejoin:round;stroke-miterlimit:2;"><g><path d="M30,-0l0,30l-30,0l0,-30l30,-0Zm-9.693,21.006l-0.508,1.372l-1.372,0.508l1.372,0.508l0.508,1.372l0.508,-1.372l1.372,-0.508l-1.372,-0.508l-0.508,-1.372Zm-12.669,-18.957l-0.832,2.247l-2.246,0.831l2.246,0.832l0.832,2.246l0.831,-2.246l2.247,-0.832l-2.247,-0.831l-0.831,-2.247Zm4.339,20.084l-0.778,2.102l-2.103,0.778l2.103,0.778l0.778,2.103l0.778,-2.103l2.103,-0.778l-2.103,-0.778l-0.778,-2.102Zm-7.839,-1.67c-0.315,0 -0.572,0.257 -0.572,0.572c-0,0.316 0.257,0.572 0.572,0.572c0.316,0 0.572,-0.256 0.572,-0.572c-0,-0.315 -0.256,-0.572 -0.572,-0.572Zm17.881,-14.558l-0.338,0.915l-0.915,0.338l0.915,0.339l0.338,0.914l0.339,-0.914l0.914,-0.339l-0.914,-0.338l-0.339,-0.915Zm3.357,14.638c-0.315,0 -0.571,0.256 -0.571,0.571c-0,0.316 0.256,0.572 0.571,0.572c0.316,0 0.572,-0.256 0.572,-0.572c-0,-0.315 -0.256,-0.571 -0.572,-0.571Zm-0.314,-7.697l-6.019,1.658l-0.61,3.489c7.283,-0.305 6.629,-5.147 6.629,-5.147Zm-10.054,-1.968c-0.316,0 -0.572,0.256 -0.572,0.571c-0,0.316 0.256,0.572 0.572,0.572c0.315,0 0.571,-0.256 0.571,-0.572c-0,-0.315 -0.256,-0.571 -0.571,-0.571Zm-10.07,1.968c-0,0 -0.654,4.842 6.629,5.147l-0.61,-3.489l-6.019,-1.658Z"/></g></svg>