<?xml version="1.0" encoding="UTF-8" standalone="no"?><!DOCTYPE svg PUBLIC "-//W3C//DTD SVG 1.1//EN" "http://www.w3.org/Graphics/SVG/1.1/DTD/svg11.dtd"><svg width="100%" height="100%" viewBox="0 0 30 30" version="1.1" xmlns="http://www.w3.org/2000/svg" xmlns:xlink="http://www.w3.org/1999/xlink" xml:space="preserve" xmlns:serif="http://www.serif.com/" style="fill-rule:evenodd;clip-rule:evenodd;stroke-linejoin:round;stroke-miterlimit:2;"><g><path d="M19.424,12.369l0.584,1.48l1.48,0.584l-1.48,0.583l-0.584,1.48l-0.584,-1.48l-1.48,-0.583l1.48,-0.584l0.584,-1.48Z"/></g><g><path d="M14.892,4.421l0.92,2.333l2.332,0.92l-2.332,0.92l-0.92,2.333l-0.92,-2.333l-2.333,-0.92l2.333,-0.92l0.92,-2.333Z"/></g><g><path d="M11.048,12.898l1.222,3.099l3.099,1.223l-3.099,1.222l-1.222,3.099l-1.222,-3.099l-3.1,-1.222l3.1,-1.223l1.222,-3.099Z"/></g><g><path d="M24.808,30l-4.434,-4.434l0.912,-0.912l-1.102,-1.103c-4.85,3.346 -11.553,2.862 -15.866,-1.452c-4.859,-4.859 -4.859,-12.748 -0,-17.607c4.858,-4.859 12.748,-4.859 17.607,-0c4.314,4.314 4.798,11.016 1.452,15.866l1.102,1.103l0.913,-0.913l4.608,4.608l0,4.844l-5.192,0Zm-19.09,-24.108c-4.086,4.086 -4.086,10.721 0,14.807c4.086,4.085 10.721,4.085 14.806,-0c4.086,-4.086 4.086,-10.721 0,-14.807c-4.086,-4.086 -10.72,-4.086 -14.806,0Z"/></g><g><circle cx="14.591" cy="13.477" r="0.495"/></g><g><circle cx="17.727" cy="19.174" r="0.495"/></g><g><circle cx="20.101" cy="9.678" r="0.495"/></g><g><path d="M5.189,13.414c0.021,0.298 -0.205,0.557 -0.503,0.577c-0.298,0.021 -0.557,-0.204 -0.578,-0.502c0,-0 -0.367,-5.1 4.547,-7.716c0.264,-0.141 0.592,-0.04 0.732,0.223c0.141,0.264 0.041,0.592 -0.223,0.733c-4.268,2.272 -3.975,6.685 -3.975,6.685Z"/></g><g><path d="M7.467,13.404c0.026,0.297 -0.194,0.56 -0.492,0.587c-0.298,0.026 -0.561,-0.195 -0.587,-0.492c0,-0 -0.181,-2.077 1.227,-3.565c0.205,-0.217 0.548,-0.227 0.765,-0.021c0.217,0.205 0.227,0.548 0.021,0.765c-1.075,1.137 -0.934,2.726 -0.934,2.726Z"/></g></svg>