<?xml version="1.0" encoding="UTF-8" standalone="no"?><!DOCTYPE svg PUBLIC "-//W3C//DTD SVG 1.1//EN" "http://www.w3.org/Graphics/SVG/1.1/DTD/svg11.dtd"><svg width="100%" height="100%" viewBox="0 0 30 30" version="1.1" xmlns="http://www.w3.org/2000/svg" xmlns:xlink="http://www.w3.org/1999/xlink" xml:space="preserve" xmlns:serif="http://www.serif.com/" style="fill-rule:evenodd;clip-rule:evenodd;stroke-linejoin:round;stroke-miterlimit:2;"><g><path d="M9.359,15.533c-0.541,-0.781 -0.975,-1.677 -1.276,-2.653c-0.257,-0.93 -0.397,-1.928 -0.397,-2.967c-0,-5.008 3.253,-8.458 7.26,-8.458c4.008,-0 7.261,3.45 7.261,8.458c-0,1.331 -0.23,2.595 -0.643,3.735c-0.271,0.681 -0.609,1.314 -1.006,1.885c0.021,0.013 -2.311,-2.301 -5.704,-2.301c-3.827,-0 -5.482,2.264 -5.495,2.301Zm0,-0c0.001,-0 0.001,-0 0.001,-0c-0.001,0 -0.001,0 -0.001,-0Zm1.189,-7.804l-0.362,0l-0,1.04l0.362,0l0,-1.04Zm0.992,1.541c-1.695,-0 -1.736,1.067 -1.736,1.067c-0,-0 0.041,1.067 1.736,1.067c1.696,-0 1.737,-1.067 1.737,-1.067c0,-0 0.043,-1.067 -1.737,-1.067Zm1.183,-1.541l-0.363,0l0,1.04l0.363,0l-0,-1.04Zm4.96,0l-0.362,0l-0,1.04l0.362,0l0,-1.04Zm1.088,0l-0.363,0l0,1.04l0.363,0l-0,-1.04Zm1.087,0l-0.362,0l-0,1.04l0.362,0l0,-1.04Zm-1.327,1.541c-1.702,-0 -1.737,1.067 -1.737,1.067c-0,-0 0.022,1.067 1.737,1.067c1.714,-0 1.736,-1.067 1.736,-1.067c0,-0 0.037,-1.067 -1.736,-1.067Zm-6.896,-1.541l-0.362,0l0,1.04l0.362,0l0,-1.04Z"/></g><g><path d="M3.032,30c-0.013,-2.82 0.107,-5.733 1.087,-7.682c0.656,-1.304 1.699,-2.019 2.872,-2.551l-0,2.944c-0,1.9 1.623,5.414 5.652,2.058c-0,-0 -0.262,2.801 2.061,2.801c1.391,0 2.339,-0.855 2.339,-1.527c-0,0 0.482,0.443 2.068,0.443c1.586,-0 3.681,-0.585 3.681,-3.543l0,-3.186c1.25,0.627 2.373,1.475 3.057,2.831c0.979,1.94 1.076,4.688 1.05,7.412l-23.867,0Zm6.559,-11.234c0.041,-0.016 0.081,-0.031 0.122,-0.047c0.075,0.129 0.152,0.252 0.231,0.37c-0.119,-0.102 -0.236,-0.209 -0.353,-0.323Z"/></g><g><path d="M7.822,13.976l0,7.502c0,1.712 1.065,4.664 5.22,1.346c-0,0 -0.405,3.126 1.672,3.126c1.725,-0 2.052,-1.298 2.052,-1.948c0,0 0.482,0.698 1.901,0.698c1.419,-0 3.294,-0 3.294,-3.03l-0,-7.646c-0,-0 -1.489,5.778 -7.075,0.192c-0,0 -7.064,5.865 -7.064,-0.24Z"/></g><g><path d="M4.384,1.473l0.987,2.061l2.184,0.93l-2.184,0.931l-0.987,2.06l-0.986,-2.06l-2.185,-0.931l2.185,-0.93l0.986,-2.061Z"/></g><g><path d="M26.638,7.69l0.846,1.742l1.874,0.786l-1.874,0.786l-0.846,1.742l-0.846,-1.742l-1.874,-0.786l1.874,-0.786l0.846,-1.742Z"/></g><g><path d="M4.233,12.828l0.492,1.089l1.088,0.492l-1.088,0.491l-0.492,1.089l-0.492,-1.089l-1.089,-0.491l1.089,-0.492l0.492,-1.089Z"/></g><g><path d="M24.983,2.585l0.44,0.923l0.973,0.417l-0.973,0.417l-0.44,0.923l-0.439,-0.923l-0.973,-0.417l0.973,-0.417l0.439,-0.923Z"/></g></svg>