<?xml version="1.0" encoding="UTF-8" standalone="no"?>
<!DOCTYPE svg PUBLIC "-//W3C//DTD SVG 1.1//EN" "http://www.w3.org/Graphics/SVG/1.1/DTD/svg11.dtd">
<svg width="100%" height="100%" viewBox="0 0 30 30" version="1.1" xmlns="http://www.w3.org/2000/svg" xmlns:xlink="http://www.w3.org/1999/xlink" xml:space="preserve" xmlns:serif="http://www.serif.com/" style="fill-rule:evenodd;clip-rule:evenodd;stroke-linejoin:round;stroke-miterlimit:2;">
    <g transform="matrix(1.13608,0,0,1.13608,-0.839269,-1.96028)">
        <path d="M10.371,5.047C11.252,6.788 11.089,8.721 9.853,9.718C8.365,10.917 5.884,10.31 4.315,8.364C2.746,6.418 2.679,3.864 4.167,2.665C4.963,2.024 6.043,1.899 7.115,2.219C7.083,2.337 7.066,2.462 7.066,2.59C7.066,2.959 7.209,3.294 7.443,3.544C7.059,3.871 6.815,4.357 6.815,4.901C6.815,5.884 7.613,6.682 8.596,6.682C9.53,6.682 10.296,5.961 10.371,5.047ZM5.037,3.069C4.441,3.069 3.957,3.553 3.957,4.149C3.957,4.745 4.441,5.229 5.037,5.229C5.633,5.229 6.117,4.745 6.117,4.149C6.117,3.553 5.633,3.069 5.037,3.069Z"/>
    </g>
    <g transform="matrix(1.12346,1.38477e-32,0,1.12346,6.00203,5.77609)">
        <circle cx="16.621" cy="6.4" r="0.989"/>
    </g>
    <g transform="matrix(1.54104,1.89948e-32,0,1.54104,-4.84028,2.09361)">
        <circle cx="16.621" cy="6.4" r="0.989"/>
    </g>
    <g transform="matrix(0.615175,7.58261e-33,0,0.615175,13.6873,-1.01558)">
        <circle cx="16.621" cy="6.4" r="0.989"/>
    </g>
    <g transform="matrix(0.604037,7.44534e-33,0,0.604037,4.41685,9.74311)">
        <circle cx="16.621" cy="6.4" r="0.989"/>
    </g>
    <g transform="matrix(0.604037,7.44534e-33,0,0.604037,-0.683823,-0.766022)">
        <circle cx="16.621" cy="6.4" r="0.989"/>
    </g>
    <g transform="matrix(1.45481,1.79319e-32,0,1.45481,3.32027,0.923457)">
        <circle cx="16.621" cy="6.4" r="0.989"/>
    </g>
    <g transform="matrix(1.43903,1.77375e-32,0,1.43903,-13.2679,11.9115)">
        <circle cx="16.621" cy="6.4" r="0.989"/>
    </g>
    <g transform="matrix(1.43903,1.77375e-32,0,1.43903,-13.3678,16.7072)">
        <circle cx="16.621" cy="6.4" r="0.989"/>
    </g>
    <g transform="matrix(2.09543,2.58282e-32,0,2.09543,-28.9733,13.4552)">
        <circle cx="16.621" cy="6.4" r="0.989"/>
    </g>
    <path d="M5.028,14.975L7.871,10.859C8.127,10.884 9.559,10.91 10.736,10.424C11.912,9.938 12.424,8.455 12.424,8.455L17.037,5.812C17.221,6.181 17.603,6.435 18.043,6.435C18.663,6.435 19.167,5.931 19.167,5.311C19.167,5.084 19.1,4.873 18.984,4.697L19.592,4.348L21.13,0.132L23.528,0.731L23.34,1.646C23.229,1.612 23.112,1.594 22.991,1.594C22.336,1.594 21.805,2.126 21.805,2.781C21.805,3.392 22.268,3.896 22.863,3.96L22.34,6.496L21.081,7.541C20.773,7.284 20.376,7.129 19.944,7.129C18.964,7.129 18.168,7.925 18.168,8.905C18.168,9.22 18.25,9.516 18.394,9.772L17.045,10.892L18.008,11.844C17.682,12.159 17.479,12.602 17.479,13.091C17.479,14.049 18.256,14.827 19.214,14.827C19.616,14.827 19.985,14.691 20.279,14.462C20.14,14.662 20.059,14.905 20.059,15.166C20.059,15.848 20.613,16.402 21.295,16.402C21.705,16.402 22.069,16.203 22.294,15.895L28.411,18.897L26.839,26.493L28.168,28.242L24.511,27.292L24.691,20.869L18.493,18.086L21.655,22.937L18.468,28.273L20.106,29.831L15.461,29.581L17.929,23.167L14.823,19.884L9.508,15.718L5.836,19.096L4.743,23.842L2.118,23.604L2.882,18.083L3.831,16.708C4.034,16.98 4.358,17.156 4.723,17.156C5.336,17.156 5.834,16.658 5.834,16.044C5.834,15.537 5.493,15.108 5.028,14.975ZM14.426,11.765C13.387,11.765 12.543,12.609 12.543,13.648C12.543,14.687 13.387,15.53 14.426,15.53C15.465,15.53 16.308,14.687 16.308,13.648C16.308,12.609 15.465,11.765 14.426,11.765Z"/>
</svg>
