<?xml version="1.0" encoding="UTF-8" standalone="no"?><!DOCTYPE svg PUBLIC "-//W3C//DTD SVG 1.1//EN" "http://www.w3.org/Graphics/SVG/1.1/DTD/svg11.dtd"><svg width="100%" height="100%" viewBox="0 0 30 30" version="1.1" xmlns="http://www.w3.org/2000/svg" xmlns:xlink="http://www.w3.org/1999/xlink" xml:space="preserve" xmlns:serif="http://www.serif.com/" style="fill-rule:evenodd;clip-rule:evenodd;stroke-linejoin:round;stroke-miterlimit:2;"><g><path d="M4.844,30c0.079,-1.671 0.304,-3.248 0.893,-4.419c0.978,-1.942 3.257,-2.422 4.785,-3.479c1.037,1.792 2.625,2.43 4.408,2.446c0.023,0 0.046,0.001 0.069,0.001c1.814,0 3.433,-0.637 4.484,-2.457c0.368,0.255 0.783,0.489 1.215,0.726c1.666,-1.016 2.884,-2.3 3.263,-3.683c0.525,-1.916 -0.664,-3.642 -2.776,-4.731c0.015,0.223 0.023,0.45 0.023,0.681c0,1.163 -0.197,2.269 -0.55,3.265c-0.231,0.596 -0.522,1.149 -0.86,1.649c0.018,0.011 -1.899,3.021 -4.8,3.021c-0.023,-0 -0.046,-0 -0.068,-0.001c-3.265,-0.041 -4.733,-3.005 -4.71,-3.02c-0.464,-0.683 -0.835,-1.467 -1.092,-2.32c-0.031,-0.115 -0.06,-0.232 -0.088,-0.35c0.108,0.002 0.216,0.003 0.325,0.003c0.796,-0 1.471,-0.588 1.579,-1.377c0.109,-0.789 -0.383,-1.536 -1.149,-1.751c-0.326,-0.091 -0.638,-0.209 -0.931,-0.351c0.057,-0.464 0.148,-0.908 0.268,-1.333c-3.08,-2.705 -1.498,-7.254 -1.498,-7.254c0.727,1.876 2.463,3.004 3.776,3.617c0.996,-0.828 2.209,-1.304 3.52,-1.319l0.068,-0c3.03,-0 5.556,2.455 6.101,6.05c4.843,0.627 7.944,2.863 7.215,5.521c-0.518,1.889 -2.852,3.564 -6.021,4.601c0.825,0.532 1.574,1.173 2.03,2.076c0.578,1.145 0.797,2.619 0.869,4.188l-1.556,0c-0.062,-1.3 -0.252,-2.511 -0.736,-3.47c-0.353,-0.701 -0.983,-1.154 -1.631,-1.556c-0.449,-0.279 -0.914,-0.53 -1.364,-0.779c-0.95,1.016 -2.105,1.58 -3.381,1.815c-0.687,0.101 -1.203,0.119 -1.594,0.08l-0,3.91l-10.086,0Zm10.086,-8.701c0.442,0.048 0.98,-0.069 1.594,-0.321c1.062,-0.611 1.801,-1.641 1.881,-1.753c0.023,-0.041 0.048,-0.082 0.074,-0.122c0.269,-0.396 0.5,-0.836 0.692,-1.325c0.286,-0.824 0.443,-1.735 0.443,-2.693c0,-2.684 -1.25,-4.849 -3.09,-5.623c-0.377,-0.197 -0.876,-0.334 -1.594,-0.361l-0,12.198Zm-6.122,-5.571c-5.213,-0.211 -8.67,-3.368 -7.785,-7.225c0.916,-3.992 6.144,-7.235 11.665,-7.235c-3.656,0.906 -7.127,3.836 -7.908,7.235c-0.733,3.197 1.103,5.979 4.018,7.052c0.185,0.068 0.374,0.13 0.567,0.184c-0.188,0 -0.374,-0.004 -0.557,-0.011Zm6.077,-12.789c5.156,-0 9.343,0.826 9.343,1.845c0,1.019 -4.187,1.846 -9.343,1.846l-0,-1.173c3.39,0 6.143,-0.301 6.143,-0.673c-0,-0.372 -2.753,-0.673 -6.143,-0.673l-0,-1.172Z"/><g><path d="M26.124,7.108l0.887,2.397l2.397,0.886l-2.397,0.888l-0.887,2.395l-0.886,-2.395l-2.397,-0.888l2.397,-0.886l0.886,-2.397Z"/></g><g><path d="M4.036,18.16l0.669,1.808l1.808,0.669l-1.808,0.669l-0.669,1.808l-0.668,-1.808l-1.809,-0.669l1.809,-0.669l0.668,-1.808Z"/></g></g></svg>