<?xml version="1.0" encoding="UTF-8" standalone="no"?><!DOCTYPE svg PUBLIC "-//W3C//DTD SVG 1.1//EN" "http://www.w3.org/Graphics/SVG/1.1/DTD/svg11.dtd"><svg width="100%" height="100%" viewBox="0 0 30 30" version="1.1" xmlns="http://www.w3.org/2000/svg" xmlns:xlink="http://www.w3.org/1999/xlink" xml:space="preserve" xmlns:serif="http://www.serif.com/" style="fill-rule:evenodd;clip-rule:evenodd;stroke-linejoin:round;stroke-miterlimit:2;"><g><path d="M18.462,10.792c0.012,0.008 -1.371,2.181 -3.466,2.181c-2.392,0 -3.467,-2.17 -3.45,-2.181c-0.334,-0.492 -0.603,-1.058 -0.788,-1.675c-0.16,-0.587 -0.246,-1.217 -0.246,-1.873c0,-3.162 2.009,-5.43 4.484,-5.43c2.475,-0 4.484,2.268 4.484,5.43c-0,0.84 -0.142,1.638 -0.397,2.358c-0.167,0.43 -0.377,0.83 -0.621,1.19Zm-7.434,2.014c-3.788,0.712 -6.393,3.013 -5.661,5.683c0.732,2.67 4.598,4.97 8.777,5.682c-6.38,0 -12.26,-2.546 -13.12,-5.682c-0.86,-3.136 3.624,-5.683 10.004,-5.683Zm8.899,1.961c3.241,-0.862 5.394,-3.647 4.652,-6.88c-0.742,-3.233 -4.174,-6.018 -7.811,-6.88c5.507,-0 10.688,3.083 11.56,6.88c0.871,3.797 -2.893,6.88 -8.401,6.88Zm-14.796,-13.376l1.223,3.302l3.302,1.223l-3.302,1.223l-1.223,3.303l-1.223,-3.303l-3.303,-1.223l3.303,-1.223l1.223,-3.302Zm20.712,14.405l0.848,2.29l2.29,0.848l-2.29,0.848l-0.848,2.29l-0.848,-2.29l-2.29,-0.848l2.29,-0.848l0.848,-2.29Z"/><path d="M10.73,30l-0,-2.612l-0,-1.856c1.107,0.149 2.252,0.229 3.414,0.229c0.827,0 1.515,-0.633 1.585,-1.456c0.069,-0.823 -0.503,-1.562 -1.318,-1.702c-1.294,-0.22 -2.558,-0.606 -3.681,-1.119l-0,-1.136l-0.415,-0l0,0.938c-0.651,-0.326 -1.248,-0.697 -1.767,-1.102c-0.342,-0.267 -0.651,-0.548 -0.911,-0.841c0,-1.267 0.053,-2.551 0.332,-3.6c0.839,-0.652 2.011,-1.121 3.353,-1.373c0.598,-0.113 1.059,-0.549 1.228,-1.1c0.685,0.584 1.532,0.807 2.447,0.807c1.309,-0 2.478,-0.459 3.237,-1.773c0.438,0.302 0.968,0.566 1.492,0.863c-0.075,0.025 -0.15,0.048 -0.227,0.069c-0.765,0.214 -1.255,0.96 -1.147,1.747c0.108,0.787 0.781,1.373 1.576,1.373c0.771,0 1.509,-0.056 2.212,-0.163c0.354,1.616 0.211,3.657 0.211,5.418c-0,0.346 -0.013,0.689 -0.036,1.027l0,4.55l-2.623,-0l0,-6.84l-0.414,-0l0.001,7.04l-0,2.612l-3.966,0l-0,-2.907l-0.617,0l0,2.907l-3.966,0Zm-3.037,-6.718l0,-0.644c-0.023,-0.338 -0.035,-0.681 -0.035,-1.027l0,-0.105c0.761,0.581 1.665,1.099 2.657,1.531l0,0.829c-0.912,-0.148 -1.792,-0.345 -2.622,-0.584Zm3.037,0.647l-0,-0.719c1.07,0.43 2.229,0.759 3.414,0.961c-1.164,0 -2.31,-0.085 -3.414,-0.242Zm0.088,-11.081c0.027,-0.013 0.055,-0.028 0.082,-0.041l0.129,-0c-0.071,0.013 -0.141,0.027 -0.211,0.041Zm10.404,1.421c0.116,0.125 0.223,0.258 0.32,0.402c-0.518,0.063 -1.057,0.096 -1.614,0.096c0.455,-0.128 0.888,-0.295 1.294,-0.498Zm-10.907,11.204l0,1.715l-2.622,-0l0,-2.259c0.837,0.223 1.715,0.406 2.622,0.544Z"/></g></svg>