<?xml version="1.0" encoding="UTF-8" standalone="no"?><!DOCTYPE svg PUBLIC "-//W3C//DTD SVG 1.1//EN" "http://www.w3.org/Graphics/SVG/1.1/DTD/svg11.dtd"><svg width="100%" height="100%" viewBox="0 0 30 30" version="1.1" xmlns="http://www.w3.org/2000/svg" xmlns:xlink="http://www.w3.org/1999/xlink" xml:space="preserve" xmlns:serif="http://www.serif.com/" style="fill-rule:evenodd;clip-rule:evenodd;stroke-linejoin:round;stroke-miterlimit:2;"><path d="M1.727,30l0.14,-9.026c1.13,-1.124 3.194,-1.572 6.305,0.575l-3.539,2.764l0.627,3.755c-0.029,-0.42 1.576,-2.407 1.766,-2.785c0.379,-0.754 0.977,-1.262 1.645,-1.673c0.875,-0.539 1.869,-0.91 2.646,-1.448c0.944,1.627 2.393,2.194 4.017,2.194c1.626,0 3.078,-0.57 4.021,-2.203c1.37,0.945 3.463,1.596 4.342,3.337c0.258,0.511 1.565,2.296 1.565,2.296c-0,0 0.572,-0.97 1.26,-2.121c0.135,-0.224 -2.928,-2.617 -2.788,-2.85c0.951,-1.581 5.154,-1.048 5.143,-0.881l-0.734,8.066l-6.166,0l-1.31,-1.457l-0.006,1.457l-10.627,0l0,-1.42l-1.308,1.42l-6.999,0Zm17.911,-9.724c0.016,0.01 -1.703,2.709 -4.306,2.709c-2.97,0 -4.306,-2.696 -4.285,-2.709c-0.416,-0.612 -0.749,-1.315 -0.98,-2.081c-0.197,-0.73 -0.305,-1.512 -0.305,-2.327c-0,-3.928 2.496,-6.746 5.57,-6.746c3.075,0 5.571,2.818 5.571,6.746c-0,1.044 -0.177,2.035 -0.493,2.929c-0.208,0.534 -0.468,1.031 -0.772,1.479Zm-1.338,-6.694c-0.657,0 -1.19,0.533 -1.19,1.19c-0,0.657 0.533,1.19 1.19,1.19c0.657,0 1.19,-0.533 1.19,-1.19c-0,-0.657 -0.533,-1.19 -1.19,-1.19Zm-5.994,0c-0.656,0 -1.19,0.533 -1.19,1.19c-0,0.657 0.534,1.19 1.19,1.19c0.657,0 1.191,-0.533 1.191,-1.19c-0,-0.657 -0.534,-1.19 -1.191,-1.19Zm5.932,6.189c0.307,-0.314 0.469,-0.669 0.469,-1.031c-0,-1.139 -1.571,-2.063 -3.505,-2.063c-1.935,-0 -3.506,0.924 -3.506,2.063c-0,0.362 0.162,0.717 0.47,1.031l6.072,0Z"/><g><path d="M26.809,0.791l-24.025,5.311l0.723,1.861l24.025,-5.311l-0.723,-1.861Z"/></g><g><path d="M27.582,5.884l-24.183,-4.888l-0.665,1.873l24.183,4.888l0.665,-1.873Z"/></g><g><rect x="4.422" y="6.638" width="0.705" height="15.133"/></g><g><rect x="25.682" y="6.638" width="0.793" height="15.992"/></g><rect x="0" y="-0" width="30" height="30" style="fill:none;"/></svg>