<?xml version="1.0" encoding="UTF-8" standalone="no"?><!DOCTYPE svg PUBLIC "-//W3C//DTD SVG 1.1//EN" "http://www.w3.org/Graphics/SVG/1.1/DTD/svg11.dtd"><svg width="100%" height="100%" viewBox="0 0 30 30" version="1.1" xmlns="http://www.w3.org/2000/svg" xmlns:xlink="http://www.w3.org/1999/xlink" xml:space="preserve" xmlns:serif="http://www.serif.com/" style="fill-rule:evenodd;clip-rule:evenodd;stroke-linejoin:round;stroke-miterlimit:2;"><g><path d="M8.998,30l1.27,-10.671l-2.499,-0.141l-4.45,-10.491c-1.87,-3.758 -2.478,-7.235 -1.87,-7.844c0.508,-0.508 5.185,0.309 9.728,2.863l0.013,0.002l17.225,8.548l-4.392,1.714l5.977,-0.513l-0,2.473l-6.187,-1.873l6.187,4.405l-0,2.691l-1.122,-0.434l-10.196,-7.63l4.262,-1.009l-6.858,-2.695c-1.167,-0.144 -2.921,-0.547 -4.255,-0.371c2.056,2.109 3.818,4.01 4.478,4.469c3.534,2.464 10.723,5.982 13.691,9.307l-0,3.419c-2.261,-2.484 -8.929,-9.618 -8.906,-7.295c0.018,1.872 4.595,5.853 8.906,9.589l-0,1.487l-0.122,0c-1.713,-1.173 -3.506,-2.513 -4.903,-3.822c-3.835,-3.591 -5.738,-4.167 -3.219,-1.299c0.832,0.948 2.957,2.865 5.661,5.121l-1.393,-0c-3.226,-2.637 -6.657,-5.543 -8.115,-7.162c-0.23,-0.254 2.24,-1.638 2.24,-1.638l-1.297,-2.521l-3.904,-2.992c0,-0 -3.127,-3.155 -5.071,-4.662c-0.154,1.467 0.406,3.431 0.539,4.608l0.278,1.686l4.595,0.038l1.101,10.283l4.894,-0.772l2.772,3.132l-1.963,-0l-1.03,-1.289l-4.025,1.289l-2.975,-0l-0.185,-10.252l-3.56,-0.402l2.597,10.654l-3.917,-0Zm21.002,-18.335l-7.764,-3.492l7.764,-0.308l-0,3.8Z"/></g></svg>