<?xml version="1.0" encoding="UTF-8" standalone="no"?>
<!DOCTYPE svg PUBLIC "-//W3C//DTD SVG 1.1//EN" "http://www.w3.org/Graphics/SVG/1.1/DTD/svg11.dtd">
<svg width="100%" height="100%" viewBox="0 0 30 30" version="1.1" xmlns="http://www.w3.org/2000/svg" xmlns:xlink="http://www.w3.org/1999/xlink" xml:space="preserve" xmlns:serif="http://www.serif.com/" style="fill-rule:evenodd;clip-rule:evenodd;stroke-linejoin:round;stroke-miterlimit:2;">
    <g transform="matrix(1,1.2326e-32,-1.2326e-32,1,0.108467,0.29134)">
        <path d="M19.475,20.504L17.396,20.504L17.396,16.898C17.378,16.63 17.368,16.359 17.368,16.084C17.368,15.147 17.324,14.069 17.383,13.063C17.394,12.872 17.409,12.683 17.428,12.499C17.465,12.151 17.519,11.818 17.596,11.509C17.669,11.216 17.764,10.945 17.885,10.704C18.127,10.223 18.508,9.899 18.934,9.637C19.492,9.293 20.127,9.056 20.623,8.713C21.224,9.751 22.149,10.113 23.185,10.113C24.223,10.113 25.149,9.749 25.751,8.707C26.625,9.31 27.96,9.725 28.521,10.836C29.198,12.178 29.013,14.311 29.013,16.084C29.013,16.359 29.004,16.63 28.985,16.898L28.985,20.504L26.907,20.504L26.907,15.082L26.578,15.082L26.578,20.663L26.579,27.688L27.109,28.241L27.932,29.024L23.435,29.024L23.435,20.429L22.947,20.429L22.947,29.024L18.45,29.024L19.272,28.241L19.803,27.688L19.803,20.663L19.804,15.082L19.475,15.082L19.475,20.504ZM14.027,10.984C13.848,10.753 13.764,10.576 13.768,10.574C13.54,10.239 13.358,9.854 13.232,9.435C13.124,9.036 13.065,8.608 13.065,8.162C13.065,6.013 14.431,4.471 16.113,4.471C17.795,4.471 19.16,6.013 19.16,8.162C19.16,8.376 19.147,8.585 19.121,8.79C19.019,8.842 18.918,8.895 18.818,8.951C18.737,8.996 18.657,9.043 18.578,9.092C18.642,8.796 18.675,8.484 18.675,8.162C18.675,6.319 17.555,4.956 16.113,4.956C14.67,4.956 13.55,6.319 13.55,8.162C13.55,8.561 13.602,8.944 13.7,9.307C13.811,9.673 13.97,10.009 14.169,10.301C14.189,10.331 14.206,10.363 14.219,10.396C14.219,10.396 14.921,11.571 16.113,11.571C16.433,11.571 16.722,11.479 16.974,11.346C16.93,11.53 16.893,11.721 16.862,11.919C16.631,12.004 16.38,12.056 16.113,12.056C15.047,12.056 14.367,11.422 14.027,10.984C14.114,10.929 14.277,10.805 14.25,10.527C14.255,10.575 14.253,10.624 14.242,10.672C14.216,10.801 14.138,10.913 14.027,10.984ZM7.626,29.024L4.702,29.024L4.702,23.435L4.384,23.435L4.384,29.024L1.46,29.024L1.995,28.515L2.34,28.156L2.34,23.587L2.341,19.959L2.127,19.959L2.127,23.484L0.775,23.484L0.775,21.14C0.763,20.966 0.757,20.789 0.757,20.61C0.757,19.46 0.655,17.984 1.093,17.112C1.409,16.484 2.09,16.267 2.636,15.963C3.018,16.366 3.644,16.809 4.539,16.809C5.344,16.809 5.999,16.342 6.409,15.942C6.525,16.011 6.649,16.078 6.775,16.147C6.917,16.225 7.062,16.305 7.202,16.392C7.529,16.597 7.83,16.843 8.009,17.198C8.181,17.539 8.267,17.958 8.309,18.41C8.324,18.577 8.333,18.749 8.338,18.923C8.355,19.486 8.329,20.073 8.329,20.61C8.329,20.789 8.323,20.966 8.311,21.14L8.311,23.484L6.959,23.484L6.959,19.959L6.746,19.959L6.746,23.587L6.746,28.156L7.091,28.515L7.544,28.947L7.653,28.843C7.627,28.887 7.597,28.928 7.562,28.964L7.626,29.024ZM7.126,15.6C7.694,14.962 8.436,14.659 9.044,14.238C9.483,14.994 10.156,15.257 10.91,15.257C10.988,15.257 11.066,15.254 11.143,15.248C11.157,15.025 11.178,14.806 11.208,14.595C11.112,14.611 11.012,14.62 10.909,14.62C9.529,14.62 8.909,13.368 8.919,13.362C8.726,13.078 8.571,12.751 8.464,12.395C8.372,12.057 8.322,11.693 8.322,11.315C8.322,9.49 9.481,8.181 10.909,8.181C12.337,8.181 13.496,9.49 13.496,11.315C13.496,11.506 13.484,11.693 13.459,11.876C13.62,11.791 13.774,11.704 13.916,11.606C14.432,12.496 15.225,12.806 16.113,12.806C16.338,12.806 16.557,12.787 16.767,12.742C16.754,12.907 16.743,13.075 16.735,13.243C16.534,13.276 16.326,13.291 16.113,13.291C15.202,13.291 14.379,13.011 13.775,12.257C13.745,12.273 13.715,12.289 13.684,12.305C13.524,12.389 13.33,12.377 13.181,12.273C13.033,12.169 12.954,11.991 12.979,11.811C13,11.65 13.011,11.484 13.011,11.315C13.011,9.796 12.097,8.666 10.909,8.666C9.721,8.666 8.807,9.796 8.807,11.315C8.807,11.646 8.85,11.965 8.932,12.267C9.024,12.569 9.156,12.847 9.32,13.09C9.339,13.117 9.354,13.147 9.367,13.178C9.367,13.178 9.938,14.135 10.909,14.135C10.984,14.135 11.056,14.129 11.126,14.117C11.279,14.091 11.434,14.139 11.546,14.247C11.657,14.354 11.71,14.509 11.688,14.662C11.66,14.862 11.641,15.069 11.627,15.28C11.611,15.521 11.421,15.713 11.181,15.732C11.091,15.739 11.001,15.742 10.91,15.742C10.137,15.742 9.436,15.51 8.913,14.893C8.456,15.163 7.963,15.42 7.557,15.847C7.547,15.841 7.537,15.835 7.527,15.829C7.396,15.747 7.26,15.673 7.126,15.6ZM8.933,23.675L8.932,28.052C8.932,28.177 8.884,28.297 8.797,28.387L8.652,28.539L10.251,28.539L10.251,22.767C10.251,22.589 10.311,22.282 10.741,22.282L11.015,22.282C11.642,22.282 11.577,22.767 11.577,22.767L11.577,28.539C11.577,28.539 15.424,28.539 15.424,28.539L15.424,21.653C15.424,21.308 15.483,21.168 15.915,21.168L16.237,21.168C16.891,21.168 16.813,21.653 16.813,21.653L16.813,28.539L18.016,28.539L18.001,28.553C17.87,28.679 17.799,28.85 17.799,29.024L16.328,29.024L16.328,21.653L15.909,21.653L15.909,29.024L11.092,29.024L11.092,22.767L10.736,22.767L10.736,29.024L8.276,29.024C8.276,28.85 8.206,28.679 8.074,28.553L8.016,28.497L8.061,28.454L8.447,28.052L8.448,24.12C8.679,24.071 8.864,23.899 8.933,23.675ZM18.56,28.021C18.546,27.975 18.539,27.927 18.539,27.879L18.538,21.854L18.538,21.154L19.023,21.154L19.023,21.854L19.024,27.56L18.813,27.78L18.56,28.021ZM6.325,15.035C6.331,15.039 5.619,16.159 4.539,16.159C3.306,16.159 2.752,15.04 2.761,15.035C2.589,14.781 2.45,14.489 2.355,14.172C2.273,13.869 2.228,13.544 2.228,13.206C2.228,11.577 3.264,10.408 4.539,10.408C5.814,10.408 6.85,11.577 6.85,13.206C6.85,13.639 6.777,14.05 6.645,14.421C6.559,14.643 6.451,14.849 6.325,15.035ZM25.931,7.509C25.941,7.516 24.845,9.238 23.184,9.238C21.289,9.238 20.437,7.518 20.45,7.509C20.185,7.119 19.972,6.67 19.825,6.182C19.699,5.716 19.63,5.217 19.63,4.697C19.63,2.191 21.223,0.393 23.184,0.393C25.146,0.393 26.738,2.191 26.738,4.697C26.738,5.363 26.626,5.996 26.424,6.566C26.291,6.907 26.125,7.223 25.931,7.509Z"/>
    </g>
</svg>
