<?xml version="1.0" encoding="UTF-8" standalone="no"?>
<!DOCTYPE svg PUBLIC "-//W3C//DTD SVG 1.1//EN" "http://www.w3.org/Graphics/SVG/1.1/DTD/svg11.dtd">
<svg width="100%" height="100%" viewBox="0 0 30 30" version="1.1" xmlns="http://www.w3.org/2000/svg" xmlns:xlink="http://www.w3.org/1999/xlink" xml:space="preserve" xmlns:serif="http://www.serif.com/" style="fill-rule:evenodd;clip-rule:evenodd;stroke-linejoin:round;stroke-miterlimit:2;">
    <g transform="matrix(-5.01102e-17,-0.818361,-0.818361,5.01102e-17,26.173,29.1592)">
        <g transform="matrix(-8.3561e-17,-1.36465,-1.36465,8.3561e-17,39.4938,34.1387)">
            <path d="M2.63,16.312L2.63,11.86C2.63,11.86 6.478,12.575 7.783,13.221C8.881,13.764 9.684,14.79 10.463,15.735C11.816,17.377 14.537,21.884 15.904,23.073C16.601,23.679 17.993,23.499 18.666,22.867C19.683,21.912 21.023,19.006 22.006,17.343C22.876,15.87 24.094,14.519 24.561,12.891C25.029,11.262 24.568,9.133 24.809,7.573C25.023,6.185 25.633,3.65 26.004,3.533C26.375,3.416 26.836,5.732 27.035,6.872C27.234,8.013 27.188,9.207 27.2,10.376C27.213,11.702 27.488,13.495 27.117,14.828C26.747,16.159 25.513,17.102 24.974,18.373C24.362,19.816 24.252,22.228 23.448,23.485C22.713,24.636 21.374,25.309 20.15,25.917C18.893,26.543 17.21,27.223 15.904,27.237C14.64,27.25 13.204,26.902 12.318,26C11.246,24.907 10.332,22.035 9.474,20.682C8.825,19.66 8.185,18.53 7.165,17.879C6.025,17.15 2.63,16.312 2.63,16.312Z"/>
        </g>
        <g transform="matrix(-7.82004e-17,-1.27711,-1.27711,7.82004e-17,36.4568,32.8259)">
            <path d="M2.99,8.983C2.495,8.319 2.134,7.588 2.091,6.916C2.003,5.523 3.288,3.234 4.294,2.367C5.269,1.527 8.021,1.434 8.126,1.718C8.406,2.473 6.713,2.386 6.439,3.052C6.123,3.818 5.689,5.53 6.232,6.31C6.775,7.09 8.368,7.068 9.359,7.22C10.288,7.362 11.239,7.212 12.179,7.22C13.133,7.227 14.175,7.075 15.086,7.263C15.993,7.45 17.03,7.659 17.641,8.346C18.353,9.147 18.72,11.278 19.359,12.072C19.847,12.68 20.77,12.762 21.473,13.112C21.762,13.255 22.072,13.404 22.39,13.558C21.974,14.161 21.538,14.756 21.172,15.377C20.705,16.166 20.169,17.242 19.626,18.257C18.212,17.227 16.852,16.259 16.231,15.668C15.757,15.216 15.835,14.422 15.526,13.848C15.189,13.22 14.948,12.173 14.205,11.899C13.239,11.542 11.151,11.674 9.605,11.551C9.108,11.087 8.569,10.679 7.966,10.38C6.901,9.853 4.366,9.274 2.99,8.983ZM27.576,16.973C28.012,17.535 28.392,18.152 28.609,18.7C28.945,19.551 28.844,20.517 28.829,21.43C28.815,22.361 28.657,23.34 28.521,24.289C28.359,25.415 27.86,28.739 27.86,28.739L21.825,28.739C21.825,28.739 22.617,26.868 23.052,25.655C23.946,25.087 24.758,24.41 25.314,23.54C25.737,22.878 26.038,21.982 26.269,21.013C26.531,19.918 26.7,18.709 27.064,17.851C27.196,17.539 27.376,17.251 27.576,16.973ZM26.526,15.841C26.191,16.29 25.872,16.748 25.658,17.255C25.009,18.785 24.889,21.336 24.046,22.688C24.076,22.341 24.017,22.015 23.808,21.733C23.317,21.071 22.143,20.126 20.845,19.155C21.426,18.096 21.997,16.981 22.486,16.154C22.87,15.503 23.318,14.875 23.746,14.24C23.826,14.282 23.906,14.325 23.984,14.368C24.796,14.815 25.781,15.208 26.526,15.841Z"/>
        </g>
        <g transform="matrix(-7.82004e-17,-1.27711,-1.27711,7.82004e-17,36.4568,32.8259)">
            <path d="M19.214,7.951C19.221,7.889 19.229,7.828 19.238,7.768C19.386,6.742 21.235,5.338 20.319,4.853C19.32,4.323 15.668,3.859 12.92,3.437C12.408,3.359 9.593,4.74 9.166,4.665C8.258,4.503 9.094,3.161 9.74,2.737C11.931,1.296 13.815,1.389 15.758,1.232C17.643,1.08 19.888,1.499 21.401,1.796C22.445,2.002 23.832,2.148 24.565,2.741C24.315,3.664 24.09,4.719 23.972,5.481C23.831,6.396 23.883,7.479 23.914,8.571C23.938,9.404 23.959,10.247 23.75,10.975C23.621,11.423 23.433,11.848 23.209,12.259C22.842,12.081 22.484,11.909 22.152,11.744C21.811,11.575 21.431,11.451 21.056,11.324C20.873,11.262 20.664,11.259 20.548,11.115C20.24,10.731 20.059,9.938 19.8,9.243C19.624,8.77 19.428,8.325 19.214,7.951ZM24.557,12.941C24.825,12.457 25.053,11.957 25.208,11.43C25.518,12.103 25.85,12.794 25.915,13.457C25.922,13.526 25.927,13.596 25.932,13.666C25.518,13.446 25.103,13.241 24.72,13.03C24.666,13 24.611,12.971 24.557,12.941ZM20.963,21.164C20.363,21.443 19.732,21.676 19.106,21.863C19.413,21.523 19.742,21.042 20.079,20.489C20.091,20.498 20.103,20.507 20.115,20.516C20.408,20.737 20.694,20.954 20.963,21.164ZM18.872,19.595C18.524,20.169 18.186,20.649 17.873,20.943C17.738,21.07 17.519,21.123 17.311,21.142C17.187,21.154 17.052,21.196 16.969,21.124C16.17,20.43 14.935,18.641 13.757,16.902C14.289,16.882 14.84,16.923 15.38,16.957C16.12,17.605 17.485,18.579 18.872,19.595ZM22.39,13.558C21.974,14.161 21.538,14.756 21.172,15.377C20.705,16.166 20.169,17.242 19.626,18.257C18.937,17.755 18.261,17.268 17.676,16.832C17.711,16.82 17.746,16.808 17.78,16.796C19.091,16.307 20.656,14.978 20.931,14.022C21.051,13.603 20.831,13.183 20.523,12.755C20.846,12.866 21.179,12.965 21.473,13.112C21.762,13.255 22.072,13.404 22.39,13.558ZM25.865,15.368C25.774,15.963 25.606,16.545 25.351,17.078C24.818,18.191 23.791,19.327 22.717,20.134C22.613,20.213 22.506,20.289 22.395,20.364C21.93,19.979 21.399,19.569 20.845,19.155C21.426,18.096 21.997,16.981 22.486,16.154C22.87,15.503 23.318,14.875 23.746,14.24C23.826,14.282 23.906,14.325 23.984,14.368C24.573,14.692 25.252,14.988 25.865,15.368ZM11.133,26.561C11.022,27.726 10.962,28.739 10.962,28.739L1.74,28.739C1.74,28.739 3.025,21.484 4.778,19.594C5.237,19.099 5.754,18.712 6.304,18.408C6.92,19 7.345,19.813 7.806,20.54C8.332,21.369 8.87,22.762 9.46,23.981C9.953,25.002 10.495,25.913 11.045,26.473C11.074,26.503 11.103,26.532 11.133,26.561ZM16.13,22.398C15.164,22.513 14.24,22.604 13.643,22.72C12.966,22.852 11.948,22.702 11.668,23.331C11.57,23.551 11.481,23.933 11.402,24.396C10.563,22.966 9.811,20.85 9.095,19.722C8.684,19.073 8.276,18.385 7.784,17.786C9.28,17.322 10.849,17.242 12.076,17.11C13.451,19.12 15.016,21.45 15.967,22.277C16.018,22.321 16.072,22.361 16.13,22.398Z"/>
        </g>
    </g>
</svg>
