<?xml version="1.0" encoding="UTF-8" standalone="no"?>
<!DOCTYPE svg PUBLIC "-//W3C//DTD SVG 1.1//EN" "http://www.w3.org/Graphics/SVG/1.1/DTD/svg11.dtd">
<svg width="100%" height="100%" viewBox="0 0 30 30" version="1.1" xmlns="http://www.w3.org/2000/svg" xmlns:xlink="http://www.w3.org/1999/xlink" xml:space="preserve" xmlns:serif="http://www.serif.com/" style="fill-rule:evenodd;clip-rule:evenodd;stroke-linejoin:round;stroke-miterlimit:2;">
    <g transform="matrix(0.045932,0,0,0.045932,3.2649,5.27995)">
        <path d="M400.403,278.421C405.353,303.805 403.955,322.429 401.299,345.78C392.306,424.867 336.646,476.171 248.342,476.171C185.416,476.171 106.541,422.97 106.541,316.644C106.541,246.916 170.389,143.873 210.359,84.216C199.178,129.543 212.443,170.695 228.258,209.334C251.355,149.868 288.579,86.232 270.555,13.162C316.517,81.762 385.056,199.722 400.403,278.421ZM235.149,338.619C224.837,328.754 205.621,298.8 202.158,283.342C198.379,312.68 193.767,362.402 206.576,388.111C207.319,389.604 208.164,391.012 209.098,392.333C214.509,402.218 222.755,409.213 233.922,413.956C260.306,425.162 290.598,407.128 301.804,380.744C320.077,337.72 308.315,276.907 299.287,229.623C291.666,276.91 261.435,309.165 235.149,338.619Z"/>
    </g>
    <g transform="matrix(-0.0067646,-0.0117166,0.0117166,-0.0067646,21.8088,20.0935)">
        <g transform="matrix(0.888123,-0.409184,0.409184,0.888123,-168.448,291.244)">
            <path d="M588.819,186.623C588.819,186.623 465.224,589.371 465.224,825.906C465.224,943.516 678.319,1039 678.319,1039C678.319,1039 891.413,943.516 891.413,825.906C891.413,589.371 588.819,186.623 588.819,186.623Z"/>
        </g>
        <g transform="matrix(0.0896956,0.973729,0.973729,-0.0896956,656.886,-1138.27)">
            <path d="M588.819,186.623C588.819,186.623 465.224,589.371 465.224,825.906C465.224,943.516 678.319,1039 678.319,1039C678.319,1039 891.413,943.516 891.413,825.906C891.413,589.371 588.819,186.623 588.819,186.623Z"/>
        </g>
    </g>
    <g transform="matrix(0.00120454,0.0107,0.0107,-0.00120454,17.665,9.58804)">
        <g transform="matrix(0.839113,-1.89825e-16,1.89825e-16,0.839113,-3.41684,155.878)">
            <path d="M588.819,186.623C588.819,186.623 465.224,589.371 465.224,825.906C465.224,943.516 678.319,1039 678.319,1039C678.319,1039 891.413,943.516 891.413,825.906C891.413,589.371 588.819,186.623 588.819,186.623Z"/>
        </g>
        <g transform="matrix(0.818111,-0.18656,-0.18656,-0.818111,-89.3186,-607.192)">
            <path d="M588.819,186.623C588.819,186.623 465.224,589.371 465.224,825.906C465.224,943.516 678.319,1039 678.319,1039C678.319,1039 891.413,943.516 891.413,825.906C891.413,589.371 588.819,186.623 588.819,186.623Z"/>
        </g>
    </g>
</svg>
