<?xml version="1.0" encoding="UTF-8" standalone="no"?>
<!DOCTYPE svg PUBLIC "-//W3C//DTD SVG 1.1//EN" "http://www.w3.org/Graphics/SVG/1.1/DTD/svg11.dtd">
<svg width="100%" height="100%" viewBox="0 0 30 30" version="1.1" xmlns="http://www.w3.org/2000/svg" xmlns:xlink="http://www.w3.org/1999/xlink" xml:space="preserve" xmlns:serif="http://www.serif.com/" style="fill-rule:evenodd;clip-rule:evenodd;stroke-linejoin:round;stroke-miterlimit:2;">
    <g transform="matrix(0.0132876,0,0,0.0132876,1.16057,0.447546)">
        <path d="M668.755,1119.21L189.658,868.724L734.517,949.167C699.416,998.23 676.109,1056.3 668.755,1119.21ZM763.375,913.705L615.829,559.092L914.576,815.068C856.152,835.002 804.348,869.284 763.375,913.705ZM947.949,805.434L1042,44.845L1136.91,810.521C1103.93,800.765 1069.01,795.528 1032.88,795.528C1003.65,795.528 975.213,798.957 947.949,805.434ZM1164.01,819.709L1468.17,559.092L1314.76,927.809C1274.92,879.956 1223.14,842.391 1164.01,819.709ZM1332.98,951.603L1894.34,868.724L1397.96,1128.24C1391.95,1062.9 1368.78,1002.5 1332.98,951.603ZM1399.48,1166.94L1731.56,1369.72L1353.84,1339.39C1382.21,1288.15 1398.68,1229.42 1399.48,1166.94ZM1326.2,1382.02L1568.78,1870.71L1185.6,1495.5C1241.42,1469.86 1289.7,1430.62 1326.2,1382.02ZM1126.39,1516.72L1042,2199.99L958.688,1521.25C982.653,1526.18 1007.47,1528.77 1032.88,1528.77C1065.2,1528.77 1096.54,1524.59 1126.39,1516.72ZM892.774,1501.01L515.224,1870.71L750.762,1396.19C788.604,1441.75 837.259,1478 892.774,1501.01ZM712.713,1340.79L352.441,1369.72L666.594,1177.89C669.089,1236.85 685.536,1292.22 712.713,1340.79Z"/>
    </g>
    <g transform="matrix(0.00969967,0,0,0.00969967,3.56452,4.84514)">
        <circle cx="1167.12" cy="1138.66" r="366.623"/>
    </g>
    <g transform="matrix(0.0170209,0,0,0.0170209,-2.72953,-3.45297)">
        <path d="M1452.34,1524.44C1496.25,1477.22 1532.27,1422.55 1558.26,1362.54C1564.64,1364.46 1571.93,1367.21 1578.82,1370.19C1551.74,1433.06 1514.08,1490.31 1468.08,1539.7C1462.86,1534.51 1457.44,1529.2 1452.34,1524.44Z"/>
    </g>
    <g transform="matrix(0.0170209,0,0,0.0170209,-2.72953,-3.45297)">
        <path d="M1157.86,1693.14C1210.47,1681.55 1260.36,1662.69 1306.42,1637.66C1310.18,1643.3 1314.58,1649.55 1318.94,1655.8C1271.91,1681.59 1221.01,1701.18 1167.33,1713.47C1167.3,1713.43 1167.28,1713.39 1167.25,1713.35C1164.21,1708.79 1160.84,1701.36 1157.86,1693.14Z"/>
    </g>
    <g transform="matrix(0.0170209,0,0,0.0170209,-2.72953,-3.45297)">
        <path d="M754.273,1632.63C805.829,1661.87 862.379,1683.31 922.315,1695.33C920.835,1702.45 919.236,1709.68 917.798,1716.77C855.04,1704.16 795.857,1681.61 741.965,1650.84C745.997,1645.17 750.303,1638.83 754.273,1632.63Z"/>
    </g>
    <g transform="matrix(0.0170209,0,0,0.0170209,-2.72953,-3.45297)">
        <path d="M499.367,1332.11C527.25,1408.3 570.939,1476.9 626.454,1533.92C623.514,1537.26 621.038,1540.47 619.631,1542.91C618.437,1544.97 613.577,1544.48 611.934,1546.2C611.273,1546.9 610.574,1547.59 609.842,1548.27C552.928,1489.55 508.063,1419.09 479.243,1340.88C485.737,1337.88 492.656,1334.78 499.367,1332.11Z"/>
    </g>
    <g transform="matrix(0.0170209,0,0,0.0170209,-2.72953,-3.45297)">
        <path d="M757.918,613.192C816.213,582.247 880.281,560.759 948.072,550.777C950.08,557.768 952.519,564.757 954.62,571.973C888.322,581.332 825.673,602.115 768.732,632.263C765.017,625.776 761.319,619.183 757.918,613.192Z"/>
    </g>
    <g transform="matrix(0.0170209,0,0,0.0170209,-2.72953,-3.45297)">
        <path d="M1316.63,640.832C1271.41,615.052 1222.33,595.281 1170.49,582.61C1171.7,575.288 1172.57,567.611 1173.12,560.702C1229.24,574.149 1282.26,595.595 1330.91,623.768C1326.65,628.77 1321.71,634.667 1316.63,640.832Z"/>
    </g>
    <g transform="matrix(0.0170209,0,0,0.0170209,-2.72953,-3.45297)">
        <path d="M639.705,526.779C639.831,526.697 639.957,526.615 640.083,526.534C731.108,467.46 836.158,428.197 949.104,414.887C950.188,419.182 951.629,423.11 953.376,425.5C955.069,427.814 955.912,435.034 956.324,443.26C847.062,455.529 745.401,493.082 657.336,549.924C652.982,544.462 646.24,535.564 639.705,526.779Z"/>
    </g>
    <g transform="matrix(0.0170209,0,0,0.0170209,-2.72953,-3.45297)">
        <path d="M1430.62,562.069C1345.02,502.948 1245.58,462.46 1138.19,446.488C1140.32,437.154 1142.53,426.738 1144.2,418.05C1254.58,434.736 1356.85,476.295 1445.11,536.827C1439.99,545.098 1435.24,553.815 1430.62,562.069Z"/>
    </g>
    <g transform="matrix(0.0170209,0,0,0.0170209,-2.72953,-3.45297)">
        <path d="M1734.91,1331.45C1660.13,1600.03 1434.78,1806.14 1155.7,1852.93C1154.18,1845.79 1152.5,1834.45 1151.22,1824.27C1418.02,1779.39 1633.62,1582.84 1706.16,1326.47C1717.29,1328.41 1728.4,1330.26 1734.91,1331.45Z"/>
    </g>
    <g transform="matrix(0.0170209,0,0,0.0170209,-2.72953,-3.45297)">
        <path d="M940.987,1856.93C658.763,1820.44 427.098,1621.75 342.66,1357.52C351.974,1354.16 361.962,1350.32 369.781,1347.07C450.156,1600.73 671.755,1791.81 942.084,1827.81C941.804,1837.48 941.369,1847.23 940.987,1856.93Z"/>
    </g>
    <g transform="matrix(-0.0067646,-0.0117166,0.0117166,-0.0067646,21.8088,20.0935)">
        <path d="M588.819,186.623C588.819,186.623 465.224,589.371 465.224,825.906C465.224,943.516 678.319,1039 678.319,1039C678.319,1039 891.413,943.516 891.413,825.906C891.413,589.371 588.819,186.623 588.819,186.623Z"/>
    </g>
    <g transform="matrix(0.00673506,-0.0116655,-0.0116655,-0.00673506,8.13808,20.0533)">
        <path d="M588.819,186.623C588.819,186.623 465.224,589.371 465.224,825.906C465.224,943.516 678.319,1039 678.319,1039C678.319,1039 891.413,943.516 891.413,825.906C891.413,589.371 588.819,186.623 588.819,186.623Z"/>
    </g>
    <g transform="matrix(0.00120454,0.0107,0.0107,-0.00120454,17.665,9.58804)">
        <path d="M588.819,186.623C588.819,186.623 465.224,589.371 465.224,825.906C465.224,943.516 678.319,1039 678.319,1039C678.319,1039 891.413,943.516 891.413,825.906C891.413,589.371 588.819,186.623 588.819,186.623Z"/>
    </g>
    <g transform="matrix(-0.00120454,0.0107,-0.0107,-0.00120454,12.2371,9.58804)">
        <path d="M588.819,186.623C588.819,186.623 465.224,589.371 465.224,825.906C465.224,943.516 678.319,1039 678.319,1039C678.319,1039 891.413,943.516 891.413,825.906C891.413,589.371 588.819,186.623 588.819,186.623Z"/>
    </g>
</svg>
