<?xml version="1.0" encoding="UTF-8" standalone="no"?>
<!DOCTYPE svg PUBLIC "-//W3C//DTD SVG 1.1//EN" "http://www.w3.org/Graphics/SVG/1.1/DTD/svg11.dtd">
<svg width="100%" height="100%" viewBox="0 0 30 30" version="1.1" xmlns="http://www.w3.org/2000/svg" xmlns:xlink="http://www.w3.org/1999/xlink" xml:space="preserve" xmlns:serif="http://www.serif.com/" style="fill-rule:evenodd;clip-rule:evenodd;stroke-linejoin:round;stroke-miterlimit:2;">
    <g transform="matrix(0.0190854,-0.0035564,0.0035564,0.0190854,-9.29017,-3.446)">
        <path d="M1105.19,1023.22C1201.77,972.786 1297.2,917.941 1392.22,865.122C1389.99,869.705 1354.64,929.841 1354.64,943.144C1354.64,945.848 1420.64,860.8 1434.52,841.727C1472.75,820.695 1511.12,799.957 1549.85,780.179C1595.95,756.644 1641.85,734.938 1686.57,707.925C1765.87,660.024 1838.15,602.261 1918.07,555.43C1845.13,705.104 1776.26,855.229 1683.47,1004.93C1672.98,1010.39 1420.53,1175.48 1417.98,1178.03C1417.77,1178.23 1417.77,1178.7 1417.98,1178.9C1419.18,1180.11 1558.32,1139.15 1603.12,1123.21C1589.72,1141.26 1575.93,1159.27 1561.91,1177.28C1516.55,1235.61 1469.04,1293.71 1415.14,1349.55C1404.56,1360.51 1393.71,1371.36 1382.65,1382.11C1377.1,1382.48 1371.74,1383.16 1366.96,1384.76C1345.21,1392.01 1186.95,1413.11 1185.74,1415.55C1183.27,1420.48 1214.5,1423.19 1215.65,1424.34C1221.28,1429.98 1309.79,1435.61 1325.16,1435.56C1307.29,1451.54 1289.09,1467.33 1270.73,1482.94C1210.54,1534.13 1147.09,1584.14 1079.03,1627.82C995.002,1681.75 911.337,1685.26 838.085,1678.42C764.73,1671.57 697.77,1654.99 633.509,1636.27C608.13,1628.88 582.895,1621.18 558.094,1612.97C1178.06,1287.36 1693.53,824.232 1693.53,824.232C1354.55,1091.02 820.133,1358.8 470.215,1520.79C473.87,1506.52 478.095,1492.14 482.646,1477.81C508.128,1397.53 547.842,1307.46 641.984,1237.14C659.852,1223.79 678.896,1211.61 698.551,1200.82C711.741,1193.58 725.191,1186.98 738.762,1181C738.798,1203.39 737.84,1246.07 737.396,1258.25C736.726,1276.61 738.686,1325.6 742.824,1329.73C743.207,1330.12 774.694,1185.38 780.062,1164.83C844.308,1141.92 908.78,1118.14 972.365,1088.82C1003.51,1074.46 1034.5,1059.36 1065.37,1043.72C1063.85,1046.21 1026.14,1099.64 1024.02,1120.63C1023.97,1120.7 1023.92,1120.77 1023.87,1120.85C1023.37,1121.57 1023.87,1124.36 1023.87,1123.48C1023.87,1122.56 1023.92,1121.6 1024.02,1120.63C1026.72,1116.76 1091.21,1043.5 1105.19,1023.22Z"/>
    </g>
    <g transform="matrix(0.0187385,-0.00399491,0.00399491,0.0187385,-8.97058,-2.50025)">
        <path d="M1024.02,1120.63C1023.92,1121.6 1023.87,1122.56 1023.87,1123.48C1023.87,1124.36 1023.37,1121.57 1023.87,1120.85C1023.92,1120.77 1023.97,1120.7 1024.02,1120.63Z"/>
    </g>
    <g transform="matrix(0.0169822,-0.00316448,0.00316448,0.0169822,-8.19875,0.339832)">
        <path d="M227.539,1626.27C227.539,1626.27 800.202,1389.59 1250.17,1141.96C1250.17,1141.96 854.309,1441.48 184.584,1755.13C184.584,1755.13 200.913,1716.72 227.539,1626.27Z"/>
    </g>
    <g transform="matrix(0.0161726,0,0,0.0169166,-1.30925,-1.52941)">
        <path d="M590.379,912.664L527.458,955.192L527.458,181.399L590.379,181.399L590.379,912.664Z"/>
    </g>
    <g transform="matrix(0.0161726,0,0,0.0169166,-1.30925,-1.52941)">
        <path d="M884.186,714.083L821.265,756.611L821.265,181.399L884.186,181.399L884.186,714.083Z"/>
    </g>
    <g transform="matrix(0.0161726,0,0,0.0169166,-1.30925,-1.52941)">
        <path d="M1174.56,517.824L1111.64,560.352L1111.64,181.399L1174.56,181.399L1174.56,517.824Z"/>
    </g>
    <g transform="matrix(0.0161726,0,0,0.0169166,-1.30925,-1.52941)">
        <path d="M1463.21,322.727L1400.29,365.255L1400.29,181.399L1463.21,181.399L1463.21,322.727Z"/>
    </g>
    <g transform="matrix(0.0161726,0,0,0.0169166,-1.30925,-1.52941)">
        <path d="M305.162,1105.44L242.241,1147.97L242.241,181.399L305.162,181.399L305.162,1105.44Z"/>
    </g>
</svg>
