<?xml version="1.0" encoding="UTF-8" standalone="no"?>
<!DOCTYPE svg PUBLIC "-//W3C//DTD SVG 1.1//EN" "http://www.w3.org/Graphics/SVG/1.1/DTD/svg11.dtd">
<svg width="100%" height="100%" viewBox="0 0 30 30" version="1.1" xmlns="http://www.w3.org/2000/svg" xmlns:xlink="http://www.w3.org/1999/xlink" xml:space="preserve" xmlns:serif="http://www.serif.com/" style="fill-rule:evenodd;clip-rule:evenodd;stroke-linejoin:round;stroke-miterlimit:2;">
    <g transform="matrix(1.08693,0,0,1.08693,-0.560494,-2.08038)">
        <path d="M5.402,27.91C4.425,27.494 3.553,26.801 3.205,26.209C2.706,25.361 2.229,23.806 2.334,22.56C2.44,21.313 3.491,19.572 4.291,18.376C5.085,17.191 6.455,16.322 7.286,14.94C8.023,13.714 8.774,11.873 8.675,10.73C8.596,9.819 7.711,8.864 7.144,8.559C6.524,8.226 5.618,7.985 5.618,7.985C5.085,7.842 4.769,7.293 4.913,6.76C5.056,6.227 5.605,5.911 6.138,6.054C6.138,6.054 7.296,6.37 8.091,6.797C9.064,7.321 10.531,8.993 10.667,10.556C10.794,12.017 9.942,14.404 9,15.971C8.151,17.381 6.764,18.278 5.953,19.489C5.326,20.427 4.41,21.75 4.327,22.729C4.256,23.572 4.591,24.621 4.928,25.195C5.063,25.424 5.348,25.66 5.696,25.855C6.234,23.606 7.521,20.627 9.678,18.384L13.288,13.02L16.715,5.404C16.715,5.404 17.806,2.604 18.704,2.236L19.223,3.428C19.223,3.428 19.835,2.732 20.696,2.52L20.696,4.43C20.696,4.43 22.393,4.312 23.006,5.302C23.619,6.292 23.984,7.376 25.128,7.471C25.128,7.471 25.493,7.4 25.246,8.614C24.998,9.828 24.751,10.889 22.723,10.948C20.696,11.007 20.979,12.056 21.156,13.046C21.332,14.036 22.551,16.05 22.681,17.003C23.033,19.596 22.843,27.775 22.843,27.775C23.633,27.906 23.852,28.353 23.653,29.102L21.868,29.102L20.922,23.522L20.659,23.615L21.118,27.85C21.616,27.955 21.811,28.354 21.716,29.102L20.24,29.102L18.753,22.931L16.981,24.521C17.943,25.18 17.446,26.99 16.41,27.713L18.343,27.556C19.104,27.651 19.393,28.216 19.283,29.102L5.805,29.102C5.531,29.059 5.393,28.615 5.402,27.91ZM21.691,16.707C21.727,15.436 21.193,14.828 21.193,14.828L21.23,15.675L20.715,15.307C20.678,16.467 21.691,16.707 21.691,16.707ZM22.028,6.54C22.028,6.54 22.099,7.464 22.904,7.239C22.904,7.239 23.07,6.066 22.028,6.54Z"/>
    </g>
</svg>
