<?xml version="1.0" encoding="UTF-8" standalone="no"?><!DOCTYPE svg PUBLIC "-//W3C//DTD SVG 1.1//EN" "http://www.w3.org/Graphics/SVG/1.1/DTD/svg11.dtd"><svg width="100%" height="100%" viewBox="0 0 30 30" version="1.1" xmlns="http://www.w3.org/2000/svg" xmlns:xlink="http://www.w3.org/1999/xlink" xml:space="preserve" xmlns:serif="http://www.serif.com/" style="fill-rule:evenodd;clip-rule:evenodd;stroke-linejoin:round;stroke-miterlimit:2;"><g><path d="M25.203,-0l4.797,14.449l0,9.419l-2.369,-1.783l-2.186,-5.76l-0.689,-2.277l0.128,-1.341l-2.341,0.563l-0.178,1.381l0.754,2.687l-0.861,3.509l2.4,2.663l-3.394,-1.862l-0.003,-5.122l-8.389,-6.909l-1.394,1.331l4.108,3.708l0.46,-0.265l4.305,3.174l-1.342,8.461l3.081,1.878l2.761,0.07l2.276,2.026l-9.331,-0l-17.796,-6.003l0,-23.997l25.203,-0Zm-11.547,22.132l0.068,1.755l4.007,1.525l0.232,-1.707l-4.307,-1.573Zm5.592,-4.079l-3.611,-2.302l-1.129,1.748l4.241,2.444l0.499,-1.89Zm0.61,-6.764l-1.189,-8.549l-2.66,2.605l-3.51,-3.058l3.736,5.718l1.415,-2.264l2.208,5.548Zm-13.827,1.602l0,0.009l0.558,-0l0,-0.009c0.08,-0.002 0.167,0.005 0.223,0.005c0.476,0.001 0.951,-0.019 1.425,-0.062c0.337,-0.031 0.486,-0.08 0.796,-0.216c0.09,-0.039 0.146,-0.092 0.159,-0.192c0.148,-1.192 0.512,-2.384 0.658,-3.577c0.099,-0.807 1.343,-0.42 1.342,-1.303c-0.002,-0.447 -0.047,-0.934 -0.136,-1.462c-0.352,-2.075 -1.437,-4.162 -3.791,-4.598c-0.212,-0.04 -0.453,-0.067 -0.723,-0.081c-0.006,-0 -0.01,0.004 -0.011,0.008l-0.451,0.006l-0.001,-0.006c0,-0.004 -0.005,-0.008 -0.01,-0.008c-0.27,0.014 -0.511,0.041 -0.723,0.081c-2.354,0.436 -3.44,2.523 -3.791,4.598c-0.09,0.528 -0.135,1.015 -0.136,1.462c-0.002,0.883 1.243,0.496 1.342,1.303c0.146,1.193 0.48,2.425 0.629,3.617c0.012,0.1 0.068,0.153 0.158,0.192c0.31,0.136 0.488,0.145 0.826,0.176c0.474,0.043 0.949,0.063 1.425,0.062c0.058,-0 0.149,-0.008 0.232,-0.005Zm-2.502,-4.407c-0.602,-0.351 -0.783,-1.17 -0.769,-1.781c0.004,-0.186 0.572,-0.266 0.71,-0.281c0.489,-0.053 1.082,0.019 1.603,0.122c0.13,0.026 0.492,0.417 0.531,0.557c0.133,0.476 0.166,0.754 -0.238,1.146c-0.072,0.07 -0.171,0.133 -0.297,0.189c-0.463,0.206 -1.084,0.313 -1.54,0.048Zm5.552,-0c-0.456,0.265 -1.077,0.158 -1.539,-0.048c-0.126,-0.056 -0.226,-0.119 -0.298,-0.189c-0.403,-0.392 -0.259,-0.67 -0.126,-1.146c0.039,-0.14 0.431,-0.557 0.561,-0.582c0.522,-0.104 0.972,-0.15 1.461,-0.097c0.139,0.015 0.707,0.095 0.711,0.281c0.014,0.611 -0.167,1.43 -0.77,1.781Zm-2.171,2.739l-1.335,-0.017l0,0.614l-0.472,-0c-0.006,-0 -0.011,-0.005 -0.011,-0.01l0,-0.602c0,-0.004 -0.004,-0.008 -0.009,-0.008l-1.537,0.033c-0.006,-0 -0.01,-0.005 -0.01,-0.01l0,-0.465c0,-0.006 0.004,-0.011 0.01,-0.011l1.536,-0.031c0.005,-0 0.01,-0.004 0.01,-0.01l0,-0.593c0,-0.005 0.005,-0.01 0.011,-0.01l0.472,-0l0,0.622l1.333,0.014c0.006,-0 0.011,-0.005 0.011,-0.01l0,-0.593c0,-0.006 0.004,-0.01 0.01,-0.01l0.479,-0c0.005,-0 0.01,0.004 0.01,0.01l0,0.593c0,0.005 0.005,0.01 0.011,0.01l1.676,-0.027c0.006,0 0.014,0.457 0.008,0.457l-1.685,0.055c-0.006,-0 -0.011,0.004 -0.011,0.01l0.001,0.599c0,0.005 -0.005,0.01 -0.01,0.01l-0.479,-0c-0.006,-0 -0.01,-0.005 -0.01,-0.01l0,-0.602c0,-0.004 -0.004,-0.008 -0.009,-0.008Zm0.273,-1.7l-0.861,-0.289c0,-0.001 -0.847,0.296 -0.842,0.287c0,-0 0.875,-1.381 0.874,-1.384c0,-0 0.839,1.388 0.829,1.386Zm-4.365,5.049l3.68,5.492l5.661,-4.303l-4.982,1.868l-4.359,-3.057Zm11.524,4.507l-0.766,1.992l4.554,1.62l0.292,-1.612l-4.08,-2Z"/></g></svg>