<?xml version="1.0" encoding="UTF-8" standalone="no"?><!DOCTYPE svg PUBLIC "-//W3C//DTD SVG 1.1//EN" "http://www.w3.org/Graphics/SVG/1.1/DTD/svg11.dtd"><svg width="100%" height="100%" viewBox="0 0 30 30" version="1.1" xmlns="http://www.w3.org/2000/svg" xmlns:xlink="http://www.w3.org/1999/xlink" xml:space="preserve" xmlns:serif="http://www.serif.com/" style="fill-rule:evenodd;clip-rule:evenodd;stroke-linejoin:round;stroke-miterlimit:2;"><g><path d="M0.686,3.511c0.397,0.386 9.677,8.68 12.922,19.6c-0,-0 -5.232,-8.897 -8.123,-10.557c-3.174,-1.824 -1.647,-4.679 -4.799,-9.043Zm-0,0c-0.014,-0.014 -0.017,-0.017 -0.008,-0.011c0.003,0.004 0.005,0.007 0.008,0.011Zm24.806,12.67c1.021,0.657 1.606,1.309 2.311,2.157c2.387,2.874 2.317,6.425 -0.551,9.416c-2.044,2.131 -6.408,3.075 -10.009,-0.378c-2.362,-2.265 -3.778,-7.774 -4.501,-11.065c1.172,1.85 2.997,2.738 4.82,3.457c-1.264,-2.714 -2.211,-6.041 -5.271,-7.804c3.816,0.671 10.037,2.181 13.201,4.217Zm-3.328,7.552c-0.669,0.029 -2.307,-0.293 -2.943,-0.677c0.87,1.08 2.405,2.851 3.692,3.253c0.074,0.023 0.149,0.04 0.224,0.051c0.511,0.138 1.016,0.086 1.539,-0.138c1.237,-0.53 1.61,-2.142 1.08,-3.378c-0.864,-2.016 -3.306,-3.593 -5.2,-4.823c1.354,1.794 1.464,3.866 1.608,5.712Zm-2.302,-10.873c0,0 -15.709,-3.66 -17.739,-9.511c0,-0 -0.696,-2.08 -0.775,-3.108c-0.08,-1.029 1.209,5.702 9.281,7.598c8.313,1.953 7.863,3.124 9.233,5.021Zm-11.668,-3.359c0,0 5.58,4.072 7.42,8.204c0,0 -4.608,-2.451 -7.42,-8.204Zm5.739,-3.002c-0.001,-0.287 0.232,-0.521 0.519,-0.521c0.287,-0.001 0.521,0.232 0.522,0.519c0,0.287 -0.233,0.521 -0.52,0.521c-0.287,0.001 -0.521,-0.232 -0.521,-0.519Zm-9.49,8.379c-0,-0.287 0.232,-0.521 0.52,-0.521c0.287,-0.001 0.52,0.232 0.521,0.519c0.001,0.287 -0.232,0.521 -0.52,0.521c-0.287,0.001 -0.52,-0.232 -0.521,-0.519Z"/></g><g><path d="M20.797,12.507c-0.001,-0.473 0.383,-0.858 0.856,-0.859c0.473,-0.001 0.858,0.383 0.859,0.856c0.001,0.473 -0.383,0.858 -0.856,0.859c-0.473,0.001 -0.858,-0.383 -0.859,-0.856Z"/></g><g><path d="M4.722,19.643c-0.001,-0.922 0.745,-1.671 1.667,-1.673c0.922,-0.002 1.671,0.745 1.673,1.667c0.001,0.921 -0.746,1.671 -1.667,1.673c-0.922,0.001 -1.671,-0.746 -1.673,-1.667Z"/></g><g><path d="M7.176,3.405c-0.002,-0.869 0.702,-1.575 1.571,-1.576c0.868,-0.002 1.575,0.702 1.576,1.57c0.002,0.869 -0.702,1.575 -1.571,1.577c-0.868,0.001 -1.574,-0.703 -1.576,-1.571Z"/></g><g><path d="M17.933,7.825c-0.001,-0.48 0.388,-0.869 0.867,-0.87c0.479,-0.001 0.869,0.387 0.87,0.866c0,0.48 -0.388,0.869 -0.867,0.87c-0.479,0.001 -0.869,-0.387 -0.87,-0.866Z"/></g><g><path d="M9.834,21.785c-0.001,-0.399 0.322,-0.723 0.72,-0.724c0.399,-0 0.723,0.323 0.724,0.721c0,0.399 -0.323,0.723 -0.721,0.724c-0.399,0 -0.723,-0.323 -0.723,-0.721Z"/></g></svg>