<?xml version="1.0" encoding="UTF-8" standalone="no"?>
<!DOCTYPE svg PUBLIC "-//W3C//DTD SVG 1.1//EN" "http://www.w3.org/Graphics/SVG/1.1/DTD/svg11.dtd">
<svg width="100%" height="100%" viewBox="0 0 30 30" version="1.1" xmlns="http://www.w3.org/2000/svg" xmlns:xlink="http://www.w3.org/1999/xlink" xml:space="preserve" xmlns:serif="http://www.serif.com/" style="fill-rule:evenodd;clip-rule:evenodd;stroke-linejoin:round;stroke-miterlimit:2;">
    <g transform="matrix(0.353578,0,0,0.353578,-85.7765,-96.6476)">
        <g transform="matrix(2.82823,0,0,2.82823,242.939,272.229)">
            <path d="M14.879,6.969C23.07,6.969 29.721,9.287 29.721,12.143C29.721,14.998 23.07,17.316 14.879,17.316C6.687,17.316 0.036,14.998 0.036,12.143C0.036,9.287 6.687,6.969 14.879,6.969ZM14.828,14.321C10.457,14.463 3.711,13.308 3.513,13.534C3.302,13.774 9.766,15.253 14.828,15.253C22.348,15.253 28.454,13.583 28.454,11.527C27.318,13.069 21.6,14.101 14.828,14.321Z"/>
        </g>
        <g transform="matrix(3.04498,0,0,2.10471,239.714,291.908)">
            <path d="M8.496,25.572C7.73,25.298 7.285,24.971 7.285,24.62C7.285,24.183 7.976,23.783 9.119,23.476L8.496,25.572ZM9.996,23.275C10.495,23.178 11.05,23.095 11.647,23.03L10.736,26.093C10.185,26.01 9.684,25.91 9.245,25.798L9.996,23.275ZM12.487,22.952C12.999,22.913 13.535,22.886 14.089,22.873L13.061,26.327C12.523,26.296 12.008,26.252 11.521,26.197L12.487,22.952ZM14.908,22.863C15.446,22.864 15.97,22.877 16.475,22.902L15.443,26.373C15.256,26.376 15.068,26.378 14.879,26.378C14.536,26.378 14.198,26.372 13.867,26.362L14.908,22.863ZM17.277,22.953C17.816,22.994 18.329,23.049 18.807,23.117L17.879,26.235C17.368,26.286 16.828,26.324 16.266,26.348L17.277,22.953ZM19.586,23.242C20.146,23.344 20.642,23.465 21.058,23.599L20.395,25.827C19.905,25.947 19.343,26.051 18.725,26.135L19.586,23.242ZM21.788,23.891C22.227,24.113 22.472,24.36 22.472,24.62C22.472,24.967 22.039,25.289 21.291,25.562L21.788,23.891Z"/>
        </g>
    </g>
</svg>
