<?xml version="1.0" encoding="UTF-8" standalone="no"?>
<!DOCTYPE svg PUBLIC "-//W3C//DTD SVG 1.1//EN" "http://www.w3.org/Graphics/SVG/1.1/DTD/svg11.dtd">
<svg width="100%" height="100%" viewBox="0 0 30 30" version="1.1" xmlns="http://www.w3.org/2000/svg" xmlns:xlink="http://www.w3.org/1999/xlink" xml:space="preserve" xmlns:serif="http://www.serif.com/" style="fill-rule:evenodd;clip-rule:evenodd;stroke-linejoin:round;stroke-miterlimit:2;">
    <g transform="matrix(0.36068,0,0,0.36068,-87.7787,-100.182)">
        <g>
            <g transform="matrix(-2.8115,4.86966,-4.86966,-2.8115,409.429,213.115)">
                <path d="M21.109,10.643C21.836,9.97 22.658,8.716 20.73,7.581C18.803,6.446 20.406,5.69 21.217,5.186C22.027,4.681 27.61,1.62 27.61,1.62C27.61,1.62 29.79,0.449 28.295,2.16C26.8,3.871 24.657,5.33 24.657,5.33C24.657,5.33 27.304,3.853 27.61,4.321C27.916,4.789 24.981,6.861 24.098,7.221C24.098,7.221 26.512,6.284 27.034,6.356C27.556,6.428 27.214,7.329 25.881,7.941C24.549,8.554 23.666,8.878 23.666,8.878C23.666,8.878 26.296,8.518 26.043,9.184C25.791,9.85 24.134,10.084 23.36,10.102C23.36,10.102 25.143,10.499 24.729,10.895C24.314,11.291 23.576,11.021 23.36,10.985C23.36,10.985 23.804,11.251 23.58,11.41C23.355,11.57 22.748,11.599 22.352,11.528C22.352,11.528 22.848,11.894 22.618,12.089C22.388,12.284 21.768,12.001 21.591,11.888C20.332,12.518 20.344,11.351 21.109,10.643Z"/>
            </g>
            <g transform="matrix(2.8115,4.86966,4.86966,-2.8115,160.487,213.115)">
                <path d="M21.109,10.643C21.836,9.97 22.658,8.716 20.73,7.581C18.803,6.446 20.406,5.69 21.217,5.186C22.027,4.681 27.61,1.62 27.61,1.62C27.61,1.62 29.79,0.449 28.295,2.16C26.8,3.871 24.657,5.33 24.657,5.33C24.657,5.33 27.304,3.853 27.61,4.321C27.916,4.789 24.981,6.861 24.098,7.221C24.098,7.221 26.512,6.284 27.034,6.356C27.556,6.428 27.214,7.329 25.881,7.941C24.549,8.554 23.666,8.878 23.666,8.878C23.666,8.878 26.296,8.518 26.043,9.184C25.791,9.85 24.134,10.084 23.36,10.102C23.36,10.102 25.143,10.499 24.729,10.895C24.314,11.291 23.576,11.021 23.36,10.985C23.36,10.985 23.804,11.251 23.58,11.41C23.355,11.57 22.748,11.599 22.352,11.528C22.352,11.528 22.848,11.894 22.618,12.089C22.388,12.284 21.768,12.001 21.591,11.888C20.332,12.518 20.344,11.351 21.109,10.643Z"/>
            </g>
        </g>
    </g>
    <g transform="matrix(-1.10914,-1.3583e-16,1.79573e-16,-1.46633,26.7395,60.6735)">
        <path d="M6.661,21.993C6.661,21.993 8.617,22.945 8.617,28.515C8.617,28.526 7.139,28.515 7.139,28.515C8.213,24.927 7.053,22.967 6.661,21.993Z"/>
    </g>
    <g transform="matrix(1.10914,-2.20838e-16,-9.39751e-17,-1.46633,3.26046,60.6735)">
        <path d="M6.661,21.993C6.661,21.993 8.617,22.945 8.617,28.515C8.617,28.526 7.139,28.515 7.139,28.515C8.213,24.927 7.053,22.967 6.661,21.993Z"/>
    </g>
    <g transform="matrix(-0.898763,-1.10067e-16,1.09013e-16,-0.890156,28.8112,48.0016)">
        <path d="M6.661,21.993C6.661,21.993 8.617,22.945 8.617,28.515C8.617,28.526 7.139,28.515 7.139,28.515C8.213,24.927 7.053,22.967 6.661,21.993Z"/>
    </g>
    <g transform="matrix(0.898763,-1.17481e-16,-1.01909e-16,-0.890156,1.18876,48.0016)">
        <path d="M6.661,21.993C6.661,21.993 8.617,22.945 8.617,28.515C8.617,28.526 7.139,28.515 7.139,28.515C8.213,24.927 7.053,22.967 6.661,21.993Z"/>
    </g>
</svg>
