<?xml version="1.0" encoding="UTF-8" standalone="no"?><!DOCTYPE svg PUBLIC "-//W3C//DTD SVG 1.1//EN" "http://www.w3.org/Graphics/SVG/1.1/DTD/svg11.dtd"><svg width="100%" height="100%" viewBox="0 0 30 30" version="1.1" xmlns="http://www.w3.org/2000/svg" xmlns:xlink="http://www.w3.org/1999/xlink" xml:space="preserve" xmlns:serif="http://www.serif.com/" style="fill-rule:evenodd;clip-rule:evenodd;stroke-linejoin:round;stroke-miterlimit:2;"><g><path d="M0,4.949l3.495,-0c0.37,-0 0.671,0.301 0.671,0.671l-0,1.34c-0,0.37 -0.301,0.671 -0.671,0.671l-3.495,-0l0,-2.682Zm0,17.857l11.135,0c0.37,0 0.671,0.301 0.671,0.671l0,1.34c0,0.37 -0.301,0.671 -0.671,0.671l-11.135,0l0,-2.682Zm30,-5.219l-1.173,0l-6.593,0c-0.37,0 -0.671,-0.3 -0.671,-0.67l0,-1.341c0,-0.37 0.301,-0.67 0.671,-0.67l7.224,-0l0.542,-0l0,2.681Zm0,-13.314l-3.697,-0c-0.37,-0 -0.67,-0.301 -0.67,-0.671l-0,-1.34c-0,-0.37 0.3,-0.671 0.67,-0.671l3.697,-0l0,2.682Zm-30,-2.936l9.518,0c0.37,0 0.671,0.301 0.671,0.671l0,1.34c0,0.37 -0.301,0.671 -0.671,0.671l-9.518,0l0,-2.682Zm13.285,18.918l-8.555,0c-2.402,0 -4.352,-1.95 -4.352,-4.352c-0,-2.402 1.95,-4.352 4.352,-4.352c0.417,0 0.821,0.058 1.203,0.168c-0.059,-0.329 -0.089,-0.667 -0.089,-1.012c0,-3.198 2.596,-5.794 5.794,-5.794c1.774,0 3.363,0.799 4.427,2.056c0.486,-1.86 2.179,-3.234 4.19,-3.234c2.39,0 4.331,1.941 4.331,4.331c-0,0.684 -0.159,1.33 -0.441,1.905c0.058,-0.002 0.116,-0.003 0.174,-0.003c2.497,0 4.581,1.784 5.046,4.146l-7.131,0c-0.808,0 -1.463,0.655 -1.463,1.462l0,1.341c0,0.487 0.238,0.918 0.604,1.184l-6.627,0c-0.807,0 -1.463,0.656 -1.463,1.463l0,0.691Zm15.984,3.732l0,1.34c0,0.37 -0.3,0.671 -0.67,0.671l-7.563,-0c-0.37,-0 -0.67,-0.301 -0.67,-0.671l-0,-1.34c-0,-0.37 0.3,-0.671 0.67,-0.671l7.563,-0c0.37,-0 0.67,0.301 0.67,0.671Zm-1.466,-5.093l0.35,-0.001c0.37,0 0.671,0.301 0.671,0.671l0,1.34c0,0.37 -0.301,0.671 -0.671,0.671l-13.405,0c-0.37,0 -0.67,-0.301 -0.67,-0.671l0,-1.34c0,-0.37 0.3,-0.67 0.67,-0.67l13.055,-0Zm-12.487,8.037l-0,1.34c-0,0.37 -0.301,0.671 -0.671,0.671l-7.008,-0c-0.37,-0 -0.67,-0.301 -0.67,-0.671l-0,-1.34c-0,-0.37 0.3,-0.671 0.67,-0.671l7.008,-0c0.37,-0 0.671,0.301 0.671,0.671Z"/></g></svg>