<?xml version="1.0" encoding="UTF-8" standalone="no"?>
<!DOCTYPE svg PUBLIC "-//W3C//DTD SVG 1.1//EN" "http://www.w3.org/Graphics/SVG/1.1/DTD/svg11.dtd">
<svg width="100%" height="100%" viewBox="0 0 30 30" version="1.1" xmlns="http://www.w3.org/2000/svg" xmlns:xlink="http://www.w3.org/1999/xlink" xml:space="preserve" xmlns:serif="http://www.serif.com/" style="fill-rule:evenodd;clip-rule:evenodd;stroke-linejoin:round;stroke-miterlimit:2;">
    <g transform="matrix(1.09865,-0.300209,0.280765,1.02749,-6.02801,0.698192)">
        <ellipse cx="10.721" cy="6.22" rx="2.572" ry="3.587"/>
    </g>
    <g transform="matrix(1.09275,0,0,1.09275,-4.29761,-2.15415)">
        <path d="M9.706,9.626C9.706,9.626 12.351,10.495 14.09,8.539L16.952,8.611L20.177,11.184L22.387,14.481L20.829,15.423L18.655,12.234L16.554,11.148L18.655,16.003L17.641,22.524L20.648,26.654L19.416,29.299L18.728,26.799L15.105,22.814L15.684,17.307L14.923,17.56L13.293,22.814L15.032,26.654L13.583,28.973L13.329,26.691L10.684,22.452L12.677,16.22L10.938,12.053L9.489,15.061L6.699,18.14L5.25,16.8L7.786,13.792L8.737,10.94L9.706,9.626"/>
    </g>
    <g transform="matrix(0.927572,0,0,0.927572,0.23528,2.03668)">
        <path d="M13.386,0.604C14.225,0.216 15.206,0.043 16.262,0.146C18.774,0.463 21.088,2.385 21.689,4.809C21.703,4.865 21.715,4.921 21.727,4.978C22.244,4.671 22.862,4.48 23.557,4.441C25.986,4.306 28.425,6.079 28.999,8.399C29.483,10.351 28.494,12.073 26.721,12.65C28.254,13.611 29.448,15.108 29.874,16.83C30.643,19.935 28.63,22.602 25.38,22.784C25.029,22.803 24.679,22.793 24.33,22.755C24.534,23.119 24.69,23.508 24.79,23.913C25.307,26.001 24.148,27.827 22.146,28.283C22.124,28.239 21.775,25.978 21.766,25.946C23.163,25.395 23.923,23.977 23.527,22.377C23.441,22.033 23.308,21.702 23.135,21.391C23.432,21.424 23.73,21.433 24.029,21.416C26.795,21.261 28.509,18.99 27.855,16.348C27.492,14.882 26.475,13.607 25.17,12.789C26.68,12.297 27.522,10.832 27.11,9.17C26.621,7.195 24.544,5.685 22.477,5.801C21.885,5.834 21.359,5.997 20.919,6.258C20.909,6.21 20.898,6.162 20.886,6.114C20.375,4.05 18.405,2.415 16.267,2.145C15.428,2.062 14.645,2.185 13.964,2.47C13.734,1.868 13.491,1.241 13.386,0.604Z"/>
    </g>
</svg>
