<?xml version="1.0" encoding="UTF-8" standalone="no"?>
<!DOCTYPE svg PUBLIC "-//W3C//DTD SVG 1.1//EN" "http://www.w3.org/Graphics/SVG/1.1/DTD/svg11.dtd">
<svg width="100%" height="100%" viewBox="0 0 30 30" version="1.1" xmlns="http://www.w3.org/2000/svg" xmlns:xlink="http://www.w3.org/1999/xlink" xml:space="preserve" xmlns:serif="http://www.serif.com/" style="fill-rule:evenodd;clip-rule:evenodd;stroke-linejoin:round;stroke-miterlimit:2;">
    <g transform="matrix(1.02974,0,0,1.02974,-0.387778,-0.497575)">
        <path d="M8.666,10.427C8.433,10.437 8.193,10.442 7.947,10.442C5.869,10.442 4.182,10.08 4.182,9.633C4.182,9.187 5.869,8.825 7.947,8.825C8.53,8.825 9.082,8.853 9.575,8.904L9.944,8.578C9.944,8.578 12.729,9.494 14.561,7.433L17.576,7.509C17.857,7.49 18.158,7.48 18.472,7.48C20.02,7.48 21.277,7.729 21.277,8.036C21.277,8.313 20.258,8.542 18.925,8.585L20.972,10.219L23.3,13.692L21.659,14.684L19.369,11.326L17.156,10.181L19.369,15.294L18.916,18.209C19.412,18.158 19.968,18.129 20.556,18.129C22.634,18.129 24.321,18.491 24.321,18.937C24.321,19.384 22.634,19.746 20.556,19.746C19.878,19.746 19.243,19.708 18.693,19.64L18.301,22.163L18.659,22.655C18.991,22.587 19.4,22.547 19.844,22.547C20.951,22.547 21.849,22.796 21.849,23.104C21.849,23.411 20.951,23.66 19.844,23.66C19.684,23.66 19.529,23.655 19.38,23.645L21.468,26.514L20.171,29.299L19.446,26.666L15.629,22.469L16.24,16.668L15.439,16.935L13.721,22.469L15.669,26.328L13.679,29.443L13.76,26.552L11.092,22.277C10.69,22.308 10.255,22.326 9.802,22.326C7.724,22.326 6.037,21.963 6.037,21.517C6.037,21.071 7.724,20.708 9.802,20.708C10.37,20.708 10.908,20.735 11.391,20.784L13.073,15.523L11.241,11.135L9.715,14.302L6.776,17.546L5.25,16.134L7.921,12.967L8.666,10.427ZM13.908,3.927C14.231,5.734 13.454,7.418 12.059,7.799C10.556,8.21 8.9,6.952 8.364,4.991C7.829,3.031 8.614,1.105 10.118,0.694C11.354,0.357 12.693,1.147 13.428,2.529C14.031,2.441 14.758,2.39 15.541,2.39C17.619,2.39 19.306,2.752 19.306,3.199C19.306,3.645 17.619,4.007 15.541,4.007C14.956,4.007 14.402,3.979 13.908,3.927Z"/>
    </g>
    <g transform="matrix(0.967257,0,0,1.19377,1.07991,-3.31075)">
        <ellipse cx="25.781" cy="16.641" rx="2.293" ry="0.509"/>
    </g>
    <g transform="matrix(1.61816,0,0,1.19377,-35.4357,3.4466)">
        <ellipse cx="25.781" cy="16.641" rx="2.293" ry="0.509"/>
    </g>
    <g transform="matrix(1.30084,0,0,1.19377,-10.5594,-13.4915)">
        <ellipse cx="25.781" cy="16.641" rx="2.293" ry="0.509"/>
    </g>
    <g transform="matrix(1.77943,0,0,1.49903,-41.769,-17.4287)">
        <ellipse cx="25.781" cy="16.641" rx="2.293" ry="0.509"/>
    </g>
    <g transform="matrix(1.77943,0,0,1.49903,-20.4285,-4.11695)">
        <ellipse cx="25.781" cy="16.641" rx="2.293" ry="0.509"/>
    </g>
</svg>
