<?xml version="1.0" encoding="UTF-8" standalone="no"?><!DOCTYPE svg PUBLIC "-//W3C//DTD SVG 1.1//EN" "http://www.w3.org/Graphics/SVG/1.1/DTD/svg11.dtd"><svg width="100%" height="100%" viewBox="0 0 30 30" version="1.1" xmlns="http://www.w3.org/2000/svg" xmlns:xlink="http://www.w3.org/1999/xlink" xml:space="preserve" xmlns:serif="http://www.serif.com/" style="fill-rule:evenodd;clip-rule:evenodd;stroke-linejoin:round;stroke-miterlimit:2;"><g><path d="M30,8.86l0,6.709l-1.533,-0.551c-0,0 -4.615,-1.144 -8.011,-0.941c0,-0 -0.542,-0.304 -1.24,-0.705c-0.844,-0.484 -1.917,-1.11 -2.54,-1.513l-6.197,-2.155l-0.539,-2.183c0,-0 0.923,0.056 3.287,0.332c0.531,0.062 1.135,0.136 1.817,0.222c1.014,0.128 2.202,0.284 3.582,0.475c-0,0 -1.418,-2.079 -6.305,-2.091c-4.888,-0.012 -8.673,2.094 -8.673,2.094l-1.474,-2.094c0,0 7.629,-3.64 12.508,-3.939c0,-0 3.236,0.191 4.708,0.798c2.558,1.054 3.498,4.334 10.61,5.542Z"/><g><path d="M8.67,7.953l0.559,1.2l-4.475,1.056l-0.923,-0.865l4.839,-1.391Z"/></g><g><path d="M8.972,9.97l-2.879,0.642l0.621,0.749l1.529,-0.283c0.203,-0.4 0.449,-0.771 0.729,-1.108Z"/></g><g><path d="M9.744,21.015c-0.22,1.188 -2.9,2.956 -2.598,2.903l-2.027,-0.491l-1.186,1.054l3.608,1.76l3.899,-2.079l6.088,1.031l6.318,1.445l4.195,-2.435l1.749,0.421l-1.483,-2.417l-4.992,0.95l-4.328,-1.097l0.162,-0.684l4.661,0.755l2.207,-3.121l2.051,-0.645l-3.217,-1.066l-2.711,1.497l-3.683,-0.833l-9.466,-2.64c0,0 -4.557,1.706 -5.86,2.301c-0.424,0.562 -2.956,4.122 -2.956,4.122l2.641,-0.067c-0,-0 -0.304,-1.369 0.401,-2.542c0.393,-0.653 1.264,-1.236 2.087,-1.363c0.902,-0.139 1.942,-0.367 3.326,0.526c1.384,0.893 1.155,2.497 1.114,2.715Z"/></g><g><path d="M8.12,22.094c0.005,0.006 1.051,-0.825 0.938,-1.906c-0.129,-1.234 -1.307,-1.671 -1.311,-1.662c-0.272,-0.146 -0.579,-0.254 -0.907,-0.317c-0.311,-0.05 -0.641,-0.061 -0.98,-0.025c-1.631,0.17 -2.693,1.329 -2.56,2.606c0.133,1.277 1.412,2.191 3.044,2.021c0.433,-0.046 0.837,-0.162 1.195,-0.332c0.213,-0.11 0.408,-0.239 0.581,-0.385Z"/></g><g><path d="M12.023,25.185l-2.153,1.114c-0,0 0.037,2.154 3.899,1.559c3.862,-0.594 -0.789,-1.397 1.699,-1.1c2.489,0.297 2.738,-0.379 2.738,-0.379l-6.183,-1.194Z"/></g></g></svg>