<?xml version="1.0" encoding="UTF-8" standalone="no"?><!DOCTYPE svg PUBLIC "-//W3C//DTD SVG 1.1//EN" "http://www.w3.org/Graphics/SVG/1.1/DTD/svg11.dtd"><svg width="100%" height="100%" viewBox="0 0 30 30" version="1.1" xmlns="http://www.w3.org/2000/svg" xmlns:xlink="http://www.w3.org/1999/xlink" xml:space="preserve" xmlns:serif="http://www.serif.com/" style="fill-rule:evenodd;clip-rule:evenodd;stroke-linejoin:round;stroke-miterlimit:2;"><g><path d="M30,8.595l0,6.574l-2.171,-0.781c0,0 -4.478,-1.11 -7.774,-0.914c0,0 -0.526,-0.294 -1.204,-0.683c-0.819,-0.47 -1.86,-1.077 -2.464,-1.469l-6.014,-2.091l-0.523,-2.119c0,0 0.896,0.055 3.19,0.323c0.515,0.061 1.101,0.132 1.763,0.215c0.984,0.124 2.137,0.276 3.476,0.462c-0,-0 -1.376,-2.018 -6.119,-2.03c-4.743,-0.011 -8.416,2.033 -8.416,2.033l-1.43,-2.033c-0,0 7.403,-3.533 12.138,-3.823c0,0 3.14,0.186 4.569,0.775c2.495,1.028 3.403,4.24 10.405,5.396l0.574,0.165Z"/><g><path d="M8.617,7.532l0.543,1.165l-4.343,1.024l-0.895,-0.839l4.695,-1.35Z"/></g><g><path d="M8.911,9.49l-2.794,0.623l0.602,0.726l1.484,-0.274c0.198,-0.389 0.436,-0.749 0.708,-1.075Z"/></g><g><path d="M22.027,24.801l0.014,0.006l0.331,-0.827l-0.014,-0.006c0.044,-0.119 0.106,-0.244 0.139,-0.327c0.284,-0.704 0.535,-1.419 0.753,-2.147c0.155,-0.517 0.17,-0.766 0.153,-1.306c-0.005,-0.156 -0.05,-0.271 -0.191,-0.348c-1.677,-0.926 -3.227,-2.171 -4.906,-3.094c-1.137,-0.624 0.174,-2.238 -1.135,-2.759c-0.662,-0.263 -1.41,-0.484 -2.245,-0.665c-3.279,-0.709 -7.013,-0.338 -9.054,2.889c-0.184,0.29 -0.366,0.63 -0.547,1.022l-0.001,0c-0.003,0.008 -0.001,0.018 0.006,0.021l0,-0l-0.259,0.672l-0.009,-0.003l0,0c-0.007,-0.002 -0.015,0.002 -0.018,0.01l0,0.001c-0.139,0.409 -0.242,0.781 -0.309,1.117c-0.748,3.745 1.699,6.589 4.562,8.338c0.729,0.445 1.424,0.801 2.084,1.067c1.307,0.526 1.471,-1.546 2.725,-1.215c1.852,0.491 3.875,0.726 5.728,1.213c0.155,0.041 0.267,-0.012 0.378,-0.121c0.385,-0.379 0.504,-0.637 0.749,-1.118c0.344,-0.677 0.656,-1.368 0.936,-2.073c0.034,-0.086 0.077,-0.227 0.13,-0.347Zm-4.717,-7.128c0.122,0.833 -0.405,1.688 -0.984,2.251c-0.158,0.154 -0.31,0.263 -0.456,0.329c-0.819,0.365 -1.145,-0.013 -1.771,-0.492c-0.184,-0.141 -0.569,-0.969 -0.53,-1.176c0.156,-0.833 0.355,-1.528 0.723,-2.22c0.104,-0.197 0.56,-0.99 0.837,-0.886c0.913,0.341 2.018,1.094 2.181,2.194Zm2.769,4.839l-0.817,1.966l0.909,0.364l-0.279,0.698c-0.004,0.009 -0.013,0.013 -0.021,0.01l-0.891,-0.357c-0.006,-0.002 -0.014,0.002 -0.017,0.01l-0.863,2.294c-0.003,0.009 -0.013,0.013 -0.021,0.01l-0.689,-0.276c-0.008,-0.003 -0.012,-0.013 -0.008,-0.021l0.863,-2.292c0.004,-0.009 -0,-0.019 -0.009,-0.022l-0.877,-0.351c-0.009,-0.003 -0.013,-0.013 -0.009,-0.022l0.279,-0.698l0.921,0.368l0.811,-1.966c0.004,-0.008 -0.001,-0.018 -0.009,-0.021l-0.877,-0.352c-0.009,-0.003 -0.013,-0.013 -0.009,-0.022l0.283,-0.708c0.004,-0.008 0.013,-0.012 0.022,-0.009l0.877,0.351c0.008,0.003 0.018,-0.001 0.022,-0.01l0.865,-2.533c0.004,-0.009 0.772,0.285 0.769,0.294l-0.918,2.528c-0.003,0.008 0.001,0.018 0.009,0.021l0.887,0.354c0.009,0.004 0.013,0.013 0.009,0.022l-0.283,0.708c-0.004,0.008 -0.013,0.013 -0.022,0.01l-0.89,-0.357c-0.006,-0.003 -0.014,0.001 -0.017,0.009Zm-6.059,3.382c-0.876,0.684 -2.196,0.467 -3.092,0.084c-0.273,-0.116 -0.055,-1.005 0.005,-1.219c0.211,-0.755 0.668,-1.59 1.13,-2.301c0.115,-0.177 0.908,-0.48 1.139,-0.455c0.783,0.085 1.214,0.201 1.555,1.03c0.061,0.148 0.096,0.332 0.104,0.552c0.031,0.808 -0.178,1.791 -0.841,2.309Zm3.704,-4.795l-0.939,1.104c-0.001,0 -0.064,1.43 -0.073,1.417c0,0 -1.526,-2.113 -1.532,-2.115c0,0 2.553,-0.419 2.544,-0.406Z"/></g></g></svg>