<?xml version="1.0" encoding="UTF-8" standalone="no"?><!DOCTYPE svg PUBLIC "-//W3C//DTD SVG 1.1//EN" "http://www.w3.org/Graphics/SVG/1.1/DTD/svg11.dtd"><svg width="100%" height="100%" viewBox="0 0 30 30" version="1.1" xmlns="http://www.w3.org/2000/svg" xmlns:xlink="http://www.w3.org/1999/xlink" xml:space="preserve" xmlns:serif="http://www.serif.com/" style="fill-rule:evenodd;clip-rule:evenodd;stroke-linejoin:round;stroke-miterlimit:2;"><g><path d="M1.446,-0l3.471,9.019l-0.609,0.935l-4.308,-2.896l0,-7.058l1.446,-0Zm-1.446,10.421l3.084,2.9l-0.058,0.241l-3.026,-0.436l0,-2.705Zm0,5.841l2.204,0.695l-0.067,0.275l-2.137,0.675l0,-1.645Zm0,4.781l1.259,-0.182l-0.534,2.205l-0.725,0.682l0,-2.705Zm0,8.477l0.614,0.48l-0.614,0l0,-0.48Zm2.789,0.48l0.327,-0.171l-0.066,0.171l-0.261,0Zm3.031,0l1.341,-2.288l1.814,-0.95l0.264,3.238l-3.419,0Zm6.142,0l0.409,-5.015l0.054,-0.028l2.957,5.043l-3.42,0Zm6.189,0l-2.566,-6.665l9.917,6.665l-7.351,0Zm9.701,0l-8.963,-8.427l1.294,-0.677l9.817,1.413l-0,7.691l-2.148,0Zm2.148,-26.234l-4.778,1.573l4.778,-3.71l0,2.137Zm0,-3.656l-7.08,4.124l-0.839,10.882l-10.861,-0.564l-3.937,5.991l-0.068,-9.117l10.772,-0.019l0.344,-10.171l10.506,-1.236l1.163,-0l-0,0.11Zm-12.374,-0.11l-1.971,2.294l1.639,6.069l-4.644,2.058l2.439,-3.296l-1.868,-5.198l3.042,-1.927l1.363,-0Zm-5.322,-0l-2.012,2.83l1.154,7.171l-3.554,-1.912l-1.264,2.103l-0.492,-3.986l3.238,0.347l-1.67,-4.495l2.832,-2.058l1.768,-0Zm-10.731,26.053l1.186,-4.9l0.127,-0.526l2.287,-9.44l1.083,10.725l15.272,-3.443l-12.688,6.641l-0.222,0.116l-4.671,2.445l-3.168,1.658l0.794,-3.276Zm11.361,-10.336l12.5,0.608l-1.63,-3.98l1.477,-1.388l-1.731,-1.689l4.796,-3.351l-1.943,3.521l3.001,0.249l-2.979,2.864l1.33,5.41l-13.734,-0.473l-4.95,2.768l3.863,-4.539Z"/></g></svg>