<?xml version="1.0" encoding="UTF-8" standalone="no"?><!DOCTYPE svg PUBLIC "-//W3C//DTD SVG 1.1//EN" "http://www.w3.org/Graphics/SVG/1.1/DTD/svg11.dtd"><svg width="100%" height="100%" viewBox="0 0 30 30" version="1.1" xmlns="http://www.w3.org/2000/svg" xmlns:xlink="http://www.w3.org/1999/xlink" xml:space="preserve" xmlns:serif="http://www.serif.com/" style="fill-rule:evenodd;clip-rule:evenodd;stroke-linejoin:round;stroke-miterlimit:2;"><g><path d="M26.079,30l-3.955,-3.436l-2.736,3.045l-1.826,-1.563l1.201,-1.346l-16.414,-14.503l-1.952,-6.509l6.827,1.267l16.29,14.445l1.115,-1.355l1.906,1.616l-2.749,3.057l5.992,5.282l-3.699,0Zm-4.23,-6.758l-12.676,-11.264l-1.913,-0.332l0.678,2.089l12.503,11.076l1.408,-1.569Zm-14.054,-17.808l-2.614,-0.723c-0,-0 0.996,-1.789 0.495,-3.918c0.621,0.971 1.655,2.115 2.352,3.452c0.023,0.065 0.037,0.146 0.047,0.235c0.306,-0.949 0.862,-2.439 1.666,-3.698c-0.362,1.539 1.277,5.052 1.789,6.364c0.749,-2.019 1.388,-2.196 0.804,-4.678c0.621,0.972 1.369,2.235 2.067,3.571c0.654,-1.329 1.431,-2.603 2.039,-3.553c-0.363,1.539 0.067,2.937 0.58,4.249c0.748,-2.02 1.954,-4.18 1.37,-6.662c1.148,1.797 2.731,4.589 3.624,6.999c0.578,-1.49 1.053,-3.077 0.642,-4.822c1.489,2.329 3.71,6.335 4.207,9.007c0.007,0.04 0.264,2.478 0.369,4.744c0.447,-1.567 0.97,-3.407 1.39,-4.916c-0.95,6.109 1.068,8.777 0.723,12.463c-0.097,1.034 -1.016,1.795 -2.05,1.698c-0.41,-0.038 -1.351,-0.698 -1.351,-0.698l2.558,-2.962l-2.085,-2.007c-0.447,-0.325 -1.057,-0.89 -1.462,-1.279c-0.229,-1.371 -0.564,-2.869 -0.899,-4.732c0.161,2.641 -0.442,4.209 -0.848,5.673l-2.5,-2.239c0.118,-0.184 0.186,-0.403 0.186,-0.638c-0,-2.34 -1.428,-3.9 -1.19,-7.8c-0.486,2.699 -0.972,4.631 -1.134,6.523l-2.679,-2.399c-0.363,-1.251 -0.738,-2.691 -0.607,-4.842c-0.251,1.392 -0.501,2.58 -0.707,3.664l-6.782,-6.076Z"/></g></svg>