<?xml version="1.0" encoding="UTF-8" standalone="no"?><!DOCTYPE svg PUBLIC "-//W3C//DTD SVG 1.1//EN" "http://www.w3.org/Graphics/SVG/1.1/DTD/svg11.dtd"><svg width="100%" height="100%" viewBox="0 0 30 30" version="1.1" xmlns="http://www.w3.org/2000/svg" xmlns:xlink="http://www.w3.org/1999/xlink" xml:space="preserve" xmlns:serif="http://www.serif.com/" style="fill-rule:evenodd;clip-rule:evenodd;stroke-linejoin:round;stroke-miterlimit:2;"><g><path d="M30,18.018l0,7.192l-2.684,-0.057l-2.341,1.898l-3.887,0.624l-4.879,-7.973l-5.822,0.415l-0.194,0.546l-6.035,-0.168l0.158,-2.444l11.912,0.144l3.63,4.249l4.136,-0.859l-3.878,-0.51l-1.771,-3.522l-2.529,-1.696l-0.83,-1.272l1.544,-2.125l0.843,1.203l2.185,1.401l5.893,3.233l4.549,-0.279Zm-14.362,2.87l0.925,1.922l-5.25,0.976l-0.302,-2.25l4.627,-0.648Zm-1.751,7.346l4.688,-1.744l1.017,1.58l-4.406,1.573l-1.299,-1.409Zm-1.593,-3.019l4.803,-1.23l0.899,1.545l-4.927,1.881l-0.775,-2.196Z"/><path d="M11.016,10.325c0.178,0.91 0.128,1.577 0.033,2.414c-0.323,2.835 -2.318,4.674 -5.483,4.674c-2.255,-0 -5.082,-1.907 -5.082,-5.718c-0,-2.5 2.288,-6.193 3.721,-8.331c-0.401,1.624 0.074,3.099 0.641,4.484c0.828,-2.131 2.162,-4.412 1.516,-7.031c1.648,2.459 4.104,6.687 4.654,9.508Zm-5.923,2.157c-0.369,-0.353 -1.058,-1.427 -1.182,-1.981c-0.136,1.052 -0.301,2.834 0.158,3.755c0.027,0.054 0.057,0.104 0.091,0.152c0.193,0.354 0.489,0.605 0.889,0.775c0.946,0.401 2.032,-0.245 2.433,-1.191c0.655,-1.542 0.234,-3.722 -0.09,-5.416c-0.273,1.695 -1.357,2.851 -2.299,3.906Z"/></g></svg>