<?xml version="1.0" encoding="UTF-8" standalone="no"?>
<!DOCTYPE svg PUBLIC "-//W3C//DTD SVG 1.1//EN" "http://www.w3.org/Graphics/SVG/1.1/DTD/svg11.dtd">
<svg width="100%" height="100%" viewBox="0 0 30 30" version="1.1" xmlns="http://www.w3.org/2000/svg" xmlns:xlink="http://www.w3.org/1999/xlink" xml:space="preserve" xmlns:serif="http://www.serif.com/" style="fill-rule:evenodd;clip-rule:evenodd;stroke-linejoin:round;stroke-miterlimit:2;">
    <g transform="matrix(1.14332,0,0,1.14332,-4.04378,-3.63848)">
        <g transform="matrix(-1.08095,0,0,0.984481,32.3081,4.12502)">
            <path d="M13.091,19.849L13.091,21.123C13.091,21.123 12.801,23.675 14.917,23.675C17.033,23.675 17.236,23.385 17.874,22.574C18.511,21.762 19.236,21.008 21.265,20.777C23.294,20.545 25.091,19.153 25.352,17.849L25.439,14.197C25.439,14.197 25.509,17.05 20.83,18.11C19.716,18.362 19.808,18.42 17.931,19.936C17.13,20.583 16.548,21.208 15.091,21.153C13.555,21.095 13.091,19.849 13.091,19.849Z"/>
        </g>
        <g transform="matrix(0.95838,0,0,0.95838,2.23119,2.65263)">
            <path d="M14.836,3.972C14.788,3.851 14.762,3.719 14.762,3.581C14.762,2.993 15.24,2.515 15.829,2.515C16.213,2.515 16.549,2.718 16.737,3.023C17.072,2.224 17.861,1.663 18.781,1.663C19.563,1.663 20.252,2.07 20.646,2.684C20.776,2.643 20.914,2.621 21.057,2.621C21.81,2.621 22.421,3.23 22.425,3.981L14.84,3.981C14.838,3.978 14.837,3.975 14.836,3.972Z"/>
        </g>
        <g transform="matrix(1.14757,0,0,1.14757,-2.53265,-0.567347)">
            <path d="M16.544,6.131L16.538,6.131C16.539,6.128 16.54,6.126 16.541,6.123C16.542,6.126 16.543,6.128 16.544,6.131Z"/>
        </g>
        <g transform="matrix(1.08095,0,0,1.08095,-1.33074,0.605338)">
            <path d="M16.724,21.413C16.116,21.703 15.71,22.099 13.391,20.251C11.072,18.403 10.637,18.958 9.217,18.615C7.797,18.271 6.463,17.242 6.058,15.579C5.652,13.916 7.42,11.012 10.145,11.223C12.869,11.434 13.884,13.203 13.884,13.203C13.884,13.203 17.101,17.559 17.71,19.116C18.318,20.674 16.724,21.413 16.724,21.413ZM8.896,15.218C8.689,15.378 8.581,15.678 9.226,16.001C9.872,16.324 10.591,15.521 10.591,15.521C10.591,15.521 12.22,16.811 12.564,17.174C12.907,17.538 13.533,17.517 13.815,17.134C14.098,16.75 13.533,16.347 13.533,16.347L11.803,14.794C12.57,14.451 12.307,13.401 11.56,13.603C10.813,13.805 8.896,15.218 8.896,15.218Z"/>
        </g>
        <g transform="matrix(1.09665,0,0,1.09665,-1.79821,0.531797)">
            <path d="M14.262,11.274C14.089,11.755 12.196,9.576 8.673,10.451C6.457,11.001 5.895,13.622 5.634,13.172C5.399,12.767 5.264,12.295 5.264,11.793C5.264,10.273 6.498,9.039 8.017,9.039C8.414,9.039 8.791,9.123 9.132,9.274C9.549,8.285 10.529,7.59 11.67,7.59C13.189,7.59 14.423,8.824 14.423,10.344C14.423,10.67 14.366,10.983 14.262,11.274Z"/>
        </g>
        <g transform="matrix(0.900476,0,0,0.900476,3.1042,3.53364)">
            <path d="M18.176,20.942C17.714,19.607 17.092,17.925 16.605,17.044C15.734,15.466 13.517,12.605 13.517,12.605L14.329,4.612L23.181,4.612L23.498,7.675C23.612,7.668 23.727,7.664 23.842,7.664C26.832,7.664 29.26,10.092 29.26,13.082C29.26,15.811 27.239,18.071 24.613,18.446L24.716,19.442C24.598,19.508 24.487,19.586 24.385,19.674C24.472,18.573 23.678,17.585 22.571,17.444C21.43,17.298 20.385,18.106 20.24,19.247C20.186,19.671 20.263,20.081 20.44,20.437C20.285,20.377 20.121,20.334 19.949,20.312C19.266,20.225 18.618,20.48 18.176,20.942ZM24.795,20.21L24.987,22.06C24.85,21.715 24.622,21.412 24.33,21.184C24.332,21.149 24.336,21.114 24.34,21.079C24.385,20.731 24.553,20.428 24.795,20.21ZM24.011,22.422C23.276,22.566 22.522,22.69 21.731,22.776C21.739,22.732 21.746,22.688 21.752,22.643C21.769,22.51 21.773,22.378 21.765,22.248C21.891,21.968 22.106,21.74 22.369,21.594C22.64,21.587 22.9,21.526 23.139,21.421C23.169,21.423 23.199,21.426 23.228,21.43C23.389,21.451 23.54,21.497 23.677,21.566C23.723,21.877 23.84,22.168 24.011,22.422ZM20.966,22.846C20.286,22.896 19.575,22.916 18.824,22.896C18.824,22.896 18.673,22.416 18.44,21.718C18.707,21.215 19.266,20.905 19.863,20.981C20.498,21.062 20.98,21.554 21.077,22.156C21.033,22.286 21.001,22.423 20.983,22.565C20.971,22.659 20.965,22.753 20.966,22.846ZM24.447,16.846C26.264,16.556 27.654,14.98 27.654,13.082C27.654,10.979 25.946,9.271 23.842,9.271C23.782,9.271 23.723,9.272 23.663,9.275L24.447,16.846ZM22.988,20.745C22.717,20.753 22.456,20.814 22.217,20.918C22.188,20.916 22.158,20.913 22.128,20.909C21.357,20.811 20.81,20.104 20.908,19.332C21.007,18.561 21.714,18.014 22.485,18.113C23.257,18.211 23.804,18.918 23.705,19.69C23.646,20.153 23.368,20.535 22.988,20.745Z"/>
        </g>
        <g transform="matrix(1.10334,0.140871,-0.140871,1.10334,3.33419,-5.8108)">
            <circle cx="18.563" cy="27.031" r="1.141"/>
        </g>
        <g transform="matrix(1.10334,0.140871,-0.140871,1.10334,4.15672,-8.75284)">
            <circle cx="18.563" cy="27.031" r="1.141"/>
        </g>
        <g transform="matrix(1.10334,0.140871,-0.140871,1.10334,6.24751,-5.6574)">
            <circle cx="18.563" cy="27.031" r="1.141"/>
        </g>
        <g transform="matrix(1.10334,0.140871,-0.140871,1.10334,6.5179,-11.3359)">
            <circle cx="18.563" cy="27.031" r="1.141"/>
        </g>
        <g transform="matrix(1.10334,0.140871,-0.140871,1.10334,7.18686,-8.34861)">
            <circle cx="18.563" cy="27.031" r="1.141"/>
        </g>
        <g transform="matrix(1.10334,0.140871,-0.140871,1.10334,9.60792,-9.76319)">
            <circle cx="18.563" cy="27.031" r="1.141"/>
        </g>
        <g transform="matrix(1.10334,0.140871,-0.140871,1.10334,9.68016,-6.46491)">
            <circle cx="18.563" cy="27.031" r="1.141"/>
        </g>
        <g transform="matrix(0.860519,0,0,0.860519,3.58852,4.04394)">
            <path d="M4.6,6.649C4.6,6.649 3.151,6.475 2.542,6.649C2.542,6.649 3.644,4.707 6.455,5.547L4.6,6.649Z"/>
        </g>
    </g>
</svg>
