<?xml version="1.0" encoding="UTF-8" standalone="no"?>
<!DOCTYPE svg PUBLIC "-//W3C//DTD SVG 1.1//EN" "http://www.w3.org/Graphics/SVG/1.1/DTD/svg11.dtd">
<svg width="100%" height="100%" viewBox="0 0 30 30" version="1.1" xmlns="http://www.w3.org/2000/svg" xmlns:xlink="http://www.w3.org/1999/xlink" xml:space="preserve" xmlns:serif="http://www.serif.com/" style="fill-rule:evenodd;clip-rule:evenodd;stroke-linejoin:round;stroke-miterlimit:2;">
    <g transform="matrix(0.0182735,0,0,0.0182735,-4.30009,-5.12228)">
        <path d="M775.076,688.208C759.571,665.857 747.119,640.192 738.52,612.228C731.14,585.588 727.131,556.994 727.131,527.239C727.131,383.779 820.326,284.939 935.113,284.939C1049.91,284.939 1143.1,383.779 1143.1,527.239C1143.1,565.36 1136.53,601.571 1124.7,634.208C1116.93,653.725 1107.23,671.853 1095.87,688.219C1096.46,688.592 1029.66,768.66 932.471,768.66C822.841,768.66 775.429,687.148 775.076,688.208ZM775.076,688.208C775.079,688.211 775.081,688.215 775.083,688.219C775.075,688.224 775.072,688.221 775.076,688.208ZM771.742,514.538C921.426,692.69 925.1,518.212 925.1,518.212C847.043,567.8 771.742,514.538 771.742,514.538Z"/>
    </g>
    <g transform="matrix(0.0093766,0,0,0.0093766,3.00901,-1.80521)">
        <path d="M1480.91,1141.29C1557.97,1149.82 1613.37,1223.62 1651.57,1299.31C1728.81,1452.39 1921.93,1750.45 1919.84,1781L1704.52,2192.24L1467.47,2192.24L1638.05,1783.59L1429.98,1509.55L1429.98,2420.09L1430.08,2420.09L1587.37,3221.37L1647.88,3284.43L1741.65,3373.76L1228.79,3373.76L1071.5,2393.37L1015.78,2393.37L889.945,3373.76L377.073,3373.76L470.851,3284.43L531.357,3221.37L657.192,2420.09L657.305,2420.09L657.305,1509.55L443.632,1783.59L619.8,2192.24L382.764,2192.24L145.077,1775.4C142.961,1744.85 361.56,1437.1 438.455,1284.24C475.089,1211.42 527.577,1148.17 598.776,1141.82C698.223,1132.95 888.116,1231.13 1035.14,1231.04C1182.16,1230.95 1378.17,1129.91 1480.91,1141.29Z"/>
    </g>
    <g transform="matrix(0.0189276,0,0,0.0189276,-5.62579,-5.58605)">
        <path d="M444.236,886.936C458.052,862.484 471.456,837.777 483.742,813.354C512.019,757.146 553.841,651.015 608.798,646.115C612.611,645.775 616.605,645.64 620.767,645.692C616.421,634.628 612.459,623.297 608.9,611.724C608.85,611.561 608.802,611.398 608.757,611.234C596.736,567.839 590.196,555.148 590.196,506.679C590.196,447.199 599.986,417.356 617.65,368.698C627.316,376.354 638.163,383.532 648.36,391.477C634.275,433.769 626.54,455.93 626.54,506.679C626.54,551.658 632.579,561.002 643.717,601.294C651.532,626.654 659.277,657.981 671.033,680.494C664.664,680.247 623.662,676.494 611.602,677.569C566.758,681.567 535.026,781.68 511.953,827.545C499.575,852.151 486.055,877.073 472.115,901.751C465.297,898.163 453.808,891.858 444.236,886.936Z"/>
    </g>
    <g transform="matrix(0.0189276,0,0,0.0189276,-5.62579,-5.58605)">
        <path d="M461.356,920.617C429.814,975.436 397.101,1028.32 371.304,1073C365.856,1082.44 361.216,1092.12 359.026,1096.84L489.477,1419C489.477,1419 608.449,1420.33 621.277,1420.33C623.463,1420.33 644.598,1420.26 644.666,1420.33C645.142,1420.85 645.857,1421.15 646.725,1421.32L589.321,1743.23C589.321,1744.62 589.141,1745.97 588.803,1747.26L569.627,1814.85C569.126,1818.04 567.658,1821 565.422,1823.33L524.941,1865.52L479.841,1865.52L500.479,1845.4L539.2,1805.05L557.742,1741.49L615.146,1446.59C612.29,1449.13 608.568,1450.58 604.652,1450.58L480.304,1450.58C474.633,1450.58 469.397,1447.54 466.588,1442.61L328.274,1106.66C327.098,1104.6 326.403,1102.3 326.239,1099.93C326.052,1097.24 326.498,1092.96 328.533,1087.47C330.988,1080.84 336.326,1070.43 343.956,1057.21C369.306,1013.3 401.304,961.587 432.279,907.875C433.007,908.112 433.555,908.287 433.818,908.375C441.52,910.942 452.834,915.685 461.356,920.617ZM557.742,1741.65C557.312,1745.92 558.644,1750.21 561.453,1753.49C564.453,1757 568.837,1759.02 573.453,1759.02C564.769,1758.98 557.742,1751.92 557.742,1743.23L557.742,1741.65Z"/>
    </g>
    <g transform="matrix(0.0201189,0,0,0.0201189,-8.04628,-7.40141)">
        <path d="M1335.71,871.332C1335.71,871.332 1527.32,1021.81 1723.75,1132.92C1944.04,1229.72 1885.22,1316.51 1810.94,1343.88C1736.65,1371.25 1739.72,1347.02 1751.45,1405.67C1763.18,1464.31 1533.48,1614.51 1486.57,1632.76L1247.74,1343.11L1358.72,1346.53L1381.98,1308.9L1489.17,1096.47L1335.71,871.332Z"/>
    </g>
</svg>
