<?xml version="1.0" encoding="UTF-8" standalone="no"?><!DOCTYPE svg PUBLIC "-//W3C//DTD SVG 1.1//EN" "http://www.w3.org/Graphics/SVG/1.1/DTD/svg11.dtd"><svg width="100%" height="100%" viewBox="0 0 30 30" version="1.1" xmlns="http://www.w3.org/2000/svg" xmlns:xlink="http://www.w3.org/1999/xlink" xml:space="preserve" xmlns:serif="http://www.serif.com/" style="fill-rule:evenodd;clip-rule:evenodd;stroke-linejoin:round;stroke-miterlimit:2;"><g><path d="M24.886,15.674c-0.088,0.062 -0.178,0.123 -0.269,0.182c-3.126,2.019 -7.135,1.382 -8.947,-1.423c-1.812,-2.805 -0.745,-6.721 2.381,-8.741c3.126,-2.019 7.134,-1.381 8.946,1.423c1.385,2.144 1.088,4.937 -0.524,7.037l-0.939,-2.637l-0.975,3.255c-0.035,0.348 0.095,0.675 0.327,0.904Zm-7.124,-6.977c0,0 -1.938,1.811 -0.546,3.551c2.202,2.753 5.433,0.425 5.433,0.425c-4.796,-1.518 -4.887,-3.976 -4.887,-3.976Z"/><path d="M12.864,8.062c0.477,-1.759 1.632,-3.407 3.368,-4.529c1.59,-1.027 3.383,-1.429 5.056,-1.266c0.015,0.258 0.026,0.521 0.021,0.776c-1.536,-0.17 -3.194,0.193 -4.658,1.139c-1.57,1.014 -2.62,2.506 -3.048,4.096c-0.238,-0.084 -0.484,-0.164 -0.739,-0.216Z"/><path d="M15.431,2.045c-0.125,0.071 -0.25,0.146 -0.373,0.226c-1.569,1.014 -2.62,2.506 -3.047,4.096c-0.046,0.171 -0.343,0.134 -0.461,0.098c-0.128,-0.039 -0.252,-0.168 -0.278,-0.314c0.476,-1.759 1.631,-3.407 3.367,-4.529c0.08,-0.051 0.16,-0.101 0.241,-0.15c0.165,-0.098 0.392,-0.002 0.482,0.091c0.099,0.102 0.211,0.289 0.069,0.482Z"/><path d="M0,3.449l2.674,4.699l7.811,2.239l3.02,1.198c0,-0 -0.123,2.891 0.49,3.845c1.065,1.66 3.78,2.717 3.78,2.717l1.423,11.853l-7.914,0l2.4,-1.41l-0.802,-4.699l-10.912,6.109l-1.97,0l0,-12.535l5.212,-2.921l-5.212,-1.438l0,-9.657Z"/><path d="M26.038,11.336l1.238,3.476c0.027,0.075 0.036,0.154 0.028,0.233c-0.09,0.905 -0.898,1.565 -1.803,1.475c-0.904,-0.091 -1.565,-0.899 -1.474,-1.803c0.003,-0.034 0.01,-0.068 0.019,-0.101l0.975,-3.254c0.066,-0.222 0.267,-0.376 0.499,-0.382c0.231,-0.006 0.44,0.138 0.518,0.356Zm-0.504,0.179l-0.975,3.255c-0.061,0.611 0.385,1.156 0.996,1.217c0.61,0.062 1.155,-0.385 1.217,-0.995l-1.238,-3.477Z"/></g></svg>