<?xml version="1.0" encoding="UTF-8" standalone="no"?><!DOCTYPE svg PUBLIC "-//W3C//DTD SVG 1.1//EN" "http://www.w3.org/Graphics/SVG/1.1/DTD/svg11.dtd"><svg width="100%" height="100%" viewBox="0 0 30 30" version="1.1" xmlns="http://www.w3.org/2000/svg" xmlns:xlink="http://www.w3.org/1999/xlink" xml:space="preserve" xmlns:serif="http://www.serif.com/" style="fill-rule:evenodd;clip-rule:evenodd;stroke-linejoin:round;stroke-miterlimit:2;"><g><path d="M24.299,7.929l0.423,1.072l1.072,0.423l-1.072,0.423l-0.423,1.073l-0.423,-1.073l-1.073,-0.423l1.073,-0.423l0.423,-1.072Z"/></g><g><path d="M19.06,0.539l0.667,1.691l1.69,0.667l-1.69,0.666l-0.667,1.691l-0.667,-1.691l-1.691,-0.666l1.691,-0.667l0.667,-1.691Z"/></g><g><path d="M8.386,4.16l0.751,1.906l1.906,0.752l-1.906,0.751l-0.751,1.906l-0.752,-1.906l-1.906,-0.751l1.906,-0.752l0.752,-1.906Z"/></g><g><g><circle cx="13.604" cy="4.884" r="0.359"/></g><path d="M30,24.926c-6.538,-0.074 -8.469,2.696 -11.34,3.062c-1.816,0.232 -5.469,-0.506 -5.469,-0.506c-5.333,-1.756 -12.726,-7.967 -12.726,-7.967l2.261,-1.857c0,-0 3.579,3.41 9.014,4.827c5.435,1.418 7.629,-0.439 7.629,-0.439c-1.591,-0.195 -2.957,-0.371 -4.121,-0.529c-0.785,-0.105 -1.477,-0.202 -2.086,-0.29c-2.709,-0.39 -3.751,-0.598 -3.751,-0.598l1.249,-2.228l7.528,-0.541c0.812,-0.258 2.191,-0.628 3.272,-0.91c0.896,-0.233 1.589,-0.406 1.589,-0.406c2.202,0.72 5.021,1.049 6.951,1.198l0,7.184Z"/><g><path d="M8.128,19.785l0.979,-1.148l-4.659,-2.464l-1.283,0.675l4.963,2.937Z"/></g><g><path d="M9.064,17.668l-3.008,-1.544l0.913,-0.636l1.615,0.756c0.107,0.498 0.269,0.975 0.48,1.424Z"/></g></g><g><g><circle cx="15.098" cy="1.89" r="0.359"/></g><g><path d="M17.592,7.454c2.811,0.734 4.888,3.293 4.888,6.332c-0,0.659 -0.101,1.844 -0.279,1.895c-1.063,0.302 -2.739,0.943 -5.679,1.21c-2.034,0.185 -5.071,0.435 -5.938,0.53c-0.194,0.021 -0.161,-0.105 -0.262,-0.273c-0.59,-0.983 -0.93,-2.133 -0.93,-3.362c0,-3.039 2.077,-5.598 4.887,-6.332c0,0 0.608,-0.207 1.629,-0.207c0.818,-0 1.684,0.207 1.684,0.207Z"/></g></g><g><circle cx="24.159" cy="5.175" r="0.359"/></g></svg>