<?xml version="1.0" encoding="UTF-8" standalone="no"?>
<!DOCTYPE svg PUBLIC "-//W3C//DTD SVG 1.1//EN" "http://www.w3.org/Graphics/SVG/1.1/DTD/svg11.dtd">
<svg width="100%" height="100%" viewBox="0 0 30 30" version="1.1" xmlns="http://www.w3.org/2000/svg" xmlns:xlink="http://www.w3.org/1999/xlink" xml:space="preserve" xmlns:serif="http://www.serif.com/" style="fill-rule:evenodd;clip-rule:evenodd;stroke-linejoin:round;stroke-miterlimit:2;">
    <g transform="matrix(0.0157472,0,0,0.0157472,-1.83232,-0.891832)">
        <path d="M1215.56,1240.5C1221.25,1241.48 1301.4,1243.01 1321.99,1244.85C1345.17,1246.91 1401.01,1229.47 1424.46,1227.32C1489.73,1221.35 1494.41,1211.47 1555.45,1183.41C1590.62,1167.25 1598.95,1139.59 1631.84,1110.96C1687.98,1253.15 1736.37,1398.01 1785.04,1585.24C1785.04,1585.24 1514.86,1862.07 796.75,1924.25C796.75,1924.25 964.892,1826.02 862.565,1622.84C760.238,1419.66 475.476,766.538 475.476,766.538C475.476,766.538 375.859,608.221 267.297,586.042C267.297,586.042 791.997,322.752 1136.76,287.105C1136.76,287.105 1267.65,418.895 1385.45,594.853C1374.63,611.055 1260.98,721.942 1218.24,750.656C1177.44,778.064 1094.96,870.848 1080.28,905.074C1035.4,1009.67 1029.62,1067.97 1047.16,1147.65C1050.04,1160.75 928.311,1285.75 931.827,1298.43C906.093,1373.52 966.353,1500.7 976.201,1490.45C1050.08,1413.52 1056.27,1406.17 1110.67,1343.54C1129.55,1321.79 1179.98,1258.24 1215.56,1240.5ZM676.709,668.383C673.344,675.689 671.369,688.598 671.455,704.181C671.613,732.709 677.077,772.589 676.943,789.549C676.899,795.179 672.83,800.654 670.811,806.191C667.4,815.551 666.381,824.754 669.19,833.407C672.484,843.554 683.397,849.118 693.544,845.824C703.342,842.643 708.867,832.358 706.269,822.519C706.689,821.296 708.612,815.729 709.91,812.627C713.059,805.1 715.543,797.367 715.602,789.853C715.718,775.062 711.717,743.133 710.455,716.035C710.076,707.912 709.952,700.272 710.364,693.846C710.584,690.415 710.608,687.5 711.354,685.567C717.001,699.623 723.175,713.248 729.85,725.128C744.459,751.126 762.687,768.728 781.192,772.569C796.008,775.645 812.406,771.968 829.23,755.406C831.087,753.578 834.492,749.163 835.54,741.978C835.944,739.21 836.038,735.316 835.968,731.41C847.594,740.162 860.262,742.822 872.914,738.715C875.165,737.985 882.632,736.409 886.07,734.868C892.207,732.118 895.353,727.848 896.801,725.008C900.988,716.795 904.044,703.892 906.144,688.721C908.734,670.005 910.271,647.273 913.464,627.79C914.725,620.099 916.19,612.98 918.252,607.098C930.103,619.932 939.968,631.535 955.367,647.179C956.836,648.671 967.107,662.239 972.922,668.68C976.116,672.218 978.957,674.498 980.457,675.433C987.468,679.802 993.47,678.727 996.89,677.674C1003.33,675.693 1009.03,671.381 1010.46,661.88C1011.98,651.847 1017.44,600.238 1025.34,563.392C1030.27,571.235 1036.09,580.094 1041.56,587.41C1052.2,601.643 1064.96,614.553 1078.91,621.665C1092.25,628.469 1107.27,625.267 1120.18,615.16C1126.84,609.951 1132.72,602.933 1137.18,596.444C1143.83,601.315 1151.02,605.716 1158.82,609.69C1168.32,614.537 1179.97,610.755 1184.82,601.251C1189.66,591.746 1185.88,580.096 1176.38,575.249C1165.39,569.646 1155.96,562.97 1147.96,554.843C1143.37,550.183 1138.49,548.646 1134.06,548.329C1129.35,547.991 1124.61,549.143 1120.23,552.185C1115.22,555.666 1110.24,565.341 1108.81,569.245C1108.81,569.245 1103.91,577.512 1099.34,582.048C1098,583.38 1095.61,585.054 1094.22,585.986C1075.92,575.201 1062.21,549.389 1052.97,533.93C1049.07,527.394 1045.68,522.144 1043.1,518.881C1042.76,517.272 1042.37,515.594 1042.06,514.758C1040.66,510.995 1038.58,508.382 1036.71,506.642C1033.51,503.651 1029.89,502.08 1026.12,501.511C1020.33,500.637 1014.44,501.79 1008.81,505.946C1004.64,509.026 999.562,515.536 995.725,525.609C988.293,545.116 981.975,584.081 977.703,614.698C960.41,596.718 950.013,583.809 932.931,566.456C927.795,561.239 920.151,559.371 913.187,561.631L908.976,562.999C895.656,567.323 884.425,582.027 878.766,604.495C873.525,625.303 871.553,653.565 868.645,677.291C867.539,686.315 866.495,694.565 864.763,700.915C863.423,701.261 862.172,701.591 861.421,701.809C860.964,701.578 859.865,701.005 859.243,700.54C856.51,698.499 853.975,695.581 851.488,692.239C846.462,685.485 841.885,677.187 837.861,668.617C836.893,661.105 835.109,652.867 831.981,643.231C831.151,640.676 825.79,621.067 823.363,616.92C818.813,609.144 812.341,607.433 808.96,606.923C799.802,605.541 794.235,608.626 790.635,611.599C785.676,615.694 782.541,621.676 782.851,629.516C783.026,633.924 785.883,640.777 786.897,643.901C789.974,653.378 794.5,665.745 800.095,678.329C801.167,690.586 799.609,700.683 799.374,713.096C798.187,716.525 796.887,721.66 797.585,726.34C797.485,725.866 797.413,725.514 797.413,725.514L797.336,732.058C795.008,733.778 792.789,734.798 790.472,734.852C783.997,735.001 779.209,728.944 773.785,721.941C750.32,691.642 733.158,632.786 721.722,597.558C720.04,592.378 717.078,589.66 714.919,588.043C713.224,586.773 688.995,578.446 684.29,599.873C683.539,603.291 680.842,621.397 680.446,625.391C680.183,628.038 680.374,630.124 680.64,631.589L676.709,668.383ZM800.062,711.243C800.498,710 800.973,709.144 800.973,709.144C800.973,709.144 800.584,709.931 800.062,711.243ZM875.854,961.316C869.892,955.324 861.743,947.037 856.064,940.884C846.438,930.455 837.296,922.061 832.446,919.589C826.103,916.355 820.03,915.842 814.308,917.063C807.823,918.447 801.184,922.444 795.681,930.06C790.35,937.438 785.476,949.894 781.793,964.661C774.728,992.991 770.902,1030.86 768.668,1045.66C767.077,1056.21 774.349,1066.07 784.898,1067.66C795.448,1069.25 805.304,1061.98 806.896,1051.43C809.17,1036.36 813,996.088 820.685,968.798C821.292,966.645 822.111,964.324 822.962,962.128C823.748,962.929 824.519,963.73 825.24,964.502C835.586,975.579 847.907,989.599 856.554,996.946C864.764,1003.92 872.581,1006.23 877.029,1006.27C892.35,1006.39 902.671,997.981 908.791,984.708C909.461,985.951 910.142,987.131 910.835,988.233C920.208,1003.16 932.869,1007.8 945.472,1003.71C955.619,1000.42 961.183,989.506 957.889,979.358C955.625,972.386 949.764,967.577 943.027,966.32C941.705,963.833 939.751,960.019 938.56,957.049C932.345,941.561 925.856,924.15 919.398,917.591C914.546,912.662 908.374,910.335 900.473,912.492C898.364,913.068 894.278,914.401 890.46,918.995C888.504,921.348 881.117,935.899 880.034,939.423C878.605,944.078 877.722,952.327 876.024,960.567C875.975,960.804 875.918,961.054 875.854,961.316Z"/>
    </g>
    <g transform="matrix(0.0164681,-0.00534607,0.00534607,0.0164681,-5.88829,3.49126)">
        <path d="M309.448,445.308C309.448,445.308 195.634,519.534 221.201,645.719C246.768,771.904 355.633,790.049 402.644,798.296L415.839,738.915C415.839,738.915 218.776,762.753 416.907,561.401L309.448,445.308Z"/>
    </g>
    <g transform="matrix(0.0164681,-0.00534607,0.00534607,0.0164681,-5.88829,3.49126)">
        <path d="M514.291,1609.75L392.285,1679.89C392.285,1679.89 261.309,1610.19 333.886,1483.18C406.463,1356.17 501.309,1400.7 502.133,1439.47L499.659,1492.25C499.659,1492.25 442.752,1407.3 385.845,1510.39C385.845,1510.39 399.694,1540.29 514.291,1609.75Z"/>
    </g>
    <g transform="matrix(0.0100007,-0.00369574,0.00369574,0.0100007,5.2446,4.32347)">
        <path d="M227.539,1626.27C227.539,1626.27 800.202,1389.59 1250.17,1141.96C1250.17,1141.96 854.309,1441.48 184.584,1755.13C184.584,1755.13 200.913,1716.72 227.539,1626.27Z"/>
    </g>
    <g transform="matrix(0.0112392,-0.00415344,0.00415344,0.0112392,4.18593,2.13428)">
        <path d="M1105.19,1023.22C1201.77,972.786 1297.2,917.941 1392.22,865.122C1389.99,869.705 1354.64,929.841 1354.64,943.144C1354.64,945.848 1420.64,860.8 1434.52,841.727C1472.75,820.695 1511.12,799.957 1549.85,780.179C1595.95,756.644 1641.85,734.938 1686.57,707.925C1765.87,660.024 1838.15,602.261 1918.07,555.43C1845.13,705.104 1776.26,855.229 1683.47,1004.93C1672.98,1010.39 1420.53,1175.48 1417.98,1178.03C1417.77,1178.23 1417.77,1178.7 1417.98,1178.9C1419.18,1180.11 1558.32,1139.15 1603.12,1123.21C1589.72,1141.26 1575.93,1159.27 1561.91,1177.28C1516.55,1235.61 1469.04,1293.71 1415.14,1349.55C1404.56,1360.51 1393.71,1371.36 1382.65,1382.11C1377.1,1382.48 1371.74,1383.16 1366.96,1384.76C1345.21,1392.01 1186.95,1413.11 1185.74,1415.55C1183.27,1420.48 1214.5,1423.19 1215.65,1424.34C1221.28,1429.98 1309.79,1435.61 1325.16,1435.56C1307.29,1451.54 1289.09,1467.33 1270.73,1482.94C1210.54,1534.13 1147.09,1584.14 1079.03,1627.82C995.002,1681.75 911.337,1685.26 838.085,1678.42C764.73,1671.57 697.77,1654.99 633.509,1636.27C608.13,1628.88 582.895,1621.18 558.094,1612.97C1178.06,1287.36 1693.53,824.232 1693.53,824.232C1354.55,1091.02 820.133,1358.8 470.215,1520.79C473.87,1506.52 478.095,1492.14 482.646,1477.81C508.128,1397.53 547.842,1307.46 641.984,1237.14C659.852,1223.79 678.896,1211.61 698.551,1200.82C711.741,1193.58 725.191,1186.98 738.762,1181C738.798,1203.39 737.84,1246.07 737.396,1258.25C736.726,1276.61 738.686,1325.6 742.824,1329.73C743.207,1330.12 774.694,1185.38 780.062,1164.83C844.308,1141.92 908.78,1118.14 972.365,1088.82C1003.51,1074.46 1034.5,1059.36 1065.37,1043.72C1063.85,1046.21 1026.14,1099.64 1024.02,1120.63C1023.97,1120.7 1023.92,1120.77 1023.87,1120.85C1023.37,1121.57 1023.87,1124.36 1023.87,1123.48C1023.87,1122.56 1023.92,1121.6 1024.02,1120.63C1026.72,1116.76 1091.21,1043.5 1105.19,1023.22Z"/>
    </g>
</svg>
