<?xml version="1.0" encoding="UTF-8" standalone="no"?><!DOCTYPE svg PUBLIC "-//W3C//DTD SVG 1.1//EN" "http://www.w3.org/Graphics/SVG/1.1/DTD/svg11.dtd"><svg width="100%" height="100%" viewBox="0 0 30 30" version="1.1" xmlns="http://www.w3.org/2000/svg" xmlns:xlink="http://www.w3.org/1999/xlink" xml:space="preserve" xmlns:serif="http://www.serif.com/" style="fill-rule:evenodd;clip-rule:evenodd;stroke-linejoin:round;stroke-miterlimit:2;"><g><path d="M30,12.993l-0.509,0.147l-1.341,8.949l-2.644,-2.935l-3.37,1.268l4.457,-5.145l1.014,3.732l0.978,-8.695l1.415,-0.921l0,3.6Zm0,-10.141l-3.516,4.273l-1.594,6.232l-0.508,-7.246l4.776,-6.111l0.842,0l0,2.852Zm-19.021,26.197c-1.043,-0.015 -1.76,-0.234 -2.884,-0.601c-1.875,-0.613 -4.936,-2.688 -5.729,-7.032c-0.216,-1.866 -0.561,-3.902 -0.544,-5.944c0.01,-1.031 0.121,-2.156 0.336,-3.375c0.843,-4.786 2.747,-8.912 8.237,-10.701c0.472,-0.154 1.046,-0.146 1.672,-0.175c0.011,-0.001 0.022,0.008 0.023,0.019l0.001,0.014l1.043,-0.008c0.001,-0.011 0.012,-0.019 0.025,-0.018c0.624,0.037 1.181,0.103 1.668,0.197c1.715,0.329 3.136,1.038 4.302,2.002l-6.415,5.221l-0.251,3.726l-1.002,2.474l1.16,2.046c-0.002,0.069 -0.006,0.167 -0.01,0.284l-0.869,5.09l0.034,0.487l-4.424,-0.085c-0.014,0 -0.025,0.011 -0.025,0.024l-0.007,1.074c-0,0.013 0.01,0.024 0.025,0.024l4.507,0.085l0.172,2.525l-1.045,2.647Zm-3.221,-16.325c-1.351,-0 -2.45,1.097 -2.45,2.45c0,1.352 1.099,2.45 2.45,2.45c1.353,-0 2.45,-1.098 2.45,-2.45c0,-1.353 -1.097,-2.45 -2.45,-2.45Zm12.562,-8.123c1.764,2.047 2.753,4.781 3.196,7.503c0.199,1.22 0.296,2.347 0.292,3.378c-0.009,2.041 -2.878,1.129 -3.119,2.992c-0.355,2.752 -1.214,5.501 -1.574,8.254c-0.03,0.23 -0.161,0.351 -0.369,0.441c-0.719,0.309 -1.062,0.42 -1.842,0.486c-1.095,0.09 -2.193,0.132 -3.293,0.121c-0.129,-0.001 -0.33,-0.019 -0.515,-0.014l0,0.021l-0.986,-0.006l1.041,-0.999l-0.231,-2.882l0.942,0.019c0.011,-0 0.021,0.007 0.021,0.017l-0.01,1.39c-0,0.012 0.012,0.023 0.025,0.023l1.105,0.008c0.013,-0 0.024,-0.011 0.024,-0.024l0.007,-1.384c0.001,-0.012 0.011,-0.023 0.024,-0.023l3.895,-0.101c0.014,-0 0.025,-0.213 0.025,-0.213c0,-0.013 -0.022,-0.979 -0.035,-0.979l-3.875,0.174c-0.013,0 -0.024,-0.011 -0.024,-0.024l0.009,-1.369c-0,-0.012 -0.011,-0.023 -0.025,-0.023l-1.104,-0.008c-0.014,0 -0.025,0.011 -0.025,0.024l-0.009,1.369c0,0.013 -0.011,0.023 -0.025,0.023l-1.036,-0.019l-0.053,-0.664l0.299,-2.618l1.445,0.497c0.013,0.003 -0.702,-1.208 -1.259,-2.145l0.078,-0.681l-0.751,-2.38l1.346,-2.599l-0.375,-3.164l6.761,-4.421Zm-1.4,13.016c1.397,-0.8 1.828,-2.69 1.804,-4.1c-0.007,-0.43 -1.318,-0.624 -1.637,-0.661c-1.129,-0.129 -2.171,-0.03 -3.378,0.201c-0.3,0.058 -1.006,1.063 -1.099,1.386c-0.315,1.098 -0.856,1.689 0.07,2.6c0.164,0.163 0.393,0.31 0.684,0.442c1.065,0.481 2.499,0.74 3.556,0.132Z"/><rect x="0" y="0" width="30" height="30" style="fill:none;"/></g></svg>