<?xml version="1.0" encoding="UTF-8" standalone="no"?><!DOCTYPE svg PUBLIC "-//W3C//DTD SVG 1.1//EN" "http://www.w3.org/Graphics/SVG/1.1/DTD/svg11.dtd"><svg width="100%" height="100%" viewBox="0 0 30 30" version="1.1" xmlns="http://www.w3.org/2000/svg" xmlns:xlink="http://www.w3.org/1999/xlink" xml:space="preserve" xmlns:serif="http://www.serif.com/" style="fill-rule:evenodd;clip-rule:evenodd;stroke-linejoin:round;stroke-miterlimit:2;"><g><path d="M0,29.659l9.415,-9.398c0.019,-0.019 0.049,-0.022 0.071,-0.007c0.322,0.222 0.665,0.43 1.027,0.625c0.001,-0 0.001,0 0.002,0.001c0.025,0.015 0.032,0.047 0.018,0.072c-0.001,0.001 -0.002,0.002 -0.002,0.002l-6.281,9.046l-4.25,0l0,-0.341Zm4.756,0.341l6.145,-8.849c0.023,-0.032 0.066,-0.044 0.105,-0.029l1.075,0.409c0.025,0.01 0.038,0.039 0.028,0.062c-0,0.001 -0,0.001 -0.001,0.002l-3.83,8.405l-3.522,0Zm10.047,0l0.034,-8.002c0,-0.023 0.019,-0.041 0.042,-0.041c0.486,0 0.97,-0.036 1.45,-0.107c0.032,-0.005 0.061,0.016 0.068,0.047c0.552,2.705 1.12,5.406 1.705,8.103l-3.299,0Zm3.683,0c-0.561,-2.731 -1.139,-5.457 -1.734,-8.18c-0.004,-0.017 0.007,-0.034 0.024,-0.038l1.32,-0.353c0.018,-0.005 0.037,0.003 0.045,0.019c1.323,2.844 2.631,5.694 3.922,8.552l-3.577,0Zm11.175,0l-9.529,-9.555c-0.001,-0 -0.001,-0.001 -0.002,-0.001c-0.009,-0.011 -0.007,-0.028 0.003,-0.037c0.001,-0.001 0.002,-0.001 0.002,-0.002l1.235,-0.93c0.016,-0.011 0.037,-0.012 0.052,-0.002l8.578,6.343l-0,4.184l-0.339,0Zm0.339,-4.669l-8.346,-6.087c-0.001,-0 -0.002,-0.001 -0.003,-0.002c-0.017,-0.014 -0.019,-0.04 -0.004,-0.057l0.001,-0.003c0.276,-0.281 0.536,-0.577 0.779,-0.89c0.011,-0.014 0.031,-0.019 0.048,-0.012l7.525,3.433l-0,3.618Zm-0,-10.142l-5.912,-0.016c-0.001,-0 -0.002,-0.001 -0.003,-0.001c-0.014,-0.001 -0.024,-0.014 -0.022,-0.027c-0,-0.001 0,-0.002 0,-0.003c0.177,-0.65 0.297,-1.304 0.361,-1.964c0.002,-0.019 0.016,-0.035 0.035,-0.038l5.541,-1.025l-0,3.074Zm-0,-3.554l-5.516,1.063c-0,0.001 -0.001,0.001 -0.002,0.001c-0.015,0.001 -0.028,-0.01 -0.029,-0.025c-0,-0.001 -0,-0.002 -0,-0.003c0.003,-0.688 -0.058,-1.378 -0.183,-2.068c-0.005,-0.029 0.01,-0.059 0.037,-0.071c1.885,-0.881 3.783,-1.75 5.693,-2.606l-0,3.709Zm-0,-11.305l-6.986,6.97c-0.001,0.001 -0.002,0.003 -0.004,0.004c-0.021,0.017 -0.054,0.014 -0.071,-0.008c-0.001,-0.001 -0.002,-0.003 -0.003,-0.004c-0.378,-0.589 -0.809,-1.128 -1.293,-1.615c-0.023,-0.023 -0.026,-0.062 -0.005,-0.088l4.275,-5.589l4.087,0l-0,0.33Zm-4.588,-0.33l-4.024,5.379l-0.001,0.002c-0.014,0.017 -0.04,0.019 -0.057,0.005c-0,-0.001 -0.001,-0.001 -0.001,-0.001c-0.458,-0.416 -0.957,-0.787 -1.496,-1.114c-0.039,-0.023 -0.054,-0.074 -0.035,-0.115l1.919,-4.156l3.695,0Zm-10.221,0l-0.004,2.836c-0,0.024 -0.021,0.045 -0.045,0.044c-0.818,-0.024 -1.622,0.056 -2.413,0.238c-0.043,0.011 -0.088,-0.016 -0.1,-0.059l-0.852,-3.059l3.414,0Zm-3.892,0l0.881,3.208c0.007,0.024 -0.006,0.049 -0.03,0.056c-0.776,0.25 -1.512,0.589 -2.208,1.019c-0.001,0 -0.002,0.001 -0.003,0.001c-0.024,0.013 -0.054,0.004 -0.067,-0.02c-0,-0.001 -0.001,-0.002 -0.001,-0.003l-1.947,-4.261l3.375,0Zm-10.974,0l6.827,6.825c0.02,0.02 0.022,0.05 0.006,0.073c-0.34,0.48 -0.633,0.987 -0.879,1.52c-0.001,0.001 -0.001,0.002 -0.001,0.002c-0.006,0.011 -0.02,0.014 -0.03,0.008c-0.001,-0 -0.001,-0 -0.002,-0.001c-2.088,-1.477 -4.17,-2.963 -6.246,-4.457l-0,-3.97l0.325,0Zm-0.325,4.531l6.028,4.307c0.032,0.023 0.044,0.065 0.03,0.101c-0.227,0.587 -0.391,1.201 -0.492,1.841c0,0.002 -0,0.003 -0.001,0.005c-0.005,0.018 -0.024,0.03 -0.043,0.024c-0.002,-0 -0.004,-0.001 -0.006,-0.002l-5.516,-2.527l-0,-3.749Zm-0,10.279l5.606,0.006c0.032,0 0.06,0.022 0.069,0.053c0.156,0.566 0.36,1.112 0.613,1.638c0.001,0.001 0.001,0.003 0.002,0.005c0.008,0.023 -0.004,0.048 -0.027,0.056c-0.002,0 -0.003,0.001 -0.005,0.001l-6.258,1.45l-0,-3.209Zm-0,3.648l6.472,-1.512c0.02,-0.005 0.04,0.004 0.051,0.022c0.314,0.561 0.672,1.083 1.073,1.564c0.001,0.001 0.002,0.002 0.002,0.003c0.011,0.017 0.006,0.039 -0.011,0.049c-0.001,0.001 -0.002,0.002 -0.004,0.002l-7.583,3.481l-0,-3.609Zm15.286,-14.597c0.019,0.588 -0.002,1.183 -0.02,1.776c-0,0.017 -0.015,0.031 -0.033,0.031c-0.63,0.002 -1.244,0.073 -1.84,0.213c-0.026,0.006 -0.052,-0.01 -0.06,-0.036l-0.455,-1.676c-0.012,-0.044 0.015,-0.09 0.059,-0.101c0.001,-0 0.001,-0.001 0.002,-0.001c0.752,-0.168 1.52,-0.251 2.304,-0.247c0.023,-0 0.042,0.018 0.043,0.041Zm-2.388,2.137c-0.654,0.246 -1.264,0.542 -1.83,0.89c-0.072,0.044 -0.126,0.028 -0.161,-0.048l-0.729,-1.572c-0.019,-0.039 -0.004,-0.086 0.033,-0.108c0.669,-0.402 1.392,-0.712 2.168,-0.931c0.016,-0.005 0.034,0.005 0.039,0.022l0.491,1.723c0.003,0.01 -0.002,0.021 -0.011,0.024Zm6.332,-0.891c0.001,-0.001 0.002,-0.003 0.003,-0.005c0.02,-0.038 0.068,-0.052 0.106,-0.032c0.002,0.001 0.003,0.002 0.005,0.002c0.496,0.307 0.969,0.667 1.42,1.081c0.015,0.014 0.018,0.038 0.005,0.055l-0.983,1.337c-0.001,0 -0.001,0.001 -0.002,0.002c-0.014,0.017 -0.04,0.019 -0.057,0.005c-0.001,-0 -0.001,-0.001 -0.002,-0.002c-0.355,-0.333 -0.737,-0.626 -1.145,-0.88c-0.025,-0.015 -0.034,-0.046 -0.022,-0.072l0.672,-1.491Zm3.072,3.032c-0.368,0.397 -0.765,0.761 -1.156,1.144c-0.001,0.001 -0.002,0.002 -0.003,0.003c-0.015,0.012 -0.039,0.009 -0.051,-0.007c-0.001,-0.001 -0.002,-0.002 -0.002,-0.003c-0.316,-0.529 -0.683,-1.018 -1.103,-1.467c-0.016,-0.018 -0.017,-0.045 -0.002,-0.064l1.008,-1.302c0.001,-0 0.001,-0.001 0.002,-0.002c0.015,-0.016 0.04,-0.018 0.057,-0.004c0,0.001 0.001,0.002 0.002,0.002c0.482,0.481 0.901,1.007 1.259,1.578c0.024,0.038 0.019,0.088 -0.011,0.122Zm-14.322,-0.56c0.466,0.385 0.911,0.907 1.341,1.338c0.017,0.017 0.019,0.043 0.007,0.062c-0.264,0.398 -0.489,0.814 -0.674,1.248c-0.001,0.001 -0.001,0.001 -0.002,0.002c-0.005,0.009 -0.017,0.012 -0.026,0.007c-0.001,-0 -0.002,-0.001 -0.003,-0.001l-1.47,-1.08c-0.049,-0.036 -0.066,-0.101 -0.041,-0.154c0.228,-0.482 0.503,-0.954 0.825,-1.416c0.01,-0.013 0.03,-0.016 0.043,-0.006Zm0.481,3.044c0.017,0.013 0.025,0.035 0.018,0.056c-0.15,0.468 -0.254,0.952 -0.313,1.453c0,0.004 -0.001,0.007 -0.002,0.01c-0.01,0.036 -0.047,0.057 -0.082,0.047c-0.003,-0.001 -0.006,-0.002 -0.01,-0.004l-1.681,-0.767c-0.031,-0.015 -0.049,-0.05 -0.042,-0.084c0.121,-0.6 0.289,-1.181 0.502,-1.743c0.001,-0.002 0.002,-0.004 0.003,-0.006c0.016,-0.03 0.052,-0.042 0.082,-0.026c0.002,0.001 0.004,0.002 0.006,0.004l1.519,1.06Zm13.401,2.501c0.025,-0.561 0.007,-1.088 -0.054,-1.581c-0.005,-0.04 0.017,-0.079 0.054,-0.096l1.443,-0.663c0.002,-0.001 0.003,-0.001 0.005,-0.002c0.024,-0.007 0.049,0.006 0.056,0.029c0,0.002 0.001,0.004 0.001,0.006c0.102,0.594 0.148,1.238 0.139,1.93c-0.001,0.05 -0.038,0.094 -0.088,0.104l-1.506,0.314c-0.002,0 -0.003,0.001 -0.005,0.001c-0.023,0.002 -0.043,-0.015 -0.044,-0.037c-0.001,-0.002 -0.001,-0.003 -0.001,-0.005Zm-0.438,2.044c0.164,-0.493 0.352,-1.075 0.382,-1.586c0.002,-0.019 0.016,-0.035 0.034,-0.038l1.604,-0.264c0.002,-0.001 0.003,-0.001 0.004,-0.001c0.013,-0 0.025,0.011 0.026,0.024c-0,0.001 -0,0.002 -0.001,0.003c-0.059,0.623 -0.178,1.242 -0.357,1.857c-0.009,0.032 -0.039,0.054 -0.072,0.054l-1.597,-0.019c-0.001,0 -0.003,0 -0.004,0c-0.013,-0.002 -0.022,-0.014 -0.02,-0.026c0,-0.002 0.001,-0.003 0.001,-0.004Zm-12.861,-0.385c0.027,0.001 0.051,0.018 0.059,0.043c0.137,0.395 0.303,0.78 0.498,1.154c0,0.001 0.001,0.002 0.001,0.004c0.006,0.015 -0.002,0.033 -0.018,0.039c-0.002,0.001 -0.003,0.001 -0.005,0.001l-1.714,0.376c-0.031,0.007 -0.063,-0.008 -0.077,-0.037c-0.233,-0.48 -0.426,-0.999 -0.579,-1.559c-0.001,-0.001 -0.001,-0.003 -0.001,-0.005c-0.003,-0.02 0.012,-0.039 0.032,-0.042c0.002,-0 0.004,-0 0.006,-0l1.798,0.026Zm1.681,2.779c0,0.001 0.001,0.002 0.002,0.003c0.009,0.014 0.005,0.033 -0.009,0.042c-0.001,0.001 -0.003,0.001 -0.004,0.002l-1.583,0.729c-0.032,0.015 -0.071,0.006 -0.094,-0.021c-0.381,-0.458 -0.718,-0.952 -1.013,-1.481c-0,-0.001 -0.001,-0.003 -0.001,-0.004c-0.007,-0.017 0.001,-0.036 0.018,-0.043c0.001,-0 0.003,-0.001 0.004,-0.001l1.701,-0.426c0.035,-0.009 0.072,0.006 0.092,0.036c0.251,0.392 0.547,0.78 0.887,1.164Zm9.313,0.251c-0.001,-0.001 -0.003,-0.002 -0.004,-0.003c-0.029,-0.024 -0.032,-0.068 -0.007,-0.098c0.001,-0.001 0.002,-0.003 0.004,-0.004l0.528,-0.543c0.027,-0.028 0.069,-0.037 0.104,-0.021l1.378,0.622c0.002,0.001 0.003,0.001 0.005,0.002c0.019,0.012 0.025,0.037 0.014,0.055c-0.001,0.002 -0.001,0.003 -0.002,0.004c-0.23,0.295 -0.481,0.571 -0.753,0.828c-0.016,0.014 -0.04,0.016 -0.058,0.004l-1.209,-0.846Zm0.969,1.029c0.002,0.001 0.003,0.002 0.004,0.003c0.025,0.023 0.027,0.063 0.004,0.088c-0.001,0.001 -0.003,0.003 -0.004,0.004c-0.343,0.311 -0.726,0.605 -1.148,0.881c-0.016,0.011 -0.037,0.009 -0.05,-0.005l-1.08,-1.072c-0.001,-0.002 -0.003,-0.004 -0.004,-0.006c-0.018,-0.022 -0.014,-0.056 0.009,-0.074c0.002,-0.001 0.004,-0.002 0.006,-0.004c0.352,-0.208 0.686,-0.438 1.001,-0.692c0.035,-0.028 0.085,-0.029 0.12,-0.001l1.142,0.878Zm-10.432,0.773c-0.003,-0.002 -0.005,-0.003 -0.007,-0.005c-0.026,-0.02 -0.03,-0.059 -0.009,-0.086c0.002,-0.002 0.004,-0.004 0.005,-0.006l1.13,-1.13c0.033,-0.033 0.086,-0.039 0.129,-0.015l0.711,0.399c0.001,0 0.002,0.001 0.002,0.001c0.026,0.016 0.034,0.05 0.018,0.075c-0,0 -0.001,0.001 -0.001,0.002l-0.922,1.295c-0.026,0.036 -0.074,0.048 -0.109,0.027l-0.947,-0.557Zm1.456,0.792c-0.002,-0 -0.003,-0.001 -0.004,-0.001c-0.025,-0.014 -0.034,-0.047 -0.02,-0.072c0.001,-0.002 0.002,-0.003 0.002,-0.004l0.886,-1.321c0.021,-0.031 0.062,-0.044 0.099,-0.031l0.781,0.275c0.001,-0 0.001,0 0.002,0c0.015,0.007 0.023,0.024 0.017,0.04l-0,0.002l-0.664,1.467c-0.011,0.024 -0.039,0.037 -0.064,0.029c-0.354,-0.106 -0.699,-0.234 -1.035,-0.384Zm4.281,-1.124c0.025,-0.002 0.046,0.015 0.051,0.038l0.281,1.475c0,0.001 0,0.001 0,0.002c0.006,0.035 -0.018,0.069 -0.052,0.074c-0.001,0 -0.002,0.001 -0.002,0.001c-0.445,0.06 -0.901,0.094 -1.367,0.101c-0.007,0 -0.013,-0.001 -0.019,-0.003c-0.019,-0.008 -0.032,-0.026 -0.031,-0.047l0.025,-1.549c-0,-0.017 0.014,-0.032 0.032,-0.033l1.082,-0.059Zm0.745,1.495c-0.025,0.005 -0.05,-0.011 -0.057,-0.037l-0.341,-1.462c-0.007,-0.03 0.012,-0.06 0.043,-0.068l0.907,-0.21c0.018,-0.005 0.037,0.004 0.044,0.02l0.638,1.379c0.006,0.015 -0.002,0.033 -0.017,0.039c-0.001,0.001 -0.001,0.001 -0.002,0.001c-0.39,0.139 -0.795,0.251 -1.215,0.338Z"/></g></svg>