<?xml version="1.0" encoding="UTF-8" standalone="no"?><!DOCTYPE svg PUBLIC "-//W3C//DTD SVG 1.1//EN" "http://www.w3.org/Graphics/SVG/1.1/DTD/svg11.dtd"><svg width="100%" height="100%" viewBox="0 0 30 30" version="1.1" xmlns="http://www.w3.org/2000/svg" xmlns:xlink="http://www.w3.org/1999/xlink" xml:space="preserve" xmlns:serif="http://www.serif.com/" style="fill-rule:evenodd;clip-rule:evenodd;stroke-linejoin:round;stroke-miterlimit:2;"><g><path d="M20.062,3.849c0.956,0.387 1.725,1.459 1.79,2.471c0.097,1.504 -0.477,3.002 -2.115,3.276c-0.725,0.121 -1.423,-0.153 -2.094,-0.417c-1.758,-0.695 -3.006,-2.133 -3.046,-4.09c-0.051,-2.476 2.106,-4.089 4.332,-4.458c2.276,-0.377 4.639,0.058 6.432,1.529c0.274,0.224 0.525,0.488 0.754,0.792c0.868,1.15 1.426,2.372 1.602,3.834c0.021,0.171 -0.01,0.371 0.008,0.55c0.083,0.865 -0.048,1.701 -0.393,2.507c-0.105,0.246 -0.211,0.493 -0.317,0.741c-0.382,0.892 -1.403,1.687 -2.228,2.185c-0.161,0.097 -0.334,0.159 -0.52,0.186c-0.025,0.004 -0.028,-0.003 -0.01,-0.021c0.853,-0.836 1.599,-1.646 2.083,-2.755c0.662,-1.517 0.625,-3.182 -0.125,-4.658c-0.461,-0.909 -1.231,-1.764 -2.064,-2.344c-1.494,-1.038 -3.494,-1.512 -5.255,-0.901c-1.284,0.445 -1.863,1.462 -1.992,2.778c-0.079,0.812 0.139,1.475 0.654,1.99c0.748,0.749 1.808,0.971 2.659,0.236c1.024,-0.885 0.566,-2.514 -0.175,-3.404c-0.028,-0.035 -0.022,-0.043 0.02,-0.027Zm-9.059,-2.448c0.34,0.089 0.544,0.437 0.455,0.778c-0.088,0.34 -0.437,0.544 -0.777,0.455c-0.341,-0.089 -0.545,-0.437 -0.456,-0.777c0.089,-0.341 0.437,-0.545 0.778,-0.456Zm7.478,19.607l1.658,-0.157l0.068,0.663c-0,0 -0.765,0.696 -1.156,1.034c-0.016,0.015 -1.831,-0.98 -2.804,-1.345c-1.402,-0.526 -8.637,-2.457 -9.69,-2.713c-0.254,-0.061 -0.503,-0.176 -0.762,-0.256c-0.004,-0.001 -0.007,-0.003 -0.011,-0.005c-0.023,-0.014 5.252,-5.322 5.551,-5.542c1.498,-1.101 4.657,-3.366 4.713,-3.171c-0,0 0.555,2.054 0.517,2.123c-0.453,0.815 -0.916,1.624 -1.388,2.427c-0.059,0.099 -1.776,1.154 -2.464,1.703c-0.417,0.331 -1.041,1.148 -0.613,1.656c0.016,0.019 6.722,-0.142 6.827,-0.172c1.11,-0.32 3.575,-0.995 3.673,-1.073c1.135,-0.904 3.805,-2.999 4.041,-3.131c0.065,-0.035 1.911,-0.182 2.098,0.085c0.055,0.08 -3.28,4.135 -4.847,6.069c-0.016,0.019 -5.411,1.805 -5.411,1.805Zm2.401,-7.704l1.423,-1.504l0.513,1.558l0.104,1.511l-2.124,0.91l0.216,-1.333l-0.132,-1.142Zm-3.113,1.162l1.074,-1.669l1.276,2.694l0.094,0.551l-2.01,0.401l0.067,-0.613l-0.501,-1.364Zm-13.092,6.143c-0.786,-0.179 -1.487,-0.491 -2.104,-0.936c-0.386,-0.28 -0.608,-0.973 -0.681,-1.434c-0.098,-0.63 0.344,-1.54 0.671,-2.063c0.296,-0.473 0.839,-1.026 1.253,-1.581c0.67,-0.896 2.031,-1.496 3.11,-1.692c0.984,-0.178 1.976,-0.282 2.978,-0.312c0.027,-0.001 0.051,0.011 0.062,0.03c0.028,0.052 0.008,0.103 -0.059,0.152c-0.289,0.209 -0.562,0.439 -0.818,0.69c-0.151,0.148 -0.579,0.036 -0.803,0.039c-1.504,0.023 -2.868,0.467 -4.091,1.331c-0.272,0.192 -0.528,0.513 -0.626,0.852c-0.375,1.293 0.313,2.326 1.451,2.909c1.597,0.817 5.436,1.876 5.754,1.956c1.709,0.434 5.679,1.652 6.031,1.843c0.544,0.294 1.143,0.508 1.646,0.832c1.033,0.664 2.004,1.472 2.282,2.664c0.086,0.365 0.082,0.744 0.096,1.136c0.023,0.574 -0.379,1.584 -0.927,1.855c-0.838,0.416 -1.996,0.788 -2.938,0.525c-1.198,-0.335 -2.254,-0.746 -2.672,-2.042c-0.078,-0.242 -0.162,-0.472 -0.252,-0.691c-0.001,-0.004 -0.003,-0.008 -0.003,-0.012c-0.008,-0.034 0.015,-0.068 0.049,-0.076c0.004,-0.001 0.008,-0.001 0.012,-0.001c0.139,-0.004 0.247,0.055 0.321,0.176c0.695,1.124 2.591,1.826 3.803,1.447c1.376,-0.431 0.174,-2.507 -0.319,-3.05c-0.531,-0.584 -1.129,-0.978 -1.879,-1.259c-0.231,-0.087 -1.845,-0.767 -2.797,-1.062c-1.356,-0.42 -3.845,-1.069 -5.338,-1.46c-0.279,-0.074 -2.447,-0.591 -3.212,-0.766Zm10.563,-5.515l0.988,-1.076l0.492,2.565l-1.576,0.121l0.096,-1.61Zm13.184,3.094c0.282,0.073 0.45,0.361 0.377,0.642c-0.073,0.281 -0.361,0.45 -0.643,0.377c-0.281,-0.074 -0.45,-0.362 -0.376,-0.643c0.073,-0.281 0.361,-0.45 0.642,-0.376Zm-28.424,6.338c1.432,-0.835 3.193,-1.864 3.24,-1.952c0.344,-0.657 0.331,-0.69 0.672,-1.348c0.011,-0.021 5.104,1.215 5.379,1.29c1.743,0.473 5.599,1.559 6.715,2.074c0.073,0.033 -4.358,1.946 -6.705,3.046c-0.293,0.137 -1.748,1.478 -2.7,2.364l-6.601,0l-0,-5.474Zm5.483,-20.405l1.064,2.223l2.357,1.004l-2.357,1.004l-1.064,2.222l-1.064,-2.222l-2.357,-1.004l2.357,-1.004l1.064,-2.223Zm20.402,16.675l0.921,1.922l2.038,0.868l-2.038,0.868l-0.921,1.922l-0.92,-1.922l-2.039,-0.868l2.039,-0.868l0.92,-1.922Z"/></g></svg>