<?xml version="1.0" encoding="UTF-8" standalone="no"?>
<!DOCTYPE svg PUBLIC "-//W3C//DTD SVG 1.1//EN" "http://www.w3.org/Graphics/SVG/1.1/DTD/svg11.dtd">
<svg width="100%" height="100%" viewBox="0 0 30 30" version="1.1" xmlns="http://www.w3.org/2000/svg" xmlns:xlink="http://www.w3.org/1999/xlink" xml:space="preserve" xmlns:serif="http://www.serif.com/" style="fill-rule:evenodd;clip-rule:evenodd;stroke-linejoin:round;stroke-miterlimit:2;">
    <g transform="matrix(1,0,0,1,-0.40022,0.355752)">
        <g transform="matrix(1.07911,0,0,1.18574,-1.78003,-1.6341)">
            <path d="M9.987,4.607C9.987,4.607 6.422,3.361 4.422,6.23C2.422,9.1 3.088,10.955 3.117,11.448C3.117,11.448 5.146,11.824 6.625,10.926C6.625,10.926 6.827,7.882 9.581,7.477L9.987,4.607Z"/>
        </g>
        <g transform="matrix(1.07911,0,0,1.18574,-0.963431,-1.5649)">
            <path d="M21.001,4.665C21.001,4.665 21.552,6.723 21.552,7.303C21.552,7.303 23.784,7.853 24.335,11.129C24.335,11.129 25.813,11.824 27.958,11.419C27.958,11.419 28.219,8.404 26.943,6.607C25.668,4.81 23.61,3.998 21.001,4.665Z"/>
        </g>
        <g transform="matrix(1.43858,0,0,1.43858,-15.0117,18.2363)">
            <path d="M26.237,0.463L27.17,2.984L29.69,3.917L27.17,4.849L26.237,7.37L25.304,4.849L22.784,3.917L25.304,2.984L26.237,0.463Z"/>
        </g>
        <g transform="matrix(1.06984,0,0,1.06984,-0.634356,-0.187833)">
            <path d="M22.861,16.693C22.645,16.343 22.26,16.123 21.838,16.123C21.335,16.123 20.886,16.436 20.711,16.908L19.561,20.015L16.453,21.165C15.982,21.34 15.668,21.79 15.668,22.293C15.668,22.796 15.982,23.245 16.453,23.42L18.91,24.42C16.781,24.837 8.848,24.501 8.848,24.501L7.029,15.805C8.491,14.198 7.76,9.155 7.76,9.155C8.549,8.351 9.631,8.319 9.631,8.319L10.069,3.982L11.941,3.083C11.941,3.966 12.613,4.673 15.098,4.673C17.583,4.673 17.759,2.938 17.759,2.938L19.601,3.966L20.361,7.998C21.15,7.998 22.378,9.283 22.378,9.283C21.559,12.367 23.05,15.837 23.05,15.837L22.861,16.693Z"/>
        </g>
        <g transform="matrix(0.450682,0,0,0.459594,-8.44915,0.321245)">
            <path d="M26.237,0.463L27.17,2.984L29.69,3.917L27.17,4.849L26.237,7.37L25.304,4.849L22.784,3.917L25.304,2.984L26.237,0.463Z"/>
        </g>
        <g transform="matrix(0.77199,0,0,0.77199,-16.275,13.4682)">
            <path d="M26.237,0.463L27.17,2.984L29.69,3.917L27.17,4.849L26.237,7.37L25.304,4.849L22.784,3.917L25.304,2.984L26.237,0.463Z"/>
        </g>
        <g transform="matrix(0.56815,0,0,0.56815,12.4331,14.9828)">
            <path d="M26.237,0.463L27.17,2.984L29.69,3.917L27.17,4.849L26.237,7.37L25.304,4.849L22.784,3.917L25.304,2.984L26.237,0.463Z"/>
        </g>
    </g>
</svg>
