<?xml version="1.0" encoding="UTF-8" standalone="no"?><!DOCTYPE svg PUBLIC "-//W3C//DTD SVG 1.1//EN" "http://www.w3.org/Graphics/SVG/1.1/DTD/svg11.dtd"><svg width="100%" height="100%" viewBox="0 0 30 30" version="1.1" xmlns="http://www.w3.org/2000/svg" xmlns:xlink="http://www.w3.org/1999/xlink" xml:space="preserve" xmlns:serif="http://www.serif.com/" style="fill-rule:evenodd;clip-rule:evenodd;stroke-linejoin:round;stroke-miterlimit:2;"><g><path d="M30,18.758l-10.067,6.047c0,0 -12.169,7.662 -17.387,4.23c-0.294,-0.154 -0.567,-0.353 -0.816,-0.604c-0.325,-0.327 -0.566,-0.693 -0.735,-1.09c-3.194,-5.603 3.284,-16.721 3.284,-16.721l6.721,-10.62l3.531,-0l-8.203,11.999c-0,0 -6.038,8.41 -5.654,13.692c-0.045,-4.416 5.161,-10.577 5.161,-10.577l11.76,-15.114l12.405,-0l-0,12.442l-14.673,11.45c-0,-0 -5.673,4.911 -10.076,5.506c5.202,-0.468 12.917,-6.211 12.917,-6.211l11.832,-7.73l-0,3.301Zm-3.323,-16.114l-0.683,1.847l-1.846,0.683l1.846,0.682l0.683,1.847l0.683,-1.847l1.846,-0.682l-1.846,-0.683l-0.683,-1.847Zm-14.769,20.219c0.015,-0.015 0.031,-0.03 0.046,-0.045l6.614,-6.089c-2.41,-0.94 -4.026,-2.674 -5.007,-5.044l-6.267,6.513l-0.046,0.046c-1.556,1.549 -4.661,7.161 -3.571,8.259c1.091,1.099 6.671,-2.095 8.231,-3.64Zm5.085,-18.3l-0.41,1.109l-1.108,0.41l1.108,0.41l0.41,1.108l0.411,-1.108l1.108,-0.41l-1.108,-0.41l-0.411,-1.109Zm5.184,-4.034l-0.399,1.099l-1.078,0.407l1.078,0.406l0.399,1.099l0.398,-1.099l1.078,-0.406l-1.078,-0.407l-0.398,-1.099Zm-0.502,6.292l-1.273,3.44l-3.439,1.274l3.439,1.272l1.273,3.44l1.274,-3.44l3.439,-1.272l-3.439,-1.274l-1.274,-3.44Zm-0.063,18.981l0.481,1.29l1.299,0.478l-1.299,0.477l-0.481,1.29l-0.481,-1.29l-1.299,-0.477l1.299,-0.478l0.481,-1.29Zm4.85,-3.854l0.857,2.298l2.314,0.851l-2.314,0.85l-0.857,2.298l-0.857,-2.298l-2.314,-0.85l2.314,-0.851l0.857,-2.298Zm-20.7,-21.079l0.449,1.207l1.215,0.446l-1.215,0.446l-0.449,1.207l-0.45,-1.207l-1.215,-0.446l1.215,-0.446l0.45,-1.207Zm-2.688,3.101l0.677,1.796l1.828,0.664l-1.828,0.665l-0.677,1.796l-0.677,-1.796l-1.828,-0.665l1.828,-0.664l0.677,-1.796Z"/></g></svg>