<?xml version="1.0" encoding="UTF-8" standalone="no"?>
<!DOCTYPE svg PUBLIC "-//W3C//DTD SVG 1.1//EN" "http://www.w3.org/Graphics/SVG/1.1/DTD/svg11.dtd">
<svg width="100%" height="100%" viewBox="0 0 30 30" version="1.1" xmlns="http://www.w3.org/2000/svg" xmlns:xlink="http://www.w3.org/1999/xlink" xml:space="preserve" xmlns:serif="http://www.serif.com/" style="fill-rule:evenodd;clip-rule:evenodd;stroke-linejoin:round;stroke-miterlimit:2;">
    <g transform="matrix(0.0184544,0.0184544,-0.0184544,0.0184544,3.92752,-23.8256)">
        <path d="M992.694,572.025L1077.32,656.656L987.404,746.576L1077.32,836.496L992.694,921.127L902.773,831.207L812.853,921.127L728.223,836.496L818.143,746.576L728.223,656.656L812.853,572.025L902.773,661.945L992.694,572.025Z"/>
    </g>
    <g transform="matrix(0.0335584,0.0335584,-0.0335584,0.0335584,9.27235,-34.6231)">
        <path d="M995.338,574.67L1074.68,654.011L982.115,746.576L1074.68,839.141L995.338,918.482L902.773,825.917L810.209,918.482L730.867,839.141L823.432,746.576L730.867,654.011L810.209,574.67L902.773,667.235L995.338,574.67Z"/>
    </g>
    <g transform="matrix(0.0166344,0.0166344,-0.0166344,0.0166344,22.2955,-16.8146)">
        <path d="M991.371,570.703L1078.65,657.978L990.049,746.576L1078.65,835.174L991.371,922.449L902.773,833.851L814.176,922.449L726.9,835.174L815.498,746.576L726.9,657.978L814.176,570.703L902.773,659.301L991.371,570.703Z"/>
    </g>
    <g transform="matrix(0.0113561,0,0,0.0113561,7.99423,-14.7607)">
        <path d="M915.865,1313.67L985.385,1489.94L1161.65,1559.46L985.385,1628.98L915.865,1805.25L846.344,1628.98L670.074,1559.46L846.344,1489.94L915.865,1313.67Z"/>
    </g>
    <g transform="matrix(0.0107059,0,0,0.0107059,16.1297,9.61938)">
        <path d="M915.865,1313.67L985.385,1489.94L1161.65,1559.46L985.385,1628.98L915.865,1805.25L846.344,1628.98L670.074,1559.46L846.344,1489.94L915.865,1313.67Z"/>
    </g>
    <g transform="matrix(0.00945134,0,0,0.00945134,-5.95179,-0.0782005)">
        <path d="M915.865,1313.67L985.385,1489.94L1161.65,1559.46L985.385,1628.98L915.865,1805.25L846.344,1628.98L670.074,1559.46L846.344,1489.94L915.865,1313.67Z"/>
    </g>
</svg>
