<?xml version="1.0" encoding="UTF-8" standalone="no"?><!DOCTYPE svg PUBLIC "-//W3C//DTD SVG 1.1//EN" "http://www.w3.org/Graphics/SVG/1.1/DTD/svg11.dtd"><svg width="100%" height="100%" viewBox="0 0 30 30" version="1.1" xmlns="http://www.w3.org/2000/svg" xmlns:xlink="http://www.w3.org/1999/xlink" xml:space="preserve" xmlns:serif="http://www.serif.com/" style="fill-rule:evenodd;clip-rule:evenodd;stroke-linejoin:round;stroke-miterlimit:2;"><g><path d="M30,23.349c-0.441,-0.775 -0.883,-1.55 -1.325,-2.324c-0.372,-0.649 -0.833,-1.316 -1.187,-2.031c-0.016,-0.033 -0.01,-0.072 0.016,-0.098c0.348,-0.355 0.686,-0.729 1.043,-1.085c0.142,-0.142 0.265,-0.301 0.369,-0.478c0.036,-0.062 0.023,-0.073 -0.037,-0.036c-0.533,0.331 -1.12,0.778 -1.555,1.049c-0.841,0.521 -1.852,1.028 -2.791,1.169c-0.144,0.022 -0.302,0.008 -0.474,-0.04c-0.782,-0.222 -0.922,-1.35 -1.092,-2.063c-0.092,-0.387 -0.309,-0.699 -0.649,-0.936c-0.132,-0.091 -0.294,-0.127 -0.448,-0.175c-0.298,-0.093 -0.596,-0.379 -0.42,-0.713c0.182,-0.345 0.354,-0.697 0.515,-1.057c0.008,-0.018 0.003,-0.039 -0.012,-0.052c-0.097,-0.078 -0.212,-0.149 -0.338,-0.191c-0.537,-0.177 -0.96,-0.334 -1.269,-0.469c-0.299,-0.131 -0.233,-0.353 -0.181,-0.656c0.043,-0.251 0.084,-0.504 0.122,-0.757c0.012,-0.083 -0.024,-0.127 -0.108,-0.13c-0.361,-0.014 -0.728,-0.069 -1.102,-0.164c-0.515,-0.131 -1.331,-0.549 -1.211,-1.174c0.087,-0.446 0.32,-0.909 0.473,-1.337c0.234,-0.652 0.564,-1.391 0.774,-2.091c0.082,-0.272 0.178,-0.615 0.038,-0.861c-0.231,-0.406 -0.623,-0.769 -0.708,-1.243c-0.147,-0.831 -0.213,-1.362 -0.19,-2.147c0.02,-0.696 0.476,-2.362 0.725,-3.259l11.022,0l0,23.349Z"/></g><g><path d="M15.127,8.409c0.457,0.313 0.76,0.842 1.093,1.281c0.017,0.022 0.024,0.051 0.018,0.078c-0.135,0.691 -0.402,1.331 -0.52,2.024c-0.009,0.053 -0.011,0.101 -0.006,0.145c0.005,0.044 -0.004,0.047 -0.026,0.008c-0.603,-1.057 -1.214,-2.109 -1.832,-3.157c-0.071,-0.12 -0.072,-0.253 0.013,-0.356c0.322,-0.386 0.871,-0.29 1.26,-0.023Zm3.179,8.155c-0.007,0 -0.016,0.002 -0.027,0.005c-0.015,0.004 -0.03,-0.009 -0.046,-0.005c-0.407,0.117 -23.809,5.065 -25.44,5.527l1.721,-1.191l15.733,-3.661c-0,-0 -0.556,-0.334 -0.851,-0.531c-0.047,-0.032 -0.08,-0.076 -0.097,-0.131c-0.109,-0.349 -0.064,-0.671 0.051,-1.062c0.005,-0.016 0.014,-0.03 0.026,-0.04c0.075,-0.056 0.159,-0.054 0.252,0.005c0.951,0.608 2.344,1.322 2.344,1.322l0.74,-0.164c-0,0 -1.945,-1.744 -3.681,-3.303c-0.141,-0.126 -0.108,-0.459 -0.08,-0.699c0.027,-0.234 0.565,-0.382 0.583,-0.368c1.626,1.243 3.04,2.261 4.729,3.47c0.075,0.054 0.135,0.045 0.183,-0.025l0.355,-0.528c0.011,-0.017 0.009,-0.04 -0.005,-0.057c-1.306,-1.658 -2.633,-3.299 -3.96,-4.94c-0.145,-0.18 -0.05,-0.491 -0.042,-0.504c0.337,-0.509 1.104,-0.531 1.19,-0.426c1.219,1.496 2.448,2.986 3.684,4.472c0.035,0.042 0.08,0.053 0.135,0.033l0.711,-0.255c0.001,0 0.002,-0 0.003,-0.001c0.022,-0.009 0.035,-0.032 0.027,-0.051c-0.001,-0.001 -0.001,-0.002 -0.001,-0.002l-0.094,-0.179c-0.006,-0.01 -0.007,-0.019 -0.005,-0.023c0.004,-0.006 0.011,-0.006 0.02,-0c0.39,0.244 0.864,0.321 1.285,0.517c0.027,0.013 0.044,0.042 0.042,0.073c-0.026,0.339 -0.051,0.678 -0.076,1.018c-0.049,0.66 0.255,0.687 0.771,0.857c0.264,0.086 0.57,0.12 0.852,0.217c0.016,0.005 0.029,0.015 0.037,0.028c0.301,0.479 -0.658,1.236 0.035,1.707c0.156,0.106 0.433,0.269 0.83,0.489c0.517,0.287 0.724,0.516 0.821,1.082c0.092,0.541 0.285,1.046 0.579,1.515c0.343,0.547 0.838,0.805 1.486,0.776c0.538,-0.024 1.164,-0.031 1.687,-0.303c0,0 0.001,-0 0.001,-0c0.02,-0.009 0.043,-0.001 0.052,0.018c0,0 0,0.001 0.001,0.001c0.051,0.121 0.115,0.246 0.158,0.366c0.412,1.144 2.608,11.302 3.136,12.399l-2.286,1.539l-4.188,0.591l-1.252,-12.997c-0.016,-0.058 -0.053,-0.086 -0.112,-0.084c-1.114,0.036 -2.289,-0.092 -3.259,-0.646c-0.073,-0.041 -0.163,-0.098 -0.269,-0.172l-6.277,13.991c-0.107,0.238 -0.387,0.345 -0.625,0.238c-0.238,-0.107 -0.345,-0.387 -0.238,-0.625c0,-0 8.509,-19.091 8.612,-19.196l0.039,-0.087Zm-4.231,-13.552l-0,1.409l-1.645,0l0,1.644l-1.409,0l-0,-1.644l-1.644,0l-0,-1.409l1.644,-0l-0,-1.645l1.409,0l0,1.645l1.645,-0Zm5.545,23.767l0,1.134l-1.322,-0l0,1.322l-1.133,0l-0,-1.322l-1.323,-0l0,-1.134l1.323,0l-0,-1.322l1.133,-0l0,1.322l1.322,0Zm-10.578,-18.2l0,2.288l-2.669,0l-0,2.67l-2.288,-0l-0,-2.67l-2.67,0l0,-2.288l2.67,-0l-0,-2.669l2.288,-0l-0,2.669l2.669,-0Z"/></g><g><path d="M3.781,22.352c-0.066,-0.095 -0.119,-0.204 -0.155,-0.323c-0.032,-0.113 -0.049,-0.235 -0.049,-0.361c0,-0.611 0.397,-1.031 0.885,-1.031c0.488,-0 0.885,0.42 0.885,1.031c-0,0.162 -0.028,0.316 -0.078,0.455c-0.033,0.083 -0.075,0.16 -0.123,0.229c0.002,0.002 -0.282,0.353 -0.695,0.353c-0.467,0 -0.668,-0.357 -0.67,-0.353Zm0,0c0,0 0,0 0,0c0,0 0,0 0,0Z"/></g><g><path d="M10.428,22.352c-0.066,-0.095 -0.119,-0.204 -0.155,-0.323c-0.032,-0.113 -0.049,-0.235 -0.049,-0.361c0,-0.611 0.397,-1.031 0.885,-1.031c0.489,-0 0.885,0.42 0.885,1.031c0,0.162 -0.028,0.316 -0.078,0.455c-0.033,0.083 -0.075,0.16 -0.123,0.229c0.003,0.002 -0.282,0.353 -0.695,0.353c-0.467,0 -0.668,-0.357 -0.67,-0.353Zm0,0c0,0 0,0 0,0c0,0 0,0 0,0Z"/></g><g><path d="M7.066,23.568c-0.066,-0.095 -0.119,-0.204 -0.155,-0.323c-0.032,-0.113 -0.049,-0.235 -0.049,-0.362c0,-0.61 0.397,-1.031 0.885,-1.031c0.488,0 0.885,0.421 0.885,1.031c-0,0.162 -0.028,0.317 -0.079,0.455c-0.033,0.083 -0.074,0.161 -0.122,0.23c0.002,0.002 -0.282,0.353 -0.695,0.353c-0.467,-0 -0.668,-0.357 -0.67,-0.353Zm0,0c0,0 0,0 0,0c0,0 0,0 0,0Z"/></g><g><path d="M5.219,22.687c0.153,0.076 0.488,0.248 0.572,0.413c0.168,0.334 0.122,0.865 0.122,1.307c0,0.068 -0.002,0.136 -0.007,0.202l0,0.898l-0.517,0l-0,-1.35l-0.082,0l0,1.39l0,-0l0,1.749l0.132,0.138l0.205,0.195l-1.12,-0l0,-2.141l-0.121,0l-0,2.141l-1.12,-0l0.205,-0.195l0.132,-0.138l-0,-1.749l0,-0l0,-1.39l-0.082,0l0,1.35l-0.517,0l-0,-0.898c-0.005,-0.066 -0.007,-0.134 -0.007,-0.202c-0,-0.441 -0.039,-1.006 0.128,-1.34c0.08,-0.159 0.391,-0.324 0.534,-0.389c-0,-0 0.321,0.266 0.767,0.266c0.447,-0 0.776,-0.257 0.776,-0.257Z"/></g><g><path d="M11.866,22.687c0.153,0.076 0.489,0.248 0.572,0.413c0.169,0.334 0.123,0.865 0.123,1.307c-0,0.068 -0.003,0.136 -0.007,0.202l-0,0.898l-0.518,0l0,-1.35l-0.082,0l0,1.39l0,-0l0,1.749l0.133,0.138l0.204,0.195l-1.119,-0l-0,-2.141l-0.122,0l-0,2.141l-1.12,-0l0.205,-0.195l0.132,-0.138l0,-1.749l0,-0l0,-1.39l-0.081,0l-0,1.35l-0.518,0l0,-0.898c-0.005,-0.066 -0.007,-0.134 -0.007,-0.202c0,-0.441 -0.039,-1.006 0.129,-1.34c0.08,-0.159 0.39,-0.324 0.533,-0.389c-0,-0 0.321,0.266 0.768,0.266c0.446,-0 0.775,-0.257 0.775,-0.257Z"/></g><g><path d="M8.504,23.903c0.153,0.076 0.488,0.247 0.572,0.413c0.168,0.334 0.122,0.865 0.122,1.306c0,0.069 -0.002,0.136 -0.007,0.203l0,0.898l-0.517,-0l-0,-1.35l-0.082,-0l-0,1.389l0,0l0,1.75l0.132,0.137l0.205,0.195l-1.12,0l0,-2.14l-0.121,0l-0,2.14l-1.12,0l0.205,-0.195l0.132,-0.137l-0,-1.75l0,0l0,-1.389l-0.082,-0l0,1.35l-0.517,-0l-0,-0.898c-0.005,-0.067 -0.007,-0.134 -0.007,-0.203c-0,-0.44 -0.039,-1.005 0.128,-1.339c0.08,-0.159 0.391,-0.325 0.534,-0.39c-0,0 0.321,0.267 0.767,0.267c0.447,-0.001 0.776,-0.257 0.776,-0.257Z"/></g></svg>