<?xml version="1.0" encoding="UTF-8" standalone="no"?>
<!DOCTYPE svg PUBLIC "-//W3C//DTD SVG 1.1//EN" "http://www.w3.org/Graphics/SVG/1.1/DTD/svg11.dtd">
<svg width="100%" height="100%" viewBox="0 0 30 30" version="1.1" xmlns="http://www.w3.org/2000/svg" xmlns:xlink="http://www.w3.org/1999/xlink" xml:space="preserve" xmlns:serif="http://www.serif.com/" style="fill-rule:evenodd;clip-rule:evenodd;stroke-linejoin:round;stroke-miterlimit:2;">
    <g transform="matrix(0.0721914,0.00465037,-0.00465037,0.0721914,-2.03968,-3.948)">
        <path d="M133.077,308.373C131.554,303.8 130.267,299.173 129.24,294.5C123.74,269.5 132.14,237.14 146.03,214.49C155.36,199.28 168.11,189.58 183.41,180.89C184.917,180.037 185.303,178.827 184.57,177.26C181.623,170.913 178.363,164.727 174.79,158.7C171.557,153.253 165.94,141.377 157.94,123.07C157.934,123.057 157.929,123.043 157.924,123.03C157.855,122.816 157.977,122.581 158.196,122.51C158.207,122.506 158.219,122.503 158.23,122.5C158.23,122.5 250.85,102.943 251.35,102.87C251.372,102.867 251.394,102.867 251.416,102.87C251.574,102.887 251.691,103.031 251.673,103.189C251.671,103.21 251.667,103.23 251.66,103.25L215.98,200C215.333,201.76 215.843,203.057 217.51,203.89C219.74,205 221.99,205.86 224.61,206.26C254.617,210.853 284.35,215.303 313.81,219.61C313.825,219.612 313.84,219.615 313.854,219.617C314.599,219.751 315.103,220.47 314.97,221.21C314.967,221.227 314.964,221.243 314.96,221.26L300.989,268.791C300.542,270.811 301.306,272.091 303.279,272.631C306.579,273.531 309.709,274.501 313.179,275.221C320.079,276.661 330.59,278.31 337.12,279.44C340.92,280.093 344.713,280.78 348.5,281.5C348.853,281.567 349,281.48 348.94,281.24C348.896,281.082 348.729,280.95 348.53,280.81C339.22,274.254 332.856,270.287 321.522,262.725C321.324,262.593 321.183,262.392 321.252,262.165C325.122,248.635 331.959,230.315 335.479,216.745C337.549,208.735 338.929,202.255 328.409,200.725C299.369,196.498 277.127,192.409 248.327,187.962C248.307,187.959 248.288,187.955 248.268,187.95C247.944,187.868 247.746,187.529 247.83,187.199C247.835,187.18 247.841,187.161 247.847,187.142C259.497,155.502 266.503,132.087 277.733,100.287C277.844,99.97 284.745,99.466 284.75,100.21C284.863,116.157 285.02,132.4 285.22,148.94C285.24,151.027 285.667,152.763 286.5,154.15C286.987,154.975 305.434,160.721 306.333,161.068C336.849,172.829 344.701,180.142 352.691,187.448C365.292,198.97 374.533,215.3 379.48,232.1C379.485,232.116 379.49,232.131 379.495,232.147C379.707,232.77 381.072,237.823 381.13,238.1C393.57,299.08 366.26,365.21 334.78,416.13C334.607,416.407 334.339,416.607 334.03,416.69C313.72,422.04 301.49,424.29 289.76,427.01C282.36,428.73 276.47,429.41 269.75,430.74C261.17,432.44 252.52,433.65 243.8,434.37C243.466,434.396 243.138,434.334 242.85,434.19C241.47,433.483 239.55,432.303 237.09,430.65C221.296,420.036 205.041,407.222 190.016,392.692C202.576,386.336 211.857,381.639 211.857,381.639C212.997,381.071 214.08,380.349 215.061,379.499C221.52,373.904 222.105,364.108 216.661,357.823C215.786,356.814 214.783,355.923 213.676,355.174L149.76,311.707C149.745,311.697 149.731,311.688 149.717,311.678C143.331,307.373 137.628,307.033 133.077,308.373Z"/>
    </g>
    <g transform="matrix(0.0548641,0.0035342,-0.0035342,0.0548641,0.0545703,-0.914472)">
        <path d="M116.68,49.693C159.644,33.598 201.243,27.181 258.891,40.631C258.66,40.779 258.466,40.926 258.321,41.071C256.986,42.406 225.071,54.595 222.539,55.12C180.767,50.269 151.831,58.581 120.463,71.225C118.924,71.845 117.404,72.485 115.904,73.145C116.079,65.185 116.338,57.368 116.68,49.693Z"/>
    </g>
    <g transform="matrix(0.0548641,0.0035342,-0.0035342,0.0548641,0.0545703,-0.914472)">
        <path d="M51.274,159.795C50.855,179.46 56.643,199.783 67.41,219.476C68.215,220.947 69.047,222.415 69.905,223.878C86.886,193.461 102.743,168.999 133.729,141.346C137.665,147.175 141.908,153.128 146.045,159.076C114.594,187.49 98.999,212.907 83.532,243.882C87.757,249.31 92.471,252.303 97.417,257.516C96.233,262.519 95.09,267.634 93.504,272.392C92.438,275.592 92.645,279.092 91.957,282.248C85.56,276.21 79.484,272.334 73.992,265.98C73.414,267.573 72.862,269.162 72.336,270.746C62.009,301.866 61.792,330.972 75.305,353.17C78.266,358.035 88.718,368.071 92.727,371.9C90.776,379.657 88.997,387.444 87.391,395.259C77.958,388.487 63.108,374.368 56.991,364.319C40.533,337.284 39.408,301.895 51.987,263.993C53.925,258.15 56.192,252.243 58.774,246.297C55.036,240.843 51.639,235.324 48.598,229.762C36.475,207.589 29.946,184.709 29.815,162.453C31.813,162.992 33.943,163.176 36.125,162.935C36.385,162.906 36.646,162.872 36.905,162.831C41.729,162.085 46.519,161.048 51.274,159.795Z"/>
    </g>
    <g transform="matrix(0.0548641,0.0035342,-0.0035342,0.0548641,3.308,-0.432383)">
        <path d="M459.067,111.663C463.513,127.98 463.843,146.177 460.294,165.407C463.178,169.794 465.841,174.22 468.275,178.672C487.418,213.683 492.611,250.455 480.696,283.753C470.665,311.783 449.701,334.024 421.242,349.258C422.348,346.626 422.199,342.711 423.499,340.111C423.941,339.228 423.275,337.387 423.821,336.568C426.279,332.883 425.132,327.506 427.042,323.686C427.768,322.234 428.206,320.71 428.561,319.163C443.332,307.802 454.422,293.536 460.508,276.529C469.835,250.465 465.992,221.924 452.29,194.374C447.069,208.709 439.923,223.381 431.017,238.034C430.849,236.705 421.895,211.164 421.739,210.815C426.664,201.163 430.721,191.566 433.85,182.137C435.211,178.036 436.396,173.97 437.398,169.95C423.24,150.419 404.28,131.968 381.504,115.809C383.149,116.026 384.951,116.095 386.924,115.978L386.93,115.977L414.417,114.334C424.294,122.74 433.295,131.564 441.333,140.681C441.398,130.859 440.033,121.555 437.087,112.978L459.067,111.663Z"/>
    </g>
    <g transform="matrix(0.0548641,0.0035342,-0.0035342,0.0548641,3.308,-0.432383)">
        <path d="M366.936,106.115C354.15,98.139 340.364,90.867 325.722,84.474C321.552,81.527 309.177,72.842 309.177,72.842L306.126,49.132C306.126,49.132 315.932,45.954 323.064,44.929C337.672,42.828 351.626,42.231 364.629,43.15C373.818,43.8 382.551,45.198 390.747,47.336L379.341,66.694C374.153,65.651 368.733,64.935 363.117,64.538C354.118,63.902 344.636,64.074 334.783,65.042C347.051,70.427 358.751,76.397 369.817,82.858L368.304,85.426C362.951,94.433 364.483,101.603 366.936,106.115Z"/>
    </g>
    <g transform="matrix(0.199462,0.0128488,-0.0128488,0.199462,-15.6611,-0.0693294)">
        <path d="M135.9,109.62C135.952,109.655 135.999,109.696 136.04,109.744C136.299,110.042 136.259,110.507 135.952,110.772C135.903,110.815 135.848,110.851 135.79,110.88L108.46,124.71C108.167,124.863 108.033,124.777 108.06,124.45C108.827,115.27 110.553,106.247 113.24,97.38C113.767,95.633 114.767,95.257 116.24,96.25L135.9,109.62Z" style="fill-rule:nonzero;"/>
    </g>
    <g transform="matrix(0.205369,0.0132293,-0.0132293,0.205369,-39.2342,-27.2794)">
        <path d="M328.17,122.64C328.209,122.575 328.253,122.513 328.302,122.455C328.795,121.874 329.687,121.807 330.277,122.307C330.335,122.357 330.39,122.411 330.44,122.47C335.007,127.897 339.093,133.43 342.7,139.07C343.927,140.99 343.427,142.017 341.2,142.15L317.79,143.55C316.443,143.63 316.117,143.087 316.81,141.92L328.17,122.64Z" style="fill-rule:nonzero;"/>
    </g>
    <g transform="matrix(0.114856,0.00739872,-0.00739872,0.114856,-9.61368,-14.4581)">
        <path d="M107.29,181.73C106.65,171.49 107.5,160.99 107.25,150.74C107.243,150.425 107.403,150.128 107.67,149.96L137.04,131.48C138.78,130.387 139.6,130.863 139.5,132.91C138.907,144.79 138.733,157.387 138.98,170.7C138.986,171.162 138.708,171.584 138.28,171.76C128.49,175.74 118.36,180.52 107.82,182.15C107.813,182.151 107.806,182.152 107.799,182.153C107.548,182.181 107.319,182.001 107.292,181.756C107.291,181.747 107.29,181.739 107.29,181.73Z" style="fill-rule:nonzero;"/>
    </g>
</svg>
