<?xml version="1.0" encoding="UTF-8" standalone="no"?><!DOCTYPE svg PUBLIC "-//W3C//DTD SVG 1.1//EN" "http://www.w3.org/Graphics/SVG/1.1/DTD/svg11.dtd"><svg width="100%" height="100%" viewBox="0 0 30 30" version="1.1" xmlns="http://www.w3.org/2000/svg" xmlns:xlink="http://www.w3.org/1999/xlink" xml:space="preserve" xmlns:serif="http://www.serif.com/" style="fill-rule:evenodd;clip-rule:evenodd;stroke-linejoin:round;stroke-miterlimit:2;"><g><path d="M0,20.719l5.112,-0.924c0.031,-0.006 0.034,-0.018 0.009,-0.037c-0.217,-0.17 -0.404,-0.407 -0.583,-0.564c-0.35,-0.305 -0.707,-0.6 -1.071,-0.887c-0.056,-0.044 -0.092,-0.1 -0.108,-0.169c-0.102,-0.441 -0.017,-0.832 0.162,-1.303c0.007,-0.02 0.02,-0.036 0.035,-0.046c0.099,-0.063 0.202,-0.053 0.31,0.029c1.114,0.837 2.23,1.674 3.349,2.511c0.066,0.049 0.139,0.067 0.22,0.053l0.644,-0.108c0.066,-0.011 0.075,-0.04 0.029,-0.088c-1.615,-1.659 -2.785,-2.983 -4.776,-5.064c-0.162,-0.169 -0.09,-0.575 -0.033,-0.868c0.055,-0.286 0.731,-0.417 0.752,-0.399c1.885,1.683 3.53,3.067 5.497,4.714c0.086,0.073 0.162,0.068 0.226,-0.015l0.487,-0.616c0.015,-0.02 0.015,-0.048 -0,-0.071c-1.454,-2.162 -2.934,-4.306 -4.413,-6.45c-0.162,-0.235 -0.016,-0.609 -0.004,-0.624c0.463,-0.595 1.408,-0.55 1.504,-0.414c1.361,1.955 2.734,3.905 4.117,5.849c0.039,0.055 0.093,0.073 0.162,0.054l0.899,-0.247c0.001,-0 0.003,-0.001 0.004,-0.001c0.029,-0.01 0.046,-0.037 0.038,-0.061c-0,-0.001 -0.001,-0.002 -0.001,-0.003l-0.099,-0.228c-0.006,-0.013 -0.007,-0.025 -0.004,-0.03c0.006,-0.007 0.014,-0.006 0.025,0.002c0.457,0.338 1.033,0.476 1.532,0.757c0.033,0.019 0.051,0.056 0.045,0.094c-0.062,0.414 -0.125,0.829 -0.188,1.245c-0.121,0.808 0.25,0.871 0.869,1.127c0.317,0.131 0.69,0.202 1.028,0.348c0.019,0.007 0.035,0.021 0.043,0.038c0.326,0.617 -0.925,1.459 -0.116,2.103c0.182,0.145 0.508,0.372 0.976,0.68c0.61,0.401 0.843,0.703 0.908,1.409c0.063,0.674 0.254,1.314 0.572,1.918c0.371,0.705 0.957,1.07 1.757,1.094c0.664,0.021 1.435,0.071 2.104,-0.214c0.001,-0.001 0.001,-0.001 0.002,-0.001c0.025,-0.01 0.052,0.003 0.062,0.027c-0,0.001 0,0.001 0,0.002c0.053,0.154 0.119,0.313 0.161,0.465c0.394,1.421 0.858,2.819 1.392,4.194l-6.666,0l-0.519,-2.737c-0.013,-0.073 -0.057,-0.111 -0.129,-0.114c-1.375,-0.061 -2.809,-0.327 -3.952,-1.1c-0.203,-0.137 -0.514,-0.393 -0.934,-0.77c-0.667,-0.598 -1.338,-1.195 -2.01,-1.789c-0.328,-0.289 -0.738,-0.721 -1.141,-1.042c-0.031,-0.024 -0.072,-0.03 -0.108,-0.016c-2.719,1.101 -5.445,2.173 -8.177,3.217l0,-1.277c1.614,-0.63 3.23,-1.255 4.848,-1.876c0.696,-0.267 1.611,-0.568 2.402,-0.894c0.447,-0.184 0.824,-0.328 1.132,-0.432c1.858,-0.626 3.723,-1.226 5.598,-1.801c0.16,-0.049 0.726,-0.208 0.432,-0.402c-0.016,-0.011 -0.036,-0.014 -0.056,-0.01c-0.512,0.105 -1.025,0.205 -1.539,0.302c-1.247,0.235 -2.484,0.54 -3.724,0.809c-0.926,0.201 -1.879,0.349 -2.821,0.515c-0.088,0.016 -0.165,-0.015 -0.235,0c-2.009,0.448 -4.021,0.876 -6.037,1.287l-0,-1.151Zm23.822,9.281c0.002,-0.006 0.004,-0.013 0.008,-0.018c0.028,-0.042 0.052,-0.039 0.07,0.008c0.001,0.003 0.003,0.007 0.003,0.01l-0.081,0Zm4.664,0c-0.525,-1.077 -1.349,-2.632 -1.812,-3.607c-0.42,-0.882 -0.956,-1.798 -1.347,-2.765c-0.017,-0.045 -0.005,-0.096 0.031,-0.127c0.489,-0.428 0.967,-0.882 1.467,-1.311c0.2,-0.171 0.377,-0.367 0.529,-0.586c0.053,-0.077 0.038,-0.094 -0.045,-0.051c-0.727,0.378 -1.536,0.904 -2.131,1.213c-1.148,0.596 -2.516,1.157 -3.755,1.249c-0.189,0.014 -0.394,-0.02 -0.614,-0.101c-0.997,-0.365 -1.068,-1.85 -1.219,-2.797c-0.082,-0.514 -0.334,-0.942 -0.754,-1.285c-0.163,-0.131 -0.371,-0.194 -0.566,-0.272c-0.38,-0.151 -0.74,-0.554 -0.477,-0.971c0.272,-0.432 0.53,-0.874 0.776,-1.328c0.012,-0.022 0.008,-0.05 -0.011,-0.068c-0.119,-0.112 -0.261,-0.215 -0.421,-0.282c-0.683,-0.285 -1.219,-0.531 -1.608,-0.738c-0.377,-0.201 -0.269,-0.484 -0.171,-0.873c0.081,-0.324 0.159,-0.649 0.233,-0.975c0.025,-0.107 -0.018,-0.168 -0.127,-0.18c-0.469,-0.054 -0.943,-0.162 -1.421,-0.323c-0.658,-0.222 -1.68,-0.848 -1.462,-1.651c0.156,-0.573 0.507,-1.153 0.749,-1.696c0.369,-0.828 0.873,-1.757 1.216,-2.649c0.133,-0.347 0.293,-0.786 0.135,-1.119c-0.261,-0.552 -0.737,-1.066 -0.8,-1.691c-0.11,-1.098 -0.143,-1.797 -0.036,-2.819c0.081,-0.771 0.22,-1.504 0.417,-2.197l14.738,-0l-0,30l-1.514,0Zm-28.486,-7.094c0.122,-0.065 0.221,-0.156 0.298,-0.274c0.011,-0.016 0.027,-0.028 0.046,-0.034c0.176,-0.055 0.249,-0.2 0.37,-0.262c0.34,-0.172 0.567,0.138 0.79,0.398c0.013,0.015 0.017,0.035 0.01,0.052c-0.072,0.175 -0.239,0.161 -0.422,0.159c-0.019,-0.001 -0.037,0.008 -0.048,0.024c-0.169,0.239 -0.371,0.475 -0.687,0.262c-0.016,-0.011 -0.035,-0.016 -0.054,-0.015c-0.085,0.008 -0.215,0.021 -0.303,-0.009l-0,-0.301Zm11.296,-14.277c0.533,0.428 0.857,1.107 1.225,1.678c0.019,0.029 0.025,0.065 0.015,0.099c-0.23,0.836 -0.619,1.599 -0.828,2.442c-0.017,0.064 -0.024,0.123 -0.022,0.177c0.002,0.056 -0.009,0.058 -0.032,0.008c-0.644,-1.357 -1.297,-2.709 -1.96,-4.057c-0.077,-0.155 -0.066,-0.318 0.049,-0.437c0.432,-0.445 1.099,-0.276 1.553,0.09Zm-9.02,13.828c-0.132,0.066 -0.266,0.114 -0.402,0.144c-0.134,0.032 -0.174,-0.016 -0.117,-0.143c0.098,-0.221 0.293,-0.556 0.568,-0.567c0.158,-0.006 0.318,0.179 0.415,-0.065c0.007,-0.019 0.02,-0.034 0.036,-0.043c0.302,-0.158 0.499,-0.064 0.591,0.282c0.084,0.318 -0.267,0.314 -0.453,0.461c-0.094,0.074 -0.191,0.09 -0.291,0.05l-0.293,-0.12c-0.018,-0.007 -0.038,-0.007 -0.054,0.001Zm5.932,-1.631c-0.051,-0.039 -0.058,-0.093 -0.021,-0.161c0.01,-0.019 0.026,-0.032 0.043,-0.037l0.32,-0.086c0.021,-0.006 0.027,0.002 0.018,0.024c-0.042,0.093 -0.108,0.178 -0.198,0.255c-0.046,0.039 -0.114,0.042 -0.162,0.005Zm-1.523,0.456c-0.411,-0.185 0.475,-0.973 0.875,-0.453c0.012,0.015 0.018,0.035 0.016,0.054c-0.014,0.118 -0.074,0.184 -0.18,0.198c-0.215,0.03 -0.406,0.094 -0.571,0.192c-0.042,0.026 -0.095,0.029 -0.14,0.009Zm-2.885,0.786c-0.064,-0.026 -0.082,-0.07 -0.056,-0.132c0.007,-0.016 0.022,-0.031 0.041,-0.041c0.2,-0.105 0.368,-0.246 0.506,-0.425c0.137,-0.178 0.258,-0.263 0.473,-0.237c0.09,0.011 0.174,0.082 0.284,0.091c0.018,0.001 0.038,-0.004 0.057,-0.014c0.277,-0.161 0.559,-0.193 0.845,-0.095c0.081,0.028 0.107,0.082 0.079,0.162c-0.09,0.254 -0.303,0.354 -0.574,0.402c-0.329,0.06 -0.457,0.449 -0.803,0.077c-0.028,-0.029 -0.073,-0.031 -0.103,-0.004c-0.212,0.19 -0.458,0.335 -0.749,0.216Z"/></g></svg>