<?xml version="1.0" encoding="UTF-8" standalone="no"?>
<!DOCTYPE svg PUBLIC "-//W3C//DTD SVG 1.1//EN" "http://www.w3.org/Graphics/SVG/1.1/DTD/svg11.dtd">
<svg width="100%" height="100%" viewBox="0 0 30 30" version="1.1" xmlns="http://www.w3.org/2000/svg" xmlns:xlink="http://www.w3.org/1999/xlink" xml:space="preserve" xmlns:serif="http://www.serif.com/" style="fill-rule:evenodd;clip-rule:evenodd;stroke-linejoin:round;stroke-miterlimit:2;">
    <g transform="matrix(0.011863,0.095523,-0.095523,0.011863,7.04184,-3.47092)">
        <g transform="matrix(0.275936,0.700876,-0.700876,0.275936,108.856,-486.197)">
            <path d="M403.937,60.655C377.817,70.139 356.611,100.829 356.611,136.433C356.611,172.036 377.817,202.726 403.937,212.211C393.481,193.266 384.992,165.833 384.992,136.433C384.992,107.032 393.481,79.599 403.937,60.655Z"/>
        </g>
        <g transform="matrix(-0.293353,-0.693766,0.693766,-0.293353,289.906,373.227)">
            <path d="M403.937,60.655C377.817,70.139 356.611,100.829 356.611,136.433C356.611,172.036 377.817,202.726 403.937,212.211C393.481,193.266 384.992,165.833 384.992,136.433C384.992,107.032 393.481,79.599 403.937,60.655Z"/>
        </g>
    </g>
    <g transform="matrix(0.183673,0,0,0.183673,-9.88938,-1.7979)">
        <path d="M151.51,54.02C153.163,57.82 155.347,61.877 158.06,66.19C165.313,77.763 172.973,90.81 181.04,105.33C181.197,105.611 181.27,105.934 181.25,106.26C180.09,121.24 166.33,137.66 150.7,126.34C145.96,122.91 142.21,116.55 145.47,110.9C148.55,105.58 158.22,101.94 163.67,99.95C163.695,99.941 163.72,99.93 163.745,99.919C164.207,99.702 164.407,99.14 164.188,98.673C164.177,98.648 164.164,98.624 164.15,98.6C151.077,76.047 124.003,24.74 123.83,23.44C123.32,19.61 124.67,14.67 129.51,15.52C131.21,15.813 132.72,16.517 134.04,17.63C139.867,22.503 145.387,27.74 150.6,33.34C158.05,41.34 173.7,51.92 184.78,52.78C185.667,52.853 186.523,53.05 187.35,53.37C187.362,53.375 187.374,53.38 187.386,53.386C187.592,53.489 187.676,53.743 187.573,53.949C187.566,53.963 187.558,53.977 187.55,53.99C183.79,59.963 178.443,63.09 171.51,63.37C165.95,63.59 156.41,56.92 151.74,53.84C151.453,53.653 151.377,53.713 151.51,54.02Z" style="fill-rule:nonzero;"/>
    </g>
    <g transform="matrix(0.175859,0,0,0.175859,-15.8114,-10.1351)">
        <path d="M109.5,132.25C112.11,132.28 170.19,183.46 180.82,192.73C181.455,193.28 181.723,194.147 181.51,194.96C178.83,205.3 172.44,220.57 158.86,219.23C149.97,218.35 140.9,209.97 145.8,200.24C148.873,194.16 153.597,189.903 159.97,187.47C160.007,187.456 160.043,187.436 160.075,187.413C160.284,187.262 160.332,186.966 160.181,186.757C160.158,186.725 160.131,186.695 160.1,186.67C148.29,176.93 113.29,145.92 107.45,140.35C106.137,139.097 105.373,137.567 105.16,135.76C104.873,133.387 106.32,132.217 109.5,132.25Z" style="fill-rule:nonzero;"/>
    </g>
    <g transform="matrix(0.158401,0,0,0.158401,-18.3494,-21.7063)">
        <path d="M156.754,145.828L165.435,169.287L188.894,177.967L165.435,186.648L156.754,210.106L148.074,186.648L124.615,177.967L148.074,169.287L156.754,145.828Z"/>
    </g>
    <g transform="matrix(0.103944,0,0,0.103944,8.89602,5.28326)">
        <path d="M156.754,145.828L165.435,169.287L188.894,177.967L165.435,186.648L156.754,210.106L148.074,186.648L124.615,177.967L148.074,169.287L156.754,145.828Z"/>
    </g>
    <g transform="matrix(0.0445162,0,0,0.0445162,3.16966,-1.75253)">
        <circle cx="371.869" cy="112.711" r="11.7"/>
    </g>
    <g transform="matrix(0.0445162,0,0,0.0445162,11.1461,22.6021)">
        <circle cx="371.869" cy="112.711" r="11.7"/>
    </g>
    <g transform="matrix(0.0445162,0,0,0.0445162,-13.1858,-1.5374)">
        <g transform="matrix(1,0,0,1,-18.2315,153.014)">
            <circle cx="371.869" cy="112.711" r="11.7"/>
        </g>
        <g transform="matrix(1,0,0,1,208.074,289.444)">
            <circle cx="371.869" cy="112.711" r="11.7"/>
        </g>
        <g transform="matrix(1,0,0,1,508.201,264.01)">
            <circle cx="371.869" cy="112.711" r="11.7"/>
        </g>
        <g transform="matrix(1.99999,0,0,1.99999,-188.716,98.3967)">
            <circle cx="371.869" cy="112.711" r="11.7"/>
        </g>
    </g>
</svg>
