<?xml version="1.0" encoding="UTF-8" standalone="no"?>
<!DOCTYPE svg PUBLIC "-//W3C//DTD SVG 1.1//EN" "http://www.w3.org/Graphics/SVG/1.1/DTD/svg11.dtd">
<svg width="100%" height="100%" viewBox="0 0 30 30" version="1.1" xmlns="http://www.w3.org/2000/svg" xmlns:xlink="http://www.w3.org/1999/xlink" xml:space="preserve" xmlns:serif="http://www.serif.com/" style="fill-rule:evenodd;clip-rule:evenodd;stroke-linejoin:round;stroke-miterlimit:2;">
    <g transform="matrix(1,0,0,1,-0.40022,0.355752)">
        <g transform="matrix(1.04817,0,0,1.04817,0.517534,-1.78468)">
            <path d="M9.085,11.822C8.833,12.501 8.478,13.188 8.022,13.851C6.13,16.599 3.209,17.876 1.502,16.701C-0.205,15.526 -0.055,12.341 1.837,9.593C1.893,9.511 1.95,9.431 2.008,9.352C1.182,9.349 0.558,9.099 0.47,8.678C0.35,8.098 1.291,7.41 2.571,7.144C3.247,7.003 3.883,7.008 4.351,7.129C5.798,6.225 7.307,6.02 8.357,6.743C9.058,7.226 9.446,8.048 9.529,9.04C10.033,9.281 10.602,9.767 11.09,10.418C11.985,11.61 12.272,12.906 11.732,13.312C11.192,13.717 10.027,13.078 9.133,11.887C9.117,11.865 9.101,11.843 9.085,11.822ZM4.103,9.179C3.813,9.051 3.367,9.424 3.109,10.011C2.851,10.598 2.877,11.178 3.168,11.306C3.458,11.434 3.904,11.061 4.162,10.474C4.42,9.887 4.394,9.307 4.103,9.179ZM6.891,9.964C6.6,9.837 6.155,10.209 5.896,10.796C5.638,11.383 5.664,11.964 5.955,12.091C6.245,12.219 6.691,11.846 6.949,11.259C7.207,10.672 7.181,10.092 6.891,9.964Z"/>
        </g>
        <g transform="matrix(1.01218,0,0,1.01218,0.0398498,0.235194)">
            <path d="M10.107,4.498C10.568,3.607 11.498,2.998 12.569,2.998C13.145,2.998 13.68,3.174 14.124,3.475C14.781,3.119 15.533,2.917 16.332,2.917C17.496,2.917 18.561,3.346 19.376,4.055C19.876,3.633 20.522,3.379 21.226,3.379C22.68,3.379 23.883,4.46 24.074,5.861C25.945,6.217 27.421,7.698 27.769,9.572C28.134,9.814 28.513,10.179 28.842,10.635C29.62,11.713 29.832,12.891 29.314,13.264C28.882,13.576 28.076,13.228 27.369,12.476C27.304,12.608 27.233,12.736 27.156,12.86C27.594,13.569 27.847,14.404 27.847,15.297C27.847,17.266 26.618,18.951 24.886,19.626L24.886,28.173L23.047,28.173L23.047,21.198C22.694,21.488 22.271,21.695 21.808,21.79L21.808,26.921L20.074,26.921L20.074,21.608C20.023,21.586 19.974,21.562 19.925,21.537C19.131,22.171 18.125,22.549 17.032,22.549C15.778,22.549 14.64,22.052 13.804,21.244L13.804,27.595L11.965,27.595L11.965,21.195C11.561,21.105 11.19,20.927 10.873,20.681L10.873,26.343L9.139,26.343L9.139,19.574C7.988,19.315 7.188,17.963 6.593,16.823C6.396,16.604 6.234,16.354 6.115,16.08C7.362,15.441 8.609,14.358 9.603,12.915C9.808,12.616 9.996,12.313 10.165,12.008C10.724,12.472 11.292,12.768 11.761,12.867C12.344,12.991 12.843,12.873 13.221,12.589C13.599,12.306 13.852,11.859 13.896,11.265C13.955,10.481 13.581,9.292 12.757,8.193C12.294,7.576 11.768,7.084 11.265,6.748C11.098,5.834 10.704,5.061 10.107,4.498Z"/>
        </g>
        <g transform="matrix(1.25593,0,0,1.25593,-0.862512,18.4065)">
            <path d="M4.17,0.965L4.801,2.669L6.505,3.3L4.801,3.93L4.17,5.634L3.539,3.93L1.835,3.3L3.539,2.669L4.17,0.965Z"/>
        </g>
        <g transform="matrix(1,0,0,1,22.3491,-0.139366)">
            <path d="M4.17,0.965L4.801,2.669L6.505,3.3L4.801,3.93L4.17,5.634L3.539,3.93L1.835,3.3L3.539,2.669L4.17,0.965Z"/>
        </g>
    </g>
</svg>
