<?xml version="1.0" encoding="UTF-8" standalone="no"?><!DOCTYPE svg PUBLIC "-//W3C//DTD SVG 1.1//EN" "http://www.w3.org/Graphics/SVG/1.1/DTD/svg11.dtd"><svg width="100%" height="100%" viewBox="0 0 30 30" version="1.1" xmlns="http://www.w3.org/2000/svg" xmlns:xlink="http://www.w3.org/1999/xlink" xml:space="preserve" xmlns:serif="http://www.serif.com/" style="fill-rule:evenodd;clip-rule:evenodd;stroke-linejoin:round;stroke-miterlimit:2;"><g><path d="M23.292,30c1.497,-2.535 5.056,-7.127 5.056,-7.127c0,0 -0.55,-5.11 -0.447,-5.286c0.036,-0.062 0.024,-0.074 -0.037,-0.036c-0.532,0.33 -1.119,0.778 -1.555,1.048c-0.84,0.521 -1.851,1.028 -2.79,1.17c-0.144,0.022 -0.302,0.008 -0.475,-0.041c-0.781,-0.221 -0.921,-1.349 -1.092,-2.062c-0.092,-0.387 -0.308,-0.7 -0.649,-0.937c-0.131,-0.091 -0.294,-0.126 -0.448,-0.174c-0.298,-0.094 -0.595,-0.38 -0.419,-0.714c0.182,-0.344 0.918,-0.875 1.079,-1.235c0.008,-0.018 0.003,-0.039 -0.013,-0.051c-0.097,-0.079 -0.211,-0.149 -0.337,-0.191c-0.538,-0.178 -1.525,-0.156 -1.833,-0.292c-0.3,-0.131 -0.148,-0.353 -0.096,-0.655c0.043,-0.252 0.226,-0.542 0.264,-0.795c0.013,-0.084 -0.023,-0.127 -0.107,-0.13c-0.361,-0.014 -0.956,-0.031 -1.33,-0.126c-0.515,-0.131 -1.331,-0.549 -1.211,-1.174c0.086,-0.447 0.431,-0.961 0.584,-1.389c0.234,-0.653 0.743,-1.252 0.952,-1.952c0.082,-0.272 0.178,-0.616 0.039,-0.861c-0.231,-0.406 -0.914,-0.857 -0.998,-1.33c-0.148,-0.831 -0.213,-1.362 -0.191,-2.148c0.02,-0.684 0.561,-2.536 0.842,-3.512l11.92,0l-0,30l-6.708,0Zm-5.907,-9.898c0.48,0 0.87,0.39 0.87,0.87c0,0.48 -0.39,0.87 -0.87,0.87c-0.48,0 -0.87,-0.39 -0.87,-0.87c0,-0.48 0.39,-0.87 0.87,-0.87Zm-12.291,-18.104c0.48,-0 0.87,0.39 0.87,0.87c-0,0.48 -0.39,0.87 -0.87,0.87c-0.481,-0 -0.87,-0.39 -0.87,-0.87c-0,-0.48 0.389,-0.87 0.87,-0.87Zm14.319,20.618c0.264,0 0.479,0.215 0.479,0.479c-0,0.264 -0.215,0.478 -0.479,0.478c-0.264,0 -0.478,-0.214 -0.478,-0.478c-0,-0.264 0.214,-0.479 0.478,-0.479Zm-6.049,-10.248c0.264,0 0.478,0.215 0.478,0.479c0,0.264 -0.214,0.478 -0.478,0.478c-0.264,0 -0.479,-0.214 -0.479,-0.478c0,-0.264 0.215,-0.479 0.479,-0.479Zm1.328,15.533c0.265,0 0.479,0.215 0.479,0.479c-0,0.264 -0.214,0.478 -0.479,0.478c-0.264,0 -0.478,-0.214 -0.478,-0.478c-0,-0.264 0.214,-0.479 0.478,-0.479Z"/></g><g><path d="M5.585,-0c-2.196,1.247 -4.196,2.988 -2.365,4.694c2.947,2.747 3.577,-3.824 8.563,-1.969c4.985,1.855 4.328,5.119 0.937,8.742c-3.392,3.623 6.79,3.866 6.79,3.866c-0,-0 -1.904,1.34 -3.918,4.252c-2.297,3.317 4.443,3.778 -2.418,7.314c-1.354,0.698 -0.836,1.855 0.482,3.101l-13.656,0l-0,-30l5.585,-0Zm-3.385,15.429c0.749,0.912 1.877,1.887 3.256,2.76c0.198,1.576 0.601,2.978 1.095,4c0.229,0.474 0.477,0.866 0.734,1.156c0.418,0.473 0.871,0.69 1.3,0.639c0.43,-0.051 0.82,-0.368 1.116,-0.926c0.336,-0.634 0.563,-1.603 0.641,-2.762c0.422,0.09 0.818,0.145 1.178,0.163c0.346,0.017 0.661,-0.001 0.94,-0.053l-0.589,-0.237c-0.116,-0.047 -0.197,-0.149 -0.217,-0.269c-0.035,-0.001 -0.07,-0.003 -0.106,-0.005c-0.359,-0.017 -0.756,-0.075 -1.18,-0.17c0.016,-0.697 -0.018,-1.449 -0.111,-2.229c-0.121,-1.018 -0.327,-1.967 -0.589,-2.791c1.439,0.966 2.557,2.033 3.163,2.979c0.09,0.142 0.169,0.28 0.236,0.415c0.071,0.016 0.137,0.054 0.187,0.111l0.521,0.588l0.08,-0.02c-0.043,-0.42 -0.227,-0.896 -0.549,-1.398c-0.724,-1.13 -2.135,-2.432 -3.955,-3.549c-0.282,-0.68 -0.603,-1.233 -0.938,-1.611c-0.418,-0.473 -0.871,-0.69 -1.3,-0.639c-0.367,0.044 -0.705,0.281 -0.98,0.697c-0.591,-0.209 -1.155,-0.363 -1.674,-0.461l-0.083,0.141l0.301,0.479c0.377,0.085 0.776,0.2 1.191,0.344c-0.177,0.416 -0.316,0.938 -0.408,1.537c-0.14,0.905 -0.175,1.987 -0.08,3.149c-1.13,-0.757 -2.064,-1.577 -2.709,-2.352c-0.181,-0.218 -0.339,-0.432 -0.473,-0.641c-0.23,-0.359 -0.385,-0.699 -0.447,-1.006c-0.052,-0.261 -0.036,-0.495 0.075,-0.687c0.07,-0.12 0.173,-0.216 0.302,-0.291l-0.42,-0.17c-0.058,-0.023 -0.107,-0.06 -0.144,-0.106c-0.09,0.085 -0.165,0.18 -0.226,0.284c-0.328,0.566 -0.192,1.38 0.385,2.281c0.135,0.211 0.295,0.429 0.477,0.65Zm6.726,3.865c-0.82,-0.301 -1.693,-0.711 -2.569,-1.219c-0.126,-0.073 -0.25,-0.147 -0.373,-0.222c-0.142,-1.298 -0.121,-2.508 0.036,-3.489c0.067,-0.418 0.158,-0.794 0.271,-1.117c0.034,-0.095 0.069,-0.185 0.106,-0.271c0.733,0.288 1.503,0.659 2.275,1.107c0.077,0.045 0.154,0.09 0.231,0.136c0.36,0.923 0.644,2.078 0.794,3.344c0.084,0.705 0.119,1.385 0.111,2.019c-0.285,-0.081 -0.58,-0.177 -0.882,-0.288Zm-1.909,2.569c-0.407,-0.865 -0.741,-2.01 -0.939,-3.297c0.897,0.52 1.793,0.939 2.636,1.25c0.37,0.135 0.729,0.251 1.074,0.345c-0.049,0.844 -0.18,1.583 -0.381,2.157c-0.12,0.342 -0.264,0.622 -0.433,0.821c-0.136,0.16 -0.285,0.264 -0.455,0.284c-0.17,0.021 -0.339,-0.046 -0.509,-0.17c-0.211,-0.154 -0.416,-0.392 -0.613,-0.697c-0.132,-0.204 -0.259,-0.436 -0.38,-0.693Zm1.48,-8.525c-0.616,-0.334 -1.228,-0.62 -1.818,-0.855c0.015,-0.02 0.03,-0.039 0.045,-0.057c0.136,-0.16 0.285,-0.264 0.455,-0.284c0.17,-0.021 0.34,0.046 0.509,0.17c0.211,0.153 0.416,0.392 0.613,0.696c0.067,0.103 0.132,0.213 0.196,0.33Zm2.946,-8.486l-1.058,0.265l-0.722,-0.817c-0.055,-0.062 -0.143,-0.086 -0.223,-0.059c-0.079,0.027 -0.135,0.099 -0.14,0.183l-0.075,1.087l-1,0.435c-0.077,0.033 -0.126,0.11 -0.125,0.193c0.001,0.084 0.052,0.159 0.13,0.191l1.011,0.407l0.104,1.085c0.008,0.084 0.066,0.154 0.146,0.179c0.08,0.025 0.168,-0.001 0.221,-0.065l0.7,-0.836l1.064,0.236c0.082,0.018 0.167,-0.014 0.215,-0.083c0.049,-0.068 0.051,-0.159 0.007,-0.231l-0.579,-0.923l0.554,-0.939c0.042,-0.072 0.037,-0.163 -0.013,-0.231c-0.05,-0.067 -0.136,-0.097 -0.217,-0.077Zm-7.097,21.789l-0.731,0.183l-0.498,-0.564c-0.039,-0.043 -0.099,-0.059 -0.154,-0.041c-0.055,0.019 -0.094,0.069 -0.098,0.127l-0.051,0.751l-0.691,0.3c-0.053,0.023 -0.087,0.076 -0.086,0.134c0.001,0.058 0.036,0.11 0.09,0.131l0.698,0.281l0.072,0.75c0.006,0.058 0.045,0.106 0.101,0.124c0.055,0.017 0.115,-0.001 0.153,-0.045l0.483,-0.578l0.735,0.163c0.057,0.013 0.115,-0.01 0.149,-0.057c0.033,-0.047 0.035,-0.11 0.004,-0.159l-0.4,-0.638l0.383,-0.649c0.029,-0.05 0.026,-0.113 -0.009,-0.159c-0.035,-0.047 -0.094,-0.068 -0.15,-0.054Zm1.849,-16.029c-0.068,-0.09 -0.197,-0.109 -0.287,-0.041c-0.091,0.068 -0.109,0.196 -0.042,0.287c0.068,0.09 0.197,0.109 0.287,0.041c0.091,-0.068 0.109,-0.196 0.042,-0.287Zm4.756,10.96c-0.067,-0.091 -0.196,-0.109 -0.286,-0.041c-0.091,0.067 -0.11,0.196 -0.042,0.286c0.068,0.091 0.196,0.109 0.287,0.042c0.09,-0.068 0.109,-0.196 0.041,-0.287Zm-6.693,-10.483l-0.74,0.186l-0.506,-0.572c-0.039,-0.044 -0.1,-0.06 -0.156,-0.042c-0.056,0.019 -0.094,0.07 -0.098,0.129l-0.053,0.761l-0.7,0.304c-0.054,0.023 -0.088,0.077 -0.088,0.136c0.001,0.059 0.037,0.111 0.092,0.133l0.708,0.285l0.073,0.76c0.005,0.058 0.045,0.108 0.102,0.125c0.056,0.018 0.117,-0 0.155,-0.045l0.49,-0.586l0.745,0.166c0.057,0.013 0.116,-0.01 0.15,-0.058c0.034,-0.048 0.036,-0.112 0.005,-0.162l-0.405,-0.647l0.387,-0.657c0.03,-0.051 0.027,-0.114 -0.009,-0.162c-0.035,-0.047 -0.095,-0.068 -0.152,-0.054Zm2.577,-1.575c-0.107,-0.144 -0.312,-0.174 -0.457,-0.066c-0.144,0.108 -0.174,0.313 -0.066,0.458c0.108,0.144 0.313,0.174 0.457,0.066c0.145,-0.108 0.174,-0.313 0.066,-0.458Zm-1.259,10.527l-0.552,0.138l-0.376,-0.426c-0.029,-0.033 -0.075,-0.045 -0.116,-0.031c-0.042,0.014 -0.071,0.052 -0.074,0.095l-0.039,0.567l-0.521,0.227c-0.04,0.017 -0.066,0.057 -0.066,0.101c0.001,0.044 0.028,0.083 0.069,0.099l0.527,0.213l0.054,0.565c0.004,0.044 0.034,0.081 0.076,0.094c0.042,0.013 0.087,-0.001 0.115,-0.034l0.365,-0.436l0.555,0.123c0.043,0.01 0.087,-0.007 0.113,-0.043c0.025,-0.036 0.026,-0.083 0.003,-0.121l-0.302,-0.481l0.289,-0.49c0.022,-0.038 0.019,-0.085 -0.007,-0.12c-0.026,-0.035 -0.071,-0.051 -0.113,-0.04Zm1.116,4.24c-0.068,-0.09 -0.196,-0.109 -0.287,-0.041c-0.09,0.068 -0.109,0.196 -0.041,0.287c0.067,0.09 0.196,0.109 0.286,0.041c0.091,-0.068 0.109,-0.196 0.042,-0.287Zm7.614,-5.243l-0.657,0.164l-0.448,-0.507c-0.035,-0.039 -0.089,-0.054 -0.139,-0.037c-0.049,0.017 -0.084,0.062 -0.087,0.114l-0.047,0.676l-0.621,0.269c-0.048,0.021 -0.078,0.069 -0.078,0.121c0.001,0.052 0.033,0.099 0.081,0.118l0.629,0.253l0.064,0.674c0.005,0.052 0.041,0.096 0.091,0.112c0.05,0.015 0.104,-0.001 0.137,-0.041l0.435,-0.519l0.661,0.147c0.051,0.011 0.104,-0.01 0.134,-0.052c0.03,-0.043 0.032,-0.099 0.004,-0.144l-0.36,-0.573l0.344,-0.584c0.027,-0.045 0.024,-0.101 -0.007,-0.143c-0.032,-0.042 -0.085,-0.061 -0.136,-0.048Zm-2.623,3.505c-0.108,-0.144 -0.313,-0.174 -0.457,-0.066c-0.144,0.108 -0.174,0.313 -0.066,0.457c0.108,0.145 0.313,0.174 0.457,0.066c0.145,-0.108 0.174,-0.313 0.066,-0.457Z"/></g></svg>