<?xml version="1.0" encoding="UTF-8" standalone="no"?><!DOCTYPE svg PUBLIC "-//W3C//DTD SVG 1.1//EN" "http://www.w3.org/Graphics/SVG/1.1/DTD/svg11.dtd"><svg width="100%" height="100%" viewBox="0 0 30 30" version="1.1" xmlns="http://www.w3.org/2000/svg" xmlns:xlink="http://www.w3.org/1999/xlink" xml:space="preserve" xmlns:serif="http://www.serif.com/" style="fill-rule:evenodd;clip-rule:evenodd;stroke-linejoin:round;stroke-miterlimit:2;"><g><path d="M4.459,0c-0.587,0.491 -0.88,1.134 -0.562,1.989c1.043,2.812 2.9,-1.119 7.886,0.736c4.985,1.855 3.71,5.391 0.318,9.014c-3.391,3.623 7.409,3.594 7.409,3.594c-0,-0 -1.478,1.699 -4.185,3.739c-3.222,2.429 4.726,4.223 1.119,7.908c-1.283,1.312 -1.325,2.301 -0.9,3.02l-15.544,-0l0,-30l4.459,0Zm18.833,30c1.497,-2.535 5.056,-7.127 5.056,-7.127c0,0 -0.55,-5.11 -0.447,-5.286c0.036,-0.062 0.024,-0.074 -0.037,-0.036c-0.532,0.33 -1.119,0.778 -1.555,1.048c-0.84,0.521 -1.851,1.028 -2.79,1.17c-0.144,0.022 -0.302,0.008 -0.475,-0.041c-0.781,-0.221 -0.921,-1.349 -1.092,-2.062c-0.092,-0.387 -0.308,-0.7 -0.649,-0.937c-0.131,-0.091 -0.294,-0.126 -0.448,-0.174c-0.298,-0.094 -0.595,-0.38 -0.419,-0.714c0.182,-0.344 0.918,-0.875 1.079,-1.235c0.008,-0.018 0.003,-0.039 -0.013,-0.051c-0.097,-0.079 -0.211,-0.149 -0.337,-0.191c-0.538,-0.178 -1.525,-0.156 -1.833,-0.292c-0.3,-0.131 -0.148,-0.353 -0.096,-0.655c0.043,-0.252 0.226,-0.542 0.264,-0.795c0.013,-0.084 -0.023,-0.127 -0.107,-0.13c-0.361,-0.014 -0.956,-0.031 -1.33,-0.126c-0.515,-0.131 -1.331,-0.549 -1.211,-1.174c0.086,-0.447 0.431,-0.961 0.584,-1.389c0.234,-0.653 0.743,-1.252 0.952,-1.952c0.082,-0.272 0.178,-0.616 0.039,-0.861c-0.231,-0.406 -0.914,-0.857 -0.998,-1.33c-0.148,-0.831 -0.213,-1.362 -0.191,-2.148c0.02,-0.684 0.561,-2.536 0.842,-3.512l11.92,0l-0,30l-6.708,0Zm-6.185,-9.867c0.48,0 0.87,0.39 0.87,0.87c0,0.48 -0.39,0.87 -0.87,0.87c-0.48,0 -0.87,-0.39 -0.87,-0.87c0,-0.48 0.39,-0.87 0.87,-0.87Zm-11.333,-19.681c0.48,-0 0.87,0.39 0.87,0.87c-0,0.48 -0.39,0.87 -0.87,0.87c-0.48,-0 -0.87,-0.39 -0.87,-0.87c-0,-0.48 0.39,-0.87 0.87,-0.87Zm11.145,27.449c0.264,0 0.478,0.215 0.478,0.479c0,0.264 -0.214,0.478 -0.478,0.478c-0.265,0 -0.479,-0.214 -0.479,-0.478c0,-0.264 0.214,-0.479 0.479,-0.479Zm1.536,-5.594c0.264,-0 0.478,0.214 0.478,0.478c0,0.265 -0.214,0.479 -0.478,0.479c-0.264,-0 -0.479,-0.214 -0.479,-0.479c0,-0.264 0.215,-0.478 0.479,-0.478Zm-5.536,-10.087c0.264,0 0.478,0.214 0.478,0.479c0,0.264 -0.214,0.478 -0.478,0.478c-0.265,0 -0.479,-0.214 -0.479,-0.478c0,-0.265 0.214,-0.479 0.479,-0.479Zm-7.989,-1.232l-0.002,0.004l0.268,0.156l0.003,-0.004c0.039,0.021 0.079,0.049 0.106,0.065c0.228,0.133 0.462,0.256 0.702,0.368c0.171,0.079 0.256,0.098 0.443,0.119c0.055,0.006 0.096,-0.004 0.13,-0.048c0.405,-0.532 0.913,-1.004 1.316,-1.537c0.274,-0.36 0.764,0.174 1.01,-0.251c0.124,-0.216 0.238,-0.462 0.343,-0.741c0.411,-1.097 0.472,-2.403 -0.538,-3.271c-0.091,-0.078 -0.199,-0.159 -0.325,-0.241c-0.003,-0.002 -0.006,-0.001 -0.008,0.001l-0.218,-0.123l0.001,-0.003c0.001,-0.002 -0,-0.006 -0.003,-0.007c-0.133,-0.069 -0.257,-0.123 -0.37,-0.163c-1.254,-0.448 -2.359,0.252 -3.108,1.152c-0.191,0.229 -0.349,0.45 -0.474,0.665c-0.248,0.424 0.459,0.586 0.281,1.002c-0.263,0.614 -0.447,1.3 -0.708,1.915c-0.022,0.051 -0.01,0.092 0.022,0.136c0.111,0.152 0.195,0.206 0.348,0.316c0.216,0.153 0.439,0.295 0.668,0.428c0.028,0.016 0.074,0.038 0.113,0.062Zm0.889,-0.556l-0.637,-0.382l-0.172,0.296l-0.227,-0.132c-0.003,-0.002 -0.004,-0.006 -0.002,-0.008l0.168,-0.29c0.001,-0.002 -0,-0.005 -0.002,-0.006l-0.748,-0.414c-0.003,-0.001 -0.004,-0.005 -0.002,-0.007l0.13,-0.224c0.001,-0.003 0.005,-0.004 0.007,-0.002l0.748,0.414c0.002,0.001 0.006,0.001 0.007,-0.002l0.166,-0.285c0.001,-0.003 0.005,-0.004 0.008,-0.002l0.227,0.132l-0.174,0.299l0.637,0.379c0.003,0.002 0.007,0.001 0.009,-0.001l0.165,-0.286c0.002,-0.003 0.005,-0.003 0.008,-0.002l0.23,0.134c0.003,0.002 0.004,0.005 0.002,0.008l-0.165,0.285c-0.002,0.002 -0.001,0.006 0.002,0.008l0.83,0.427c0.003,0.002 -0.137,0.252 -0.14,0.25l-0.826,-0.444c-0.003,-0.002 -0.006,-0.001 -0.008,0.002l-0.167,0.288c-0.001,0.002 -0.005,0.003 -0.008,0.002l-0.23,-0.134c-0.003,-0.002 -0.003,-0.005 -0.002,-0.008l0.168,-0.289c0.001,-0.002 0.001,-0.005 -0.002,-0.006Zm1.81,-0.711c-0.294,0 -0.562,-0.225 -0.727,-0.453c-0.045,-0.062 -0.075,-0.12 -0.091,-0.174c-0.084,-0.301 0.063,-0.395 0.26,-0.587c0.058,-0.056 0.363,-0.147 0.433,-0.123c0.28,0.096 0.509,0.2 0.729,0.362c0.063,0.046 0.314,0.243 0.264,0.334c-0.164,0.297 -0.48,0.641 -0.868,0.641Zm-2.67,-1.551c-0.192,-0.337 -0.05,-0.782 0.127,-1.072c0.054,-0.088 0.35,0.032 0.42,0.063c0.25,0.112 0.515,0.312 0.737,0.507c0.056,0.049 0.12,0.338 0.1,0.416c-0.069,0.266 -0.131,0.409 -0.435,0.485c-0.054,0.013 -0.119,0.016 -0.195,0.008c-0.281,-0.03 -0.609,-0.153 -0.754,-0.407Zm1.467,1.52l-0.334,-0.379c0.001,-0.001 -0.49,-0.095 -0.485,-0.098c-0,0 0.807,-0.419 0.807,-0.421c-0,0 0.016,0.902 0.012,0.898Zm3.789,17.198l0.005,0.009l0.538,-0.308l-0.005,-0.009c0.076,-0.046 0.164,-0.087 0.218,-0.118c0.459,-0.261 0.906,-0.542 1.339,-0.845c0.308,-0.215 0.425,-0.345 0.649,-0.647c0.065,-0.087 0.09,-0.169 0.047,-0.272c-0.514,-1.231 -0.82,-2.581 -1.337,-3.811c-0.349,-0.833 1.063,-1.145 0.576,-1.996c-0.249,-0.43 -0.561,-0.874 -0.937,-1.334c-1.483,-1.807 -3.679,-3.22 -6.189,-2.343c-0.226,0.078 -0.473,0.185 -0.741,0.32c-0.006,0.003 -0.008,0.009 -0.007,0.014l-0.431,0.254l-0.004,-0.005c-0.003,-0.004 -0.01,-0.005 -0.014,-0.002c-0.253,0.162 -0.47,0.321 -0.653,0.476c-2.029,1.718 -1.925,4.328 -1.12,6.522c0.204,0.558 0.429,1.053 0.675,1.484c0.484,0.852 1.471,-0.207 2.011,0.517c0.799,1.069 1.799,2.073 2.6,3.14c0.067,0.089 0.15,0.11 0.258,0.098c0.374,-0.04 0.55,-0.129 0.893,-0.286c0.481,-0.22 0.95,-0.462 1.408,-0.725c0.056,-0.032 0.139,-0.09 0.221,-0.133Zm-4.841,-2.869c-0.773,-0.007 -1.399,-0.697 -1.722,-1.294c-0.099,-0.181 0.404,-0.571 0.529,-0.662c0.442,-0.32 1.054,-0.578 1.613,-0.766c0.139,-0.046 0.704,0.131 0.819,0.245c0.39,0.385 0.575,0.635 0.402,1.236c-0.031,0.107 -0.092,0.222 -0.182,0.346c-0.333,0.453 -0.873,0.899 -1.459,0.895Zm5.352,-3.06c-0.293,0.506 -0.951,0.746 -1.51,0.802c-0.152,0.015 -0.283,0.009 -0.391,-0.018c-0.604,-0.156 -0.619,-0.503 -0.753,-1.036c-0.04,-0.156 0.109,-0.774 0.22,-0.87c0.446,-0.388 0.854,-0.68 1.355,-0.899c0.142,-0.062 0.734,-0.298 0.84,-0.12c0.35,0.581 0.627,1.47 0.239,2.141Zm-0.583,3.837l-1.296,0.719l0.338,0.592l-0.455,0.26c-0.005,0.003 -0.013,0.001 -0.016,-0.004l-0.332,-0.58c-0.002,-0.004 -0.008,-0.005 -0.013,-0.003l-1.463,0.879c-0.006,0.003 -0.013,0.001 -0.015,-0.004l-0.257,-0.448c-0.003,-0.006 -0.002,-0.013 0.004,-0.016l1.464,-0.877c0.004,-0.003 0.007,-0.009 0.004,-0.015l-0.327,-0.572c-0.003,-0.004 -0.001,-0.012 0.005,-0.015l0.455,-0.26l0.343,0.599l1.293,-0.721c0.005,-0.003 0.007,-0.011 0.005,-0.016l-0.327,-0.571c-0.004,-0.006 -0.002,-0.012 0.004,-0.015l0.462,-0.264c0.005,-0.003 0.012,-0.002 0.015,0.004l0.327,0.571c0.002,0.005 0.01,0.007 0.016,0.004l1.568,-1.007c0.006,-0.003 0.298,0.49 0.292,0.493l-1.594,0.982c-0.006,0.003 -0.008,0.01 -0.005,0.016l0.331,0.577c0.003,0.004 0.001,0.012 -0.004,0.015l-0.462,0.264c-0.006,0.003 -0.012,-0 -0.015,-0.004l-0.332,-0.581c-0.002,-0.004 -0.008,-0.005 -0.013,-0.002Zm-0.674,-1.79l-0.989,0.196c-0,-0.001 -0.653,0.752 -0.653,0.741c-0,-0 0.082,-1.814 0.079,-1.816c-0,-0 1.574,0.876 1.563,0.879Z"/></g></svg>