<?xml version="1.0" encoding="UTF-8" standalone="no"?><!DOCTYPE svg PUBLIC "-//W3C//DTD SVG 1.1//EN" "http://www.w3.org/Graphics/SVG/1.1/DTD/svg11.dtd"><svg width="100%" height="100%" viewBox="0 0 30 30" version="1.1" xmlns="http://www.w3.org/2000/svg" xmlns:xlink="http://www.w3.org/1999/xlink" xml:space="preserve" xmlns:serif="http://www.serif.com/" style="fill-rule:evenodd;clip-rule:evenodd;stroke-linejoin:round;stroke-miterlimit:2;"><g><path d="M7.576,30l2.23,-3.29l-0,-8.805l1.934,-4.869l2.768,-4.103l-0,3.027l-2.101,3.833l-0.79,2.513l-0,3.368l0.79,-0l0.5,-4.336l1.568,-3.502l-0,11.674l-1.431,4.49l-5.468,0Zm9.38,0l-1.431,-4.49l0,-11.674l1.568,3.502l0.5,4.336l0.79,-0l0,-3.368l-0.79,-2.513l-2.101,-3.833l0,-3.027l2.768,4.103l1.934,4.869l0,8.805l2.23,3.29l-5.468,0Zm-1.954,-23.785c-0.836,-1.907 -1.368,-3.897 -1.599,-5.966c1.062,-0.118 2.135,-0.118 3.197,-0c-0.231,2.069 -0.763,4.059 -1.598,5.966Zm-5.028,10.141l-0,-2.391l1.014,-1.013l-1.014,3.404Zm18.156,2.746l0,2.013l-2.013,0.001l-0,2.012l-2.013,0.001l-0,-2.014l-2.014,0.001l0,-2.015l2.014,0.001l-0,-2.014l2.013,0.001l-0,2.012l2.013,0.001Zm-21.491,-4.525c-1.907,0.835 -3.895,1.367 -5.965,1.599c-0.119,-1.063 -0.119,-2.135 -0,-3.198c2.07,0.232 4.058,0.764 5.965,1.599Zm17.789,-11.051l-0,2.063l-2.063,0.001l-0,2.062l-2.064,0.001l0,-2.064l-2.063,0.001l0,-2.065l2.063,0.001l0,-2.064l2.064,0.001l-0,2.062l2.063,0.001Zm-12.429,1.898l0,3.347l-3.349,0.002l-0,3.348l-3.35,0.002l0,-3.352l-3.349,0.002l-0,-3.351l3.349,0.002l0,-3.352l3.35,0.002l-0,3.348l3.349,0.002Zm11.365,9.153c1.907,-0.835 3.895,-1.367 5.965,-1.599c0.119,1.063 0.119,2.135 0,3.198c-2.07,-0.232 -4.058,-0.764 -5.965,-1.599Zm-3.17,1.779l-1.014,-3.404l1.014,1.013l-0,2.391Zm-12.434,2.401c-1.234,1.677 -2.691,3.134 -4.367,4.368c-0.634,-0.86 -1.171,-1.79 -1.599,-2.769c1.908,-0.835 3.896,-1.367 5.966,-1.599Zm14.483,-8.361c1.235,-1.677 2.691,-3.133 4.368,-4.368c0.634,0.861 1.17,1.79 1.598,2.77c-1.908,0.835 -3.896,1.367 -5.966,1.598Z"/><rect x="0" y="-0" width="30" height="30" style="fill:none;"/></g></svg>