<?xml version="1.0" encoding="UTF-8" standalone="no"?>
<!DOCTYPE svg PUBLIC "-//W3C//DTD SVG 1.1//EN" "http://www.w3.org/Graphics/SVG/1.1/DTD/svg11.dtd">
<svg width="100%" height="100%" viewBox="0 0 30 30" version="1.1" xmlns="http://www.w3.org/2000/svg" xmlns:xlink="http://www.w3.org/1999/xlink" xml:space="preserve" xmlns:serif="http://www.serif.com/" style="fill-rule:evenodd;clip-rule:evenodd;stroke-linejoin:round;stroke-miterlimit:2;">
    <g transform="matrix(0.12496,0,0,0.12496,-3.7488,-3.7488)">
        <g>
            <g id="Prestidigitation" transform="matrix(0.870263,0,0,0.864366,16.9243,21.4321)">
                <rect x="0" y="0" width="300" height="300" style="fill:none;"/>
            </g>
            <g id="Prestidigitation1" serif:id="Prestidigitation" transform="matrix(0.870263,0,0,0.864366,16.9243,21.4321)">
                <g transform="matrix(1.37471,0,0,1.37471,-56.9774,-28.3828)">
                    <path d="M106.331,42.373C106.772,41.125 107.952,40.29 109.275,40.29C110.599,40.29 111.779,41.125 112.219,42.373L123.188,73.478L154.293,84.447C155.542,84.888 156.377,86.067 156.377,87.391C156.377,88.715 155.542,89.895 154.293,90.335L123.188,101.304L112.219,132.409C111.779,133.658 110.599,134.493 109.275,134.493C107.952,134.493 106.772,133.658 106.331,132.409L95.362,101.304L64.257,90.335C63.009,89.895 62.174,88.715 62.174,87.391C62.174,86.067 63.009,84.888 64.257,84.447L95.362,73.478L106.331,42.373Z"/>
                </g>
                <g transform="matrix(0.786756,0,0,0.786756,65.8458,152.67)">
                    <path d="M106.331,42.373C106.772,41.125 107.952,40.29 109.275,40.29C110.599,40.29 111.779,41.125 112.219,42.373L123.188,73.478L154.293,84.447C155.542,84.888 156.377,86.067 156.377,87.391C156.377,88.715 155.542,89.895 154.293,90.335L123.188,101.304L112.219,132.409C111.779,133.658 110.599,134.493 109.275,134.493C107.952,134.493 106.772,133.658 106.331,132.409L95.362,101.304L64.257,90.335C63.009,89.895 62.174,88.715 62.174,87.391C62.174,86.067 63.009,84.888 64.257,84.447L95.362,73.478L106.331,42.373Z"/>
                </g>
                <g transform="matrix(1.37471,0,0,1.37471,-48.4397,-35.5552)">
                    <circle cx="73.478" cy="173.623" r="10.145"/>
                </g>
                <g transform="matrix(1.37471,0,0,1.37471,157.211,20.6872)">
                    <circle cx="73.478" cy="173.623" r="10.145"/>
                </g>
                <g transform="matrix(0.805187,0,0,0.805187,138.479,-95.8602)">
                    <circle cx="73.478" cy="173.623" r="10.145"/>
                </g>
                <g transform="matrix(0.414561,0,0,0.414561,240.211,-42.1917)">
                    <circle cx="73.478" cy="173.623" r="10.145"/>
                </g>
                <g transform="matrix(0.414561,0,0,0.414561,3.61704,194.402)">
                    <circle cx="73.478" cy="173.623" r="10.145"/>
                </g>
                <g transform="matrix(0.414561,0,0,0.414561,192.385,140.054)">
                    <circle cx="73.478" cy="173.623" r="10.145"/>
                </g>
                <g transform="matrix(0.414561,0,0,0.414561,1.71485,-41.1047)">
                    <circle cx="73.478" cy="173.623" r="10.145"/>
                </g>
                <g transform="matrix(0.987675,0,0,0.987675,124.149,44.5899)">
                    <path d="M106.331,42.373C106.772,41.125 107.952,40.29 109.275,40.29C110.599,40.29 111.779,41.125 112.219,42.373L123.188,73.478L154.293,84.447C155.542,84.888 156.377,86.067 156.377,87.391C156.377,88.715 155.542,89.895 154.293,90.335L123.188,101.304L112.219,132.409C111.779,133.658 110.599,134.493 109.275,134.493C107.952,134.493 106.772,133.658 106.331,132.409L95.362,101.304L64.257,90.335C63.009,89.895 62.174,88.715 62.174,87.391C62.174,86.067 63.009,84.888 64.257,84.447L95.362,73.478L106.331,42.373Z"/>
                </g>
            </g>
        </g>
    </g>
</svg>
