<?xml version="1.0" encoding="UTF-8" standalone="no"?><!DOCTYPE svg PUBLIC "-//W3C//DTD SVG 1.1//EN" "http://www.w3.org/Graphics/SVG/1.1/DTD/svg11.dtd"><svg width="100%" height="100%" viewBox="0 0 30 30" version="1.1" xmlns="http://www.w3.org/2000/svg" xmlns:xlink="http://www.w3.org/1999/xlink" xml:space="preserve" xmlns:serif="http://www.serif.com/" style="fill-rule:evenodd;clip-rule:evenodd;stroke-linejoin:round;stroke-miterlimit:2;"><g><path d="M14.83,25.771c-6.398,-3.211 -9.198,-8.925 -9.221,-16.569c3.949,-1.117 6.967,-3.197 9.221,-6.071l0,22.64Z"/></g><g><path d="M3.626,14.489c0,-0 1.226,8.327 6.43,12.006c0,0 -8.363,-2.602 -6.43,-12.006Z"/></g><g><path d="M14.83,30l0,-4.228l0.013,0.006c6.191,-3.333 9.002,-9.047 9.234,-16.576c-3.672,-1.238 -6.839,-3.147 -9.234,-6.088l-0.013,0.017l0,-3.131l15.17,0l0,30l-15.17,0Zm4.546,-3.848c9.112,-3.028 7.183,-11.571 7.183,-11.571c-0.585,6.346 -7.183,11.571 -7.183,11.571Z"/></g></svg>