<?xml version="1.0" encoding="UTF-8" standalone="no"?>
<!DOCTYPE svg PUBLIC "-//W3C//DTD SVG 1.1//EN" "http://www.w3.org/Graphics/SVG/1.1/DTD/svg11.dtd">
<svg width="100%" height="100%" viewBox="0 0 30 30" version="1.1" xmlns="http://www.w3.org/2000/svg" xmlns:xlink="http://www.w3.org/1999/xlink" xml:space="preserve" xmlns:serif="http://www.serif.com/" style="fill-rule:evenodd;clip-rule:evenodd;stroke-linejoin:round;stroke-miterlimit:2;">
    <g transform="matrix(1.1809,-0.264882,0.264882,1.1809,-9.27811,0.761929)">
        <path d="M9.347,9.248C9.347,9.248 9.54,9.997 11.231,9.647C12.603,9.363 12.934,8.922 13.188,8.488L14.784,8.987L17.793,12.5L20.899,14.046L20.207,15.826L17.322,14.749L14.45,12.191L15.493,16.781L18.529,21.116L22.347,23.098L21.985,26.178L20.789,24.324L17.152,23.253L12.826,18.741L14.169,23.759L17.449,25.589L15.924,28.212L15.529,26.35L11.705,24.701L9.891,17.256L9.08,13.761L8.858,15.893L7.721,18.404L5.81,17.688L7.109,15.237L7.787,10.729L9.347,9.248Z"/>
    </g>
    <g transform="matrix(1,0,0,1,0.1583,-2.14362)">
        <path d="M22.682,9.741L20.704,9.741L24.656,3.556L28.609,9.741L26.416,9.741C26.313,10.971 26.136,12.278 25.833,13.219C24.387,17.711 20.076,20.396 15.584,18.95C18.266,18.317 21.114,15.724 22.273,12.122C22.479,11.482 22.606,10.557 22.682,9.741Z"/>
    </g>
    <g transform="matrix(1.06142,-0.238082,0.238082,1.06142,-4.15651,1.94771)">
        <path d="M4.626,3.886C4.644,3.69 4.673,3.493 4.715,3.294C4.75,3.131 4.792,2.972 4.841,2.818L5.277,3.331L4.626,3.886ZM5.063,2.244C5.76,0.738 7.143,-0.178 8.489,0.107C10.126,0.454 11.092,2.446 10.645,4.551C10.199,6.657 8.508,8.084 6.871,7.738C5.477,7.442 4.569,5.952 4.608,4.214L4.804,4.445L5.629,3.743L6.331,4.567L6.743,4.216L6.041,3.392L6.865,2.689L6.514,2.277L5.69,2.979L5.063,2.244ZM9.446,2.359L8.525,3.144L7.74,2.223L7.279,2.615L8.064,3.536L7.143,4.321L7.535,4.782L8.457,3.997L9.242,4.918L9.702,4.526L8.917,3.605L9.838,2.82L9.446,2.359Z"/>
    </g>
</svg>
