<?xml version="1.0" encoding="UTF-8" standalone="no"?>
<!DOCTYPE svg PUBLIC "-//W3C//DTD SVG 1.1//EN" "http://www.w3.org/Graphics/SVG/1.1/DTD/svg11.dtd">
<svg width="100%" height="100%" viewBox="0 0 30 30" version="1.1" xmlns="http://www.w3.org/2000/svg" xmlns:xlink="http://www.w3.org/1999/xlink" xml:space="preserve" xmlns:serif="http://www.serif.com/" style="fill-rule:evenodd;clip-rule:evenodd;stroke-linejoin:round;stroke-miterlimit:2;">
    <g transform="matrix(0.289791,1.21181,1.21181,-0.289791,-5.34047,7.58669)">
        <path d="M9.154,9.353C9.154,9.353 9.84,10.094 11.25,9.8C12.622,9.514 12.934,8.922 13.188,8.488L14.784,8.987L17.487,10.039L20.832,11.419L20.14,13.199L17.016,12.288L14.304,11.702L15.493,16.781L18.336,20.513L23.026,20.196L22.695,23.242L21.554,21.845L17.152,23.253L12.826,18.741L13.815,23.464L11.705,24.701L9.891,17.256L9.08,13.761L8.858,15.893L8.464,18.309L6.785,17.578L7.109,15.237L7.787,10.729L9.154,9.353Z"/>
    </g>
    <g transform="matrix(0.26047,1.0892,1.0892,-0.26047,-1.51372,11.8292)">
        <path d="M4.626,3.886C4.644,3.69 4.673,3.493 4.715,3.294C4.75,3.131 4.792,2.972 4.841,2.818L5.277,3.331L4.626,3.886ZM5.063,2.244C5.76,0.738 7.143,-0.178 8.489,0.107C10.126,0.454 11.092,2.446 10.645,4.551C10.199,6.657 8.508,8.084 6.871,7.738C5.477,7.442 4.569,5.952 4.608,4.214L4.804,4.445L5.629,3.743L6.331,4.567L6.743,4.216L6.041,3.392L6.865,2.689L6.514,2.277L5.69,2.979L5.063,2.244ZM9.446,2.359L8.525,3.144L7.74,2.223L7.279,2.615L8.064,3.536L7.143,4.321L7.535,4.782L8.457,3.997L9.242,4.918L9.702,4.526L8.917,3.605L9.838,2.82L9.446,2.359Z"/>
    </g>
    <g transform="matrix(2.28667e-16,-2.18191,2.05965,1.14334e-16,-3.24213,44.7598)">
        <path d="M16.171,9.786L16.171,7.928L18.34,7.928L18.34,6.998L20.094,8.857L18.34,10.715L18.34,9.786L16.171,9.786Z"/>
    </g>
</svg>
