<?xml version="1.0" encoding="UTF-8" standalone="no"?><!DOCTYPE svg PUBLIC "-//W3C//DTD SVG 1.1//EN" "http://www.w3.org/Graphics/SVG/1.1/DTD/svg11.dtd"><svg width="100%" height="100%" viewBox="0 0 30 30" version="1.1" xmlns="http://www.w3.org/2000/svg" xmlns:xlink="http://www.w3.org/1999/xlink" xml:space="preserve" xmlns:serif="http://www.serif.com/" style="fill-rule:evenodd;clip-rule:evenodd;stroke-linejoin:round;stroke-miterlimit:2;"><g><path d="M-0,2.152l-0,-2.152l5.947,0l5.306,5.739c-0.091,0.154 -0.181,0.309 -0.27,0.465l-10.983,-4.052Zm6.951,-2.152l4.003,0l1.443,3.911c-0.149,0.226 -0.302,0.461 -0.455,0.703l-4.991,-4.614Zm5.012,0l2.543,0l-0.199,5.085l-2.344,-5.085Zm7.083,0l4.003,0l-4.781,4.42c-0.17,-0.306 -0.343,-0.609 -0.517,-0.908l1.295,-3.512Zm5.007,0l5.947,0l-0,2.152l-10.823,3.993c-0.093,-0.187 -0.188,-0.375 -0.285,-0.562l5.161,-5.583Zm5.947,2.569l-0,5.76l-9.087,-0.357l-0.09,-0.845l-0.392,0.827l-0.436,-0.018c-0.086,-0.208 -0.176,-0.418 -0.271,-0.63l10.276,-4.737Zm-0,6.243l-0,5.76l-7.234,-3.335c-0.011,-0.377 -0.035,-0.767 -0.072,-1.17c-0,-0 -0.06,0.342 -0.526,0.895l-1.24,-0.573l-0,-1.221l9.072,-0.356Zm-0,6.177l-0,15.011l-9.072,-0l-0,-11.053c0.28,-0.432 0.786,-1.324 1.198,-2.659l7.823,7.232l-7.567,-8.186c0.2,-0.865 0.347,-1.871 0.383,-3.014l7.235,2.669Zm-20.928,15.011l-9.072,-0l-0,-15.011l7.72,-2.848c-0.051,1.104 0.05,2.049 0.224,2.841l-7.893,8.538l8.169,-7.552c0.273,0.794 0.603,1.366 0.852,1.728l-0,12.304Zm-9.072,-15.428l-0,-5.76l8.182,0.321c-0.005,0.013 -0.007,0.02 -0.007,0.02c-0.161,0.64 -0.275,1.243 -0.35,1.811l-7.825,3.608Zm-0,-6.243l-0,-5.76l9.018,4.157c-0.157,0.428 -0.314,0.875 -0.45,1.267l-8.568,0.336Zm18.037,-8.329l-1.041,2.258c-0.102,-0.485 -0.511,-1.103 -0.716,-1.538c-0.039,0.947 -0.391,0.918 -0.669,2.27l-0.117,-2.99l2.543,0Zm-1.205,13.424c0.625,0.431 1.58,0.728 1.98,1.522c0.485,0.959 0.346,4.143 0.332,4.334l0,2.578l-1.486,-0l0,-3.876l-0.235,-0l0.001,3.99l0,5.023l0.379,0.395l0.588,0.56l-3.215,-0l0,-6.146l-0.349,0l-0,6.146l-3.215,-0l0.588,-0.56l0.379,-0.395l0,-5.023l0.001,-3.99l-0.235,-0l-0,3.876l-1.486,-0l-0,-2.578c-0.014,-0.191 -0.02,-0.386 -0.02,-0.582c-0,-1.265 -0.113,-2.888 0.369,-3.847c0.4,-0.795 1.333,-0.991 1.957,-1.423c0.431,0.742 1.092,1.001 1.832,1.001c0.743,-0 1.405,-0.261 1.835,-1.005Zm0.129,-0.857c0.007,0.005 -0.777,1.236 -1.964,1.236c-1.355,0 -1.965,-1.23 -1.955,-1.236c-0.19,-0.279 -0.342,-0.6 -0.447,-0.949c-0.09,-0.333 -0.139,-0.69 -0.139,-1.062c-0,-1.791 1.138,-3.077 2.541,-3.077c1.402,0 2.541,1.286 2.541,3.077c-0,0.477 -0.081,0.929 -0.225,1.337c-0.095,0.243 -0.214,0.47 -0.352,0.674Zm-7.722,-5.739l1.126,0.519c-0.1,0.195 -0.197,0.391 -0.29,0.587l-0.786,0.031c-0.056,-0.412 -0.085,-0.806 -0.05,-1.137Z"/></g></svg>