<?xml version="1.0" encoding="UTF-8" standalone="no"?>
<!DOCTYPE svg PUBLIC "-//W3C//DTD SVG 1.1//EN" "http://www.w3.org/Graphics/SVG/1.1/DTD/svg11.dtd">
<svg width="100%" height="100%" viewBox="0 0 30 30" version="1.1" xmlns="http://www.w3.org/2000/svg" xmlns:xlink="http://www.w3.org/1999/xlink" xml:space="preserve" xmlns:serif="http://www.serif.com/" style="fill-rule:evenodd;clip-rule:evenodd;stroke-linejoin:round;stroke-miterlimit:2;">
    <path d="M-0,9.719L6.218,12.373C6.622,11.14 7.144,10.005 7.763,8.999L-0,1.358L-0,0L7.065,0L10.116,6.199C11.071,5.385 12.129,4.803 13.254,4.504L12.577,0L17.423,0L16.746,4.504C17.871,4.803 18.929,5.385 19.884,6.199L22.935,0L30,0L30,1.358L22.237,8.999C22.856,10.005 23.378,11.14 23.782,12.373L30,9.719L30,16.123L24.599,16.123C24.69,16.909 24.738,17.716 24.738,18.539C24.738,19.118 24.714,19.69 24.668,20.252L30,22.528L30,30L29.097,30L23.766,24.753C23.2,26.461 22.409,27.98 21.448,29.225L21.829,30L16.8,30C20.368,28.776 23.032,23.993 23.032,18.287C23.032,11.655 19.433,6.271 15,6.271C10.567,6.271 6.968,11.655 6.968,18.287C6.968,23.993 9.632,28.776 13.2,30L8.171,30L8.552,29.225C7.591,27.98 6.8,26.461 6.234,24.753L0.903,30L-0,30L-0,22.528L5.332,20.252C5.286,19.69 5.262,19.118 5.262,18.539C5.262,17.716 5.31,16.909 5.401,16.123L-0,16.123L-0,9.719Z"/>
    <g transform="matrix(0.0255992,0,0,0.0255992,8.39671,1.7296)">
        <g transform="matrix(0.429171,0,0,0.464582,-189.987,70.3358)">
            <path d="M1188.55,892.301C1237.97,923.773 1313.44,945.46 1345.13,1003.47C1383.41,1073.55 1372.41,1306.02 1371.37,1320.01L1371.37,1508.28L1253.89,1508.28L1253.89,1225.18L1235.31,1225.18L1235.31,1516.58L1235.36,1516.58L1235.36,1883.42L1265.35,1912.29L1311.82,1953.19L1057.65,1953.19L1057.65,1504.35L1030.04,1504.35L1030.04,1953.19L775.863,1953.19L822.339,1912.29L852.325,1883.42L852.325,1516.58L852.381,1516.58L852.381,1225.18L833.794,1225.18L833.794,1508.28L716.321,1508.28L716.321,1320.01C715.272,1306.02 714.731,1291.84 714.731,1277.49C714.731,1185.12 705.812,1066.55 743.921,996.569C775.541,938.503 849.301,924.162 898.676,892.595C932.696,946.811 984.958,965.701 1043.52,965.701C1102.19,965.701 1154.54,946.686 1188.55,892.301Z"/>
        </g>
        <g transform="matrix(0.291857,0,0,0.291857,-46.6246,215.231)">
            <path d="M1271.52,824.345C1272.36,824.887 1181.23,968.029 1043.2,968.029C885.655,968.029 814.824,825.04 815.921,824.345C793.895,791.886 776.207,754.613 763.991,714.001C753.511,675.318 747.817,633.798 747.817,590.593C747.817,382.279 880.176,232.845 1043.2,232.845C1206.24,232.845 1338.6,382.279 1338.6,590.593C1338.6,645.946 1329.25,698.526 1312.46,745.918C1301.43,774.258 1287.64,800.581 1271.52,824.345Z"/>
        </g>
    </g>
</svg>
