<?xml version="1.0" encoding="UTF-8" standalone="no"?>
<!DOCTYPE svg PUBLIC "-//W3C//DTD SVG 1.1//EN" "http://www.w3.org/Graphics/SVG/1.1/DTD/svg11.dtd">
<svg width="100%" height="100%" viewBox="0 0 30 30" version="1.1" xmlns="http://www.w3.org/2000/svg" xmlns:xlink="http://www.w3.org/1999/xlink" xml:space="preserve" xmlns:serif="http://www.serif.com/" style="fill-rule:evenodd;clip-rule:evenodd;stroke-linejoin:round;stroke-miterlimit:2;">
    <g transform="matrix(-5.01102e-17,-0.818361,-0.818361,5.01102e-17,26.173,29.1592)">
        <g transform="matrix(-0.0285465,0.0265163,0.0265163,0.0285465,27.0306,9.31918)">
            <path d="M400.403,278.421C405.353,303.805 403.955,322.429 401.299,345.78C392.306,424.867 336.646,476.171 248.342,476.171C185.416,476.171 106.541,422.97 106.541,316.644C106.541,246.916 170.389,143.873 210.359,84.216C199.178,129.543 212.443,170.695 228.258,209.334C251.355,149.868 288.579,86.232 270.555,13.162C316.517,81.762 385.056,199.722 400.403,278.421ZM235.149,338.619C224.837,328.754 205.621,298.8 202.158,283.342C198.379,312.68 193.767,362.402 206.576,388.111C207.319,389.604 208.164,391.012 209.098,392.333C214.509,402.218 222.755,409.213 233.922,413.956C260.306,425.162 290.598,407.128 301.804,380.744C320.077,337.72 308.315,276.907 299.287,229.623C291.666,276.91 261.435,309.165 235.149,338.619Z"/>
        </g>
        <g transform="matrix(-0.0102594,0.028039,0.028039,0.0102594,21.1538,-5.62903)">
            <path d="M400.403,278.421C405.353,303.805 403.955,322.429 401.299,345.78C392.306,424.867 336.646,476.171 248.342,476.171C185.416,476.171 106.541,422.97 106.541,316.644C106.541,246.916 170.389,143.873 210.359,84.216C199.178,129.543 212.443,170.695 228.258,209.334C251.355,149.868 288.579,86.232 270.555,13.162C316.517,81.762 385.056,199.722 400.403,278.421ZM235.149,338.619C224.837,328.754 205.621,298.8 202.158,283.342C198.379,312.68 193.767,362.402 206.576,388.111C207.319,389.604 208.164,391.012 209.098,392.333C214.509,402.218 222.755,409.213 233.922,413.956C260.306,425.162 290.598,407.128 301.804,380.744C320.077,337.72 308.315,276.907 299.287,229.623C291.666,276.91 261.435,309.165 235.149,338.619Z"/>
        </g>
        <g transform="matrix(-0.0287301,0.00812531,0.00812531,0.0287301,13.5643,12.9718)">
            <path d="M400.403,278.421C405.353,303.805 403.955,322.429 401.299,345.78C392.306,424.867 336.646,476.171 248.342,476.171C185.416,476.171 106.541,422.97 106.541,316.644C106.541,246.916 170.389,143.873 210.359,84.216C199.178,129.543 212.443,170.695 228.258,209.334C251.355,149.868 288.579,86.232 270.555,13.162C316.517,81.762 385.056,199.722 400.403,278.421ZM235.149,338.619C224.837,328.754 205.621,298.8 202.158,283.342C198.379,312.68 193.767,362.402 206.576,388.111C207.319,389.604 208.164,391.012 209.098,392.333C214.509,402.218 222.755,409.213 233.922,413.956C260.306,425.162 290.598,407.128 301.804,380.744C320.077,337.72 308.315,276.907 299.287,229.623C291.666,276.91 261.435,309.165 235.149,338.619Z"/>
        </g>
        <g transform="matrix(0.025066,1.09449,1.25253,-0.0286851,9.13686,6.41921)">
            <path d="M15.527,8.602C15.527,8.602 3.514,6.582 1.804,2.759C1.804,2.759 1.215,1.4 1.125,0.721C1.034,0.042 2.209,4.466 8.382,5.514C14.739,6.594 14.433,7.381 15.527,8.602Z"/>
        </g>
        <g transform="matrix(0.398069,0.738488,0.845124,-0.455549,7.92831,-1.38063)">
            <path d="M15.527,8.602C15.527,8.602 3.514,6.582 1.804,2.759C1.804,2.759 1.215,1.4 1.125,0.721C1.034,0.042 2.209,4.466 8.382,5.514C14.739,6.594 14.433,7.381 15.527,8.602Z"/>
        </g>
        <g transform="matrix(-0.364932,0.755412,0.864492,0.417627,2.36936,4.74763)">
            <path d="M15.527,8.602C15.527,8.602 3.514,6.582 1.804,2.759C1.804,2.759 1.215,1.4 1.125,0.721C1.034,0.042 2.209,4.466 8.382,5.514C14.739,6.594 14.433,7.381 15.527,8.602Z"/>
        </g>
        <g transform="matrix(-0.0256058,1.45153,1.39317,0.0245764,7.09655,2.94805)">
            <path d="M2.802,4.133C2.65,4.018 8.266,9.089 10.177,15.832C10.177,15.832 7.194,10.525 5.542,9.533C3.727,8.442 4.606,6.74 2.802,4.133Z"/>
        </g>
        <g transform="matrix(0.0198209,-1.24847,-1.24847,-0.0198209,37.0185,33.6046)">
            <path d="M19.503,14.889C19.503,14.889 23.357,19.395 24.719,22.41C26.081,25.424 27.872,29.106 27.189,28.096C26.945,27.737 26.607,27.659 23.151,22.632C20.017,18.073 20.314,16.628 19.503,14.889Z"/>
        </g>
        <g transform="matrix(0.487751,0.999881,0.959682,-0.468141,5.32717,-3.04024)">
            <path d="M2.802,4.133C2.65,4.018 8.266,9.089 10.177,15.832C10.177,15.832 7.194,10.525 5.542,9.533C3.727,8.442 4.606,6.74 2.802,4.133Z"/>
        </g>
        <g transform="matrix(-0.524127,0.981302,0.94185,0.503055,2.18906,1.66741)">
            <path d="M2.802,4.133C2.65,4.018 8.266,9.089 10.177,15.832C10.177,15.832 7.194,10.525 5.542,9.533C3.727,8.442 4.606,6.74 2.802,4.133Z"/>
        </g>
        <g transform="matrix(0.0946527,0.993923,0.993923,-0.0946527,10.6146,9.27113)">
            <path d="M4.822,6.635C4.822,6.635 9.808,9.487 11.709,12.733C11.709,12.733 7.675,11.131 4.822,6.635Z"/>
        </g>
        <g transform="matrix(0.410573,0.645611,0.645611,-0.410573,9.92984,0.0520351)">
            <path d="M4.822,6.635C4.822,6.635 9.808,9.487 11.709,12.733C11.709,12.733 7.675,11.131 4.822,6.635Z"/>
        </g>
        <g transform="matrix(-0.282357,0.711097,0.711097,0.282357,2.38202,7.20902)">
            <path d="M4.822,6.635C4.822,6.635 9.808,9.487 11.709,12.733C11.709,12.733 7.675,11.131 4.822,6.635Z"/>
        </g>
        <g transform="matrix(0.0198209,-1.24847,-1.24847,-0.0198209,37.0185,33.6046)">
            <path d="M20.925,20.976C20.925,20.976 20.908,25.248 24.526,25.619C24.526,25.619 22.375,23.44 20.925,20.976Z"/>
        </g>
        <g transform="matrix(0.0198209,-1.24847,-1.24847,-0.0198209,37.0185,33.6046)">
            <path d="M25.853,23.382L27.853,28.164L29.777,30.635C29.777,30.635 28.664,26.309 25.853,23.382Z"/>
        </g>
    </g>
    <g transform="matrix(0.0157368,0.892078,-0.892078,0.0157368,16.0442,4.47132)">
        <circle cx="9.142" cy="11.42" r="0.653"/>
    </g>
    <g transform="matrix(0.0306452,1.7372,-1.7372,0.0306452,35.8515,-8.43659)">
        <circle cx="9.142" cy="11.42" r="0.653"/>
    </g>
    <g transform="matrix(-0.00425057,-2.4097,2.4097,-0.00425057,-18.7304,25.4801)">
        <g transform="matrix(-0.679387,0.010786,-0.010786,-0.679387,9.06012,21.6071)">
            <circle cx="9.142" cy="11.42" r="0.653"/>
        </g>
        <g transform="matrix(-0.487488,0.00773941,-0.00773941,-0.487488,3.88538,23.1597)">
            <circle cx="9.142" cy="11.42" r="0.653"/>
        </g>
    </g>
    <g transform="matrix(-0.00234515,-1.32949,1.32949,-0.00234515,3.64001,20.004)">
        <g transform="matrix(-0.679387,0.010786,-0.010786,-0.679387,9.37245,10.9369)">
            <circle cx="9.142" cy="11.42" r="0.653"/>
        </g>
        <g transform="matrix(-0.679387,0.010786,-0.010786,-0.679387,7.01742,23.5343)">
            <circle cx="9.142" cy="11.42" r="0.653"/>
        </g>
    </g>
    <g transform="matrix(4.77677e-17,-0.780106,0.780106,4.77677e-17,5.49768,9.61733)">
        <g transform="matrix(-0.694063,0.0122437,-0.0122437,-0.694063,-2.73546,14.8137)">
            <circle cx="9.142" cy="11.42" r="0.653"/>
        </g>
        <g transform="matrix(-0.694063,0.0122437,-0.0122437,-0.694063,4.69297,22.9622)">
            <circle cx="9.142" cy="11.42" r="0.653"/>
        </g>
        <g transform="matrix(-0.694063,0.0122437,-0.0122437,-0.694063,-8.2744,24.114)">
            <circle cx="9.142" cy="11.42" r="0.653"/>
        </g>
    </g>
    <g transform="matrix(0.013252,0.751225,-0.751225,0.013252,21.8989,-0.63562)">
        <circle cx="9.142" cy="11.42" r="0.653"/>
    </g>
</svg>
