<?xml version="1.0" encoding="UTF-8" standalone="no"?>
<!DOCTYPE svg PUBLIC "-//W3C//DTD SVG 1.1//EN" "http://www.w3.org/Graphics/SVG/1.1/DTD/svg11.dtd">
<svg width="100%" height="100%" viewBox="0 0 30 30" version="1.1" xmlns="http://www.w3.org/2000/svg" xmlns:xlink="http://www.w3.org/1999/xlink" xml:space="preserve" xmlns:serif="http://www.serif.com/" style="fill-rule:evenodd;clip-rule:evenodd;stroke-linejoin:round;stroke-miterlimit:2;">
    <g transform="matrix(1.12373,0,0,1.12373,-0.675738,-3.63881)">
        <path d="M16.068,3.629C19.689,3.629 29.002,21.123 26.277,24.071C26.277,24.071 22.022,28.431 10.714,29.41C10.714,29.41 13.362,27.863 11.751,24.663C10.139,21.464 5.655,11.179 5.655,11.179C5.655,11.179 4.086,8.686 2.377,8.337C2.377,8.337 10.639,4.191 16.068,3.629ZM11.96,14.246C11.866,14.152 11.674,13.784 11.585,13.687C11.433,13.523 11.289,13.391 11.213,13.352C11.113,13.301 11.018,13.293 10.927,13.312C10.825,13.334 10.721,13.397 10.634,13.517C10.55,13.633 10.41,14.051 10.352,14.283C10.241,14.729 10.165,15.325 10.13,15.559C10.105,15.725 10.362,15.896 10.528,15.921C10.694,15.946 10.849,15.831 10.874,15.665C10.91,15.428 10.97,14.794 11.091,14.364C11.101,14.33 11.114,14.294 11.127,14.259C11.139,14.272 11.152,14.284 11.163,14.296C11.326,14.471 11.52,14.692 11.656,14.807C11.785,14.917 11.908,14.953 11.978,14.954C12.22,14.956 12.382,14.824 12.479,14.615C12.489,14.634 12.5,14.653 12.511,14.67C12.658,14.905 12.858,14.978 13.056,14.914C13.216,14.862 13.304,14.69 13.252,14.53C13.216,14.421 13.124,14.345 13.018,14.325C12.997,14.286 12.966,14.226 12.947,14.179C12.85,13.935 12.684,13.423 12.582,13.32C12.506,13.243 12.409,13.206 12.284,13.24C12.251,13.249 12.187,13.27 12.127,13.342C12.096,13.379 11.979,13.609 11.962,13.664C11.94,13.737 11.989,14.105 11.963,14.234C11.962,14.238 11.961,14.242 11.96,14.246ZM18.119,21.529C17.987,21.471 17.822,21.439 17.645,21.445C17.301,21.457 16.935,21.61 16.819,21.726C16.642,21.903 16.642,22.19 16.819,22.368C16.983,22.532 17.242,22.544 17.42,22.403L17.744,22.358C17.848,22.439 18.025,22.545 18.189,22.581C18.35,22.617 18.503,22.598 18.626,22.537C18.743,22.478 18.836,22.38 18.887,22.236C18.905,22.185 18.918,22.077 18.926,22.008C18.965,21.94 18.994,21.86 19.01,21.771C19.013,21.753 19.15,21.771 19.183,21.785C19.298,21.893 19.499,22.047 19.63,22.114C19.63,22.114 19.909,22.322 20.056,22.372C20.295,22.454 20.511,22.41 20.68,22.241C20.79,22.131 20.848,21.995 20.863,21.836C20.87,21.769 20.866,21.628 20.864,21.587C20.938,21.426 20.977,21.229 21.011,21.029C21.025,20.944 21.039,20.858 21.06,20.777C21.074,20.727 21.081,20.676 21.118,20.644C21.168,20.601 21.242,20.48 21.29,20.394C21.317,20.395 21.413,20.417 21.437,20.44C21.48,20.481 21.618,20.622 21.639,20.641C21.681,20.849 21.864,21.007 22.084,21.007C22.335,21.007 22.538,20.803 22.538,20.553C22.538,20.266 22.364,20.085 22.216,19.937C21.944,19.666 21.776,19.493 21.362,19.489C21.362,19.489 21.038,19.483 20.974,19.503C20.875,19.533 20.808,19.585 20.763,19.634C20.708,19.666 20.651,19.712 20.601,19.778C20.567,19.823 20.505,19.949 20.481,19.998C20.322,20.155 20.225,20.365 20.169,20.602C20.12,20.809 20.121,21.045 20.037,21.213C20.025,21.238 20.014,21.263 20.005,21.289C19.98,21.27 19.842,21.161 19.796,21.116C19.708,21.027 19.524,20.949 19.447,20.92C19.35,20.84 19.205,20.754 19.05,20.71C18.889,20.664 18.721,20.663 18.574,20.712C18.344,20.788 18.21,20.955 18.154,21.19C18.134,21.273 18.124,21.432 18.119,21.529ZM13.441,16.836C13.422,16.875 13.343,17.12 13.322,17.167C13.241,17.352 13.212,17.734 13.165,17.874C13.123,18.001 13.116,18.355 13.12,18.417C13.132,18.59 13.215,18.671 13.224,18.682C13.312,18.789 13.414,18.827 13.5,18.841C13.627,18.862 13.76,18.84 13.884,18.725C13.89,18.718 14.028,18.629 14.028,18.375C14.028,18.362 14.028,18.35 14.027,18.337L14.033,18.136C14.044,18.098 14.057,18.04 14.07,17.976C14.188,18.117 14.322,18.259 14.441,18.404C14.546,18.532 14.657,18.652 14.657,18.796C14.657,19.046 14.86,19.25 15.11,19.25C15.361,19.25 15.564,19.046 15.564,18.796C15.564,18.511 15.447,18.237 15.26,17.98C15.074,17.722 14.807,17.481 14.646,17.24C14.587,17.151 14.366,16.794 14.227,16.681C14.015,16.507 13.805,16.533 13.666,16.602C13.578,16.646 13.495,16.719 13.441,16.836ZM15.496,11.708C15.384,11.908 15.279,12.243 15.279,12.243L14.85,11.641C14.85,11.641 14.848,11.647 14.845,11.656C14.821,11.728 14.76,12.036 14.812,12.199C14.829,12.251 14.889,13.04 14.89,13.057C14.838,13.215 14.875,13.395 15,13.52C15.177,13.697 15.465,13.697 15.642,13.52C15.716,13.446 15.768,13.349 15.79,13.233C15.803,13.163 15.796,13.073 15.796,13.01C15.88,13.096 15.986,13.187 16.086,13.234C16.336,13.351 16.56,13.296 16.715,13.141C16.903,12.953 16.968,12.779 17.047,12.534C17.053,12.537 17.058,12.539 17.063,12.541C17.088,12.559 17.119,12.579 17.156,12.598C17.247,12.646 17.377,12.689 17.467,12.694C17.635,12.704 17.763,12.64 17.851,12.552C17.944,12.459 18.016,12.337 18.112,12.249C18.134,12.229 18.156,12.196 18.178,12.158C18.258,12.195 18.366,12.214 18.436,12.223C18.61,12.325 18.838,12.302 18.987,12.153C19.164,11.975 19.164,11.688 18.987,11.511C18.855,11.379 18.627,11.337 18.541,11.326C18.437,11.277 18.234,11.192 18.074,11.178C17.871,11.161 17.703,11.228 17.588,11.343C17.528,11.402 17.464,11.562 17.431,11.649C17.416,11.666 17.401,11.684 17.386,11.702C17.363,11.691 17.342,11.682 17.325,11.675C17.272,11.609 17.227,11.536 17.165,11.478C17.122,11.438 17.01,11.344 16.894,11.309C16.769,11.272 16.637,11.276 16.507,11.342C16.421,11.385 16.329,11.46 16.275,11.598C16.258,11.641 16.242,11.702 16.236,11.776C16.231,11.848 16.237,12.019 16.24,12.082C16.23,12.114 16.221,12.144 16.212,12.173C16.173,12.148 16.136,12.125 16.121,12.116C16.009,11.996 15.882,11.869 15.77,11.765C15.77,11.765 15.719,11.679 15.718,11.676C15.667,11.483 15.58,11.558 15.496,11.708ZM16.158,18.388C16.121,18.441 15.893,18.873 15.856,18.912C15.771,18.998 15.698,19.09 15.651,19.182C15.539,19.406 15.63,19.679 15.854,19.791C16.075,19.901 16.343,19.815 16.458,19.598C16.458,19.598 16.536,19.515 16.577,19.474C16.663,19.387 16.735,19.296 16.779,19.209C16.825,19.117 16.891,18.94 16.904,18.905C16.981,18.819 17.038,18.699 17.057,18.55C17.068,18.469 17.068,18.303 17.068,18.234C17.092,18.191 17.111,18.142 17.123,18.085C17.133,18.037 17.126,17.919 17.12,17.845C17.137,17.782 17.149,17.711 17.153,17.635C17.157,17.558 17.155,17.434 17.152,17.348C17.212,17.271 17.247,17.175 17.247,17.071C17.247,16.82 17.044,16.617 16.794,16.617C16.555,16.617 16.395,16.73 16.302,16.941C16.258,17.04 16.237,17.201 16.243,17.379C16.245,17.457 16.245,17.606 16.245,17.606C16.245,17.606 16.229,17.767 16.227,17.871C16.2,17.931 16.18,17.998 16.17,18.072C16.158,18.153 16.157,18.312 16.158,18.388ZM20.532,15.329C20.398,15.204 19.745,14.635 19.688,14.615C19.54,14.564 19.232,14.523 19.012,14.549C18.736,14.582 18.559,14.734 18.492,14.869C18.478,14.896 18.451,14.959 18.441,15.051C18.432,15.133 18.429,15.307 18.438,15.394C18.451,15.526 18.502,15.616 18.541,15.668C18.553,15.695 18.597,15.8 18.618,15.843C18.687,15.981 18.828,16.174 18.934,16.324C18.947,16.351 18.991,16.476 18.991,16.482L18.991,17.071C18.991,17.321 19.194,17.524 19.445,17.524C19.695,17.524 19.898,17.321 19.898,17.071L19.898,16.482C19.898,16.437 19.804,16.038 19.773,16C19.752,15.942 19.721,15.866 19.69,15.821C19.62,15.722 19.474,15.5 19.481,15.503C19.587,15.624 19.712,15.781 19.824,15.902C19.837,15.947 19.958,16.198 20.002,16.31C19.993,16.401 20.064,16.88 20.113,16.929C20.165,16.981 20.269,17.055 20.429,17.072C20.525,17.082 20.721,17.062 20.77,17.062C20.992,17.062 21.396,16.985 21.677,16.88C21.851,16.814 21.985,16.729 22.059,16.655C22.123,16.591 22.173,16.509 22.199,16.405C22.421,16.375 22.592,16.185 22.592,15.956C22.592,15.742 22.444,15.563 22.245,15.515C22.176,15.476 21.941,15.347 21.858,15.332C21.667,15.298 21.522,15.362 21.417,15.467C21.343,15.541 21.287,15.64 21.266,15.768C21.257,15.825 21.267,15.94 21.28,16.042C21.167,16.075 21.017,16.117 20.899,16.139C20.895,16.118 20.89,16.101 20.885,16.086C20.829,15.916 20.759,15.781 20.692,15.646C20.681,15.603 20.664,15.531 20.651,15.5C20.618,15.423 20.573,15.367 20.532,15.329ZM15.259,22.804C15.215,22.845 15.174,22.89 15.142,22.933C15.053,23.055 15.024,23.181 15.024,23.267C15.024,23.517 15.227,23.721 15.478,23.721C15.663,23.721 15.822,23.61 15.893,23.45C15.993,23.394 16.075,23.306 16.125,23.178C16.172,23.057 16.163,22.819 16.163,22.678C16.163,22.428 15.96,22.224 15.709,22.224C15.459,22.224 15.255,22.428 15.255,22.678C15.255,22.707 15.257,22.758 15.259,22.804ZM8.666,9.475C8.613,9.59 8.582,9.793 8.583,10.039C8.585,10.488 8.671,11.116 8.669,11.383C8.669,11.472 8.605,11.558 8.573,11.645C8.519,11.793 8.503,11.937 8.547,12.074C8.599,12.233 8.929,12.479 9.089,12.428C9.243,12.377 9.33,12.215 9.289,12.061C9.296,12.041 9.326,11.954 9.347,11.905C9.396,11.786 9.435,11.664 9.436,11.546C9.438,11.313 9.375,10.81 9.355,10.384C9.349,10.256 9.347,10.135 9.354,10.034C9.357,9.98 9.358,9.934 9.37,9.904C9.458,10.125 9.556,10.34 9.661,10.527C9.891,10.936 10.178,11.213 10.469,11.274C10.703,11.322 10.961,11.265 11.226,11.004C11.255,10.975 11.309,10.905 11.325,10.792C11.331,10.749 11.333,10.687 11.332,10.626C11.515,10.764 11.714,10.806 11.914,10.741C11.949,10.729 12.067,10.705 12.121,10.68C12.217,10.637 12.267,10.57 12.29,10.525C12.356,10.396 12.404,10.192 12.437,9.954C12.478,9.659 12.502,9.301 12.552,8.994C12.572,8.873 12.595,8.761 12.628,8.668C12.814,8.87 12.97,9.053 13.212,9.299C13.235,9.323 13.397,9.537 13.488,9.638C13.539,9.694 13.584,9.73 13.607,9.744C13.718,9.813 13.812,9.796 13.866,9.78C13.967,9.748 14.057,9.681 14.08,9.531C14.104,9.373 14.19,8.307 14.314,7.727C14.392,7.85 14.483,8.243 14.569,8.358C14.737,8.582 14.938,8.786 15.157,8.898C15.368,9.005 15.604,8.954 15.807,8.795C15.912,8.713 16.005,8.603 16.075,8.5C16.18,8.577 16.293,8.646 16.416,8.709C16.565,8.785 16.749,8.726 16.825,8.576C16.901,8.427 16.842,7.99 16.692,7.913C16.519,7.825 16.371,7.72 16.245,7.592C16.173,7.519 16.096,7.495 16.026,7.49C15.952,7.484 15.877,7.502 15.808,7.55C15.729,7.605 15.651,7.757 15.628,7.819C15.628,7.819 15.551,8.202 15.479,8.274C15.458,8.295 15.42,8.321 15.399,8.336C15.11,8.166 14.895,7.506 14.749,7.263C14.688,7.16 14.634,7.077 14.594,7.026C14.588,7 14.582,6.974 14.577,6.961C14.555,6.902 14.522,6.86 14.493,6.833C14.443,6.786 14.386,6.761 14.326,6.752C14.235,6.739 14.142,6.757 14.054,6.822C13.988,6.871 13.908,6.973 13.848,7.132C13.731,7.439 13.631,8.306 13.564,8.788C13.291,8.505 13.128,8.048 12.859,7.775C12.778,7.693 12.657,7.663 12.548,7.699L12.482,7.721C12.272,7.789 11.889,7.941 11.8,8.295C11.717,8.623 11.829,9.147 11.783,9.52C11.766,9.662 11.749,9.792 11.722,9.892C11.701,9.898 11.681,9.903 11.669,9.906C11.662,9.903 11.645,9.894 11.635,9.886C11.592,9.854 11.552,9.808 11.513,9.756C11.434,9.649 11.362,9.519 11.298,9.384C11.283,9.265 11.255,9.136 11.206,8.984C11.193,8.944 11.108,8.635 11.07,8.57C10.998,8.447 10.896,8.42 10.843,8.412C10.699,8.39 10.611,8.439 10.555,8.486C10.477,8.55 10.427,8.645 10.432,8.768C10.435,8.837 10.48,8.945 10.496,8.995C10.544,9.144 10.616,9.339 10.704,9.537C10.72,9.73 10.696,9.889 10.692,10.084C10.674,10.138 10.716,10.472 10.727,10.546C10.726,10.539 10.725,10.533 10.725,10.533L10.723,10.636C10.687,10.663 10.652,10.679 10.615,10.68C10.513,10.682 10.375,10.334 10.289,10.223C9.92,9.746 9.713,9.073 9.533,8.518C9.506,8.436 9.46,8.394 9.426,8.368C9.399,8.348 8.859,8.059 8.785,8.396C8.773,8.45 8.731,8.735 8.724,8.798C8.72,8.84 8.723,8.873 8.728,8.896L8.666,9.475Z"/>
    </g>
    <g transform="matrix(0.0185057,-0.00600753,0.00600753,0.0185057,-7.29257,0.284421)">
        <path d="M309.448,445.308C309.448,445.308 195.634,519.534 221.201,645.719C246.768,771.904 355.633,790.049 402.644,798.296L415.839,738.915C415.839,738.915 218.776,762.753 416.907,561.401L309.448,445.308Z"/>
    </g>
    <g transform="matrix(0.0185057,-0.00600753,0.00600753,0.0185057,-7.29257,0.284421)">
        <path d="M514.291,1609.75L392.285,1679.89C392.285,1679.89 261.309,1610.19 333.886,1483.18C406.463,1356.17 501.309,1400.7 502.133,1439.47L499.659,1492.25C499.659,1492.25 442.752,1407.3 385.845,1510.39C385.845,1510.39 399.694,1540.29 514.291,1609.75Z"/>
    </g>
</svg>
