<?xml version="1.0" encoding="UTF-8" standalone="no"?><!DOCTYPE svg PUBLIC "-//W3C//DTD SVG 1.1//EN" "http://www.w3.org/Graphics/SVG/1.1/DTD/svg11.dtd"><svg width="100%" height="100%" viewBox="0 0 30 30" version="1.1" xmlns="http://www.w3.org/2000/svg" xmlns:xlink="http://www.w3.org/1999/xlink" xml:space="preserve" xmlns:serif="http://www.serif.com/" style="fill-rule:evenodd;clip-rule:evenodd;stroke-linejoin:round;stroke-miterlimit:2;"><g><path d="M0,14.564l1.514,1.189l-0.046,5.017l-1.468,0.79l0,-6.996Zm0,8.311l2.37,-1.217l4.148,0l0.451,3.151l-0.638,5.191l-6.331,0l0,-7.125Zm7.175,7.125l0.425,-5.101l0.992,-2.353l3.787,1.909l2.57,2.975l-0.442,2.57l-7.332,0Zm7.98,0l1.03,-3.237l-6.132,-4.795l6.808,-0.621l5.41,4.351l-2.704,2.042l-0.396,2.26l-4.016,0Zm4.907,0l0.471,-1.947l4.941,-3.87l2.297,1.243l2.229,4.43l0,0.144l-9.938,0Zm-19.473,-30l5.094,5.666l-0.891,2.107l-4.792,1.7l0,-9.473l0.589,0Zm8.97,18.516l1.669,-1.998l0.586,3.152l-2.255,-1.154Zm-3.356,-3.767l0.677,3.01l-0.854,2.468l-3.232,0.063l-0.03,-4.413l3.439,-1.128Zm20.927,-2.62c0.663,0.269 0.895,1.05 0.515,1.745c-0.379,0.695 -1.224,1.041 -1.885,0.772c-0,0 -7.921,-3.197 -10.011,-11.787c-0.169,-0.694 0.299,-1.477 1.043,-1.749c0.745,-0.271 1.485,0.071 1.653,0.764c1.818,7.467 8.685,10.255 8.685,10.255Zm-1.654,6.032c0.663,0.269 0.893,1.049 0.514,1.744c-0.377,0.696 -1.221,1.041 -1.885,0.774c-0,-0 -11.381,-4.599 -14.387,-16.949c-0.169,-0.695 0.299,-1.478 1.043,-1.75c0.744,-0.272 1.486,0.07 1.653,0.764c2.731,11.226 13.062,15.417 13.062,15.417Zm1.758,4.897l1.669,-1.998l0.586,3.152l-2.255,-1.154Zm1.664,-16.844c0.663,0.268 0.894,1.05 0.515,1.745c-0.378,0.694 -1.224,1.041 -1.886,0.772c0,0 -4.457,-1.795 -5.633,-6.627c-0.169,-0.693 0.298,-1.477 1.043,-1.749c0.744,-0.271 1.485,0.071 1.654,0.764c0.902,3.707 4.307,5.095 4.307,5.095Zm-26.517,4.918l5.2,-1.69l0.165,5.055l-5.365,-3.365Z"/></g></svg>