<?xml version="1.0" encoding="UTF-8" standalone="no"?>
<!DOCTYPE svg PUBLIC "-//W3C//DTD SVG 1.1//EN" "http://www.w3.org/Graphics/SVG/1.1/DTD/svg11.dtd">
<svg width="100%" height="100%" viewBox="0 0 30 30" version="1.1" xmlns="http://www.w3.org/2000/svg" xmlns:xlink="http://www.w3.org/1999/xlink" xml:space="preserve" xmlns:serif="http://www.serif.com/" style="fill-rule:evenodd;clip-rule:evenodd;stroke-linejoin:round;stroke-miterlimit:2;">
    <g transform="matrix(0.0255992,0,0,0.0255992,8.39671,1.7296)">
        <g transform="matrix(0.599206,0,0,0.648646,-378.386,-200.659)">
            <path d="M1188.55,892.301C1237.97,923.773 1313.44,945.46 1345.13,1003.47C1383.41,1073.55 1372.41,1306.02 1371.37,1320.01L1371.37,1508.28L1253.89,1508.28L1253.89,1225.18L1235.31,1225.18L1235.31,1516.58L1235.36,1516.58L1235.36,1883.42L1265.35,1912.29L1311.82,1953.19L1057.65,1953.19L1057.65,1504.35L1030.04,1504.35L1030.04,1953.19L775.863,1953.19L822.339,1912.29L852.325,1883.42L852.325,1516.58L852.381,1516.58L852.381,1225.18L833.794,1225.18L833.794,1508.28L716.321,1508.28L716.321,1320.01C715.272,1306.02 714.731,1291.84 714.731,1277.49C714.731,1185.12 705.812,1066.55 743.921,996.569C775.541,938.503 849.301,924.162 898.676,892.595C932.696,946.811 984.958,965.701 1043.52,965.701C1102.19,965.701 1154.54,946.686 1188.55,892.301Z"/>
        </g>
        <g transform="matrix(0.407488,0,0,0.407488,-178.225,1.64324)">
            <path d="M1271.52,824.345C1272.36,824.887 1181.23,968.029 1043.2,968.029C885.655,968.029 814.824,825.04 815.921,824.345C793.895,791.886 776.207,754.613 763.991,714.001C753.511,675.318 747.817,633.798 747.817,590.593C747.817,382.279 880.176,232.845 1043.2,232.845C1206.24,232.845 1338.6,382.279 1338.6,590.593C1338.6,645.946 1329.25,698.526 1312.46,745.918C1301.43,774.258 1287.64,800.581 1271.52,824.345Z"/>
        </g>
        <g transform="matrix(39.0637,0,0,39.0637,-328.007,-67.5646)">
            <path d="M2.615,24.616L1.821,24.78C1.544,23.215 1.395,21.572 1.395,19.877C1.395,18.055 1.567,16.292 1.887,14.623L2.67,14.779C2.36,16.389 2.194,18.089 2.194,19.846C2.194,21.496 2.34,23.095 2.615,24.616ZM3.064,13.062L2.289,12.856C2.889,10.591 3.769,8.536 4.86,6.786L5.548,7.244C4.492,8.921 3.643,10.891 3.064,13.062ZM7.956,4.267L7.39,3.636C9.503,1.616 12.023,0.472 14.708,0.472C15.544,0.472 16.364,0.583 17.161,0.797L16.949,1.598C16.241,1.417 15.513,1.322 14.771,1.322C12.266,1.322 9.925,2.397 7.956,4.267ZM19.538,2.695L19.928,2.004C20.94,2.628 21.889,3.43 22.758,4.389C23.633,5.355 24.427,6.485 25.117,7.747L24.544,8.178C23.878,6.967 23.111,5.883 22.263,4.957C21.427,4.044 20.513,3.281 19.538,2.695ZM26.222,12.168L26.881,11.992C27.612,14.397 28.021,17.065 28.021,19.877C28.021,20.912 27.966,21.928 27.859,22.919L27.188,22.813C27.294,21.847 27.349,20.856 27.349,19.846C27.349,17.107 26.945,14.506 26.222,12.168ZM26.851,25.027L27.51,25.234C27.21,26.767 26.786,28.221 26.255,29.569L26.13,29.886L25.346,29.886C25.996,28.4 26.507,26.767 26.851,25.027ZM4.197,29.886L3.286,29.886L3.161,29.569C2.791,28.63 2.473,27.64 2.213,26.608L3.009,26.423C3.324,27.645 3.723,28.804 4.197,29.886ZM3.539,14.951L4.36,15.114C4.073,16.627 3.92,18.225 3.92,19.877C3.92,21.395 4.049,22.867 4.293,24.27L3.483,24.437C3.22,22.973 3.081,21.434 3.081,19.846C3.081,18.149 3.241,16.506 3.539,14.951ZM6.285,7.736L6.959,8.185C6.008,9.719 5.247,11.519 4.724,13.503L3.919,13.289C4.472,11.217 5.279,9.337 6.285,7.736ZM3.871,26.222L4.669,26.036C4.951,27.148 5.308,28.203 5.73,29.189L6.028,29.886L5.167,29.886C4.644,28.753 4.208,27.525 3.871,26.222ZM24.376,29.886L23.388,29.886L23.686,29.189C24.302,27.751 24.778,26.164 25.087,24.473L26,24.76C25.644,26.611 25.09,28.337 24.376,29.886ZM26.312,22.675L25.362,22.525C25.45,21.662 25.496,20.777 25.496,19.877C25.496,17.294 25.122,14.841 24.447,12.643L25.366,12.397C26.07,14.662 26.462,17.187 26.462,19.846C26.462,20.809 26.41,21.754 26.312,22.675ZM23.83,8.715L23.08,9.279C22.45,8.071 21.712,6.995 20.887,6.084C20.208,5.335 19.471,4.7 18.685,4.204L19.102,3.467C19.998,4.01 20.839,4.715 21.608,5.556C22.438,6.462 23.185,7.525 23.83,8.715ZM16.722,2.456L16.514,3.238C15.928,3.08 15.325,2.997 14.708,2.997C12.629,2.997 10.705,3.938 9.077,5.517L8.549,4.928C10.347,3.213 12.48,2.209 14.771,2.209C15.436,2.209 16.088,2.294 16.722,2.456Z"/>
        </g>
    </g>
</svg>
