<?xml version="1.0" encoding="UTF-8" standalone="no"?><!DOCTYPE svg PUBLIC "-//W3C//DTD SVG 1.1//EN" "http://www.w3.org/Graphics/SVG/1.1/DTD/svg11.dtd"><svg width="100%" height="100%" viewBox="0 0 30 30" version="1.1" xmlns="http://www.w3.org/2000/svg" xmlns:xlink="http://www.w3.org/1999/xlink" xml:space="preserve" xmlns:serif="http://www.serif.com/" style="fill-rule:evenodd;clip-rule:evenodd;stroke-linejoin:round;stroke-miterlimit:2;"><g><path d="M2.567,30c0.085,-2.095 0.35,-4.084 1.086,-5.546c1.177,-2.341 3.924,-2.919 5.762,-4.191c1.267,2.185 3.213,2.947 5.394,2.947c2.185,-0 4.134,-0.767 5.4,-2.959c1.841,1.269 4.651,2.143 5.831,4.481c0.723,1.433 0.979,3.295 1.056,5.268l-24.529,0Zm18.022,-12.27c0.021,0.013 -2.287,3.638 -5.782,3.638c-3.99,0 -5.783,-3.621 -5.755,-3.638c-0.558,-0.822 -1.006,-1.766 -1.316,-2.795c-0.265,-0.979 -0.409,-2.031 -0.409,-3.125c-0,-5.275 3.352,-9.059 7.48,-9.059c4.129,-0 7.48,3.784 7.48,9.059c0,1.402 -0.236,2.733 -0.662,3.933c-0.279,0.718 -0.628,1.385 -1.036,1.987Zm-3.566,-3.581l-2.367,1.324l-2.367,-1.324l-1.751,0.979l2.367,1.324l-2.367,1.324l1.751,0.98l2.367,-1.324l2.367,1.324l1.75,-0.98l-2.366,-1.324l2.366,-1.324l-1.75,-0.979Zm8.888,-11.013l0.757,1.677l1.677,0.757l-1.677,0.757l-0.757,1.677l-0.757,-1.677l-1.677,-0.757l1.677,-0.757l0.757,-1.677Zm-21.145,-1.784l1.055,2.335l2.335,1.055l-2.335,1.055l-1.055,2.335l-1.055,-2.335l-2.335,-1.055l2.335,-1.055l1.055,-2.335Zm20.759,13.658l0.938,1.896l2.076,0.856l-2.076,0.857l-0.938,1.896l-0.937,-1.896l-2.076,-0.857l2.076,-0.856l0.937,-1.896Zm-22.108,-1.929l0.502,1.111l1.112,0.502l-1.112,0.502l-0.502,1.112l-0.502,-1.112l-1.111,-0.502l1.111,-0.502l0.502,-1.111Zm2.179,5.45c0.461,0 0.836,0.375 0.836,0.837c0,0.462 -0.375,0.836 -0.836,0.836c-0.462,0 -0.837,-0.374 -0.837,-0.836c-0,-0.462 0.375,-0.837 0.837,-0.837Z"/></g></svg>