<?xml version="1.0" encoding="UTF-8" standalone="no"?>
<!DOCTYPE svg PUBLIC "-//W3C//DTD SVG 1.1//EN" "http://www.w3.org/Graphics/SVG/1.1/DTD/svg11.dtd">
<svg width="100%" height="100%" viewBox="0 0 30 30" version="1.1" xmlns="http://www.w3.org/2000/svg" xmlns:xlink="http://www.w3.org/1999/xlink" xml:space="preserve" xmlns:serif="http://www.serif.com/" style="fill-rule:evenodd;clip-rule:evenodd;stroke-linejoin:round;stroke-miterlimit:2;">
    <g transform="matrix(0.0048383,0.0197657,-0.0213965,0.00523749,34.7578,-6.74062)">
        <path d="M979.51,894.502C1036.87,878.814 1110.16,748.496 1109.12,762.486L1074.51,672.598L1120.32,613.648L1225.52,769.424L1143.21,956.676L1225.3,1228.77L1328.97,1509.31L1230.63,1711.74L1260.38,1789.32L1133.71,1733.33L1154.8,1501.69L1078.52,1310.03L1045.68,1320.65L1106.85,1529.09L964.48,1644.33L943.256,1740.73L874.239,1599.41L933.976,1468.99L874.01,1305.4L695.326,887.297C695.326,887.297 755.898,671.829 778.494,609.731C803.958,587.767 966.255,455.691 966.255,455.691L976.539,576.135C976.539,576.135 907.562,568.839 853.432,606.484C823.284,627.451 799.087,669.834 797.051,707.878C794.819,749.581 788.939,797.977 840.041,856.701C891.142,915.425 968.96,897.387 979.51,894.502Z"/>
    </g>
    <g transform="matrix(0.0154445,-0.00378055,0.00378055,0.0154445,-5.5192,2.67273)">
        <path d="M1471.47,1338.11C1471.2,1338.53 1399.76,1293.05 1399.76,1224.17C1399.76,1145.54 1471.12,1110.2 1471.47,1110.74C1487.67,1099.75 1506.27,1090.92 1526.54,1084.83C1545.84,1079.6 1566.56,1076.76 1588.12,1076.76C1692.08,1076.76 1766.65,1142.81 1766.65,1224.17C1766.65,1305.53 1692.08,1371.58 1588.12,1371.58C1560.5,1371.58 1534.26,1366.92 1510.61,1358.54C1496.46,1353.03 1483.33,1346.15 1471.47,1338.11ZM1506.37,1185.16L1476.91,1195.86L1511.24,1290.34L1540.7,1279.63L1506.37,1185.16Z"/>
    </g>
    <g transform="matrix(0.0160294,-0.00392372,0.00392372,0.0160294,-5.41225,4.263)">
        <path d="M277.948,356.881L743.071,268.286L783.342,344.8L691.525,769.653L1008.86,636.761L1077.32,737.437L622.26,954.897L523.598,805.896L648.436,409.233L336.34,515.949L277.948,356.881Z"/>
    </g>
    <g transform="matrix(0.0104443,0.00104076,-0.00104076,0.0104443,7.87039,-1.26068)">
        <path d="M277.948,356.881L743.071,268.286L783.342,344.8L691.525,769.653L1008.86,636.761L1077.32,737.437L622.26,954.897L523.598,805.896L648.436,409.233L336.34,515.949L277.948,356.881Z"/>
    </g>
    <g transform="matrix(0.00773314,0.00377342,-0.00377342,0.00773314,18.2171,0.348417)">
        <path d="M277.948,356.881L743.071,268.286L783.342,344.8L691.525,769.653L1008.86,636.761L1077.32,737.437L622.26,954.897L523.598,805.896L648.436,409.233L336.34,515.949L277.948,356.881Z"/>
    </g>
</svg>
