<?xml version="1.0" encoding="UTF-8" standalone="no"?><!DOCTYPE svg PUBLIC "-//W3C//DTD SVG 1.1//EN" "http://www.w3.org/Graphics/SVG/1.1/DTD/svg11.dtd"><svg width="100%" height="100%" viewBox="0 0 30 30" version="1.1" xmlns="http://www.w3.org/2000/svg" xmlns:xlink="http://www.w3.org/1999/xlink" xml:space="preserve" xmlns:serif="http://www.serif.com/" style="fill-rule:evenodd;clip-rule:evenodd;stroke-linejoin:round;stroke-miterlimit:2;"><g><path d="M0.595,30l1.34,-2.956l3.709,-8.244c0,0 1.18,-3.029 2.153,-3.428l0.56,1.29c0,0 0.664,-0.753 1.595,-0.982l0,2.066c0,0 1.837,-0.127 2.5,0.944c0.664,1.072 1.059,2.246 2.297,2.348c-0,-0 0.395,-0.077 0.127,1.237c-0.268,1.314 -0.536,2.462 -2.73,2.526c-2.194,0.064 -1.888,1.199 -1.696,2.271c0.126,0.708 0.719,1.903 1.164,2.928l-11.019,0Zm27.106,0c0.375,-0.418 0.649,-0.819 0.492,-1.15c-0.34,-0.715 -1.402,-2.808 -1.718,-3.591c-0.014,-0.036 -0.004,-0.078 0.025,-0.103c0.396,-0.347 0.783,-0.714 1.188,-1.061c0.162,-0.139 0.304,-0.297 0.428,-0.475c0.043,-0.062 0.031,-0.076 -0.037,-0.041c-0.588,0.306 -1.243,0.732 -1.725,0.982c-0.929,0.483 -2.036,0.937 -3.039,1.011c-0.153,0.011 -0.319,-0.016 -0.497,-0.081c-0.807,-0.296 -0.864,-1.498 -0.987,-2.265c-0.066,-0.415 -0.27,-0.762 -0.61,-1.04c-0.132,-0.106 -0.3,-0.157 -0.459,-0.22c-0.307,-0.122 -0.598,-0.448 -0.385,-0.786c0.22,-0.349 1.443,-0.881 1.642,-1.248c0.01,-0.018 0.006,-0.041 -0.009,-0.055c-0.096,-0.091 -0.211,-0.174 -0.341,-0.229c-0.553,-0.23 -2.001,-0.256 -2.316,-0.424c-0.305,-0.162 -0.217,-0.391 -0.138,-0.706c0.066,-0.262 0.129,-0.525 0.189,-0.789c0.02,-0.087 -0.015,-0.136 -0.103,-0.146c-0.38,-0.044 -0.763,-0.131 -1.15,-0.261c-0.533,-0.18 -1.36,-0.687 -1.184,-1.337c0.127,-0.464 0.411,-0.933 0.607,-1.373c0.299,-0.67 0.706,-1.422 0.984,-2.144c0.108,-0.281 0.237,-0.636 0.109,-0.906c-0.211,-0.447 -0.596,-0.862 -0.647,-1.369c-0.09,-0.889 -0.116,-1.454 -0.029,-2.281c0.088,-0.848 0.264,-1.638 0.526,-2.369c0.9,-2.551 2.311,-4.357 3.976,-5.543l7.507,0l-0,30l-2.299,0Zm-14.605,-18.095l-1.491,3.827l-2.178,-3.827l-4.329,0c-1.655,0 -2.999,-1.34 -2.999,-2.991l0,-3.11c0,-1.651 1.344,-2.991 2.999,-2.991l7.987,-0c1.655,-0 2.999,1.34 2.999,2.991l0,3.11c0,1.647 -1.338,2.985 -2.988,2.991Z"/></g></svg>