<?xml version="1.0" encoding="UTF-8" standalone="no"?><!DOCTYPE svg PUBLIC "-//W3C//DTD SVG 1.1//EN" "http://www.w3.org/Graphics/SVG/1.1/DTD/svg11.dtd"><svg width="100%" height="100%" viewBox="0 0 30 30" version="1.1" xmlns="http://www.w3.org/2000/svg" xmlns:xlink="http://www.w3.org/1999/xlink" xml:space="preserve" xmlns:serif="http://www.serif.com/" style="fill-rule:evenodd;clip-rule:evenodd;stroke-linejoin:round;stroke-miterlimit:2;"><g><g><path d="M10.621,3.944c2.4,-0.26 4.601,1.865 4.913,4.743c0.311,2.877 -1.384,5.424 -3.784,5.684c-2.4,0.26 -4.601,-1.865 -4.913,-4.743c-0.311,-2.877 1.384,-5.425 3.784,-5.684Z"/></g><path d="M8.854,30l0.521,-2.862l-0.805,-6.877l-2.327,4.383l-1.476,4.555l-2.773,-1.454l1.154,-4.857l5.084,-7.933c-0,0 1.71,1.804 4.135,1.313c2.424,-0.492 3.125,-1.863 3.336,-2.695l5.874,3.786l2.205,-2.643l0.001,-1.371l5.213,-1.108l-0.143,2.011l-3.014,1.639l-3.551,5.939l-4.218,-1.425l0.649,5.609l0.501,3.99l-4.76,-0l-0.028,-0.135l-0.048,0.135l-5.53,-0Z"/><g><path d="M27.065,1.864c-0.633,-0.633 -1.662,-0.634 -2.295,-0l-2.297,2.296c-0.633,0.634 -0.633,1.663 0,2.296l2.297,2.297c0.633,0.633 1.662,0.633 2.295,-0.001l2.297,-2.296c0.633,-0.634 0.633,-1.662 -0,-2.295l-2.297,-2.297Z"/></g><g><path d="M2.681,6.267c-1.131,0 -2.05,1.489 -2.05,3.324c0,1.835 0.919,3.325 2.05,3.325c-0.339,-0.776 -0.615,-1.998 -0.615,-3.325c0,-1.326 0.276,-2.549 0.615,-3.324Z"/></g><g><path d="M19.528,12.565c1.131,0 2.05,-1.489 2.05,-3.323c-0,-1.835 -0.919,-3.325 -2.05,-3.325c0.339,0.776 0.614,1.998 0.614,3.325c0,1.325 -0.275,2.548 -0.614,3.323Z"/></g><g><path d="M5.081,6.267c-1.131,0 -2.05,1.489 -2.05,3.324c-0,1.835 0.919,3.325 2.05,3.325c-0.34,-0.776 -0.615,-1.998 -0.615,-3.325c0,-1.326 0.275,-2.549 0.615,-3.324Z"/></g><g><path d="M17.128,12.565c1.131,0 2.05,-1.489 2.05,-3.323c0,-1.835 -0.919,-3.325 -2.05,-3.325c0.34,0.776 0.615,1.998 0.615,3.325c-0,1.325 -0.275,2.548 -0.615,3.323Z"/></g></g></svg>