<?xml version="1.0" encoding="UTF-8" standalone="no"?>
<!DOCTYPE svg PUBLIC "-//W3C//DTD SVG 1.1//EN" "http://www.w3.org/Graphics/SVG/1.1/DTD/svg11.dtd">
<svg width="100%" height="100%" viewBox="0 0 30 30" version="1.1" xmlns="http://www.w3.org/2000/svg" xmlns:xlink="http://www.w3.org/1999/xlink" xml:space="preserve" xmlns:serif="http://www.serif.com/" style="fill-rule:evenodd;clip-rule:evenodd;stroke-linejoin:round;stroke-miterlimit:2;">
    <g transform="matrix(0.0499054,0,0,0.0499054,-1.02321,-0.172396)">
        <g transform="matrix(-1.75922,-0.292427,0.292427,-1.75922,2738.17,1640.02)">
            <path d="M1331.19,415.677C1329.22,416.287 1327.12,416.616 1324.94,416.616C1313.23,416.616 1303.72,407.108 1303.72,395.397C1303.72,383.686 1313.23,374.178 1324.94,374.178C1336.65,374.178 1346.16,383.686 1346.16,395.397C1346.16,396.017 1346.13,396.631 1346.08,397.238L1411.09,441.709L1434.21,409.197L1453.64,422.288L1443.51,436.645L1618.75,558.68L1644.93,619.486L1577.36,614.841L1403.39,493.228L1394.1,507.586L1373.83,494.073L1397.05,461.431L1331.19,415.677ZM1417.47,473.552L1552.87,568.41L1571.78,569.491L1562.87,550.033L1429.36,456.796L1417.47,473.552Z"/>
        </g>
        <g transform="matrix(3.5027e-17,-0.572034,0.572034,3.5027e-17,58.6543,799.351)">
            <path d="M1144.4,629.019L991.963,629.019L991.963,492.476L1180.73,492.476L1180.73,365.687L1375.79,560.748L1295.75,640.793L1206.42,551.467C1196.03,541.077 1180.4,537.968 1166.83,543.591C1153.25,549.215 1144.4,562.462 1144.4,577.156L1144.4,629.019Z"/>
        </g>
        <g transform="matrix(3.5027e-17,-0.572034,0.572034,3.5027e-17,179.621,799.351)">
            <path d="M840.486,629.019L840.486,492.476L1180.73,492.476L1180.73,365.687L1375.79,560.748L1180.73,755.808L1180.73,629.019L840.486,629.019Z"/>
        </g>
        <g transform="matrix(2.83157e-17,-0.462431,0.462431,2.83157e-17,-104.327,1018.47)">
            <path d="M957.995,629.019L957.995,492.476L1180.73,492.476L1180.73,365.687L1375.79,560.748L1180.73,755.808L1180.73,629.019L957.995,629.019Z"/>
        </g>
    </g>
</svg>
