<?xml version="1.0" encoding="UTF-8" standalone="no"?><!DOCTYPE svg PUBLIC "-//W3C//DTD SVG 1.1//EN" "http://www.w3.org/Graphics/SVG/1.1/DTD/svg11.dtd"><svg width="100%" height="100%" viewBox="0 0 30 30" version="1.1" xmlns="http://www.w3.org/2000/svg" xmlns:xlink="http://www.w3.org/1999/xlink" xml:space="preserve" xmlns:serif="http://www.serif.com/" style="fill-rule:evenodd;clip-rule:evenodd;stroke-linejoin:round;stroke-miterlimit:2;"><g><path d="M1.749,-0c0.512,0.39 0.954,0.854 1.304,1.386c1.093,1.662 1.326,4.018 -0.108,6.945c-0.564,1.152 -0.76,2.12 -0.669,2.962c0.003,0.031 0.007,0.063 0.011,0.093c1.562,1.604 2.971,2.983 4.55,4.511c0.43,0.186 0.867,0.354 1.302,0.505l0.31,-0.341c0.018,-0.02 0.02,-0.05 0.005,-0.075c-1.38,-2.405 -2.79,-4.793 -4.2,-7.181c-0.154,-0.262 0.03,-0.649 0.043,-0.664c0.536,-0.597 1.537,-0.478 1.628,-0.326c1.298,2.179 2.609,4.353 3.932,6.521c0.037,0.061 0.093,0.084 0.168,0.069l0.973,-0.194c0.001,-0 0.003,-0.001 0.004,-0.001c0.031,-0.008 0.052,-0.036 0.045,-0.062c-0,-0.001 -0.001,-0.002 -0.001,-0.003l-0.088,-0.25c-0.005,-0.014 -0.006,-0.026 -0.001,-0.031c0.006,-0.007 0.015,-0.006 0.026,0.003c0.46,0.393 1.061,0.584 1.57,0.92c0.033,0.022 0.05,0.063 0.041,0.103c-0.098,0.435 -0.196,0.871 -0.294,1.308c-0.19,0.849 0.2,0.943 0.838,1.262c0.15,0.075 0.313,0.137 0.479,0.2c0.082,0.014 0.158,0.044 0.225,0.085c0.122,0.049 0.244,0.101 0.361,0.161c0.02,0.01 0.035,0.026 0.043,0.044c0.3,0.68 -1.092,1.48 -0.281,2.225c0.182,0.168 0.51,0.433 0.985,0.795c0.617,0.472 0.842,0.81 0.858,1.565c0.016,0.721 0.17,1.414 0.462,2.08c0.341,0.776 0.936,1.208 1.784,1.294c0.704,0.072 1.519,0.183 2.251,-0.07l0.002,-0c0.026,-0.008 0.055,0.007 0.063,0.033l0.001,0.002c0.044,0.167 0.102,0.342 0.135,0.506c0.246,1.218 0.541,2.425 0.883,3.62l-6.85,-0l-0.294,-2.509c-0.009,-0.078 -0.052,-0.122 -0.129,-0.131c-1.455,-0.168 -2.958,-0.558 -4.113,-1.465c-0.205,-0.161 -0.517,-0.457 -0.933,-0.888c-0.665,-0.686 -1.331,-1.37 -2.001,-2.051c-0.327,-0.332 -0.729,-0.821 -1.133,-1.193c-0.031,-0.028 -0.997,-0.989 -0.977,-0.995l-1.187,-1.152c-0.029,-0.004 -0.968,-0.925 -0.993,-0.947c-0.217,-0.197 -0.398,-0.463 -0.577,-0.643c-0.348,-0.35 -0.705,-0.691 -1.07,-1.023c-0.056,-0.05 -0.09,-0.113 -0.102,-0.187c-0.057,-0.361 -0.002,-0.683 0.126,-1.029c-0.4,-0.38 -0.767,-0.782 -1.156,-1.197l0,-0.988c0.096,0.152 0.209,0.298 0.34,0.437c1.266,1.344 2.233,2.561 4.899,3.343c1.79,0.525 4.345,0.854 8.271,0.893c0,0 -7.242,-0.778 -10.398,-4.063c-0.781,-0.813 -1.336,-1.73 -1.457,-2.852c-0.102,-0.938 0.101,-2.02 0.729,-3.304c1.932,-3.943 0.65,-6.746 -1.785,-8.056l1.15,-0Zm-1.749,3.999c0.764,1.191 0.393,2.866 0,4.576l0,-4.576Zm24.681,26.001c-0.215,-0.717 -0.431,-1.435 -0.647,-2.152c-0.302,-0.999 -0.721,-2.05 -0.978,-3.134c-0.011,-0.049 -0.179,-0.358 -0.136,-0.385c0.585,-0.374 1.286,-0.643 1.883,-1.016c0.239,-0.148 0.52,-0.202 0.716,-0.41c0.068,-0.073 0.055,-0.093 -0.039,-0.06c-0.828,0.282 -1.766,0.707 -2.444,0.938c-1.306,0.445 -2.84,0.818 -4.161,0.716c-0.202,-0.015 -0.413,-0.083 -0.632,-0.204c-0.993,-0.545 -0.831,-2.124 -0.839,-3.147c-0.004,-0.555 -0.201,-1.047 -0.589,-1.476c-0.151,-0.165 -0.36,-0.264 -0.554,-0.378c-0.377,-0.22 -0.692,-0.703 -0.348,-1.102c0.356,-0.411 1.365,-0.24 2.427,-0.701c2.174,-0.944 2.474,-3.312 2.452,-3.296c-1.196,0.886 -2.114,1.747 -3.69,2.242c-0.821,0.257 -1.792,-0.236 -2.169,-0.516c-0.366,-0.273 -0.206,-0.554 -0.041,-0.949c0.137,-0.328 0.305,-1.139 0.436,-1.471c0.043,-0.11 0.008,-0.18 -0.106,-0.21c-0.486,-0.133 -1.528,-0.322 -2.007,-0.568c-0.659,-0.34 -1.205,-1.06 -0.846,-1.873c0.257,-0.58 0.762,-1.227 1.118,-1.752c0.746,-1.101 1.274,-1.736 1.779,-2.622c0.196,-0.345 0.435,-0.782 0.322,-1.159c-0.187,-0.625 -0.607,-1.242 -0.573,-1.913c0.059,-1.176 0.136,-1.919 0.413,-2.98c0.044,-0.169 0.076,-0.306 0.099,-0.422l14.473,0l-0,30l-5.319,0Zm-24.681,-28.563c0.187,-0.072 0.36,-0.136 0.487,-0.179c0.144,-0.05 0.252,-0.069 0.3,-0.073c0.002,0 0.016,-0.001 0.018,-0c0.052,-0.002 0.198,-0.004 0.24,0.009c0.061,0.019 0.104,0.05 0.136,0.082c0.142,0.142 0.191,0.361 0.129,0.617c-0.034,0.143 -0.118,0.331 -0.2,0.495c0.114,-0.004 0.232,-0.006 0.319,-0.004c0.202,0.007 0.358,0.064 0.436,0.132c0.105,0.091 0.164,0.234 0.129,0.42c-0.022,0.117 -0.101,0.27 -0.186,0.409c0.05,0.026 0.09,0.059 0.123,0.094c0.085,0.089 0.13,0.209 0.13,0.349c0,0.084 -0.022,0.178 -0.054,0.268c0.182,0.104 0.18,0.267 0.161,0.353c-0.016,0.068 -0.052,0.15 -0.157,0.209c-0.03,0.017 -0.108,0.051 -0.263,0.051c-0.084,0 -0.161,-0.033 -0.217,-0.087c-0.104,-0.004 -0.17,-0.049 -0.216,-0.096c-0.046,-0.046 -0.077,-0.105 -0.087,-0.177c-0.007,-0.045 -0.006,-0.106 0.023,-0.174c0.018,-0.044 0.066,-0.109 0.101,-0.144l0.038,-0.092c-0.084,-0.01 -0.161,-0.022 -0.161,-0.022c-0.099,-0.017 -0.184,-0.08 -0.228,-0.17c-0.045,-0.091 -0.043,-0.197 0.005,-0.285c-0,-0 0.053,-0.094 0.098,-0.146l0.161,-0.266c-0.138,0.005 -0.287,0.017 -0.407,0.022c-0.118,0.004 -0.216,-0.002 -0.278,-0.016c-0.091,-0.021 -0.152,-0.063 -0.191,-0.102c-0.051,-0.051 -0.095,-0.124 -0.095,-0.231c0,-0.043 0.018,-0.137 0.08,-0.255c0.066,-0.124 0.193,-0.328 0.277,-0.529c0.005,-0.013 0.01,-0.028 0.015,-0.043c-0.168,0.058 -0.418,0.153 -0.666,0.25l-0,-0.669Zm0,9.559c0.02,-0.049 0.053,-0.111 0.104,-0.175c0.091,-0.113 0.247,-0.264 0.371,-0.346c0.108,-0.071 0.211,-0.097 0.281,-0.097c0.172,0 0.312,0.14 0.312,0.312c-0,0.116 -0.063,0.217 -0.157,0.271c0.006,0.007 0.012,0.015 0.017,0.023c0.041,0.057 0.082,0.146 0.082,0.29c-0,0.173 -0.14,0.313 -0.313,0.313c-0.096,-0 -0.182,-0.044 -0.239,-0.113c-0.013,0.002 -0.025,0.003 -0.036,0.004c-0.132,0.008 -0.254,-0.028 -0.354,-0.129c-0.027,-0.026 -0.051,-0.058 -0.068,-0.096l0,-0.257Zm5.926,7.21c-0.306,-0.071 -0.593,-0.146 -0.863,-0.225c-0.273,-0.08 -0.529,-0.164 -0.77,-0.252c0.247,0.214 0.494,0.428 0.742,0.642c0.066,0.057 0.143,0.081 0.23,0.073l0.692,-0.067c0.07,-0.007 0.082,-0.037 0.037,-0.091c-0.023,-0.027 -0.046,-0.053 -0.068,-0.08Zm4.248,-10.89c0.534,0.495 0.827,1.24 1.175,1.874c0.018,0.032 0.169,0.234 0.149,0.265c-0.656,1.067 -0.919,1.493 -1.205,2.372c-0.022,0.067 -0.034,0.129 -0.036,0.187c-0.002,0.059 -0.014,0.061 -0.035,0.006c-0.581,-1.49 -1.173,-2.975 -1.776,-4.456c-0.069,-0.17 -0.045,-0.343 0.086,-0.46c0.492,-0.441 1.187,-0.211 1.642,0.212Zm-8.431,-1.239c-0.095,-0.011 -0.19,-0.026 -0.269,-0.052c-0.163,-0.054 -0.252,-0.232 -0.197,-0.395c0.054,-0.164 0.231,-0.252 0.395,-0.198c0.073,0.025 0.169,0.026 0.255,0.037c0.11,0.014 0.212,0.039 0.288,0.079c0.157,0.081 0.254,0.209 0.254,0.414c-0,0.31 -0.135,0.475 -0.299,0.588c-0.033,0.023 -0.078,0.049 -0.123,0.073c0.047,0.071 0.095,0.152 0.125,0.222c0.086,0.198 0.107,0.416 0.001,0.629c-0.108,0.216 -0.283,0.322 -0.475,0.375c-0.062,0.017 -0.148,0.033 -0.216,0.044c-0.04,0.164 -0.126,0.293 -0.228,0.41c-0.056,0.064 -0.117,0.123 -0.171,0.187c-0.037,0.044 -0.073,0.089 -0.073,0.157c-0,0.173 -0.14,0.313 -0.313,0.313c-0.172,-0 -0.312,-0.14 -0.312,-0.313c-0,-0.256 0.109,-0.436 0.254,-0.598c0.054,-0.061 0.114,-0.118 0.166,-0.182c0.04,-0.049 0.076,-0.103 0.076,-0.183c0,0.018 0.006,0.056 0.006,0.056c-0,-0 0.009,-0.229 0.086,-0.306c0.074,-0.074 0.194,-0.127 0.347,-0.151c0.062,-0.01 0.132,-0.016 0.201,-0.033c0.035,-0.009 0.074,-0.017 0.094,-0.056c0.01,-0.022 0.004,-0.044 -0.003,-0.065c-0.011,-0.039 -0.031,-0.076 -0.052,-0.11c-0.053,-0.088 -0.115,-0.164 -0.153,-0.218c-0.104,-0.153 -0.094,-0.289 -0.072,-0.354c0.047,-0.14 0.151,-0.241 0.298,-0.317c0.034,-0.018 0.072,-0.035 0.11,-0.053Zm-0.876,6.659c0.055,-0.051 0.129,-0.081 0.21,-0.081c0.106,-0 0.172,0.043 0.216,0.083c0.072,0.066 0.115,0.154 0.101,0.271c-0.005,0.047 -0.034,0.14 -0.111,0.214c-0.076,0.073 -0.196,0.115 -0.265,0.115c-0.012,-0 -0.034,0.01 -0.051,0.019c-0.054,0.093 -0.154,0.156 -0.27,0.156c-0.172,-0 -0.312,-0.14 -0.312,-0.313c-0,-0.091 0.042,-0.213 0.162,-0.312c0.079,-0.064 0.204,-0.122 0.32,-0.152Zm1.167,1.566c0.029,0.004 0.136,0.021 0.188,0.031c0.113,0.023 0.206,0.069 0.272,0.135c0.046,0.046 0.086,0.111 0.105,0.195c0.009,0.042 0.011,0.125 0.01,0.199c0.023,-0 0.045,-0.001 0.067,-0c0.119,0.005 0.232,0.021 0.317,0.057c0.176,0.073 0.293,0.201 0.293,0.441c0,0.173 -0.14,0.313 -0.312,0.313c-0.126,-0 -0.234,-0.075 -0.284,-0.182c-0.049,-0.003 -0.118,-0.008 -0.165,-0.01c-0.125,-0.007 -0.243,-0.03 -0.333,-0.075c-0.084,-0.042 -0.153,-0.114 -0.188,-0.226c-0.015,-0.049 -0.024,-0.111 -0.024,-0.182c-0,-0.019 0.001,-0.043 0.002,-0.069c-0.029,-0.005 -0.057,-0.01 -0.078,-0.015c-0.113,-0.025 -0.213,-0.074 -0.289,-0.15c-0.122,-0.122 -0.122,-0.32 -0,-0.442c0.114,-0.114 0.296,-0.121 0.419,-0.02Zm2.168,1.565c0.158,0.016 0.281,0.149 0.281,0.311c-0,0.172 -0.14,0.312 -0.313,0.312c-0.253,-0 -0.337,-0.083 -0.421,-0.188c-0.018,-0.021 -0.033,-0.049 -0.062,-0.079c-0.122,-0.122 -0.122,-0.32 -0,-0.441c0.122,-0.122 0.32,-0.122 0.442,-0c0.025,0.025 0.052,0.058 0.073,0.085Zm1.243,1.146c-0.154,-0.02 -0.273,-0.151 -0.273,-0.31c-0,-0.173 0.139,-0.313 0.312,-0.313c0.069,0 0.258,0.048 0.333,0.11c0.091,0.075 0.125,0.169 0.125,0.261c0,0.173 -0.14,0.313 -0.312,0.313c-0.069,-0 -0.133,-0.023 -0.185,-0.061Zm1.791,0.604l-0.286,-0.061c-0.164,-0.008 -0.295,-0.145 -0.295,-0.311c-0,-0.173 0.14,-0.313 0.312,-0.313c0.035,0 0.243,0.031 0.391,0.069c0.091,0.023 0.165,0.053 0.199,0.074c0.139,0.085 0.16,0.205 0.16,0.279c0,0.172 -0.14,0.312 -0.312,0.312c-0.062,0 -0.12,-0.018 -0.169,-0.049Zm10.599,-11.7c-0,0 1.79,0.071 2.635,0.35c0.802,0.265 2.579,1.222 2.579,1.222c-0,0 -1.009,-1.313 -1.493,-1.638c-0.571,-0.384 -1.597,-0.813 -2.317,-0.883c-0.502,-0.049 -1.404,0.949 -1.404,0.949Z"/></g></svg>