<?xml version="1.0" encoding="UTF-8" standalone="no"?>
<!DOCTYPE svg PUBLIC "-//W3C//DTD SVG 1.1//EN" "http://www.w3.org/Graphics/SVG/1.1/DTD/svg11.dtd">
<svg width="100%" height="100%" viewBox="0 0 30 30" version="1.1" xmlns="http://www.w3.org/2000/svg" xmlns:xlink="http://www.w3.org/1999/xlink" xml:space="preserve" xmlns:serif="http://www.serif.com/" style="fill-rule:evenodd;clip-rule:evenodd;stroke-linejoin:round;stroke-miterlimit:2;">
    <g transform="matrix(0.00218308,0,0,0.00218308,2.47081,19.8265)">
        <g transform="matrix(23.8694,0,0,23.8694,-205.777,-9514.07)">
            <path d="M118.325,197.764L60.374,164.306L77.2,135.163L139.527,171.148L118.771,115.311L147.737,104.543L181.506,195.384L232.238,224.674L232.238,163.487L172.985,89.659L197.086,70.316L206.758,82.367C206.758,82.367 220.524,99.519 232.238,114.115L232.238,45.651L265.89,45.651L265.89,113.276L301.467,70.283L325.276,89.985L265.89,161.75L265.89,224.674L315.06,196.286L350.79,104.409L379.592,115.609L373.991,130.01C373.991,130.01 364.852,153.511 357.818,171.6L420.929,135.163L437.754,164.306L380.578,197.317L431.811,205.989L426.653,236.459L338.599,221.553L282.716,253.817L329.407,280.774L426.918,265.766L431.619,296.31L416.347,298.66C416.347,298.66 391.357,302.507 372.164,305.461L437.754,343.329L420.929,372.472L361.379,338.092L379.457,386.723L350.491,397.491L319.4,313.855L265.89,282.961L265.89,338.422L325.243,412.374L301.142,431.717L291.47,419.667C291.47,419.667 277.626,402.417 265.89,387.794L265.89,461.984L232.238,461.984L232.238,388.878L196.761,431.75L172.952,412.049L232.238,340.405L232.238,282.961L180.388,312.896L147.439,397.625L118.637,386.424L124.237,372.023C124.237,372.023 131.187,354.152 137.63,337.583L77.2,372.472L60.374,343.329L125.075,305.974L66.418,296.044L71.575,265.575L167.054,281.737L215.412,253.817L161.083,222.45L71.31,236.267L66.609,205.724L81.881,203.373C81.881,203.373 100.777,200.465 118.325,197.764Z"/>
        </g>
        <g transform="matrix(458.068,0,0,458.068,-1131.8,-9081.89)">
            <path d="M7.323,21.504L7.323,21.757L1.052,21.757L1.052,19.004L3.499,19.004L3.903,19.702C4.428,20.612 5.444,21.062 6.423,20.91C6.664,21.16 6.962,21.363 7.307,21.498L7.323,21.504ZM3.026,18.184L1.09,18.184L1.09,15.431L3.198,15.431C3.2,15.436 3.202,15.44 3.203,15.444C3.009,15.699 2.863,15.991 2.779,16.307C2.609,16.941 2.698,17.616 3.026,18.184ZM26.803,15.431L28.907,15.431L28.907,18.184L26.974,18.184C27.489,17.293 27.386,16.214 26.797,15.444C26.799,15.44 26.801,15.436 26.803,15.431ZM26.501,19.004L28.948,19.004L28.948,21.757L22.677,21.757L22.677,21.518C23.034,21.382 23.342,21.172 23.589,20.911C23.922,20.961 24.264,20.943 24.596,20.854C25.229,20.685 25.77,20.27 26.098,19.702L26.501,19.004ZM20.25,22.688L25.412,22.688L25.412,25.441L19.142,25.441L19.142,23.572C19.183,23.543 19.222,23.513 19.262,23.482L20.25,22.688ZM18.204,23.977L18.204,25.441L16.759,25.441C17.427,25.186 17.955,24.65 18.201,23.978C18.202,23.978 18.203,23.978 18.204,23.977ZM13.241,25.441L11.934,25.441L11.934,24.281C12.212,24.81 12.677,25.226 13.241,25.441ZM10.996,23.672L10.996,25.441L4.725,25.441L4.725,22.688L9.765,22.688L10.698,23.46C10.793,23.539 10.893,23.609 10.996,23.672ZM14.123,22.688L15.877,22.688L15.877,23.13L14.123,23.13L14.123,22.688ZM15.877,21.757L15.469,21.757L15.469,19.004L17.733,19.004L18.97,20.545L17.714,21.553L17.21,20.925L15.877,19.264L15.877,21.757ZM17.075,18.184L12.973,18.184L14.123,16.795L14.123,15.431L15.877,15.431L15.877,16.691L17.075,18.184ZM12.295,19.004L14.531,19.004L14.531,21.757L14.123,21.757L14.123,19.321L12.275,21.555L11.034,20.528L12.295,19.004ZM20.001,19.004L21.719,19.004L21.739,19.059L21.739,19.229L20.285,19.769L20.001,19.004ZM21.414,18.184L19.696,18.184L19.142,16.694L19.142,15.431L22.207,15.431L24.832,16.947L24.118,18.184L23.468,18.184L20.853,16.674L21.414,18.184ZM7.793,15.431L10.996,15.431L10.996,16.456L10.324,18.184L8.596,18.184C8.727,17.847 8.966,17.232 9.193,16.648L6.532,18.184L5.882,18.184L5.168,16.947L7.793,15.431ZM8.277,19.004L10.005,19.004L9.704,19.776L8.261,19.215L8.261,19.046L8.277,19.004ZM7.323,26.261L7.323,29.014L1.052,29.014L1.052,26.261L7.323,26.261ZM3.787,22.688L3.787,25.441L1.09,25.441L1.09,22.688L3.787,22.688ZM28.907,22.688L28.907,25.441L26.209,25.441L26.209,22.688L28.907,22.688ZM14.531,26.261L14.531,29.014L8.261,29.014L8.261,26.261L14.531,26.261ZM21.739,26.261L21.739,29.014L15.469,29.014L15.469,26.261L21.739,26.261ZM28.948,26.261L28.948,29.014L22.677,29.014L22.677,26.261L28.948,26.261Z"/>
        </g>
    </g>
</svg>
