<?xml version="1.0" encoding="UTF-8" standalone="no"?>
<!DOCTYPE svg PUBLIC "-//W3C//DTD SVG 1.1//EN" "http://www.w3.org/Graphics/SVG/1.1/DTD/svg11.dtd">
<svg width="100%" height="100%" viewBox="0 0 30 30" version="1.1" xmlns="http://www.w3.org/2000/svg" xmlns:xlink="http://www.w3.org/1999/xlink" xml:space="preserve" xmlns:serif="http://www.serif.com/" style="fill-rule:evenodd;clip-rule:evenodd;stroke-linejoin:round;stroke-miterlimit:2;">
    <g transform="matrix(0.00218308,0,0,0.00218308,2.47081,19.8265)">
        <g transform="matrix(572.016,0,0,572.016,-8440.17,-11545.7)">
            <path d="M18.464,5.783L19.776,9.326L23.319,10.638L19.776,11.949L18.464,15.493L17.153,11.949L13.609,10.638L17.153,9.326L18.464,5.783Z"/>
        </g>
        <g transform="matrix(366.91,0,0,366.91,3463.52,-10723.4)">
            <path d="M18.464,5.783L19.776,9.326L23.319,10.638L19.776,11.949L18.464,15.493L17.153,11.949L13.609,10.638L17.153,9.326L18.464,5.783Z"/>
        </g>
        <g transform="matrix(845.124,0,0,845.124,-7980.27,-10463.2)">
            <path d="M18.464,5.783L19.776,9.326L23.319,10.638L19.776,11.949L18.464,15.493L17.153,11.949L13.609,10.638L17.153,9.326L18.464,5.783Z"/>
        </g>
        <g transform="matrix(458.068,0,0,458.068,-1131.8,-9081.89)">
            <path d="M9.362,18.184L4.725,18.184L4.725,15.431L8.847,15.431C8.562,15.748 8.395,16.165 8.395,16.61C8.395,17.281 8.774,17.887 9.362,18.184ZM28.907,18.164L28.907,18.184L28.869,18.184C28.882,18.178 28.894,18.171 28.907,18.164ZM26.686,19.004L28.948,19.004L28.948,21.757L22.677,21.757L22.677,21.024L22.907,20.402C22.907,20.402 25.017,19.622 26.686,19.004ZM22.062,22.688L25.412,22.688L25.412,25.441L21.043,25.441L22.062,22.688ZM20.737,26.261L21.739,26.261L21.739,29.014L15.469,29.014L15.469,26.261L17.494,26.261C17.77,26.907 18.407,27.331 19.116,27.331C19.824,27.331 20.461,26.907 20.737,26.261ZM17.188,25.441L11.934,25.441L11.934,22.688L16.17,22.688C16.533,23.669 16.931,24.746 17.188,25.441ZM15.825,21.757L15.469,21.757L15.469,20.794C15.558,21.035 15.682,21.37 15.825,21.757ZM14.531,20.109L14.531,21.757L8.261,21.757L8.261,19.004L11.545,19.004L14.531,20.109ZM10.996,16.301L10.996,16.92L10.158,16.61L10.996,16.301ZM26.209,17.3L26.209,15.921L28.073,16.61L26.209,17.3ZM25.412,15.626L25.412,17.595L23.82,18.184L19.142,18.184L19.142,15.431L24.887,15.431L25.412,15.626ZM13.345,15.431L18.204,15.431L18.204,18.184L14.411,18.184L11.934,17.267L11.934,15.953L13.345,15.431ZM16.627,19.004L21.605,19.004L21.535,19.03L20.526,21.757L17.705,21.757L16.696,19.03L16.627,19.004ZM19.163,25.441L19.142,25.441L19.142,22.688L20.181,22.688L19.163,25.441ZM18.05,22.688L18.204,22.688L18.204,23.104L18.05,22.688ZM7.323,26.261L7.323,29.014L1.052,29.014L1.052,26.261L7.323,26.261ZM7.323,19.004L7.323,21.757L1.052,21.757L1.052,19.004L7.323,19.004ZM3.787,15.431L3.787,18.184L1.09,18.184L1.09,15.431L3.787,15.431ZM3.787,22.688L3.787,25.441L1.09,25.441L1.09,22.688L3.787,22.688ZM28.907,22.688L28.907,25.441L26.209,25.441L26.209,22.688L28.907,22.688ZM14.531,26.261L14.531,29.014L8.261,29.014L8.261,26.261L14.531,26.261ZM10.996,22.688L10.996,25.441L4.725,25.441L4.725,22.688L10.996,22.688ZM28.948,26.261L28.948,29.014L22.677,29.014L22.677,26.261L28.948,26.261Z"/>
        </g>
        <g transform="matrix(192.571,0,0,192.571,2536.78,-9482.92)">
            <path d="M18.464,5.783L19.776,9.326L23.319,10.638L19.776,11.949L18.464,15.493L17.153,11.949L13.609,10.638L17.153,9.326L18.464,5.783Z"/>
        </g>
        <g transform="matrix(114.176,0,0,114.176,9073.91,-4639.27)">
            <path d="M18.464,5.783L19.776,9.326L23.319,10.638L19.776,11.949L18.464,15.493L17.153,11.949L13.609,10.638L17.153,9.326L18.464,5.783Z"/>
        </g>
    </g>
</svg>
