<?xml version="1.0" encoding="UTF-8" standalone="no"?>
<!DOCTYPE svg PUBLIC "-//W3C//DTD SVG 1.1//EN" "http://www.w3.org/Graphics/SVG/1.1/DTD/svg11.dtd">
<svg width="100%" height="100%" viewBox="0 0 30 30" version="1.1" xmlns="http://www.w3.org/2000/svg" xmlns:xlink="http://www.w3.org/1999/xlink" xml:space="preserve" xmlns:serif="http://www.serif.com/" style="fill-rule:evenodd;clip-rule:evenodd;stroke-linejoin:round;stroke-miterlimit:2;">
    <g>
        <path d="M0.192,10.375L3.788,9.161L1.526,11.221C1.526,11.221 2.184,11.46 3.008,11.896L5.503,10.88C5.529,10.106 5.595,9.266 5.7,8.438C5.735,8.162 2.877,7.824 2.877,7.824C2.877,7.824 5.915,6.9 5.97,6.553C6.307,4.423 6.72,2.557 7.006,2.161C7.227,1.854 5.598,1.894 5.598,1.894L1.616,1.448L2.417,5.404L0.192,2.165L0.192,0.136L7.416,0.136C7.424,0.215 7.435,0.262 7.451,0.266C8.698,0.627 10.197,1.037 10.302,1.018L12.916,0.136L14.297,0.136L12.848,1.454C12.848,1.454 15.724,2.497 16.987,4.206C17.123,4.12 17.26,4.029 17.397,3.931C17.666,3.74 14.91,0.589 14.91,0.589C14.91,0.589 18.675,2.82 18.892,2.556C19.435,1.895 19.865,1.106 20.04,0.19L20.061,0.136L22.405,0.136C22.15,0.811 21.775,1.601 21.228,2.407L23.491,3.934C23.491,3.934 25.078,1.992 26.292,0.136L27.673,0.136C27.253,0.825 26.919,1.475 26.825,1.923L29.679,1.958L26.035,3.161C26.035,3.161 25.725,3.951 25.038,4.536L25.072,6.736L28.579,10.174L24.9,8.524C24.9,8.524 24.39,10.9 22.891,13.089C23.78,12.989 26.68,12.681 28.089,12.719C29.765,12.763 28.917,9.274 28.917,9.274C28.858,7.347 29.207,5.738 29.759,4.411L29.759,15.377C29.344,16.228 28.889,16.908 28.556,17.357C28.949,17.5 29.355,17.636 29.759,17.753L29.759,19.702L29.168,19.636L29.759,22.557L29.759,23.247L27.877,20.507L27.647,23.632L26.344,19.811L23.13,22.203C23.13,22.203 21.703,22.99 22.049,23.144C22.494,23.342 23.792,24.746 25.157,26.415C25.38,26.687 28.469,25.953 28.469,25.953C28.469,25.953 26.171,27.686 26.34,27.907C26.803,28.51 27.243,29.139 27.629,29.741L25.845,29.741C25.075,28.469 23.967,27.048 22.869,26.046C22.747,25.934 21.351,28.282 21.351,28.282C21.351,28.282 22.237,25.505 22.105,25.405C21.22,24.732 20.408,24.382 19.874,24.641C18.315,25.399 17.26,27.522 17.26,27.522L19.644,28.134L16.073,29.304C16.034,29.454 15.995,29.597 15.957,29.741L14.485,29.741C14.81,27.683 16.646,25.478 16.646,25.478L13.654,24.84L18.625,23.818C18.725,23.781 19.814,22.672 20.709,21.732C20.817,21.619 18.65,18.407 18.65,18.407C18.65,18.407 21.894,20.598 22.658,20.231C23.976,19.598 25.316,18.1 26.317,16.779C26.319,16.6 26.325,16.471 26.334,16.433C26.392,16.46 26.452,16.488 26.514,16.516C27.373,15.351 27.936,14.386 27.936,14.386C27.12,14.067 23.727,13.348 22.84,13.163C22.145,14.161 21.243,15.114 20.087,15.777L24.728,16.43L18.197,17.015C18.197,17.015 16.547,18.149 13.246,19.112L12.181,21.484L16.203,21.828L10.806,23.598C10.806,23.598 8.751,26.714 5.227,27.822C5.166,27.841 6.384,28.623 7.888,29.566C8.169,29.742 12.694,27.784 12.694,27.784C12.694,27.784 11.145,28.932 10.171,29.741L4.309,29.741C4.414,29.482 4.468,29.301 4.425,29.274C3.426,28.656 2.656,28.208 2.521,28.205C2.521,28.205 1.61,28.767 0.811,29.741L0.192,29.741L0.192,27.398C0.838,27.031 1.623,26.727 2.574,26.521C2.574,26.521 6.165,26.503 5.718,24.887C5.399,23.736 5.063,21.485 4.897,20.286C4.577,20.776 4.34,21.054 4.34,21.054L4.899,26.097L3.37,23.447C3.37,23.447 1.984,25.747 0.192,26.709L0.192,21.844L1.237,23.493C1.237,23.493 2.878,21.828 3.172,20.119C3.466,18.409 4.488,16.27 4.488,16.27C4.488,16.27 3.449,16.688 2.037,17.682C1.508,18.055 0.845,18.66 0.192,19.299L0.192,17.272C0.587,16.984 2.072,15.972 4.699,14.982C4.437,14.718 4.203,14.491 3.949,14.237L0.276,15.026L2.026,13.296C2.026,13.296 1.222,12.767 0.192,12.418L0.192,10.375ZM11.615,18.143C11.648,18.03 11.676,17.917 11.699,17.805C12.284,14.987 14.209,13.027 14.209,13.027L14.003,7.956L15.343,10.707C15.343,10.707 17.372,7.819 19.572,7.406C21.772,6.994 22.803,5 22.803,5L21.101,2.589C19.939,4.226 18.053,5.897 15.005,6.781C15.005,6.781 11.425,7.05 11.984,8.63C12.542,10.211 13.286,13.95 13.286,13.95C13.286,13.95 11.085,10.071 10.444,9.289C10.444,9.289 6.897,13.259 6.51,16.112C6.287,17.761 5.597,19.155 5.054,20.037C5.602,21.166 6.849,23.701 7.299,24.337C7.299,24.337 9.538,22.159 10.848,19.873L8.956,16.337L11.615,18.143ZM21.294,3.133L21.318,3.103L21.309,3.13L21.294,3.133ZM3.951,12.448C4.455,12.776 4.955,13.164 5.359,13.604L5.556,13.069C5.536,12.887 5.52,12.687 5.509,12.472L3.951,12.448ZM15.687,4.881C15.549,4.745 15.414,4.612 15.272,4.47L11.598,5.259L13.348,3.529C13.348,3.529 11.368,2.227 9.638,2.358C9.047,2.403 8.522,3.115 8.096,4.142C8.033,4.295 10.198,6.247 10.198,6.247C10.198,6.247 7.809,4.923 7.76,5.081C7.276,6.632 7.033,8.623 7.052,10.181C7.46,9.508 10.201,5.302 14.942,5.098C15.082,5.091 15.347,5.019 15.687,4.881ZM22.666,7.269C22.666,7.269 20.362,8.438 18.919,9.228L18.644,12.975L17.475,10.81C17.475,10.81 15.722,12.357 15.309,14.041C14.896,15.726 13.728,17.788 13.728,17.788C13.728,17.788 14.793,17.444 16.272,16.551C17.75,15.657 20.294,13.182 20.912,12.666L20.431,9.503L21.634,10.982C21.634,10.982 22.597,8.3 22.666,7.269ZM0.192,5.929L2.047,7.303L0.192,7.038L0.192,5.929Z"/>
    </g>
</svg>
