<?xml version="1.0" encoding="UTF-8" standalone="no"?>
<!DOCTYPE svg PUBLIC "-//W3C//DTD SVG 1.1//EN" "http://www.w3.org/Graphics/SVG/1.1/DTD/svg11.dtd">
<svg width="100%" height="100%" viewBox="0 0 30 30" version="1.1" xmlns="http://www.w3.org/2000/svg" xmlns:xlink="http://www.w3.org/1999/xlink" xml:space="preserve" xmlns:serif="http://www.serif.com/" style="fill-rule:evenodd;clip-rule:evenodd;stroke-linejoin:round;stroke-miterlimit:2;">
    <g transform="matrix(0.983102,0,0,0.983102,0.230374,0.50006)">
        <path d="M0.2,22.964L4.207,25.691L6.658,28.137L7.228,29.592L0.2,29.592L0.2,22.964ZM8.768,29.592L6.87,26.571L8.458,25.429L9.678,23.451L10.302,21.446L12.082,20.959L11.881,19.125L13.517,17.808L14.91,15.948L15.389,14.051L19.737,14.866L19.747,16.302L22.425,17.638L23.777,19.959L21.73,20.31L20.169,20.391L17.586,24.573L17.594,24.578L17.528,24.665L17.471,24.758L17.463,24.753L14.521,28.691L14.824,29.592L8.768,29.592ZM15.78,29.592L15.634,29.213L18.308,25.74L20.843,21.558L23.525,21.389L25.704,21.157L27.755,21.715L27.775,24.201L28.273,26.136L29.714,26.953L29.714,29.592L15.78,29.592ZM29.714,25.13L28.666,24.294L28.608,21.737L29.411,20.325L29.714,20.264L29.714,25.13ZM29.714,18.24L29.337,18.725L27.564,20.456L24.88,19.851L23.27,16.955L20.967,15.71L20.956,13.673L23.813,11.123L25.874,7.751L28.004,8.8L29.714,8.931L29.714,18.24ZM29.714,7.465L27.124,7.078L26.068,5.256L25.106,2.495L26.961,0.169L29.714,0.169L29.714,7.465ZM25.932,0.169L24.795,1.481L22.273,3.517L20.655,3.166L19.466,3.857L16.708,1.819L14.053,0.169L25.932,0.169ZM12.91,0.169L13.579,1.925L15.983,3.852L18.453,5.242L20.579,5.132L22.306,5.093L24.13,4.266L24.877,7.473L22.865,10.54L19.718,13.302L16.908,13.375L13.87,12.086L8.89,8.697L6.342,6.185L5.214,3.433L6.308,0.169L12.91,0.169ZM5.114,0.169L4.332,2.36L2.392,3.07L0.294,1.321L0.2,1.307L0.2,0.169L5.114,0.169ZM0.2,2.561L2.313,4.439L3.681,3.94L6.182,7.786L4.569,8.911L3.353,10.892L2.751,12.912L0.928,13.369L1.172,15.233L0.2,15.996L0.2,2.561ZM0.2,17.657L0.44,17.337L1.845,16.491L2.868,14.879L2.86,14.873L2.952,14.747L3.036,14.615L3.044,14.62L4.168,13.076L4.439,11.46L5.751,9.322L7.34,9.003L9.94,10.728L9.946,10.719L10.339,10.993L10.689,11.224L10.683,11.232L13.715,13.341L14.136,15.028L12.615,17.023L11.129,17.813L10.113,19.43L10.123,19.437L10.03,19.563L9.947,19.696L9.937,19.689L8.806,21.228L8.616,22.9L7.318,25.047L5.595,25.275L2.52,23.229L2.515,23.236L2.171,22.997L1.772,22.731L1.778,22.722L0.2,21.621L0.2,17.657Z"/>
    </g>
</svg>
