<?xml version="1.0" encoding="UTF-8" standalone="no"?>
<!DOCTYPE svg PUBLIC "-//W3C//DTD SVG 1.1//EN" "http://www.w3.org/Graphics/SVG/1.1/DTD/svg11.dtd">
<svg width="100%" height="100%" viewBox="0 0 30 30" version="1.1" xmlns="http://www.w3.org/2000/svg" xmlns:xlink="http://www.w3.org/1999/xlink" xml:space="preserve" xmlns:serif="http://www.serif.com/" style="fill-rule:evenodd;clip-rule:evenodd;stroke-linejoin:round;stroke-miterlimit:2;">
    <g transform="matrix(0.00218308,0,0,0.00218308,2.47081,19.8265)">
        <g transform="matrix(22.84,0,0,22.84,-121.062,-9022.68)">
            <path d="M400.403,278.421C405.353,303.805 403.955,322.429 401.299,345.78C392.306,424.867 336.646,476.171 248.342,476.171C185.416,476.171 106.541,422.97 106.541,316.644C106.541,246.916 170.389,143.873 210.359,84.216C199.178,129.543 212.443,170.695 228.258,209.334C251.355,149.868 288.579,86.232 270.555,13.162C316.517,81.762 385.056,199.722 400.403,278.421ZM235.149,338.619C224.837,328.754 205.621,298.8 202.158,283.342C198.379,312.68 193.767,362.402 206.576,388.111C207.319,389.604 208.164,391.012 209.098,392.333C214.509,402.218 222.755,409.213 233.922,413.956C260.306,425.162 290.598,407.128 301.804,380.744C320.077,337.72 308.315,276.907 299.287,229.623C291.666,276.91 261.435,309.165 235.149,338.619Z"/>
        </g>
        <g transform="matrix(458.068,0,0,458.068,-1131.8,-9081.89)">
            <path d="M6.88,21.757L1.052,21.757L1.052,19.004L5.674,19.004C5.952,20.036 6.366,20.953 6.88,21.757ZM5.487,18.184L4.725,18.184L4.725,15.431L5.299,15.431C5.288,15.596 5.282,15.759 5.282,15.918C5.282,16.722 5.354,17.477 5.487,18.184ZM24.571,15.431L25.412,15.431L25.412,18.184L24.361,18.184C24.391,18 24.417,17.813 24.438,17.623C24.527,16.844 24.586,16.153 24.571,15.431ZM24.199,19.004L28.948,19.004L28.948,21.757L23.107,21.757C23.595,20.934 23.962,20.011 24.199,19.004ZM22.47,22.688L25.412,22.688L25.412,25.441L19.142,25.441L19.142,25.235C20.492,24.649 21.61,23.784 22.47,22.688ZM10.996,25.305L10.996,25.441L4.725,25.441L4.725,22.688L7.558,22.688C8.532,23.867 9.735,24.737 10.996,25.305ZM7.538,15.431L10.996,15.431L10.996,18.184L7.783,18.184C7.613,17.492 7.519,16.736 7.519,15.918C7.519,15.759 7.525,15.597 7.538,15.431ZM8.261,19.577L8.261,19.004L12.322,19.004C12.373,19.176 12.435,19.336 12.507,19.481C12.544,19.556 12.586,19.626 12.632,19.692C12.902,20.184 13.313,20.533 13.87,20.77C14.087,20.862 14.309,20.914 14.531,20.932L14.531,21.757L9.75,21.757C9.158,21.158 8.645,20.431 8.261,19.577ZM12.156,18.184L11.934,18.184L11.934,15.431L12.158,15.431C12.082,16.317 12.046,17.32 12.156,18.184ZM12.799,15.431L15.294,15.431C14.852,15.991 14.38,16.511 13.931,17.013C13.625,16.72 13.161,16.071 12.799,15.431ZM17.703,15.431L18.204,15.431L18.204,18.184L17.55,18.184C17.742,17.33 17.767,16.388 17.703,15.431ZM17.3,19.004L21.739,19.004L21.739,19.391C21.397,20.303 20.896,21.099 20.25,21.757L15.469,21.757L15.469,20.807C16.242,20.543 16.92,19.903 17.255,19.114C17.27,19.077 17.285,19.041 17.3,19.004ZM22.086,18.184L19.142,18.184L19.142,15.431L22.333,15.431C22.351,16.074 22.294,16.681 22.216,17.37C22.184,17.649 22.141,17.92 22.086,18.184ZM10.875,22.688L10.996,22.688L10.996,22.767C10.955,22.741 10.915,22.715 10.875,22.688ZM11.934,23.277L11.934,22.688L18.204,22.688L18.204,23.165C17.171,23.624 15.959,23.872 14.589,23.872C13.731,23.872 12.814,23.674 11.934,23.277ZM7.323,26.261L7.323,29.014L1.052,29.014L1.052,26.261L7.323,26.261ZM3.787,15.431L3.787,18.184L1.09,18.184L1.09,15.431L3.787,15.431ZM3.787,22.688L3.787,25.441L1.09,25.441L1.09,22.688L3.787,22.688ZM28.907,15.431L28.907,18.184L26.209,18.184L26.209,15.431L28.907,15.431ZM28.907,22.688L28.907,25.441L26.209,25.441L26.209,22.688L28.907,22.688ZM14.531,26.261L14.531,29.014L8.261,29.014L8.261,26.261L14.531,26.261ZM21.739,26.261L21.739,29.014L15.469,29.014L15.469,26.261L21.739,26.261ZM28.948,26.261L28.948,29.014L22.677,29.014L22.677,26.261L28.948,26.261Z"/>
        </g>
    </g>
</svg>
