<?xml version="1.0" encoding="UTF-8" standalone="no"?>
<!DOCTYPE svg PUBLIC "-//W3C//DTD SVG 1.1//EN" "http://www.w3.org/Graphics/SVG/1.1/DTD/svg11.dtd">
<svg width="100%" height="100%" viewBox="0 0 30 30" version="1.1" xmlns="http://www.w3.org/2000/svg" xmlns:xlink="http://www.w3.org/1999/xlink" xml:space="preserve" xmlns:serif="http://www.serif.com/" style="fill-rule:evenodd;clip-rule:evenodd;stroke-linejoin:round;stroke-miterlimit:2;">
    <g transform="matrix(0.00218308,0,0,0.00218308,2.47081,19.8265)">
        <g transform="matrix(486.247,0,0,486.247,-1869.42,-9819.67)">
            <path d="M18.184,16.073L18.866,15.154C13.029,12.762 9.785,9.466 9.785,9.466C13.34,12.145 18.22,13.746 19.6,14.165L21.32,11.848C21.547,11.542 21.935,11.401 22.306,11.49C22.676,11.579 22.958,11.881 23.022,12.256L23.906,17.467L28.915,19.152C29.277,19.273 29.531,19.599 29.561,19.979C29.591,20.359 29.391,20.72 29.053,20.897L24.371,23.348L24.317,28.632C24.313,29.014 24.082,29.356 23.73,29.502C23.378,29.648 22.972,29.57 22.7,29.303L18.922,25.607L13.879,27.189C13.515,27.303 13.118,27.189 12.871,26.899C12.623,26.609 12.572,26.199 12.741,25.858L13.999,23.323C8.106,18.88 3.658,11.413 3.658,11.413C6.627,15.915 12.921,20.216 14.901,21.503L15.079,21.143C5.026,13.913 1.826,1.793 1.826,1.793C4.872,9.987 16.312,15.257 18.184,16.073Z" style="fill-opacity:0.96;"/>
        </g>
        <g transform="matrix(-130.996,0,0,130.996,7668.87,-8314.45)">
            <path d="M6.987,17.027C7.072,16.827 7.268,16.698 7.485,16.698C7.702,16.698 7.898,16.827 7.984,17.027L9.165,19.795L12.162,20.063C12.379,20.082 12.563,20.229 12.63,20.435C12.697,20.642 12.634,20.869 12.471,21.011L10.203,22.99L10.874,25.924C10.923,26.136 10.84,26.356 10.665,26.483C10.489,26.611 10.254,26.621 10.068,26.51L7.485,24.965L4.902,26.51C4.716,26.621 4.481,26.611 4.305,26.483C4.13,26.356 4.047,26.136 4.096,25.924L4.767,22.99L2.499,21.011C2.336,20.869 2.273,20.642 2.34,20.435C2.407,20.229 2.591,20.082 2.808,20.063L5.805,19.795L6.987,17.027Z" style="fill-opacity:0.96;"/>
        </g>
        <g transform="matrix(-233.513,0,0,233.513,3547.28,-3074.39)">
            <path d="M6.987,17.027C7.072,16.827 7.268,16.698 7.485,16.698C7.702,16.698 7.898,16.827 7.984,17.027L9.165,19.795L12.162,20.063C12.379,20.082 12.563,20.229 12.63,20.435C12.697,20.642 12.634,20.869 12.471,21.011L10.203,22.99L10.874,25.924C10.923,26.136 10.84,26.356 10.665,26.483C10.489,26.611 10.254,26.621 10.068,26.51L7.485,24.965L4.902,26.51C4.716,26.621 4.481,26.611 4.305,26.483C4.13,26.356 4.047,26.136 4.096,25.924L4.767,22.99L2.499,21.011C2.336,20.869 2.273,20.642 2.34,20.435C2.407,20.229 2.591,20.082 2.808,20.063L5.805,19.795L6.987,17.027Z" style="fill-opacity:0.96;"/>
        </g>
        <g transform="matrix(-188.845,0,0,188.845,11438.1,-10754.5)">
            <path d="M6.987,17.027C7.072,16.827 7.268,16.698 7.485,16.698C7.702,16.698 7.898,16.827 7.984,17.027L9.165,19.795L12.162,20.063C12.379,20.082 12.563,20.229 12.63,20.435C12.697,20.642 12.634,20.869 12.471,21.011L10.203,22.99L10.874,25.924C10.923,26.136 10.84,26.356 10.665,26.483C10.489,26.611 10.254,26.621 10.068,26.51L7.485,24.965L4.902,26.51C4.716,26.621 4.481,26.611 4.305,26.483C4.13,26.356 4.047,26.136 4.096,25.924L4.767,22.99L2.499,21.011C2.336,20.869 2.273,20.642 2.34,20.435C2.407,20.229 2.591,20.082 2.808,20.063L5.805,19.795L6.987,17.027Z" style="fill-opacity:0.96;"/>
        </g>
        <g transform="matrix(-135.834,0,0,135.834,1203.92,-4484.71)">
            <path d="M6.987,17.027C7.072,16.827 7.268,16.698 7.485,16.698C7.702,16.698 7.898,16.827 7.984,17.027L9.165,19.795L12.162,20.063C12.379,20.082 12.563,20.229 12.63,20.435C12.697,20.642 12.634,20.869 12.471,21.011L10.203,22.99L10.874,25.924C10.923,26.136 10.84,26.356 10.665,26.483C10.489,26.611 10.254,26.621 10.068,26.51L7.485,24.965L4.902,26.51C4.716,26.621 4.481,26.611 4.305,26.483C4.13,26.356 4.047,26.136 4.096,25.924L4.767,22.99L2.499,21.011C2.336,20.869 2.273,20.642 2.34,20.435C2.407,20.229 2.591,20.082 2.808,20.063L5.805,19.795L6.987,17.027Z" style="fill-opacity:0.96;"/>
        </g>
        <g transform="matrix(-77.2273,0,0,77.2273,3339.24,-8841.26)">
            <path d="M6.987,17.027C7.072,16.827 7.268,16.698 7.485,16.698C7.702,16.698 7.898,16.827 7.984,17.027L9.165,19.795L12.162,20.063C12.379,20.082 12.563,20.229 12.63,20.435C12.697,20.642 12.634,20.869 12.471,21.011L10.203,22.99L10.874,25.924C10.923,26.136 10.84,26.356 10.665,26.483C10.489,26.611 10.254,26.621 10.068,26.51L7.485,24.965L4.902,26.51C4.716,26.621 4.481,26.611 4.305,26.483C4.13,26.356 4.047,26.136 4.096,25.924L4.767,22.99L2.499,21.011C2.336,20.869 2.273,20.642 2.34,20.435C2.407,20.229 2.591,20.082 2.808,20.063L5.805,19.795L6.987,17.027Z" style="fill-opacity:0.96;"/>
        </g>
    </g>
</svg>
